<svg viewBox="0 0 14 14" xmlns="http://www.w3.org/2000/svg" xmlns:xlink="http://www.w3.org/1999/xlink" width="14.000000" height="14.000000" fill="none">
	<rect id="IconCardTable" width="14.000000" height="14.000000" x="0.000000" y="0.000000" />
	<rect id="矩形 543959" width="14.000000" height="14.000000" x="0.000000" y="0.000000" opacity="0" fill="rgb(119,119,119)" />
	<g id="组合 31808">
		<path id="矢量 3009" d="M8.97167 0.939172C8.73834 0.705839 8.45056 0.589172 8.10834 0.589172L3.62834 0.589172C3.29001 0.589172 2.97695 0.674728 2.68918 0.845839C2.39751 1.02084 2.16612 1.25223 1.99501 1.54001C1.8239 1.82778 1.73834 2.14084 1.73834 2.47917L1.73834 11.5208C1.73834 11.867 1.8239 12.1839 1.99501 12.4717C2.16612 12.7633 2.39751 12.9928 2.68918 13.16C2.97695 13.3272 3.29001 13.4108 3.62834 13.4108L10.36 13.4108C10.7061 13.4108 11.0231 13.3272 11.3108 13.16C11.6025 12.9928 11.8339 12.7633 12.005 12.4717C12.1761 12.1839 12.2617 11.867 12.2617 11.5208L12.2617 4.73084C12.2617 4.39639 12.1411 4.10667 11.9 3.86167L8.97167 0.939172ZM9.03001 4.22917C8.90945 4.22917 8.8064 4.18445 8.72084 4.09501C8.63918 4.00556 8.59834 3.90056 8.59834 3.78001L8.59834 1.80834L11.0192 4.22917L9.03001 4.22917ZM3.62834 12.5417C3.34834 12.5417 3.10723 12.4425 2.90501 12.2442C2.70279 12.042 2.60168 11.8008 2.60168 11.5208L2.60168 2.47917C2.60168 2.19917 2.70279 1.95806 2.90501 1.75584C3.10723 1.55751 3.34834 1.45834 3.62834 1.45834L7.71168 1.45834L7.71168 3.78001C7.71168 4.02112 7.77001 4.24278 7.88668 4.44501C8.00334 4.64723 8.16279 4.80667 8.36501 4.92334C8.56723 5.04001 8.7889 5.09834 9.03001 5.09834L11.3808 5.09834L11.3808 11.5208C11.3808 11.8008 11.2817 12.042 11.0833 12.2442C10.8811 12.4425 10.64 12.5417 10.36 12.5417L3.62834 12.5417ZM6.72001 7.00001C6.84056 7.00001 6.94556 6.95723 7.03501 6.87167C7.12445 6.79001 7.16918 6.68889 7.16918 6.56834C7.16918 6.44389 7.12445 6.33889 7.03501 6.25334C6.94556 6.16389 6.84056 6.11917 6.72001 6.11917L4.38084 6.11917C4.26806 6.11917 4.1689 6.16389 4.08334 6.25334C3.9939 6.33889 3.94918 6.44389 3.94918 6.56834C3.94918 6.68889 3.9939 6.79001 4.08334 6.87167C4.1689 6.95723 4.26806 7.00001 4.38084 7.00001L6.72001 7.00001ZM4.38084 8.61001C4.26806 8.61001 4.1689 8.65278 4.08334 8.73834C3.9939 8.82001 3.94918 8.92112 3.94918 9.04167C3.94918 9.16612 3.9939 9.26917 4.08334 9.35084C4.1689 9.43639 4.26806 9.47917 4.38084 9.47917L9.61917 9.47917C9.73973 9.47917 9.84279 9.43639 9.92834 9.35084C10.01 9.26917 10.0508 9.16612 10.0508 9.04167C10.0508 8.92112 10.01 8.82001 9.92834 8.73834C9.84279 8.65278 9.73973 8.61001 9.61917 8.61001L4.38084 8.61001Z" fill="rgb(119,119,119)" fill-rule="nonzero" />
	</g>
</svg>
