<svg viewBox="0 0 24 24" xmlns="http://www.w3.org/2000/svg" xmlns:xlink="http://www.w3.org/1999/xlink" width="24.000000" height="24.000000" fill="none" customFrame="#000000">
	<defs>
		<linearGradient id="paint_linear_77" x1="12.0893354" x2="12.0893354" y1="0" y2="24.0000038" gradientUnits="userSpaceOnUse">
			<stop stop-color="rgb(249,250,251)" offset="0.00095607515" stop-opacity="1" />
			<stop stop-color="rgb(249,250,251)" offset="1" stop-opacity="1" />
		</linearGradient>
		<linearGradient id="paint_linear_78" x1="12.247201" x2="12.247201" y1="8.82128906" y2="17.705267" gradientUnits="userSpaceOnUse">
			<stop stop-color="rgb(242,108,24)" offset="0" stop-opacity="1" />
			<stop stop-color="rgb(255,162,69)" offset="1" stop-opacity="1" />
		</linearGradient>
		<linearGradient id="paint_linear_79" x1="12" x2="12" y1="0" y2="24" gradientUnits="userSpaceOnUse">
			<stop stop-color="rgb(242,108,24)" offset="0" stop-opacity="1" />
			<stop stop-color="rgb(250,147,45)" offset="1" stop-opacity="1" />
		</linearGradient>
		<linearGradient id="paint_linear_80" x1="18.0274353" x2="15.6763916" y1="3.64934111" y2="6.80209064" gradientUnits="userSpaceOnUse">
			<stop stop-color="rgb(229,102,23)" offset="0" stop-opacity="0.90196079" />
			<stop stop-color="rgb(242,108,24)" offset="1" stop-opacity="0" />
		</linearGradient>
		<linearGradient id="paint_linear_81" x1="16.3009281" x2="18.1908207" y1="4.83996725" y2="2.81096578" gradientUnits="userSpaceOnUse">
			<stop stop-color="rgb(255,192,122)" offset="0" stop-opacity="0.90196079" />
			<stop stop-color="rgb(255,171,87)" offset="0.999562919" stop-opacity="0.501960814" />
		</linearGradient>
		<g id="pixso_custom_effect_17">
			<effect x="0.000000" y="0.000000" visibility="visible" fill="rgb(0,0,0)" fill-opacity="0.101960786" effectType="dropShadow" stdDeviation="2.4000001" radius="0" />
		</g>
		<filter id="filter_17" width="11.380615" height="12.238159" x="6.758057" y="7.459839" filterUnits="userSpaceOnUse" customEffect="url(#pixso_custom_effect_17)" color-interpolation-filters="sRGB">
			<feFlood flood-opacity="0" result="BackgroundImageFix" />
			<feOffset dx="0.000000" dy="0.000000" in="SourceAlpha" />
			<feGaussianBlur stdDeviation="0.800000012" />
			<feColorMatrix type="matrix" values="0 0 0 0 0 0 0 0 0 0 0 0 0 0 0 0 0 0 0.101961 0 " />
			<feBlend result="effect_dropShadow_1" in2="BackgroundImageFix" mode="normal" />
			<feBlend result="shape" in="SourceGraphic" in2="effect_dropShadow_1" mode="normal" />
		</filter>
	</defs>
	<rect id="视频" width="24.000000" height="24.000000" x="0.000000" y="0.000000" />
	<g id="ic_video">
		<g id="doc备份 21" opacity="0">
			<rect id="矩形" width="24.000000" height="24.000000" x="0.000000" y="0.000000" fill="rgb(216,216,216)" fill-opacity="0" />
			<rect id="矩形" width="23.400000" height="23.400000" x="0.300000" y="0.300000" stroke="rgb(151,151,151)" stroke-opacity="0" stroke-width="0.600000" />
			<g id="word备份 2">
				<path id="矩形备份 113" d="M4.62522 0L15.2465 0C15.4814 0 15.707 0.0918635 15.8752 0.255969L20.5453 4.81469C20.7188 4.98405 20.8166 5.21626 20.8166 5.45872L20.8166 22.7368C20.8166 23.4345 20.2511 24 19.5534 24L4.62522 24C3.9276 24 3.36206 23.4345 3.36206 22.7368L3.36206 1.26316C3.36206 0.565535 3.9276 0 4.62522 0Z" fill="url(#paint_linear_77)" fill-rule="evenodd" />
				<path id="矩形备份 113" d="M4.62522 0L15.2465 0C15.4814 0 15.707 0.0918635 15.8752 0.255969L20.5453 4.81469C20.7188 4.98405 20.8166 5.21626 20.8166 5.45872L20.8166 22.7368C20.8166 23.4345 20.2511 24 19.5534 24L4.62522 24C3.9276 24 3.36206 23.4345 3.36206 22.7368L3.36206 1.26316C3.36206 0.565535 3.9276 0 4.62522 0ZM15.2465 0.3L4.62522 0.3Q4.42574 0.3 4.25548 0.370524L4.25548 0.370525L4.25547 0.370529Q4.08521 0.441055 3.94416 0.582102Q3.80311 0.723152 3.73259 0.893414L3.73259 0.893418L3.73259 0.893419Q3.66206 1.06368 3.66206 1.26316L3.66206 22.7368C3.66206 22.8698 3.68557 22.9931 3.73259 23.1066C3.7796 23.2201 3.85013 23.3239 3.94416 23.4179Q4.08516 23.5589 4.25536 23.6294L4.25548 23.6295Q4.42574 23.7 4.62522 23.7L19.5534 23.7C19.6864 23.7 19.8097 23.6765 19.9232 23.6295C20.0367 23.5825 20.1405 23.5119 20.2345 23.4179C20.3285 23.3239 20.3991 23.2201 20.4461 23.1066C20.4931 22.9931 20.5166 22.8698 20.5166 22.7368L20.5166 5.45872Q20.5166 5.33237 20.4714 5.22505L20.4714 5.22499C20.4412 5.15343 20.396 5.08822 20.3357 5.02936L15.6656 0.470646C15.6073 0.413766 15.5433 0.371105 15.4734 0.342664C15.4036 0.314221 15.3279 0.3 15.2465 0.3Z" fill="rgb(227,228,230)" fill-rule="evenodd" />
				<path id="路径" d="M20.6407 5.24712C20.4927 5.0501 20.2572 4.92254 19.9919 4.92254L17.0474 4.92254C16.4352 4.92254 15.9389 4.42585 15.9389 3.81315L15.9393 0.87333C15.9395 0.867002 15.9395 0.860657 15.9395 0.854294C15.9395 0.649193 15.8635 0.461869 15.738 0.319031" fill="rgb(227,228,230)" fill-opacity="0.200000003" fill-rule="evenodd" />
				<path id="路径" d="M20.6407 5.24712C20.4927 5.0501 20.2572 4.92254 19.9919 4.92254L17.0474 4.92254C16.4352 4.92254 15.9389 4.42585 15.9389 3.81315L15.9393 0.87333C15.9395 0.867002 15.9395 0.860657 15.9395 0.854294C15.9395 0.649193 15.8635 0.461869 15.738 0.319031" fill-rule="evenodd" stroke="rgb(227,228,230)" stroke-linecap="round" stroke-linejoin="round" stroke-width="0.300000" />
				<path id="形状结合" d="M15.6099 11.9236C15.6099 10.2215 14.2297 8.82129 12.5328 8.82129L12.5328 8.82224C12.5214 8.82167 12.51 8.82138 12.4985 8.82138L9.91202 8.82138L9.85165 8.82313C9.31228 8.85438 8.88452 9.30168 8.88452 9.84889L8.88452 17.0342L8.88654 17.0867C8.91329 17.4328 9.20261 17.7053 9.55557 17.7053L9.60802 17.7032C9.95412 17.6765 10.2266 17.3872 10.2266 17.0342L10.2266 15.0007L12.5328 15.0007L12.6235 14.9994C14.281 14.9514 15.6099 13.5927 15.6099 11.9236ZM10.2265 13.6586L12.5328 13.6586C13.491 13.6586 14.2678 12.8818 14.2678 11.9236C14.2678 10.9838 13.5248 10.2054 12.6075 10.165L12.5328 10.1634L12.5328 10.1622L12.4985 10.1635L10.2265 10.1633L10.2265 13.6586Z" fill="url(#paint_linear_78)" fill-rule="evenodd" />
			</g>
		</g>
		<g id="doc备份 24">
			<rect id="矩形" width="24.000000" height="24.000000" x="0.000000" y="0.000000" fill="rgb(216,216,216)" fill-opacity="0" />
			<rect id="矩形" width="23.400000" height="23.400000" x="0.300000" y="0.300000" stroke="rgb(151,151,151)" stroke-opacity="0" stroke-width="0.600000" />
			<g id="word备份 9">
				<path id="矩形备份 113" d="M4.26316 0L14.9947 0C15.2332 0 15.4619 0.0946478 15.6306 0.263157L20.7359 5.36132C20.905 5.53014 21 5.75925 21 5.99816L21 22.7368C21 23.4345 20.4345 24 19.7368 24L4.26316 24C3.56554 24 3 23.4345 3 22.7368L3 1.26316C3 0.565535 3.56554 0 4.26316 0Z" fill="url(#paint_linear_79)" fill-rule="evenodd" />
				<path id="矩形备份 137" d="M4.26316 0L14.9947 0C15.2332 0 15.4619 0.0946478 15.6306 0.263157L20.7359 5.36132C20.905 5.53014 21 5.75925 21 5.99816L21 22.7368C21 23.4345 20.4345 24 19.7368 24L4.26316 24C3.56554 24 3 23.4345 3 22.7368L3 1.26316C3 0.565535 3.56554 0 4.26316 0Z" fill="url(#paint_linear_80)" fill-rule="evenodd" />
				<path id="形状结合" d="M15.4935 0.101896L15.4958 0.104186C15.4949 0.10335 15.4939 0.102516 15.4929 0.101685L15.4935 0.101896ZM15.7992 3.96927L15.7992 0.803213C15.7996 0.791657 15.7999 0.780043 15.7999 0.768377C15.7999 0.548415 15.7189 0.347356 15.5852 0.193357L20.7389 5.33485C20.7958 5.39153 20.8459 5.45376 20.8888 5.52031C20.7287 5.30702 20.4737 5.16903 20.1865 5.16903C20.1796 5.16903 20.1727 5.16911 20.1658 5.16927L16.9992 5.16927C16.3364 5.16927 15.7992 4.63202 15.7992 3.96927Z" fill="url(#paint_linear_81)" fill-rule="evenodd" />
				<g filter="url(#filter_17)">
					<path id="多边形备份 5" d="M4.55645 0.786742L7.75023 6.31852C7.9521 6.66818 7.69976 7.10526 7.296 7.10526L0.908451 7.10526C0.504695 7.10526 0.252348 6.66818 0.454226 6.31852L3.648 0.786742C3.84988 0.437079 4.35457 0.437079 4.55645 0.786742Z" fill="rgb(255,255,255)" fill-rule="evenodd" transform="matrix(0,1,-1,0,16.2632,9.47668)" />
				</g>
			</g>
		</g>
	</g>
</svg>
