<svg viewBox="0 0 28 28" xmlns="http://www.w3.org/2000/svg" width="28" height="28" fill="none">
	<defs>
		<linearGradient id="iconCardDocPurple_a" x1="4.67822456" x2="27.2449398" y1="3.21997261" y2="23.1699238" gradientUnits="userSpaceOnUse">
			<stop stop-color="rgb(120,123,255)" offset="0" stop-opacity="1" />
			<stop stop-color="rgb(0,79,255)" offset="1" stop-opacity="1" />
		</linearGradient>
		<linearGradient id="iconCardDocPurple_b" x1="2.916749" x2="12.2383833" y1="2.04168749" y2="11.3866577" gradientUnits="userSpaceOnUse">
			<stop stop-color="rgb(120,123,255)" offset="0" stop-opacity="1" />
			<stop stop-color="rgb(0,79,255)" offset="1" stop-opacity="1" />
		</linearGradient>
	</defs>
	<path d="M12.9616 12.9616C12.7204 12.9616 12.5104 13.0511 12.3316 13.23C12.1527 13.4089 12.0632 13.6189 12.0632 13.86C12.0632 14.1011 12.1527 14.3111 12.3316 14.49C12.5104 14.6689 12.7204 14.7583 12.9616 14.7583L19.6582 14.7583C19.9149 14.7583 20.1288 14.6689 20.2999 14.49C20.471 14.3111 20.5566 14.1011 20.5566 13.86C20.5566 13.6189 20.4671 13.4089 20.2882 13.23C20.1093 13.0511 19.8993 12.9616 19.6582 12.9616L12.9616 12.9616ZM14.0582 3.21997C13.8171 3.21997 13.6071 3.30553 13.4282 3.47664C13.2493 3.63997 13.1599 3.84219 13.1599 4.0833C13.1599 4.33219 13.2493 4.54219 13.4282 4.7133C13.6071 4.89219 13.8171 4.98164 14.0582 4.98164L19.9966 4.98164C20.5332 4.98164 21.0349 5.12553 21.5016 5.4133C21.9682 5.70886 22.3377 6.09775 22.6099 6.57997C22.8821 7.06219 23.0182 7.59497 23.0182 8.1783L23.0182 20.9766C23.0182 21.5522 22.8821 22.0811 22.6099 22.5633C22.3377 23.0533 21.9682 23.4422 21.5016 23.73C21.0349 24.0177 20.5332 24.1616 19.9966 24.1616L9.46156 24.1616C8.92489 24.1616 8.42322 24.0177 7.95656 23.73C7.48989 23.4422 7.12045 23.0533 6.84822 22.5633C6.576 22.0811 6.43989 21.5522 6.43989 20.9766L6.43989 13.4983C6.43989 13.2572 6.35044 13.0511 6.17156 12.88C5.99267 12.7089 5.78267 12.6233 5.54156 12.6233C5.30044 12.6233 5.09433 12.7089 4.92322 12.88C4.75989 13.0511 4.67822 13.2572 4.67822 13.4983L4.67822 20.9766C4.67822 21.8711 4.89211 22.6994 5.31989 23.4616C5.74767 24.2316 6.32711 24.8383 7.05822 25.2816C7.78156 25.7328 8.58267 25.9583 9.46156 25.9583L19.9966 25.9583C20.8677 25.9583 21.6688 25.7328 22.3999 25.2816C23.131 24.8383 23.7104 24.2316 24.1382 23.4616C24.566 22.6994 24.7799 21.8711 24.7799 20.9766L24.7799 8.1783C24.7799 7.28386 24.566 6.45553 24.1382 5.6933C23.7104 4.93886 23.131 4.33997 22.3999 3.89664C21.6688 3.44553 20.8677 3.21997 19.9966 3.21997L14.0582 3.21997ZM9.79989 17.5816C9.55878 17.5816 9.34878 17.6711 9.16989 17.85C8.991 18.0289 8.90156 18.2389 8.90156 18.48C8.90156 18.7211 8.991 18.9311 9.16989 19.11C9.34878 19.2889 9.55878 19.3783 9.79989 19.3783L19.6582 19.3783C19.9149 19.3783 20.1288 19.2889 20.2999 19.11C20.471 18.9311 20.5566 18.7211 20.5566 18.48C20.5566 18.2389 20.4671 18.0289 20.2882 17.85C20.1093 17.6711 19.8993 17.5816 19.6582 17.5816L9.79989 17.5816Z" fill="url(#iconCardDocPurple_a)" fill-rule="nonzero" />
	<path d="M7.58342 2.04169C7.47453 2.04169 7.40064 2.10002 7.36175 2.21669C7.13619 3.27446 6.63453 4.19613 5.85675 4.98169C5.07119 5.76724 4.14564 6.2728 3.08008 6.49835C3.04119 6.49835 3.0023 6.5178 2.96341 6.55669C2.9323 6.5878 2.91675 6.64224 2.91675 6.72002C2.91675 6.77447 2.9323 6.82113 2.96341 6.86002C3.0023 6.89891 3.04119 6.92613 3.08008 6.94169C4.16119 7.16724 5.09064 7.66891 5.86841 8.44669C6.63841 9.21669 7.13619 10.1345 7.36175 11.2C7.36175 11.2389 7.38119 11.2778 7.42008 11.3167C7.45897 11.3478 7.51341 11.3634 7.58342 11.3634C7.66119 11.3634 7.73897 11.3089 7.81675 11.2C8.03453 10.1189 8.5323 9.19335 9.31008 8.42335C10.0879 7.66113 11.0056 7.16724 12.0634 6.94169C12.1956 6.9028 12.2617 6.82891 12.2617 6.72002C12.2617 6.64224 12.2423 6.5878 12.2034 6.55669C12.1723 6.5178 12.1256 6.49835 12.0634 6.49835C11.0056 6.2728 10.0879 5.76724 9.31008 4.98169C8.5323 4.19613 8.03453 3.27446 7.81675 2.21669C7.79341 2.10002 7.71564 2.04169 7.58342 2.04169Z" fill="url(#iconCardDocPurple_b)" fill-rule="nonzero" />
</svg>
