<svg viewBox="0 0 24 24" xmlns="http://www.w3.org/2000/svg" xmlns:xlink="http://www.w3.org/1999/xlink" width="24.000000" height="24.000000" fill="none">
	<defs>
		<linearGradient id="paint_linear_65" x1="12" x2="12" y1="0" y2="24" gradientUnits="userSpaceOnUse">
			<stop stop-color="rgb(87,194,78)" offset="0" stop-opacity="1" />
			<stop stop-color="rgb(138,224,130)" offset="1" stop-opacity="1" />
		</linearGradient>
		<linearGradient id="paint_linear_66" x1="18.6774883" x2="13.2918692" y1="2.89534187" y2="10.1117392" gradientUnits="userSpaceOnUse">
			<stop stop-color="rgb(73,182,64)" offset="0" stop-opacity="0.800000012" />
			<stop stop-color="rgb(73,182,64)" offset="0.450136989" stop-opacity="0.301960796" />
			<stop stop-color="rgb(122,215,114)" offset="1" stop-opacity="0" />
		</linearGradient>
		<linearGradient id="paint_linear_67" x1="16.16078" x2="18.2356205" y1="4.88145399" y2="2.85554934" gradientUnits="userSpaceOnUse">
			<stop stop-color="rgb(136,224,129)" offset="0" stop-opacity="1" />
			<stop stop-color="rgb(135,223,128)" offset="1" stop-opacity="0.400000006" />
		</linearGradient>
	</defs>
	<rect id="svg" width="24.000000" height="24.000000" x="0.000000" y="0.000000" />
	<path id="矩形备份 113" d="M4.263 0L14.994 0C15.2325 0 15.4612 0.0945 15.63 0.2625L20.7352 5.361C20.9048 5.52975 21 5.75925 21 5.99775L21 22.7362C21 23.4338 20.4338 24 19.7362 24L4.263 24C3.5655 24 3 23.4338 3 22.7362L3 1.263C3 0.5655 3.5655 0 4.263 0Z" fill="url(#paint_linear_65)" fill-rule="evenodd" />
	<path id="矩形备份 137" d="M4.263 0L14.994 0C15.2325 0 15.4612 0.0945 15.63 0.2625L20.7352 5.361C20.9048 5.52975 21 5.75925 21 5.99775L21 22.7362C21 23.4338 20.4338 24 19.7362 24L4.263 24C3.5655 24 3 23.4338 3 22.7362L3 1.263C3 0.5655 3.5655 0 4.263 0Z" fill="url(#paint_linear_66)" fill-rule="evenodd" />
	<path id="形状结合" d="M15.4934 0.101751L15.5012 0.109533C15.498 0.106695 15.4967 0.104553 15.4934 0.101751ZM15.7998 0.768622C15.7998 0.780337 15.7996 0.791985 15.7991 0.80358L15.7991 3.96912C15.7991 4.63187 16.3363 5.16912 16.9991 5.16912L20.1865 5.16912C20.4751 5.16912 20.7315 5.30896 20.8915 5.52449C20.848 5.45632 20.7969 5.39262 20.7388 5.33471L15.58 0.188122C15.7168 0.342883 15.7998 0.546167 15.7998 0.768622Z" fill="url(#paint_linear_67)" fill-rule="evenodd" />
	<path id="路径 16" d="M11.3988 15.4688L11.0725 15.342L13.5955 15.342L13.2678 15.4635C13.3368 15.6502 13.5363 15.7447 13.723 15.6757C13.9098 15.6068 14.002 15.4058 13.933 15.219L13.5955 15.342L12.3663 12L11.0725 15.342L10.7388 15.213C10.6668 15.3983 10.7545 15.6015 10.9398 15.6735C11.125 15.7455 11.3268 15.654 11.3988 15.4688Z" fill="rgb(216,216,216)" fill-opacity="0" fill-rule="evenodd" />
	<path id="路径 17" d="M11.6854 14.6804C11.4866 14.6804 11.3291 14.5252 11.3291 14.3264C11.3291 14.1277 11.4851 13.9709 11.6839 13.9709L11.6854 14.6804ZM13.0511 13.9724C13.2499 13.9724 13.4081 14.1277 13.4081 14.3264C13.4081 14.5252 13.2514 14.6819 13.0526 14.6819L13.0511 13.9724Z" fill="rgb(216,216,216)" fill-opacity="0" fill-rule="nonzero" />
	<path id="路径 9备份 4" d="M9.45135 12.1373C9.86985 12.3773 9.8976 12.9548 9.89835 12.9886L10.2524 12.9788C10.2576 13.1776 10.1069 13.3396 9.9081 13.3448C9.9051 13.3448 9.9021 13.3448 9.89835 13.3448L9.89835 14.0408C10.0979 14.0408 10.2539 14.1976 10.2539 14.3963L9.89835 14.3978C9.8976 15.1081 9.2931 15.2918 9.2931 15.2918C9.2931 15.2918 8.4621 15.4276 8.02485 15.0608C7.69485 14.8028 7.60485 14.1533 7.60485 14.1533C7.60485 14.1533 7.53735 13.5338 7.64235 12.9901C7.74735 12.4456 8.1501 12.1913 8.1501 12.1913C8.1501 12.1913 8.8161 11.8373 9.45135 12.1373Z" fill="rgb(216,216,216)" fill-opacity="0" fill-rule="evenodd" />
	<g id="X">
		<path id="矢量 806" d="M14.0272 17.774L15.3027 17.774C15.4434 17.774 15.5278 17.6178 15.4507 17.5001L12.9431 13.6708C12.9051 13.6126 12.9046 13.5376 12.9418 13.4789L15.2607 9.831C15.3356 9.71318 15.2509 9.55908 15.1113 9.55908L13.9016 9.55908C13.8396 9.55908 13.7822 9.59148 13.7501 9.6445L12.1575 12.2789C12.0889 12.3924 11.9245 12.3929 11.8552 12.2798L10.239 9.64356C10.2068 9.59108 10.1497 9.55908 10.0881 9.55908L8.86841 9.55908C8.72839 9.55908 8.64382 9.71398 8.71954 9.83177L11.0357 13.4346C11.0731 13.4929 11.0732 13.5677 11.0357 13.626L8.54533 17.5013C8.46964 17.6191 8.55421 17.774 8.69422 17.774L9.90589 17.774C9.96729 17.774 10.0243 17.7422 10.0565 17.6899L11.8197 14.8311C11.8889 14.7189 12.0521 14.719 12.1211 14.8314L13.8764 17.6896C13.9086 17.742 13.9657 17.774 14.0272 17.774Z" fill="rgb(255,255,255)" fill-rule="evenodd" />
	</g>
</svg>
