<svg viewBox="0 0 14.6533 11.9067" xmlns="http://www.w3.org/2000/svg" xmlns:xlink="http://www.w3.org/1999/xlink" width="14.653320" height="11.906738" fill="none" customFrame="#000000">
	<g id="组合 31871">
		<path id="矢量 3070" d="M12.9267 2.75333C12.8289 2.14444 12.5511 1.63778 12.0933 1.23333C11.6356 0.828889 11.0911 0.626667 10.46 0.626667L5.28 0.626667C5.17333 0.435556 5.01778 0.282222 4.81333 0.166667C4.61333 0.0555556 4.4 0 4.17333 0L2.22 0C1.81556 0 1.44222 0.102222 1.1 0.306667C0.762222 0.506667 0.493333 0.777778 0.293333 1.12C0.0977778 1.46222 0 1.83556 0 2.24L0 9.66667C0 10.0711 0.0977778 10.4467 0.293333 10.7933C0.493333 11.14 0.762222 11.4111 1.1 11.6067C1.44222 11.8067 1.81556 11.9067 2.22 11.9067L12.4333 11.9067C12.8378 11.9067 13.2111 11.8067 13.5533 11.6067C13.8911 11.4111 14.16 11.14 14.36 10.7933C14.5556 10.4467 14.6533 10.0711 14.6533 9.66667L14.6533 4.92667C14.6533 4.40667 14.4911 3.94444 14.1667 3.54C13.8422 3.13111 13.4289 2.86889 12.9267 2.75333ZM6.7 2.70667C6.66889 2.70667 6.63778 2.7 6.60667 2.68667C6.57556 2.67778 6.54667 2.66222 6.52 2.64C6.49333 2.61778 6.46889 2.59111 6.44667 2.56L5.88667 1.63333L10.46 1.63333C10.8022 1.63333 11.1044 1.73111 11.3667 1.92667C11.6289 2.12667 11.8022 2.38667 11.8867 2.70667L6.7 2.70667ZM13.6467 9.66667C13.6467 10.0089 13.5267 10.3022 13.2867 10.5467C13.0467 10.7911 12.7556 10.9133 12.4133 10.9133L2.22 10.9133C1.88222 10.9133 1.59333 10.7911 1.35333 10.5467C1.11333 10.3022 0.993333 10.0089 0.993333 9.66667L0.993333 2.24C0.993333 1.89778 1.11333 1.60667 1.35333 1.36667C1.59333 1.12667 1.88222 1.00667 2.22 1.00667L4.17333 1.00667C4.22667 1.00667 4.27778 1.02 4.32667 1.04667C4.37556 1.07333 4.41111 1.10889 4.43333 1.15333L5.6 3.07333C5.70667 3.26444 5.86 3.41556 6.06 3.52667C6.26444 3.64222 6.47778 3.7 6.7 3.7L12.4333 3.7C12.7711 3.7 13.06 3.82 13.3 4.06C13.54 4.3 13.66 4.58889 13.66 4.92667L13.6467 9.66667Z" fill="rgb(10,89,247)" fill-rule="nonzero" />
	</g>
</svg>
