<svg viewBox="0 0 20 20" xmlns="http://www.w3.org/2000/svg" width="20" height="20" fill="none">
	<rect width="20" height="20" x="0" y="0" rx="10" fill="rgb(231,67,74)" />
	<path d="M14.8686 5.81199C14.9562 5.71205 15 5.59963 15 5.4747C15 5.34978 14.9562 5.24152 14.8686 5.14991C14.7768 5.04997 14.6662 5 14.5369 5C14.4076 5 14.297 5.04997 14.2053 5.14991L10 9.34728L5.79474 5.14991C5.70296 5.04997 5.59241 5 5.46308 5C5.33375 5 5.21902 5.04997 5.1189 5.14991C5.03963 5.24152 5 5.34978 5 5.4747C5 5.59963 5.03963 5.71205 5.1189 5.81199L9.33667 10.0094L5.1189 14.1943C5.03963 14.2942 5 14.4087 5 14.5378C5 14.6669 5.03963 14.7772 5.1189 14.8688C5.21902 14.9479 5.33375 14.9896 5.46308 14.9938C5.59241 14.9979 5.70296 14.9563 5.79474 14.8688L10 10.6715L14.2053 14.8688C14.297 14.9563 14.4076 15 14.5369 15C14.6662 15 14.7768 14.9563 14.8686 14.8688C14.9562 14.7772 15 14.6669 15 14.5378C15 14.4087 14.9562 14.2942 14.8686 14.1943L10.6633 10.0094L14.8686 5.81199Z" fill="rgb(255,255,255)" fill-rule="nonzero" />
</svg>
