<svg viewBox="0 0 166 166" xmlns="http://www.w3.org/2000/svg" xmlns:xlink="http://www.w3.org/1999/xlink" width="166.000015" height="166.000015" fill="none" customFrame="#000000">
	<mask id="mask_1" width="166.000015" height="166.000015" x="0.000000" y="0.000000" maskUnits="userSpaceOnUse">
		<g filter="url(#pixso_custom_mask_type_outline)">
			<circle id="椭圆形" cx="83.0000076" cy="83.0000076" r="83.0000076" fill="rgb(255,255,255)" />
			<circle id="椭圆形" cx="83.0000076" cy="83.0000076" r="74.4404907" stroke="rgb(151,151,151)" stroke-opacity="0" stroke-width="17.119041" />
		</g>
	</mask>
	<defs>
		<filter id="pixso_custom_mask_type_outline">
			<feColorMatrix type="matrix" values="0 0 0 0 1 0 0 0 0 1 0 0 0 0 1 0 0 0 1 0 " />
		</filter>
		<radialGradient id="paint_radial_0" cx="0" cy="0" r="1" gradientUnits="userSpaceOnUse" gradientTransform="matrix(34.1869,76.7662,-76.7662,34.1869,76.7661,28.4474)">
			<stop stop-color="rgb(113,90,251)" offset="0" stop-opacity="1" />
			<stop stop-color="rgb(168,159,249)" offset="1" stop-opacity="1" />
		</radialGradient>
		<radialGradient id="paint_radial_1" cx="0" cy="0" r="1" gradientUnits="userSpaceOnUse" gradientTransform="matrix(-111.256,94.1473,-94.1473,-111.256,-0.569181,76.0636)">
			<stop stop-color="rgb(138,254,200)" offset="0" stop-opacity="1" />
			<stop stop-color="rgb(164,236,241)" offset="1" stop-opacity="0" />
		</radialGradient>
		<radialGradient id="paint_radial_2" cx="0" cy="0" r="1" gradientUnits="userSpaceOnUse" gradientTransform="matrix(104.061,20.1046,-20.1046,104.061,-19.9266,79.8726)">
			<stop stop-color="rgb(32,112,243)" offset="0" stop-opacity="0" />
			<stop stop-color="rgb(63,33,181)" offset="0.996612787" stop-opacity="1" />
		</radialGradient>
		<linearGradient id="paint_linear_0" x1="63.2138824" x2="95.4602966" y1="87.6759644" y2="27.548378" gradientUnits="userSpaceOnUse">
			<stop stop-color="rgb(32,112,243)" offset="0" stop-opacity="0" />
			<stop stop-color="rgb(51,95,255)" offset="1" stop-opacity="1" />
		</linearGradient>
		<radialGradient id="paint_radial_3" cx="0" cy="0" r="1" gradientUnits="userSpaceOnUse" gradientTransform="matrix(-126.777,-108.037,108.044,-126.786,20.7622,62.0729)">
			<stop stop-color="rgb(25,24,255)" offset="0" stop-opacity="1" />
			<stop stop-color="rgb(255,255,255)" offset="1" stop-opacity="0" />
		</radialGradient>
		<linearGradient id="paint_linear_1" x1="54.9671898" x2="50.341095" y1="2.61999369" y2="30.320303" gradientUnits="userSpaceOnUse">
			<stop stop-color="rgb(190,228,158)" offset="0.0857939348" stop-opacity="1" />
			<stop stop-color="rgb(154,211,115)" offset="1" stop-opacity="1" />
		</linearGradient>
		<linearGradient id="paint_linear_2" x1="24.3134365" x2="24.3134365" y1="0" y2="80.4037552" gradientUnits="userSpaceOnUse">
			<stop stop-color="rgb(142,229,194)" offset="0" stop-opacity="1" />
			<stop stop-color="rgb(99,213,168)" offset="1" stop-opacity="1" />
		</linearGradient>
	</defs>
	<mask id="mask_0" width="166.000015" height="166.000015" x="0.000000" y="0.000000" maskUnits="userSpaceOnUse">
		<g filter="url(#pixso_custom_mask_type_outline)">
			<circle id="椭圆形" cx="83.0000076" cy="83.0000076" r="83.0000076" fill="rgb(255,255,255)" />
			<circle id="椭圆形" cx="83.0000076" cy="83.0000076" r="74.4404907" stroke="rgb(151,151,151)" stroke-opacity="0" stroke-width="17.119041" />
		</g>
	</mask>
	<g id="蒙版" mask="url(#mask_0)">
		<g mask="url(#mask_1)">
			<path id="路径 11" d="M86.3676 0C86.3676 0 95.4191 41.7765 89.9371 53.9616C85.1659 64.5668 65.758 63.5802 59.4711 68.8019C39.2052 85.6336 12.5726 92.889 3.83015 85.5483C-4.91227 78.2077 0.0386162 50.2003 32.0232 51.7578C64.0078 53.3153 86.3676 0 86.3676 0Z" fill="url(#paint_radial_0)" fill-rule="evenodd" transform="matrix(-1,0,0,1,86.827,76.4997)" />
			<path id="路径 11" d="M86.3676 0C86.3676 0 88.9561 10.4149 90.4635 24.4129C90.4711 24.4832 90.8587 27.8396 90.8662 27.91C91.3666 32.6042 91.7004 37.3242 91.7004 41.5649C91.7004 46.6984 91.2113 51.1294 89.9371 53.9616C85.1659 64.5668 65.758 63.5802 59.4711 68.8019C39.2052 85.6336 12.5726 92.889 3.83015 85.5483C1.37519 83.487 0 79.796 0 75.5876C0 64.8094 9.02025 50.6377 32.0232 51.7578C49.1182 52.5902 63.4638 37.7475 73.1154 23.7478C81.522 11.5541 86.3676 0 86.3676 0ZM23.8157 69.4155C23.2853 69.5467 22.7806 69.6993 22.3017 69.8733C22.3792 69.851 22.457 69.8285 22.535 69.8058C22.9607 69.6816 23.3876 69.5515 23.8157 69.4155Z" fill="rgb(151,151,151)" fill-opacity="0" fill-rule="evenodd" transform="matrix(-1,0,0,1,86.827,76.4997)" />
			<path id="路径 8" d="M3.55013 76.6913C6.42342 77.0928 7.95674 74.693 8.42803 74.0841C13.3516 67.7235 24.4366 57.0308 57.3461 61.1385C105.105 67.0998 140.559 63.2465 143.651 39.3661C146.742 15.4856 89.3597 -9.73804 49.1097 3.79132C8.8598 17.3207 -7.96155 74.8619 3.55013 76.6913Z" fill="rgb(151,170,252)" fill-rule="evenodd" transform="matrix(-1,0,0,1,164.531,-1.54617)" />
			<path id="路径 8" d="M3.55013 76.6913C6.42342 77.0928 7.95674 74.693 8.42803 74.0841C13.3516 67.7235 24.4366 57.0308 57.3461 61.1385C105.105 67.0998 140.559 63.2465 143.651 39.3661C146.742 15.4856 89.3597 -9.73804 49.1097 3.79132C8.8598 17.3207 -7.96155 74.8619 3.55013 76.6913Z" fill="url(#paint_radial_1)" fill-opacity="0.850000024" fill-rule="evenodd" transform="matrix(-1,0,0,1,164.531,-1.54617)" />
			<path id="路径 8" d="M3.55013 76.6913C1.17821 76.3143 0.063973 75.049 0.0548773 70.8139C0.0548416 70.7973 0 69.3039 0 69.2873C0 66.6701 0.440483 63.4873 1.31141 59.943C1.64486 58.5859 2.04141 57.1759 2.50049 55.7244C8.33194 37.2862 24.2534 12.1464 49.1097 3.79132C88.3134 -9.38637 143.77 14.2005 143.77 37.5019C143.77 38.1237 143.731 38.7453 143.651 39.3661C140.559 63.2465 105.105 67.0998 57.3461 61.1385C36.869 58.5826 24.8416 61.7568 17.4905 66.0522C17.0508 66.3091 16.6279 66.57 16.2209 66.8339C12.4962 69.2493 10.1048 71.918 8.42803 74.0841C8.39386 74.1283 8.3541 74.1818 8.30866 74.2431C7.72732 75.0263 6.21506 77.0637 3.55013 76.6913ZM26.2938 44.7616Q40.6189 41.7988 59.4665 44.1513Q95.1335 48.6033 113.723 44.6909C118.888 43.6039 122.594 42.1555 124.843 40.3457C125.443 39.8621 125.878 39.3847 126.147 38.9134C126.347 38.5637 126.497 38.1369 126.597 37.6331C126.587 37.6097 126.577 37.5855 126.565 37.5603Q125.87 36.0438 123.806 34.0032C121.966 32.1838 119.614 30.395 116.751 28.6369Q112.074 25.7654 106.273 23.4436Q100.839 21.2692 95.2166 19.8385L95.216 19.8383Q87.7736 17.9446 79.9997 17.3538Q65.7192 16.2686 54.5641 20.0182Q44.4929 23.4035 35.7205 32.5094Q30.4285 38.0026 26.2938 44.7616Z" fill="rgb(151,151,151)" fill-opacity="0" fill-rule="evenodd" transform="matrix(-1,0,0,1,164.531,-1.54617)" />
			<path id="路径 9" d="M0.0627178 1.63653C1.71522 -1.21459 31.6164 -1.21459 51.4086 8.85464C71.2007 18.9239 84.8385 35.7064 92.7566 58.8074C100.675 81.9085 92.7816 121.763 59.0555 129.531C25.3293 137.299 15.5285 98.927 22.7764 58.8074C30.0243 18.6878 -1.58978 4.48765 0.0627178 1.63653Z" fill="rgb(92,162,233)" fill-rule="evenodd" transform="matrix(-1,0,0,1,95.0806,-1.63626)" />
			<path id="路径 9" d="M0.0627178 1.63653C1.71522 -1.21459 31.6164 -1.21459 51.4086 8.85464C71.2007 18.9239 84.8385 35.7064 92.7566 58.8074C100.675 81.9085 92.7816 121.763 59.0555 129.531C25.3293 137.299 15.5285 98.927 22.7764 58.8074C30.0243 18.6878 -1.58978 4.48765 0.0627178 1.63653Z" fill="url(#paint_radial_2)" fill-opacity="0" fill-rule="evenodd" transform="matrix(-1,0,0,1,95.0806,-1.63626)" />
			<path id="路径 9" d="M0.0627178 1.63653C1.71522 -1.21459 31.6164 -1.21459 51.4086 8.85464C71.2007 18.9239 84.8385 35.7064 92.7566 58.8074C100.675 81.9085 92.7816 121.763 59.0555 129.531C25.3293 137.299 15.5285 98.927 22.7764 58.8074C30.0243 18.6878 -1.58978 4.48765 0.0627178 1.63653Z" fill="url(#paint_linear_0)" fill-rule="evenodd" transform="matrix(-1,0,0,1,95.0806,-1.63626)" />
			<path id="路径 9" d="M17.0389 0.248709C18.9215 0.382875 20.898 0.57395 22.9348 0.828232C32.2284 1.98844 42.7793 4.4645 51.4086 8.85464C71.2007 18.9239 84.8385 35.7064 92.7566 58.8074C94.6028 64.1938 95.5894 70.491 95.5894 77.0799C95.5894 98.7494 84.9179 123.574 59.0555 129.531C32.2148 135.713 20.5276 112.672 20.5276 82.7834C20.5276 75.1161 21.2967 66.9982 22.7764 58.8074C23.5238 54.6703 23.858 50.8088 23.858 47.2069C23.858 33.9687 19.3441 24.2378 14.2431 17.2211C13.4314 16.1045 12.6048 15.0566 11.7791 14.0743C8.71433 10.4279 5.66274 7.68445 3.4337 5.68052C1.36136 3.81746 0 2.59358 0 1.87748C0 1.7896 0.0205051 1.70936 0.0627178 1.63653C0.836829 0.300928 7.80993 -0.409013 17.0389 0.248709ZM43.6461 24.1126Q40.23 22.3747 35.8866 21.0079C36.2633 21.9158 36.6192 22.8312 36.9542 23.7542L36.955 23.7563Q39.0597 29.5558 40.0674 35.7535Q40.9785 41.3576 40.9785 47.2087Q40.9785 54.3461 39.6227 61.8508Q37.643 72.8095 37.643 82.662Q37.643 84.8973 37.7449 87.0758Q38.267 98.2365 41.3207 105.466C42.8259 109.03 44.5705 111.371 46.5545 112.491C48.527 113.605 51.4132 113.724 55.2131 112.849Q60.2795 111.682 64.2973 108.964L64.2975 108.964L64.298 108.964C65.5231 108.135 66.675 107.199 67.7538 106.154Q72.6826 101.381 75.4996 93.8919L75.5061 93.8747C77.3544 88.9549 78.3386 83.7106 78.4589 78.1417C78.4673 77.7531 78.4715 77.3677 78.4715 76.9856C78.4715 72.2805 77.8351 68.0713 76.5624 64.3581Q71.5971 49.8718 63.3233 39.83C61.2884 37.3603 59.0882 35.0769 56.7228 32.9799Q50.8609 27.7832 43.6461 24.1126Z" fill="rgb(151,151,151)" fill-opacity="0" fill-rule="evenodd" transform="matrix(-1,0,0,1,95.0806,-1.63626)" />
			<path id="形状结合" d="M88.5455 -1.52435C92.1897 -1.3002 94.5779 -0.747593 95.0125 0.00218904C95.0547 0.0750197 95.0752 0.155256 95.0752 0.24314C95.0752 0.959234 93.7138 2.18312 91.6415 4.04618C85.0384 9.98243 71.2172 22.4079 71.2172 45.5726C71.2172 49.1744 71.5514 53.0359 72.2988 57.1731C72.5944 58.8092 72.8616 60.4423 73.1 62.0696C43.3223 62.2428 23.1778 55.5534 20.8821 37.8188C20.8017 37.1981 20.7622 36.5765 20.7622 35.9546C20.7622 17.6721 54.9025 -0.786269 88.5455 -1.52435Z" opacity="0.600000024" fill="rgb(201,246,249)" fill-opacity="0" fill-rule="evenodd" />
			<path id="形状结合" d="M88.5455 -1.52435C92.1897 -1.3002 94.5779 -0.747593 95.0125 0.00218904C95.0547 0.0750197 95.0752 0.155256 95.0752 0.24314C95.0752 0.959234 93.7138 2.18312 91.6415 4.04618C85.0384 9.98243 71.2172 22.4079 71.2172 45.5726C71.2172 49.1744 71.5514 53.0359 72.2988 57.1731C72.5944 58.8092 72.8616 60.4423 73.1 62.0696C43.3223 62.2428 23.1778 55.5534 20.8821 37.8188C20.8017 37.1981 20.7622 36.5765 20.7622 35.9546C20.7622 17.6721 54.9025 -0.786269 88.5455 -1.52435Z" opacity="0.600000024" fill="url(#paint_radial_3)" fill-rule="evenodd" />
			<path id="形状结合" d="M88.5455 -1.52435C92.1897 -1.3002 94.5779 -0.747593 95.0125 0.00218904C95.0547 0.0750197 95.0752 0.155256 95.0752 0.24314C95.0752 0.959234 93.7138 2.18312 91.6415 4.04618C85.0384 9.98243 71.2172 22.4079 71.2172 45.5726C71.2172 49.1744 71.5514 53.0359 72.2988 57.1731C72.5944 58.8092 72.8616 60.4423 73.1 62.0696C43.3223 62.2428 23.1778 55.5534 20.8821 37.8188C20.8017 37.1981 20.7622 36.5765 20.7622 35.9546C20.7622 17.6721 54.9025 -0.786269 88.5455 -1.52435ZM58.1824 21.9173Q54.0143 23.5908 50.2741 25.6434Q43.1361 29.5608 39.5762 33.6813C38.7881 34.5934 38.2451 35.3858 37.9471 36.0585C37.9435 36.0667 37.94 36.0746 37.9366 36.0824C38.0941 36.8404 38.3859 37.4676 38.8121 37.9641C39.704 39.0032 41.2385 39.9882 43.4155 40.9191C46.2419 42.1275 49.81 43.0709 54.12 43.7493Q54.3825 32.798 57.8128 22.9501L57.8129 22.95L57.8129 22.9498Q57.9229 22.6341 58.0361 22.3196L58.039 22.3117L58.04 22.3087Q58.1106 22.1128 58.1824 21.9173Z" opacity="0.600000024" fill="rgb(151,151,151)" fill-opacity="0" fill-rule="evenodd" />
			<path id="形状结合" d="M66.1497 22.2784C52.767 31.5197 36.5372 36.9318 19.0434 36.9318C12.4905 36.9318 6.11496 36.1724 0 34.7369C32.7645 32.6904 43.2471 2.15342 56.1726 0.222756C65.6864 -1.19833 71.3984 4.37953 71.3984 11.2704C71.3984 13.7441 70.6623 16.387 69.1018 18.936C68.4508 19.9993 67.4513 21.1263 66.1497 22.2784Z" fill="rgb(253,229,92)" fill-rule="evenodd" transform="matrix(-0.62932,0.777146,0.777146,0.62932,133.356,95.934)" />
			<path id="形状结合" d="M66.1497 22.2784C52.767 31.5197 36.5372 36.9318 19.0434 36.9318C12.4905 36.9318 6.11496 36.1724 0 34.7369C32.7645 32.6904 43.2471 2.15342 56.1726 0.222756C65.6864 -1.19833 71.3984 4.37953 71.3984 11.2704C71.3984 13.7441 70.6623 16.387 69.1018 18.936C68.4508 19.9993 67.4513 21.1263 66.1497 22.2784Z" fill="url(#paint_linear_1)" fill-rule="evenodd" transform="matrix(-0.62932,0.777146,0.777146,0.62932,133.356,95.934)" />
			<path id="形状结合" d="M66.1497 22.2784C52.767 31.5197 36.5372 36.9318 19.0434 36.9318C12.4905 36.9318 6.11496 36.1724 0 34.7369C32.7645 32.6904 43.2471 2.15342 56.1726 0.222756C65.6864 -1.19833 71.3984 4.37953 71.3984 11.2704C71.3984 13.7441 70.6623 16.387 69.1018 18.936C68.4508 19.9993 67.4513 21.1263 66.1497 22.2784Z" fill="rgb(151,151,151)" fill-opacity="0" fill-rule="evenodd" transform="matrix(-0.62932,0.777146,0.777146,0.62932,133.356,95.934)" />
			<path id="路径 10" d="M22.5273 0.371895C29.4657 1.87228 33.9818 7.90064 35.4601 14.1191C36.9384 20.3375 36.2784 46.0034 38.3853 55.9509C40.4922 65.8984 48.6269 81.5685 48.6269 81.5685C48.6269 81.5685 28.0809 79.1781 14.1111 57.6483C0.141331 36.1186 -2.17434 20.3491 1.64333 11.078C5.461 1.80698 15.5888 -1.12849 22.5273 0.371895Z" fill="rgb(99,213,168)" fill-rule="evenodd" transform="matrix(-0.994522,0.104529,0.104529,0.994522,160.771,72.2431)" />
			<path id="路径 10" d="M22.5273 0.371895C29.4657 1.87228 33.9818 7.90064 35.4601 14.1191C36.9384 20.3375 36.2784 46.0034 38.3853 55.9509C40.4922 65.8984 48.6269 81.5685 48.6269 81.5685C48.6269 81.5685 28.0809 79.1781 14.1111 57.6483C0.141331 36.1186 -2.17434 20.3491 1.64333 11.078C5.461 1.80698 15.5888 -1.12849 22.5273 0.371895Z" fill="url(#paint_linear_2)" fill-rule="evenodd" transform="matrix(-0.994522,0.104529,0.104529,0.994522,160.771,72.2431)" />
			<path id="路径 10" d="M22.5273 0.371895C29.4657 1.87228 33.9818 7.90064 35.4601 14.1191C36.9384 20.3375 36.2784 46.0034 38.3853 55.9509C38.6272 57.0934 38.9487 58.3113 39.3282 59.5723C42.2534 69.291 48.6269 81.5685 48.6269 81.5685C48.6269 81.5685 36.6442 80.1744 24.7588 69.9263C21.0809 66.7552 17.4124 62.7362 14.1111 57.6483C4.00749 42.077 0 29.5187 0 20.2529C0 16.7073 0.586785 13.6438 1.64333 11.078C4.98379 2.96586 13.1554 -0.295631 19.7944 0.0208916C20.7428 0.0661091 21.66 0.184347 22.5273 0.371895ZM19.4741 31.0942Q19.0733 19.2063 18.8052 18.0783C18.7205 17.722 18.6052 17.4164 18.4594 17.1616C18.2287 17.2014 18.0116 17.2661 17.808 17.3557Q17.5887 17.4521 17.5031 17.5298C17.4955 17.5437 17.4854 17.5658 17.4728 17.5964C17.2738 18.0797 17.1583 18.8126 17.1263 19.7951C17.1212 19.9522 17.1187 20.1119 17.1187 20.2741C17.1187 21.8734 17.3671 23.7207 17.864 25.8161Q18.465 28.3503 19.4741 31.0942Z" fill="rgb(151,151,151)" fill-opacity="0" fill-rule="evenodd" transform="matrix(-0.994522,0.104529,0.104529,0.994522,160.771,72.2431)" />
		</g>
	</g>
</svg>
