<svg viewBox="0 0 28 28" xmlns="http://www.w3.org/2000/svg" xmlns:xlink="http://www.w3.org/1999/xlink" width="28.000000" height="28.000000" fill="none">
	<defs>
		<linearGradient id="paint_linear_0" x1="2.86102295e-06" x2="27.9999924" y1="9.53674316e-07" y2="27.9999962" gradientUnits="userSpaceOnUse">
			<stop stop-color="rgb(120,123,255)" offset="0" stop-opacity="1" />
			<stop stop-color="rgb(0,79,255)" offset="1" stop-opacity="1" />
		</linearGradient>
		<linearGradient id="paint_linear_1" x1="4.67822456" x2="27.2449398" y1="3.21972847" y2="23.1696796" gradientUnits="userSpaceOnUse">
			<stop stop-color="rgb(120,123,255)" offset="0" stop-opacity="1" />
			<stop stop-color="rgb(0,79,255)" offset="1" stop-opacity="1" />
		</linearGradient>
		<linearGradient id="paint_linear_2" x1="2.916749" x2="12.2383833" y1="2.04150438" y2="11.3864746" gradientUnits="userSpaceOnUse">
			<stop stop-color="rgb(120,123,255)" offset="0" stop-opacity="1" />
			<stop stop-color="rgb(0,79,255)" offset="1" stop-opacity="1" />
		</linearGradient>
	</defs>
	<rect id="AI_doc_plaintext" width="28.000000" height="28.000000" x="0.000000" y="0.000000" />
	<rect id="矩形 543930" width="28.000000" height="28.000000" x="0.000000" y="0.000000" opacity="0" fill="url(#paint_linear_0)" />
	<g id="组合 31774">
		<path id="矢量 2952" d="M12.9616 12.9614C12.7204 12.9614 12.5104 13.0508 12.3316 13.2297C12.1527 13.4086 12.0632 13.6186 12.0632 13.8597C12.0632 14.1008 12.1527 14.3108 12.3316 14.4897C12.5104 14.6686 12.7204 14.7581 12.9616 14.7581L19.6582 14.7581C19.9149 14.7581 20.1288 14.6686 20.2999 14.4897C20.471 14.3108 20.5566 14.1008 20.5566 13.8597C20.5566 13.6186 20.4671 13.4086 20.2882 13.2297C20.1093 13.0508 19.8993 12.9614 19.6582 12.9614L12.9616 12.9614ZM14.0582 3.21973C13.8171 3.21973 13.6071 3.30528 13.4282 3.47639C13.2493 3.63973 13.1599 3.84195 13.1599 4.08306C13.1599 4.33195 13.2493 4.54195 13.4282 4.71306C13.6071 4.89195 13.8171 4.98139 14.0582 4.98139L19.9966 4.98139C20.5332 4.98139 21.0349 5.12528 21.5016 5.41306C21.9682 5.70862 22.3377 6.0975 22.6099 6.57973C22.8821 7.06195 23.0182 7.59473 23.0182 8.17806L23.0182 20.9764C23.0182 21.5519 22.8821 22.0808 22.6099 22.5631C22.3377 23.0531 21.9682 23.4419 21.5016 23.7297C21.0349 24.0175 20.5332 24.1614 19.9966 24.1614L9.46156 24.1614C8.92489 24.1614 8.42322 24.0175 7.95656 23.7297C7.48989 23.4419 7.12045 23.0531 6.84822 22.5631C6.576 22.0808 6.43989 21.5519 6.43989 20.9764L6.43989 13.4981C6.43989 13.2569 6.35044 13.0508 6.17156 12.8797C5.99267 12.7086 5.78267 12.6231 5.54156 12.6231C5.30044 12.6231 5.09433 12.7086 4.92322 12.8797C4.75989 13.0508 4.67822 13.2569 4.67822 13.4981L4.67822 20.9764C4.67822 21.8708 4.89211 22.6992 5.31989 23.4614C5.74767 24.2314 6.32711 24.8381 7.05822 25.2814C7.78156 25.7325 8.58267 25.9581 9.46156 25.9581L19.9966 25.9581C20.8677 25.9581 21.6688 25.7325 22.3999 25.2814C23.131 24.8381 23.7104 24.2314 24.1382 23.4614C24.566 22.6992 24.7799 21.8708 24.7799 20.9764L24.7799 8.17806C24.7799 7.28362 24.566 6.45528 24.1382 5.69306C23.7104 4.93862 23.131 4.33973 22.3999 3.89639C21.6688 3.44528 20.8677 3.21973 19.9966 3.21973L14.0582 3.21973ZM9.79989 17.5814C9.55878 17.5814 9.34878 17.6708 9.16989 17.8497C8.991 18.0286 8.90156 18.2386 8.90156 18.4797C8.90156 18.7208 8.991 18.9308 9.16989 19.1097C9.34878 19.2886 9.55878 19.3781 9.79989 19.3781L19.6582 19.3781C19.9149 19.3781 20.1288 19.2886 20.2999 19.1097C20.471 18.9308 20.5566 18.7208 20.5566 18.4797C20.5566 18.2386 20.4671 18.0286 20.2882 17.8497C20.1093 17.6708 19.8993 17.5814 19.6582 17.5814L9.79989 17.5814Z" fill="url(#paint_linear_1)" fill-rule="nonzero" />
		<path id="矢量 2953" d="M7.58342 2.0415C7.47453 2.0415 7.40064 2.09984 7.36175 2.2165C7.13619 3.27428 6.63453 4.19595 5.85675 4.9815C5.07119 5.76706 4.14564 6.27262 3.08008 6.49817C3.04119 6.49817 3.0023 6.51762 2.96341 6.5565C2.9323 6.58762 2.91675 6.64206 2.91675 6.71984C2.91675 6.77428 2.9323 6.82095 2.96341 6.85984C3.0023 6.89873 3.04119 6.92595 3.08008 6.9415C4.16119 7.16706 5.09064 7.66873 5.86841 8.4465C6.63841 9.2165 7.13619 10.1343 7.36175 11.1998C7.36175 11.2387 7.38119 11.2776 7.42008 11.3165C7.45897 11.3476 7.51341 11.3632 7.58342 11.3632C7.66119 11.3632 7.73897 11.3087 7.81675 11.1998C8.03453 10.1187 8.5323 9.19317 9.31008 8.42317C10.0879 7.66095 11.0056 7.16706 12.0634 6.9415C12.1956 6.90262 12.2617 6.82873 12.2617 6.71984C12.2617 6.64206 12.2423 6.58762 12.2034 6.5565C12.1723 6.51762 12.1256 6.49817 12.0634 6.49817C11.0056 6.27262 10.0879 5.76706 9.31008 4.9815C8.5323 4.19595 8.03453 3.27428 7.81675 2.2165C7.79341 2.09984 7.71564 2.0415 7.58342 2.0415Z" fill="url(#paint_linear_2)" fill-rule="nonzero" />
	</g>
</svg>
