<svg viewBox="0 0 20 20" xmlns="http://www.w3.org/2000/svg" xmlns:xlink="http://www.w3.org/1999/xlink" width="20.000000" height="20.000000" fill="none" clip-path="url(#clipPath_2)" customFrame="url(#clipPath_2)">
	<mask id="mask_3" width="20.000000" height="20.000000" x="0.000000" y="0.000000" maskUnits="userSpaceOnUse">
		<g filter="url(#pixso_custom_mask_type_outline)">
			<g id="clip652_84884">
				<rect id="矩形 544181" width="20.000000" height="20.000000" x="0.000000" y="0.000000" fill="rgb(255,255,255)" />
			</g>
		</g>
	</mask>
	<mask id="mask_2" width="20.000000" height="20.000000" x="0.000000" y="0.000000" maskUnits="userSpaceOnUse">
		<g filter="url(#pixso_custom_mask_type_outline)">
			<g id="clip652_84881">
				<rect id="矩形 544180" width="20.000000" height="20.000000" x="0.000000" y="0.000000" fill="rgb(255,255,255)" />
			</g>
		</g>
	</mask>
	<mask id="mask_1" width="20.000000" height="20.000000" x="0.000000" y="0.000000" maskUnits="userSpaceOnUse">
		<g filter="url(#pixso_custom_mask_type_outline)">
			<g id="clip652_84876">
				<rect id="矩形 544179" width="20.000000" height="20.000000" x="0.000000" y="0.000000" fill="rgb(255,255,255)" />
			</g>
		</g>
	</mask>
	<mask id="mask_0" width="20.000000" height="20.000000" x="0.000000" y="0.000000" maskUnits="userSpaceOnUse">
		<g filter="url(#pixso_custom_mask_type_outline)">
			<g id="clip652_84875">
				<rect id="矩形 544182" width="20.000000" height="20.000000" x="0.000000" y="0.000000" fill="rgb(255,255,255)" />
			</g>
		</g>
	</mask>
	<defs>
		<clipPath id="clipPath_2">
			<rect width="20.000000" height="20.000000" x="0.000000" y="0.000000" rx="4.000000" fill="rgb(255,255,255)" />
		</clipPath>
		<filter id="pixso_custom_mask_type_outline">
			<feColorMatrix type="matrix" values="0 0 0 0 1 0 0 0 0 1 0 0 0 0 1 0 0 0 1 0 " />
		</filter>
	</defs>
	<rect id="ic_ict_ellipsis" width="20.000000" height="20.000000" x="0.000000" y="0.000000" rx="4.000000" />
	<rect id="矩形 544178" width="20.000000" height="20.000000" x="0.000000" y="0.000000" fill="rgb(255,255,255)" fill-opacity="0" />
	<g id="clip path group" mask="url(#mask_0)">
		<g id="组合 31859">
			<g id="clip path group" mask="url(#mask_1)">
				<g id="组合 31861">
					<path id="矢量 3038" d="M-0.000202546 9.99168C-0.000202546 8.42918 -0.00853588 6.86668 -0.000202546 5.30418C-0.00853588 4.54585 0.0872975 3.78752 0.270631 3.05835C0.683131 1.51252 1.69563 0.591685 3.24146 0.233351C4.01646 0.0666846 4.8123 -0.0166487 5.60396 1.7921e-05C8.5998 1.7921e-05 11.5956 1.7921e-05 14.5956 1.7921e-05C15.3498 -0.00831541 16.104 0.0791846 16.8415 0.254185C18.4373 0.645851 19.3956 1.65418 19.7581 3.25002C19.9248 3.99585 19.9998 4.76668 19.9915 5.53752C19.9915 8.56668 19.9915 11.5959 19.9915 14.6209C19.9998 15.3709 19.9123 16.1209 19.7373 16.85C19.3456 18.4459 18.3331 19.3959 16.7415 19.7625C15.9665 19.9292 15.1706 20.0084 14.3748 19.9959C11.3915 19.9959 8.40813 19.9959 5.4248 19.9959C4.6623 20.0042 3.90396 19.9167 3.1623 19.7417C1.5623 19.3542 0.595631 18.3375 0.237297 16.7334C0.0456308 15.925 -0.000202546 15.1125 -0.000202546 14.2917C-0.000202546 12.8584 -0.000202546 11.425 -0.000202546 9.99168Z" fill="rgb(255,255,255)" fill-opacity="0" fill-rule="evenodd" />
					<circle id="椭圆 196" cx="10" cy="10" r="10" fill="rgb(255,255,255)" fill-opacity="0" />
				</g>
			</g>
			<g id="clip path group" mask="url(#mask_2)">
				<g id="组合 31863">
					<path id="矢量 3039" d="M10 15.0083C10.6875 15.0083 11.25 15.5667 11.25 16.2583C11.25 16.95 10.6875 17.5083 10 17.5083C9.30833 17.5083 8.75 16.95 8.75 16.2583C8.75 15.5667 9.30833 15.0083 10 15.0083ZM10 8.75832C10.6875 8.75832 11.25 9.31665 11.25 10.0083C11.25 10.6958 10.6875 11.2583 10 11.2583C9.30833 11.2583 8.75 10.6958 8.75 10.0083C8.75 9.31665 9.30833 8.75832 10 8.75832ZM10 2.48749C10.6875 2.48749 11.25 3.04999 11.25 3.73749C11.25 4.42915 10.6875 4.98749 10 4.98749C9.30833 4.98749 8.75 4.42915 8.75 3.73749C8.75 3.04999 9.30833 2.48749 10 2.48749Z" fill="rgb(0,0,0)" fill-opacity="0.600000024" fill-rule="evenodd" />
					<path id="矢量 3040" d="M10 8.7583C10.6875 8.7583 11.25 9.31663 11.25 10.0083C11.25 10.6958 10.6875 11.2583 10 11.2583C9.30833 11.2583 8.75 10.6958 8.75 10.0083C8.75 9.31663 9.30833 8.7583 10 8.7583Z" fill="rgb(0,0,0)" fill-opacity="0.600000024" fill-rule="evenodd" />
				</g>
			</g>
			<g id="clip path group" mask="url(#mask_3)">
				<g id="组合 31865">
					<path id="矢量 3041" d="M9.99967 14.5916C10.9163 14.5916 11.6663 15.3375 11.6663 16.2583C11.6663 17.175 10.9163 17.925 9.99967 17.925C9.07884 17.925 8.33301 17.175 8.33301 16.2583C8.33301 15.3375 9.07884 14.5916 9.99967 14.5916ZM9.99967 8.34163C10.9163 8.34163 11.6663 9.08747 11.6663 10.0083C11.6663 10.925 10.9163 11.675 9.99967 11.675C9.07884 11.675 8.33301 10.925 8.33301 10.0083C8.33301 9.08747 9.07884 8.34163 9.99967 8.34163ZM9.99967 2.0708C10.9163 2.0708 11.6663 2.8208 11.6663 3.73747C11.6663 4.6583 10.9163 5.40413 9.99967 5.40413C9.07884 5.40413 8.33301 4.6583 8.33301 3.73747C8.33301 2.8208 9.07884 2.0708 9.99967 2.0708Z" fill="rgb(255,255,255)" fill-opacity="0" fill-rule="evenodd" />
					<path id="矢量 3042" d="M9.99967 8.34167C10.9163 8.34167 11.6663 9.08751 11.6663 10.0083C11.6663 10.925 10.9163 11.675 9.99967 11.675C9.07884 11.675 8.33301 10.925 8.33301 10.0083C8.33301 9.08751 9.07884 8.34167 9.99967 8.34167Z" fill="rgb(255,255,255)" fill-opacity="0" fill-rule="evenodd" />
				</g>
			</g>
		</g>
	</g>
</svg>
