<svg viewBox="0 0 24.019 24.0538" xmlns="http://www.w3.org/2000/svg" xmlns:xlink="http://www.w3.org/1999/xlink" width="24.019043" height="24.053833" fill="none" customFrame="#000000">
	<defs>
		<clipPath id="clipPath_0">
			<rect width="24.000000" height="24.000000" x="0.000000" y="0.053833" fill="rgb(255,255,255)" />
		</clipPath>
		<linearGradient id="paint_linear_9" x1="12" x2="12" y1="0.0538330078" y2="24.053833" gradientUnits="userSpaceOnUse">
			<stop stop-color="rgb(87,194,78)" offset="0" stop-opacity="1" />
			<stop stop-color="rgb(138,224,130)" offset="1" stop-opacity="1" />
		</linearGradient>
		<linearGradient id="paint_linear_10" x1="18.6774883" x2="13.2918692" y1="2.94917488" y2="10.1655722" gradientUnits="userSpaceOnUse">
			<stop stop-color="rgb(73,182,64)" offset="0" stop-opacity="0.800000012" />
			<stop stop-color="rgb(73,182,64)" offset="0.450136989" stop-opacity="0.301960796" />
			<stop stop-color="rgb(122,215,114)" offset="1" stop-opacity="0" />
		</linearGradient>
		<linearGradient id="paint_linear_11" x1="16.16078" x2="18.2356205" y1="4.935287" y2="2.90938234" gradientUnits="userSpaceOnUse">
			<stop stop-color="rgb(136,224,129)" offset="0" stop-opacity="1" />
			<stop stop-color="rgb(135,223,128)" offset="1" stop-opacity="0.400000006" />
		</linearGradient>
	</defs>
	<rect id="SVG" width="24.000000" height="24.000000" x="0.019043" y="0.000000" />
	<g id="svg" clip-path="url(#clipPath_0)" customFrame="url(#clipPath_0)">
		<rect id="svg" width="24.000000" height="24.000000" x="0.000000" y="0.053833" />
		<path id="矩形备份 113" d="M4.263 0.053833L14.994 0.053833C15.2325 0.053833 15.4612 0.148333 15.63 0.316333L20.7352 5.41483C20.9048 5.58358 21 5.81308 21 6.05158L21 22.7901C21 23.4876 20.4338 24.0538 19.7362 24.0538L4.263 24.0538C3.5655 24.0538 3 23.4876 3 22.7901L3 1.31683C3 0.619333 3.5655 0.053833 4.263 0.053833Z" fill="url(#paint_linear_9)" fill-rule="evenodd" />
		<path id="矩形备份 137" d="M4.263 0.053833L14.994 0.053833C15.2325 0.053833 15.4612 0.148333 15.63 0.316333L20.7352 5.41483C20.9048 5.58358 21 5.81308 21 6.05158L21 22.7901C21 23.4876 20.4338 24.0538 19.7362 24.0538L4.263 24.0538C3.5655 24.0538 3 23.4876 3 22.7901L3 1.31683C3 0.619333 3.5655 0.053833 4.263 0.053833Z" fill="url(#paint_linear_10)" fill-rule="evenodd" />
		<path id="形状结合" d="M15.4934 0.155584L15.5012 0.163366C15.498 0.160528 15.4967 0.158386 15.4934 0.155584ZM15.7998 0.822455C15.7998 0.83417 15.7996 0.845818 15.7991 0.857413L15.7991 4.02295C15.7991 4.68571 16.3363 5.22295 16.9991 5.22295L20.1865 5.22295C20.4751 5.22295 20.7315 5.36279 20.8915 5.57833C20.848 5.51016 20.7969 5.44645 20.7388 5.38854L15.58 0.241955C15.7168 0.396716 15.7998 0.6 15.7998 0.822455Z" fill="url(#paint_linear_11)" fill-rule="evenodd" />
		<path id="路径 16" d="M11.3988 15.5226L11.0725 15.3958L13.5955 15.3958L13.2678 15.5173C13.3368 15.7041 13.5363 15.7986 13.723 15.7296C13.9098 15.6606 14.002 15.4596 13.933 15.2728L13.5955 15.3958L12.3663 12.0538L11.0725 15.3958L10.7388 15.2668C10.6668 15.4521 10.7545 15.6553 10.9398 15.7273C11.125 15.7993 11.3268 15.7078 11.3988 15.5226Z" fill="rgb(216,216,216)" fill-opacity="0" fill-rule="evenodd" />
		<path id="路径 17" d="M11.6854 14.7343C11.4866 14.7343 11.3291 14.579 11.3291 14.3803C11.3291 14.1815 11.4851 14.0248 11.6839 14.0248L11.6854 14.7343ZM13.0511 14.0263C13.2499 14.0263 13.4081 14.1815 13.4081 14.3803C13.4081 14.579 13.2514 14.7358 13.0526 14.7358L13.0511 14.0263Z" fill="rgb(216,216,216)" fill-opacity="0" fill-rule="nonzero" />
		<path id="路径 9备份 4" d="M9.45135 12.1911C9.86985 12.4311 9.8976 13.0086 9.89835 13.0424L10.2524 13.0326C10.2576 13.2314 10.1069 13.3934 9.9081 13.3986C9.9051 13.3986 9.9021 13.3986 9.89835 13.3986L9.89835 14.0946C10.0979 14.0946 10.2539 14.2514 10.2539 14.4501L9.89835 14.4516C9.8976 15.1619 9.2931 15.3456 9.2931 15.3456C9.2931 15.3456 8.4621 15.4814 8.02485 15.1146C7.69485 14.8566 7.60485 14.2071 7.60485 14.2071C7.60485 14.2071 7.53735 13.5876 7.64235 13.0439C7.74735 12.4994 8.1501 12.2451 8.1501 12.2451C8.1501 12.2451 8.8161 11.8911 9.45135 12.1911Z" fill="rgb(216,216,216)" fill-opacity="0" fill-rule="evenodd" />
		<g id="X">
			<path id="矢量 806" d="M14.0272 17.8278L15.3027 17.8278C15.4434 17.8278 15.5278 17.6716 15.4507 17.5539L12.9431 13.7246C12.9051 13.6665 12.9046 13.5914 12.9418 13.5327L15.2607 9.88484C15.3356 9.76701 15.2509 9.61292 15.1113 9.61292L13.9016 9.61292C13.8396 9.61292 13.7822 9.64531 13.7501 9.69833L12.1575 12.3327C12.0889 12.4462 11.9245 12.4467 11.8552 12.3337L10.239 9.6974C10.2068 9.64491 10.1497 9.61292 10.0881 9.61292L8.86841 9.61292C8.72839 9.61292 8.64382 9.76782 8.71954 9.8856L11.0357 13.4885C11.0731 13.5468 11.0732 13.6216 11.0357 13.6798L8.54533 17.5552C8.46964 17.6729 8.55421 17.8278 8.69422 17.8278L9.90589 17.8278C9.96729 17.8278 10.0243 17.796 10.0565 17.7437L11.8197 14.8849C11.8889 14.7727 12.0521 14.7729 12.1211 14.8852L13.8764 17.7435C13.9086 17.7959 13.9657 17.8278 14.0272 17.8278Z" fill="rgb(255,255,255)" fill-rule="evenodd" />
		</g>
	</g>
</svg>
