<svg viewBox="0 0 18 18" xmlns="http://www.w3.org/2000/svg" xmlns:xlink="http://www.w3.org/1999/xlink" width="18.000000" height="18.000000" fill="none">
	<defs>
		<filter id="pixso_custom_mask_type_luminance">
			<feColorMatrix type="matrix" values="1 0 0 0 0 0 1 0 0 0 0 0 1 0 0 0 0 0 1 0 " />
		</filter>
	</defs>
	<mask id="mask_5" width="18.000000" height="18.000000" x="0.000000" y="0.000000" maskUnits="userSpaceOnUse">
		<g filter="url(#pixso_custom_mask_type_luminance)">
			<g id="hms_mask_0">
				<rect id="矩形 543963" width="18.000000" height="18.000000" x="0.000000" y="0.000000" fill="rgb(255,255,255)" />
				<g id="组合 31814">
					<path id="矢量 3018" d="M13.7175 8.3175C13.0075 8.3175 12.3475 8.495 11.7375 8.85001C11.1225 9.2 10.64 9.6825 10.29 10.2975C9.93501 10.9075 9.75751 11.5675 9.75751 12.2775C9.75751 12.9975 9.93501 13.66 10.29 14.265C10.64 14.87 11.1225 15.3525 11.7375 15.7125C12.3475 16.0725 13.0075 16.2525 13.7175 16.2525C14.4375 16.2525 15.1025 16.075 15.7125 15.72C16.3275 15.37 16.81 14.8875 17.16 14.2725C17.515 13.6625 17.6925 12.9975 17.6925 12.2775C17.6925 11.5575 17.515 10.895 17.16 10.29C16.81 9.68001 16.3275 9.2 15.7125 8.85001C15.1025 8.495 14.4375 8.3175 13.7175 8.3175Z" fill="rgb(0,0,0)" fill-rule="evenodd" />
				</g>
			</g>
		</g>
	</mask>
	<rect id="IconChat1" width="18.000000" height="18.000000" x="0.000000" y="0.000000" />
	<rect id="矩形 543962" width="18.000000" height="18.000000" x="0.000000" y="0.000000" opacity="0" fill="rgb(0,0,0)" />
	<g id="mask" mask="url(#mask_5)">
		<g id="组合 31813">
			<path id="矢量 3017" d="M16.74 8.535C16.74 7.295 16.395 6.1575 15.705 5.1225C15.015 4.0825 14.0825 3.26 12.9075 2.655C11.7325 2.05 10.4475 1.7475 9.05249 1.7475C7.66249 1.7475 6.37999 2.05 5.20499 2.655C4.02499 3.26 3.08999 4.0825 2.39999 5.1225C1.70999 6.1575 1.36499 7.295 1.36499 8.535C1.36499 9.495 1.58749 10.405 2.03249 11.265C2.47749 12.13 3.08499 12.88 3.85499 13.515C4.00999 13.675 4.08499 13.8775 4.07999 14.1225C4.06999 14.3675 4.01749 14.62 3.92249 14.88C3.82749 15.135 3.70249 15.42 3.54749 15.735L3.47249 15.8775C3.43749 15.9375 3.42999 15.9975 3.44999 16.0575C3.46499 16.1175 3.50249 16.165 3.56249 16.2C3.62249 16.235 3.68249 16.2475 3.74249 16.2375C4.27249 16.1525 4.72499 16.0375 5.09999 15.8925C5.47999 15.7475 5.85499 15.58 6.22499 15.39C6.47999 15.26 6.67249 15.17 6.80249 15.12C6.93749 15.07 7.06499 15.065 7.18499 15.105C7.80499 15.235 8.42749 15.3 9.05249 15.3C10.4475 15.3 11.7325 14.9975 12.9075 14.3925C14.0825 13.7875 15.015 12.965 15.705 11.925C16.395 10.885 16.74 9.755 16.74 8.535Z" fill="rgb(10,89,247)" fill-rule="evenodd" />
		</g>
	</g>
	<g id="组合 31815">
		<path id="矢量 3019" d="M13.7175 9.285C13.1775 9.285 12.68 9.42 12.225 9.69C11.765 9.96 11.4 10.325 11.13 10.785C10.86 11.24 10.725 11.7375 10.725 12.2775C10.725 12.8175 10.86 13.3175 11.13 13.7775C11.4 14.2425 11.765 14.61 12.225 14.88C12.68 15.15 13.1775 15.285 13.7175 15.285C14.2675 15.285 14.77 15.15 15.225 14.88C15.685 14.61 16.05 14.245 16.32 13.785C16.59 13.33 16.725 12.8275 16.725 12.2775C16.725 11.7375 16.59 11.24 16.32 10.785C16.05 10.325 15.685 9.96 15.225 9.69C14.77 9.42 14.2675 9.285 13.7175 9.285ZM15.195 11.895C15.29 11.895 15.375 11.9325 15.45 12.0075C15.53 12.0775 15.57 12.1675 15.57 12.2775C15.57 12.3825 15.53 12.4725 15.45 12.5475C15.375 12.6175 15.29 12.6525 15.195 12.6525L14.0925 12.6525L14.0925 13.755C14.0925 13.85 14.0575 13.935 13.9875 14.01C13.9125 14.09 13.8225 14.13 13.7175 14.13C13.6075 14.13 13.52 14.095 13.455 14.025C13.39 13.95 13.3575 13.86 13.3575 13.755L13.3575 12.6525L12.255 12.6525C12.16 12.6525 12.075 12.6175 12 12.5475C11.92 12.4725 11.88 12.3825 11.88 12.2775C11.88 12.1675 11.92 12.0775 12 12.0075C12.075 11.9325 12.16 11.895 12.255 11.895L13.3575 11.895L13.3575 10.815C13.3575 10.71 13.39 10.62 13.455 10.545C13.52 10.475 13.6075 10.44 13.7175 10.44C13.8225 10.44 13.9125 10.48 13.9875 10.56C14.0575 10.635 14.0925 10.72 14.0925 10.815L14.0925 11.895L15.195 11.895Z" fill="rgb(10,89,247)" fill-rule="nonzero" />
	</g>
</svg>
