<svg viewBox="0 0 18 18" xmlns="http://www.w3.org/2000/svg" width="18.000000" height="18.000000" fill="none">
	<g id="make-icon">
		<path d="M14.5423 16.2917C14.9257 16.2917 15.2757 16.2333 15.5923 16.1167C15.9034 16.0056 16.1673 15.8444 16.384 15.6333C17.0229 14.9889 17.2173 14.0806 16.9673 12.9083C16.7229 11.7361 16.1534 10.4611 15.259 9.08333C14.3645 7.7 13.2979 6.39444 12.059 5.16666C10.8312 3.94444 9.5312 2.88333 8.15899 1.98333C6.78677 1.08333 5.51177 0.50833 4.33399 0.25833C3.15066 0.01388 2.23955 0.21111 1.60066 0.85C1.1451 1.30556 0.92288 1.92777 0.93399 2.71666C0.93955 3.51111 1.17566 4.42222 1.64232 5.45C2.0701 6.39444 2.65066 7.375 3.38399 8.39167C4.11732 9.40278 4.96177 10.3833 5.91732 11.3333C6.87844 12.2889 7.86177 13.1333 8.86732 13.8667C9.8784 14.6 10.8507 15.175 11.784 15.5917C12.7951 16.0583 13.7145 16.2917 14.5423 16.2917ZM3.41732 1.43333C3.97844 1.43333 4.68399 1.61111 5.53399 1.96666C6.37844 2.32777 7.2951 2.85833 8.28399 3.55833C9.2673 4.25833 10.2395 5.08888 11.2007 6.05C12.3895 7.23888 13.3729 8.43889 14.1507 9.65C14.9284 10.8611 15.434 11.9278 15.6673 12.85C15.9007 13.7722 15.8451 14.4056 15.5007 14.75C15.2451 15.0056 14.834 15.1056 14.2673 15.05C13.7007 14.9944 13.0451 14.7944 12.3007 14.45C11.434 14.0611 10.5229 13.5222 9.56732 12.8333C8.61732 12.1389 7.6951 11.3444 6.80066 10.45C5.8951 9.52778 5.0951 8.59722 4.40066 7.65833C3.70621 6.71944 3.16732 5.81666 2.78399 4.95C2.45066 4.18888 2.25621 3.52499 2.20066 2.95833C2.1451 2.39166 2.23955 1.98888 2.48399 1.75C2.58955 1.64444 2.71732 1.56388 2.86732 1.50833C3.02288 1.45833 3.20621 1.43333 3.41732 1.43333Z" fill="rgb(0,0,0)" fill-opacity="0.600000024" fill-rule="nonzero" />
		<path d="M3.41732 16.3083C4.57844 16.3083 5.95343 15.8361 7.54232 14.8917C9.1257 13.9417 10.6312 12.7556 12.059 11.3333C13.2979 10.1056 14.3645 8.8 15.259 7.41666C16.1534 6.03888 16.7229 4.76111 16.9673 3.58333C17.2173 2.39999 17.0229 1.48888 16.384 0.85C15.7395 0.21111 14.8312 0.01388 13.659 0.25833C12.4868 0.50833 11.2118 1.07777 9.834 1.96666C8.45066 2.86111 7.13955 3.92777 5.90066 5.16666C4.93955 6.12777 4.09232 7.11111 3.35899 8.11666C2.62566 9.12778 2.05344 10.1 1.64232 11.0333C1.17566 12.0556 0.93955 12.9639 0.93399 13.7583C0.92288 14.5528 1.1451 15.1778 1.60066 15.6333C1.82843 15.8556 2.0951 16.025 2.40066 16.1417C2.70621 16.2528 3.0451 16.3083 3.41732 16.3083ZM15.5007 1.75C15.8451 2.09444 15.9007 2.72499 15.6673 3.64166C15.434 4.55277 14.9284 5.61666 14.1507 6.83333C13.3729 8.04444 12.3895 9.25 11.2007 10.45C10.0118 11.65 8.80899 12.6389 7.59233 13.4167C6.3701 14.2 5.30066 14.7083 4.38399 14.9417C3.46177 15.175 2.82844 15.1111 2.48399 14.75C2.23955 14.4944 2.1451 14.0833 2.20066 13.5167C2.25621 12.95 2.45066 12.2944 2.78399 11.55C3.16732 10.6833 3.70621 9.77778 4.40066 8.83333C5.0951 7.88333 5.8951 6.95555 6.80066 6.05C7.76177 5.08888 8.73121 4.25833 9.709 3.55833C10.6923 2.85833 11.6062 2.32777 12.4507 1.96666C13.2951 1.61111 13.9979 1.43333 14.559 1.43333C14.7757 1.43333 14.959 1.45833 15.109 1.50833C15.2645 1.56388 15.3951 1.64444 15.5007 1.75Z" fill="rgb(0,0,0)" fill-opacity="0.600000024" fill-rule="nonzero" />
	</g>
</svg>