<svg viewBox="0 0 18 18" xmlns="http://www.w3.org/2000/svg" xmlns:xlink="http://www.w3.org/1999/xlink" width="18.000000" height="18.000000" fill="none">
	<defs>
		<filter id="pixso_custom_mask_type_luminance">
			<feColorMatrix type="matrix" values="1 0 0 0 0 0 1 0 0 0 0 0 1 0 0 0 0 0 1 0 " />
		</filter>
	</defs>
	<mask id="mask_3" width="18.000000" height="17.596743" x="0.000000" y="0.000000" maskUnits="userSpaceOnUse">
		<g filter="url(#pixso_custom_mask_type_luminance)">
			<g id="hms_mask_0">
				<rect id="矩形 543957" width="17.596743" height="17.596743" x="0.000000" y="0.000000" fill="rgb(255,255,255)" />
				<g id="组合 31805">
					<path id="矢量 3005" d="M14.114 9.3996C13.4102 9.3996 12.7625 9.57068 12.1711 9.91284C11.5747 10.2599 11.1006 10.7291 10.7487 11.3206C10.3967 11.9169 10.2208 12.567 10.2208 13.2709C10.2208 13.9748 10.3943 14.6249 10.7413 15.2212C11.0884 15.8175 11.5601 16.2917 12.1564 16.6436C12.7576 16.9955 13.4102 17.1715 14.114 17.1715C14.8179 17.1715 15.468 16.9955 16.0644 16.6436C16.6656 16.2917 17.1373 15.8175 17.4794 15.2212C17.8265 14.6249 18 13.9748 18 13.2709C18 12.567 17.824 11.9169 17.4721 11.3206C17.1202 10.7291 16.6485 10.2599 16.057 9.91284C15.4656 9.57068 14.8179 9.3996 14.114 9.3996Z" fill="rgb(0,0,0)" fill-rule="evenodd" />
				</g>
			</g>
		</g>
	</mask>
	<rect id="IconCowork1" width="18.000000" height="18.000000" x="0.000000" y="0.000000" />
	<g id="组合 31799">
		<rect id="矩形 543956" width="17.596743" height="17.596743" x="0.000000" y="0.000000" opacity="0" fill="rgb(0,0,0)" />
		<g id="mask" mask="url(#mask_3)">
			<g id="组合 31804">
				<path id="矢量 3004" d="M15.7858 8.16782C16.0057 8.16782 16.2012 8.11405 16.3723 8.00652C16.5434 7.89898 16.6632 7.76456 16.7316 7.60326C16.8049 7.43707 16.8245 7.26599 16.7902 7.09002C16.7511 6.91405 16.668 6.75519 16.541 6.61344L16.4896 6.56212C16.299 6.37637 16.1499 6.11487 16.0424 5.7776C15.93 5.44521 15.8738 5.10305 15.8738 4.75112C15.8738 4.44806 15.9324 4.13523 16.0497 3.81263C16.167 3.49002 16.3259 3.19918 16.5263 2.94012L16.5923 2.83014C16.7243 2.63462 16.7902 2.45132 16.7902 2.28024C16.7902 2.10916 16.7609 1.97719 16.7023 1.88432C16.6289 1.73279 16.5263 1.61548 16.3943 1.53238C16.2575 1.44929 16.0888 1.39552 15.8884 1.37108C15.8542 1.3613 15.8029 1.35641 15.7344 1.35641L4.0986 1.35641C3.47782 1.35641 2.90104 1.49572 2.36825 1.77434C1.83546 2.05784 1.40287 2.44644 1.07049 2.94012C0.742995 3.43381 0.56214 3.97882 0.527924 4.57515C0.503484 5.23014 0.640347 5.83136 0.938514 6.37882C1.24157 6.92627 1.65949 7.3613 2.19228 7.68391C2.72507 8.00652 3.30185 8.16782 3.92263 8.16782L15.7858 8.16782ZM13.6522 16.2257C14.1214 16.2257 14.5662 16.1352 14.9866 15.9544C15.4021 15.7686 15.7784 15.5071 16.1157 15.1699C16.4334 14.8424 16.6754 14.4611 16.8416 14.0261C17.0029 13.591 17.0738 13.134 17.0542 12.655C17.0151 12.0684 16.8318 11.5283 16.5043 11.0346C16.1768 10.5409 15.7467 10.1499 15.2139 9.86151C14.6811 9.57311 14.1019 9.42892 13.4762 9.42892L1.84768 9.42892C1.62283 9.42892 1.42731 9.4778 1.26112 9.57556C1.09004 9.66843 0.962954 9.79552 0.879859 9.95682C0.728331 10.299 0.786987 10.6509 1.05583 11.0126C1.25623 11.2717 1.41509 11.565 1.5324 11.8925C1.64972 12.2248 1.70837 12.5426 1.70837 12.8456C1.70837 13.1878 1.65216 13.5251 1.53974 13.8574C1.42731 14.1898 1.27823 14.4513 1.09249 14.642L1.05583 14.6786C0.928738 14.8301 0.843199 14.9963 0.799207 15.1772C0.760103 15.358 0.774767 15.5242 0.843199 15.6758C0.916518 15.842 1.03627 15.9739 1.20247 16.0717C1.37354 16.1743 1.57151 16.2257 1.79636 16.2257L13.6522 16.2257Z" fill="rgb(10,89,247)" fill-rule="evenodd" />
			</g>
		</g>
		<g id="组合 31806">
			<path id="矢量 3006" d="M14.114 10.3454C13.5861 10.3454 13.0949 10.4774 12.6403 10.7413C12.1906 11.0053 11.8338 11.3597 11.5698 11.8045C11.3059 12.2542 11.1739 12.743 11.1739 13.2709C11.1739 13.8085 11.3059 14.3022 11.5698 14.7519C11.8338 15.2065 12.1906 15.5658 12.6403 15.8297C13.0949 16.0937 13.5861 16.2256 14.114 16.2256C14.6419 16.2256 15.1307 16.0937 15.5804 15.8297C16.035 15.5658 16.3943 15.2065 16.6582 14.7519C16.9222 14.3022 17.0541 13.8085 17.0541 13.2709C17.0541 12.743 16.9222 12.2542 16.6582 11.8045C16.3943 11.3597 16.035 11.0053 15.5804 10.7413C15.1307 10.4774 14.6419 10.3454 14.114 10.3454ZM15.5218 12.9336C15.6244 12.9336 15.7124 12.9678 15.7857 13.0362C15.8541 13.1096 15.8883 13.1975 15.8883 13.3002C15.8883 13.3979 15.8541 13.4835 15.7857 13.5568C15.7124 13.635 15.6244 13.6741 15.5218 13.6741L14.4659 13.6741L14.4659 14.7299C14.4659 14.8326 14.4268 14.9206 14.3486 14.9939C14.2753 15.0623 14.1898 15.0965 14.092 15.0965C13.9894 15.0965 13.9014 15.0623 13.8281 14.9939C13.7596 14.9206 13.7254 14.8326 13.7254 14.7299L13.7254 13.6741L12.6696 13.6741C12.5621 13.6741 12.4741 13.635 12.4057 13.5568C12.3372 13.4835 12.303 13.3979 12.303 13.3002C12.303 13.1975 12.3372 13.1096 12.4057 13.0362C12.4741 12.9678 12.5621 12.9336 12.6696 12.9336L13.7254 12.9336L13.7254 11.8631C13.7254 11.7654 13.7596 11.6823 13.8281 11.6138C13.9014 11.5454 13.9894 11.5112 14.092 11.5112C14.1898 11.5112 14.2753 11.5454 14.3486 11.6138C14.4268 11.6823 14.4659 11.7654 14.4659 11.8631L14.4659 12.9336L15.5218 12.9336Z" fill="rgb(10,89,247)" fill-rule="nonzero" />
		</g>
	</g>
</svg>
