<svg viewBox="0 0 18 18" xmlns="http://www.w3.org/2000/svg" xmlns:xlink="http://www.w3.org/1999/xlink" width="18.000000" height="18.000000" fill="none">
	<rect id="AI_square_stack" width="18.000000" height="18.000000" x="0.000000" y="0.000000" />
	<rect id="矩形 543961" width="18.000000" height="18.000000" x="0.000000" y="0.000000" opacity="0" fill="rgb(10,89,247)" />
	<g id="组合 31811">
		<path id="矢量 3015" d="M14.9776 2.33992C15.1676 2.33992 15.3776 2.36492 15.6076 2.41492C15.4276 2.05492 15.1601 1.75742 14.8051 1.52242C14.4501 1.28742 14.0576 1.16992 13.6276 1.16992L4.37257 1.16992C3.92757 1.16992 3.53257 1.28742 3.18757 1.52242C2.83757 1.75742 2.56757 2.05492 2.37757 2.41492C2.61757 2.36492 2.82757 2.33992 3.00757 2.33992L14.9776 2.33992ZM2.73757 3.32992C2.10257 3.32992 1.61257 3.49992 1.26757 3.83992C0.927568 4.18492 0.757568 4.67492 0.757568 5.30992L0.757568 14.8499C0.757568 15.4849 0.927568 15.9749 1.26757 16.3199C1.61257 16.6599 2.10257 16.8299 2.73757 16.8299L15.2626 16.8299C15.8976 16.8299 16.3876 16.6599 16.7326 16.3199C17.0726 15.9749 17.2426 15.4849 17.2426 14.8499L17.2426 5.30992C17.2426 4.67492 17.0726 4.18492 16.7326 3.83992C16.3876 3.49992 15.8976 3.32992 15.2626 3.32992L2.73757 3.32992ZM15.3151 4.42492C15.5701 4.42492 15.7701 4.49492 15.9151 4.63492C16.0551 4.77492 16.1251 4.97492 16.1251 5.23492L16.1251 14.9024C16.1251 15.1774 16.0601 15.3849 15.9301 15.5249C15.8001 15.6649 15.5951 15.7349 15.3151 15.7349L2.68507 15.7349C2.39507 15.7349 2.18507 15.6649 2.05507 15.5249C1.92007 15.3849 1.85257 15.1774 1.85257 14.9024L1.85257 5.23492C1.85257 4.98492 1.92507 4.78742 2.07007 4.64242C2.21507 4.49742 2.42007 4.42492 2.68507 4.42492L15.3151 4.42492Z" fill="rgb(10,89,247)" fill-rule="nonzero" />
		<path id="矢量 3016" d="M9.00006 6.2251C8.95006 6.2251 8.91006 6.2376 8.88006 6.2626C8.85006 6.2876 8.83006 6.3251 8.82006 6.3751C8.64006 7.2151 8.24506 7.9401 7.63506 8.5501C7.02006 9.1601 6.28756 9.5551 5.43756 9.7351C5.40256 9.7501 5.37256 9.7726 5.34756 9.8026C5.32256 9.8326 5.31006 9.8701 5.31006 9.9151C5.31006 9.9651 5.32256 10.0051 5.34756 10.0351C5.37256 10.0651 5.40256 10.0801 5.43756 10.0801C6.28756 10.2601 7.02006 10.6601 7.63506 11.2801C8.24506 11.8951 8.64006 12.6301 8.82006 13.4851C8.83006 13.5201 8.85006 13.5526 8.88006 13.5826C8.91006 13.6126 8.95006 13.6276 9.00006 13.6276C9.03506 13.6276 9.06756 13.6126 9.09756 13.5826C9.12756 13.5526 9.15006 13.5201 9.16506 13.4851C9.34506 12.6451 9.74256 11.9126 10.3576 11.2876C10.9776 10.6626 11.7076 10.2601 12.5476 10.0801C12.5926 10.0801 12.6276 10.0651 12.6526 10.0351C12.6776 10.0051 12.6901 9.9651 12.6901 9.9151C12.6901 9.8801 12.6776 9.8451 12.6526 9.8101C12.6276 9.7751 12.5926 9.7501 12.5476 9.7351C11.7076 9.5551 10.9776 9.1601 10.3576 8.5501C9.74256 7.9401 9.34506 7.2151 9.16506 6.3751C9.16506 6.3251 9.15006 6.2876 9.12006 6.2626C9.09006 6.2376 9.05006 6.2251 9.00006 6.2251Z" fill="rgb(10,89,247)" fill-rule="nonzero" />
	</g>
</svg>
