<svg viewBox="0 0 18 18" xmlns="http://www.w3.org/2000/svg" xmlns:xlink="http://www.w3.org/1999/xlink" width="18.000000" height="18.000000" fill="none">
	<defs>
		<filter id="pixso_custom_mask_type_luminance">
			<feColorMatrix type="matrix" values="1 0 0 0 0 0 1 0 0 0 0 0 1 0 0 0 0 0 1 0 " />
		</filter>
	</defs>
	<mask id="mask_4" width="18.412498" height="18.000000" x="0.000000" y="0.000000" maskUnits="userSpaceOnUse">
		<g filter="url(#pixso_custom_mask_type_luminance)">
			<g id="hms_mask_0">
				<rect id="矩形 543964" width="17.999998" height="18.000000" x="0.000000" y="0.000000" fill="rgb(255,255,255)" />
				<g id="组合 31814">
					<path id="矢量 3018" d="M14.4375 9.61501C13.7175 9.61501 13.055 9.79001 12.45 10.14C11.84 10.495 11.355 10.975 10.995 11.58C10.635 12.19 10.455 12.855 10.455 13.575C10.455 14.295 10.6325 14.96 10.9875 15.57C11.3425 16.18 11.825 16.665 12.435 17.025C13.05 17.385 13.7175 17.565 14.4375 17.565C15.1575 17.565 15.8225 17.385 16.4325 17.025C17.0475 16.665 17.53 16.18 17.88 15.57C18.235 14.96 18.4125 14.295 18.4125 13.575C18.4125 12.855 18.2325 12.19 17.8725 11.58C17.5125 10.975 17.03 10.495 16.425 10.14C15.82 9.79001 15.1575 9.61501 14.4375 9.61501Z" fill="rgb(0,0,0)" fill-rule="evenodd" />
				</g>
			</g>
		</g>
	</mask>
	<rect id="IconCowork" width="18.000000" height="18.000000" x="0.000000" y="0.000000" />
	<rect id="矩形 543963" width="18.000000" height="18.000000" x="0.000000" y="0.000000" opacity="0" fill="rgb(0,0,0)" />
	<g id="mask" mask="url(#mask_4)">
		<g id="组合 31813">
			<path id="矢量 3017" d="M16.1475 8.355C16.3725 8.355 16.5725 8.3 16.7475 8.19C16.9225 8.08 17.045 7.9425 17.115 7.7775C17.19 7.6075 17.21 7.4325 17.175 7.2525C17.135 7.0725 17.05 6.91 16.92 6.765L16.8675 6.7125C16.6725 6.5225 16.52 6.255 16.41 5.91C16.295 5.57 16.2375 5.22 16.2375 4.86C16.2375 4.55 16.2975 4.23 16.4175 3.9C16.5375 3.57 16.7 3.2725 16.905 3.0075L16.9725 2.895C17.1075 2.695 17.175 2.5075 17.175 2.3325C17.175 2.1575 17.145 2.0225 17.085 1.9275C17.01 1.7725 16.905 1.6525 16.77 1.5675C16.63 1.4825 16.4575 1.4275 16.2525 1.4025C16.2175 1.3925 16.165 1.3875 16.095 1.3875L4.19251 1.3875C3.55751 1.3875 2.96751 1.53 2.42251 1.815C1.87751 2.105 1.43501 2.5025 1.09501 3.0075C0.760011 3.5125 0.575011 4.07 0.540011 4.68C0.515011 5.35 0.655011 5.965 0.960011 6.525C1.27001 7.085 1.69751 7.53 2.24251 7.86C2.78751 8.19 3.37751 8.355 4.01251 8.355L16.1475 8.355ZM15.8775 2.52C15.6375 2.87 15.45 3.2475 15.315 3.6525C15.185 4.0625 15.12 4.465 15.12 4.86C15.12 5.29 15.1825 5.7125 15.3075 6.1275C15.4325 6.5425 15.61 6.905 15.84 7.215L4.03501 7.215C3.59001 7.215 3.18001 7.1025 2.80501 6.8775C2.43501 6.6475 2.14751 6.345 1.94251 5.97C1.73751 5.59 1.64751 5.1775 1.67251 4.7325C1.68751 4.3375 1.81001 3.97 2.04001 3.63C2.27501 3.285 2.58501 3.015 2.97001 2.82C3.35501 2.62 3.76251 2.52 4.19251 2.52L15.8775 2.52ZM13.965 16.5975C14.445 16.5975 14.9 16.505 15.33 16.32C15.755 16.13 16.14 15.8625 16.485 15.5175C16.81 15.1825 17.0575 14.7925 17.2275 14.3475C17.3925 13.9025 17.465 13.435 17.445 12.945C17.405 12.345 17.2175 11.7925 16.8825 11.2875C16.5475 10.7825 16.1075 10.3825 15.5625 10.0875C15.0175 9.7925 14.425 9.645 13.785 9.645L1.89001 9.645C1.66001 9.645 1.46001 9.695 1.29001 9.795C1.11501 9.89 0.985011 10.02 0.900011 10.185C0.745011 10.535 0.805011 10.895 1.08001 11.265C1.28501 11.53 1.44751 11.83 1.56751 12.165C1.68751 12.505 1.74751 12.83 1.74751 13.14C1.74751 13.49 1.69001 13.835 1.57501 14.175C1.46001 14.515 1.30751 14.7825 1.11751 14.9775L1.08001 15.015C0.950011 15.17 0.862511 15.34 0.817511 15.525C0.777511 15.71 0.792511 15.88 0.862511 16.035C0.937511 16.205 1.06001 16.34 1.23001 16.44C1.40501 16.545 1.60751 16.5975 1.83751 16.5975L13.965 16.5975ZM2.16001 15.48C2.37501 15.18 2.55001 14.82 2.68501 14.4C2.81501 13.98 2.88001 13.56 2.88001 13.14C2.88001 12.745 2.81501 12.3425 2.68501 11.9325C2.55001 11.5275 2.36251 11.145 2.12251 10.785L13.8075 10.785C14.2375 10.785 14.6425 10.8825 15.0225 11.0775C15.3975 11.2775 15.7025 11.5475 15.9375 11.8875C16.1725 12.2325 16.3025 12.6025 16.3275 12.9975C16.3375 13.3325 16.29 13.65 16.185 13.95C16.075 14.25 15.905 14.52 15.675 14.76C15.45 14.99 15.19 15.1675 14.895 15.2925C14.6 15.4175 14.29 15.48 13.965 15.48L2.16001 15.48Z" fill="rgb(0,0,0)" fill-opacity="0.600000024" fill-rule="evenodd" />
		</g>
	</g>
	<g id="组合 31815">
		<path id="矢量 3019" d="M14.4375 10.5825C13.8975 10.5825 13.395 10.7175 12.93 10.9875C12.47 11.2575 12.105 11.62 11.835 12.075C11.565 12.535 11.43 13.035 11.43 13.575C11.43 14.125 11.565 14.63 11.835 15.09C12.105 15.555 12.47 15.9225 12.93 16.1925C13.395 16.4625 13.8975 16.5975 14.4375 16.5975C14.9775 16.5975 15.4775 16.4625 15.9375 16.1925C16.4025 15.9225 16.77 15.555 17.04 15.09C17.31 14.63 17.445 14.125 17.445 13.575C17.445 13.035 17.31 12.535 17.04 12.075C16.77 11.62 16.4025 11.2575 15.9375 10.9875C15.4775 10.7175 14.9775 10.5825 14.4375 10.5825ZM15.8775 13.23C15.9825 13.23 16.0725 13.265 16.1475 13.335C16.2175 13.41 16.2525 13.5 16.2525 13.605C16.2525 13.705 16.2175 13.7925 16.1475 13.8675C16.0725 13.9475 15.9825 13.9875 15.8775 13.9875L14.7975 13.9875L14.7975 15.0675C14.7975 15.1725 14.7575 15.2625 14.6775 15.3375C14.6025 15.4075 14.515 15.4425 14.415 15.4425C14.31 15.4425 14.22 15.4075 14.145 15.3375C14.075 15.2625 14.04 15.1725 14.04 15.0675L14.04 13.9875L12.96 13.9875C12.85 13.9875 12.76 13.9475 12.69 13.8675C12.62 13.7925 12.585 13.705 12.585 13.605C12.585 13.5 12.62 13.41 12.69 13.335C12.76 13.265 12.85 13.23 12.96 13.23L14.04 13.23L14.04 12.135C14.04 12.035 14.075 11.95 14.145 11.88C14.22 11.81 14.31 11.775 14.415 11.775C14.515 11.775 14.6025 11.81 14.6775 11.88C14.7575 11.95 14.7975 12.035 14.7975 12.135L14.7975 13.23L15.8775 13.23Z" fill="rgb(0,0,0)" fill-opacity="0.600000024" fill-rule="nonzero" />
	</g>
</svg>
