<svg viewBox="0 0 18 18" xmlns="http://www.w3.org/2000/svg" xmlns:xlink="http://www.w3.org/1999/xlink" width="18.000000" height="18.000000" fill="none">
	<defs>
		<filter id="pixso_custom_mask_type_luminance">
			<feColorMatrix type="matrix" values="1 0 0 0 0 0 1 0 0 0 0 0 1 0 0 0 0 0 1 0 " />
		</filter>
	</defs>
	<mask id="mask_0" width="18.412498" height="18.000000" x="0.000000" y="0.000000" maskUnits="userSpaceOnUse">
		<g filter="url(#pixso_custom_mask_type_luminance)">
			<g id="hms_mask_0">
				<rect id="矩形 543964" width="17.999998" height="18.000000" x="0.000000" y="0.000000" fill="rgb(255,255,255)" />
				<g id="组合 31814">
					<path id="矢量 3018" d="M14.4376 9.61499C13.7176 9.61499 13.0551 9.78999 12.4501 10.14C11.8401 10.495 11.3551 10.975 10.9951 11.58C10.6351 12.19 10.4551 12.855 10.4551 13.575C10.4551 14.295 10.6326 14.96 10.9876 15.57C11.3426 16.18 11.8251 16.665 12.4351 17.025C13.0501 17.385 13.7176 17.565 14.4376 17.565C15.1576 17.565 15.8226 17.385 16.4326 17.025C17.0476 16.665 17.5301 16.18 17.8801 15.57C18.2351 14.96 18.4126 14.295 18.4126 13.575C18.4126 12.855 18.2326 12.19 17.8726 11.58C17.5126 10.975 17.0301 10.495 16.4251 10.14C15.8201 9.78999 15.1576 9.61499 14.4376 9.61499Z" fill="rgb(0,0,0)" fill-rule="evenodd" />
				</g>
			</g>
		</g>
	</mask>
	<rect id="book_closed_right_left_badge_plus" width="18.000000" height="18.000000" x="0.000000" y="0.000000" />
	<rect id="矩形 543963" width="18.000000" height="18.000000" x="0.000000" y="0.000000" opacity="0" fill="rgb(0,0,0)" />
	<g id="mask" mask="url(#mask_0)">
		<g id="组合 31813">
			<path id="矢量 3017" d="M16.1474 8.35495C16.3724 8.35495 16.5725 8.29995 16.7474 8.18995C16.9224 8.07995 17.045 7.94245 17.115 7.77745C17.19 7.60745 17.2099 7.43245 17.1749 7.25245C17.135 7.07245 17.0499 6.90995 16.9199 6.76495L16.8674 6.71245C16.6724 6.52245 16.52 6.25495 16.41 5.90995C16.2949 5.56995 16.2374 5.21995 16.2374 4.85995C16.2374 4.54995 16.2974 4.22995 16.4174 3.89995C16.5374 3.56995 16.7 3.27245 16.905 3.00745L16.9724 2.89495C17.1074 2.69495 17.1749 2.50745 17.1749 2.33245C17.1749 2.15745 17.1449 2.02245 17.0849 1.92745C17.0099 1.77245 16.9049 1.65245 16.77 1.56745C16.63 1.48245 16.4574 1.42745 16.2524 1.40245C16.2174 1.39245 16.1649 1.38745 16.0949 1.38745L4.19245 1.38745C3.55745 1.38745 2.96745 1.52995 2.42245 1.81495C1.87745 2.10495 1.43495 2.50245 1.09495 3.00745C0.75995 3.51245 0.57495 4.06995 0.53995 4.67995C0.51495 5.34995 0.65495 5.96495 0.95995 6.52495C1.26995 7.08495 1.69745 7.52995 2.24245 7.85995C2.78745 8.18995 3.37745 8.35495 4.01245 8.35495L16.1474 8.35495ZM15.8774 2.51995C15.6375 2.86995 15.45 3.24745 15.3149 3.65245C15.1849 4.06245 15.1199 4.46495 15.1199 4.85995C15.1199 5.28995 15.1825 5.71245 15.3074 6.12745C15.4324 6.54245 15.61 6.90495 15.84 7.21495L4.03495 7.21495C3.58995 7.21495 3.17995 7.10245 2.80495 6.87745C2.43495 6.64745 2.14745 6.34495 1.94245 5.96995C1.73745 5.58995 1.64745 5.17745 1.67245 4.73245C1.68745 4.33745 1.80995 3.96995 2.03995 3.62995C2.27495 3.28495 2.58495 3.01495 2.96995 2.81995C3.35495 2.61995 3.76245 2.51995 4.19245 2.51995L15.8774 2.51995ZM13.965 16.5975C14.445 16.5975 14.9 16.505 15.33 16.32C15.755 16.13 16.1399 15.8625 16.4849 15.5175C16.8099 15.1825 17.0574 14.7925 17.2274 14.3475C17.3924 13.9025 17.465 13.435 17.445 12.945C17.405 12.345 17.2174 11.7925 16.8825 11.2875C16.5475 10.7825 16.1074 10.3825 15.5624 10.0875C15.0174 9.79245 14.4249 9.64495 13.7849 9.64495L1.88995 9.64495C1.65995 9.64495 1.45995 9.69495 1.28995 9.79495C1.11495 9.88995 0.98495 10.02 0.89995 10.185C0.74495 10.535 0.80495 10.895 1.07995 11.265C1.28495 11.53 1.44745 11.83 1.56745 12.165C1.68745 12.505 1.74745 12.83 1.74745 13.14C1.74745 13.49 1.68995 13.835 1.57495 14.175C1.45995 14.5149 1.30745 14.7824 1.11745 14.9775L1.07995 15.015C0.94995 15.17 0.86245 15.34 0.81745 15.525C0.77745 15.71 0.79245 15.8799 0.86245 16.035C0.93745 16.205 1.05995 16.34 1.22995 16.44C1.40495 16.545 1.60745 16.5975 1.83745 16.5975L13.965 16.5975ZM2.15995 15.4799C2.37495 15.18 2.54995 14.82 2.68495 14.4C2.81495 13.98 2.87995 13.56 2.87995 13.14C2.87995 12.745 2.81495 12.3425 2.68495 11.9325C2.54995 11.5275 2.36245 11.145 2.12245 10.785L13.8074 10.785C14.2374 10.785 14.6425 10.8825 15.0225 11.0775C15.3975 11.2775 15.7024 11.5475 15.9374 11.8875C16.1724 12.2325 16.3024 12.6025 16.3274 12.9975C16.3375 13.3325 16.29 13.65 16.1849 13.95C16.075 14.25 15.905 14.52 15.6749 14.76C15.45 14.99 15.1899 15.1674 14.8949 15.2924C14.5999 15.4174 14.2899 15.4799 13.965 15.4799L2.15995 15.4799Z" fill="rgb(10,89,247)" fill-rule="evenodd" />
		</g>
	</g>
	<g id="组合 31815">
		<path id="矢量 3019" d="M14.4374 10.5825C13.8974 10.5825 13.3949 10.7175 12.9299 10.9875C12.4699 11.2575 12.1049 11.62 11.8349 12.075C11.5649 12.535 11.4299 13.035 11.4299 13.575C11.4299 14.125 11.5649 14.63 11.8349 15.09C12.1049 15.555 12.4699 15.9225 12.9299 16.1925C13.3949 16.4625 13.8974 16.5975 14.4374 16.5975C14.9774 16.5975 15.4774 16.4625 15.9374 16.1925C16.4024 15.9225 16.7699 15.555 17.0399 15.09C17.3099 14.63 17.4449 14.125 17.4449 13.575C17.4449 13.035 17.3099 12.535 17.0399 12.075C16.7699 11.62 16.4024 11.2575 15.9374 10.9875C15.4774 10.7175 14.9774 10.5825 14.4374 10.5825ZM15.8774 13.23C15.9824 13.23 16.0724 13.265 16.1474 13.335C16.2174 13.41 16.2524 13.5 16.2524 13.605C16.2524 13.705 16.2174 13.7925 16.1474 13.8675C16.0724 13.9475 15.9824 13.9875 15.8774 13.9875L14.7974 13.9875L14.7974 15.0675C14.7974 15.1725 14.7574 15.2625 14.6774 15.3375C14.6024 15.4075 14.5149 15.4425 14.4149 15.4425C14.3099 15.4425 14.2199 15.4075 14.1449 15.3375C14.0749 15.2625 14.0399 15.1725 14.0399 15.0675L14.0399 13.9875L12.9599 13.9875C12.8499 13.9875 12.7599 13.9475 12.6899 13.8675C12.6199 13.7925 12.5849 13.705 12.5849 13.605C12.5849 13.5 12.6199 13.41 12.6899 13.335C12.7599 13.265 12.8499 13.23 12.9599 13.23L14.0399 13.23L14.0399 12.135C14.0399 12.035 14.0749 11.95 14.1449 11.88C14.2199 11.81 14.3099 11.775 14.4149 11.775C14.5149 11.775 14.6024 11.81 14.6774 11.88C14.7574 11.95 14.7974 12.035 14.7974 12.135L14.7974 13.23L15.8774 13.23Z" fill="rgb(10,89,247)" fill-rule="nonzero" />
	</g>
</svg>
