<svg viewBox="0 0 18 18" xmlns="http://www.w3.org/2000/svg" xmlns:xlink="http://www.w3.org/1999/xlink" width="18.000000" height="18.000000" fill="none">
	<defs>
		<filter id="pixso_custom_mask_type_luminance">
			<feColorMatrix type="matrix" values="1 0 0 0 0 0 1 0 0 0 0 0 1 0 0 0 0 0 1 0 " />
		</filter>
	</defs>
	<mask id="mask_0" width="18.000000" height="18.000000" x="0.000000" y="0.000000" maskUnits="userSpaceOnUse">
		<g filter="url(#pixso_custom_mask_type_luminance)">
			<g id="hms_mask_0">
				<rect id="矩形 543955" width="18.000000" height="18.000000" x="0.000000" y="0.000000" fill="rgb(255,255,255)" />
				<g id="组合 31801">
					<path id="矢量 3002" d="M13.7175 8.3175C13.0075 8.3175 12.3475 8.495 11.7375 8.85001C11.1225 9.2 10.64 9.6825 10.29 10.2975C9.93501 10.9075 9.75751 11.5675 9.75751 12.2775C9.75751 12.9975 9.93501 13.66 10.29 14.265C10.64 14.87 11.1225 15.3525 11.7375 15.7125C12.3475 16.0725 13.0075 16.2525 13.7175 16.2525C14.4375 16.2525 15.1025 16.075 15.7125 15.72C16.3275 15.37 16.81 14.8875 17.16 14.2725C17.515 13.6625 17.6925 12.9975 17.6925 12.2775C17.6925 11.5575 17.515 10.895 17.16 10.29C16.81 9.68001 16.3275 9.2 15.7125 8.85001C15.1025 8.495 14.4375 8.3175 13.7175 8.3175Z" fill="rgb(0,0,0)" fill-rule="evenodd" />
				</g>
			</g>
		</g>
	</mask>
	<rect id="message_badge_plus" width="18.000000" height="18.000000" x="0.000000" y="0.000000" />
	<rect id="矩形 543954" width="18.000000" height="18.000000" x="0.000000" y="0.000000" opacity="0" fill="rgb(0,0,0)" />
	<g id="mask" mask="url(#mask_0)">
		<g id="组合 31800">
			<path id="矢量 3001" d="M3.99751 16.2525C4.28251 16.2525 4.66501 16.1625 5.14501 15.9825C5.62501 15.8025 6.10501 15.5875 6.58501 15.3375L6.82501 15.21C6.99001 15.125 7.09751 15.0825 7.14751 15.0825C7.73251 15.2025 8.35001 15.2625 9.00001 15.2625C10.38 15.2625 11.6525 14.96 12.8175 14.355C13.9825 13.75 14.905 12.93 15.585 11.895C16.27 10.865 16.6125 9.7375 16.6125 8.5125C16.6125 7.2875 16.27 6.1575 15.585 5.1225C14.905 4.0825 13.9825 3.26 12.8175 2.655C11.6525 2.05 10.38 1.7475 9.00001 1.7475C7.62001 1.7475 6.34751 2.05 5.18251 2.655C4.01751 3.26 3.09501 4.0825 2.41501 5.1225C1.73001 6.1575 1.38751 7.2875 1.38751 8.5125C1.38751 9.4625 1.60251 10.375 2.03251 11.25C2.46751 12.125 3.08001 12.88 3.87001 13.515C4.02501 13.635 4.06001 13.8525 3.97501 14.1675C3.89501 14.4775 3.75251 14.8725 3.54751 15.3525L3.49501 15.48C3.41001 15.66 3.42001 15.835 3.52501 16.005C3.63501 16.17 3.79251 16.2525 3.99751 16.2525ZM9.00001 2.865C10.175 2.865 11.2575 3.12 12.2475 3.63C13.2375 4.14 14.025 4.825 14.61 5.685C15.19 6.55 15.48 7.4925 15.48 8.5125C15.48 9.5325 15.19 10.475 14.61 11.34C14.025 12.205 13.2375 12.89 12.2475 13.395C11.2575 13.895 10.175 14.145 9.00001 14.145C8.46001 14.145 7.92501 14.0925 7.39501 13.9875C7.20501 13.9375 7.01501 13.94 6.82501 13.995C6.63001 14.05 6.41251 14.15 6.17251 14.295C6.13751 14.305 6.10251 14.3225 6.06751 14.3475L5.99251 14.385C5.83751 14.455 5.67501 14.53 5.50501 14.61C5.34001 14.685 5.15501 14.765 4.95001 14.85C5.09501 14.395 5.15001 13.975 5.11501 13.59C5.07501 13.205 4.89501 12.8875 4.57501 12.6375C3.91501 12.1075 3.40501 11.4825 3.04501 10.7625C2.68501 10.0425 2.50501 9.2925 2.50501 8.5125C2.50501 7.4925 2.79501 6.55 3.37501 5.685C3.95501 4.825 4.74501 4.14 5.74501 3.63C6.74001 3.12 7.82501 2.865 9.00001 2.865Z" fill="rgb(10,89,247)" fill-rule="evenodd" />
		</g>
	</g>
	<g id="组合 31802">
		<path id="矢量 3003" d="M15.195 11.895C15.29 11.895 15.375 11.9325 15.45 12.0075C15.53 12.0775 15.57 12.1675 15.57 12.2775C15.57 12.3825 15.53 12.4725 15.45 12.5475C15.375 12.6175 15.29 12.6525 15.195 12.6525L14.0925 12.6525L14.0925 13.755C14.0925 13.85 14.0575 13.935 13.9875 14.01C13.9125 14.09 13.8225 14.13 13.7175 14.13C13.6075 14.13 13.52 14.095 13.455 14.025C13.39 13.95 13.3575 13.86 13.3575 13.755L13.3575 12.6525L12.255 12.6525C12.16 12.6525 12.075 12.6175 12 12.5475C11.92 12.4725 11.88 12.3825 11.88 12.2775C11.88 12.1675 11.92 12.0775 12 12.0075C12.075 11.9325 12.16 11.895 12.255 11.895L13.3575 11.895L13.3575 10.815C13.3575 10.71 13.39 10.62 13.455 10.545C13.52 10.475 13.6075 10.44 13.7175 10.44C13.8225 10.44 13.9125 10.48 13.9875 10.56C14.0575 10.635 14.0925 10.72 14.0925 10.815L14.0925 11.895L15.195 11.895ZM13.7175 9.28503C13.1775 9.28503 12.68 9.42003 12.225 9.69003C11.765 9.96003 11.4 10.325 11.13 10.785C10.86 11.24 10.725 11.7375 10.725 12.2775C10.725 12.8175 10.86 13.3175 11.13 13.7775C11.4 14.2425 11.765 14.61 12.225 14.88C12.68 15.15 13.1775 15.285 13.7175 15.285C14.2675 15.285 14.77 15.15 15.225 14.88C15.685 14.61 16.05 14.245 16.32 13.785C16.59 13.33 16.725 12.8275 16.725 12.2775C16.725 11.7375 16.59 11.24 16.32 10.785C16.05 10.325 15.685 9.96003 15.225 9.69003C14.77 9.42003 14.2675 9.28503 13.7175 9.28503Z" fill="rgb(10,89,247)" fill-rule="nonzero" />
	</g>
</svg>
