<svg viewBox="0 0 20 20" xmlns="http://www.w3.org/2000/svg" xmlns:xlink="http://www.w3.org/1999/xlink" width="20.000000" height="20.000000" fill="none">
	<defs>
		<filter id="pixso_custom_mask_type_luminance">
			<feColorMatrix type="matrix" values="1 0 0 0 0 0 1 0 0 0 0 0 1 0 0 0 0 0 1 0 " />
		</filter>
	</defs>
	<mask id="mask_1" width="20.000000" height="20.659563" x="0.000000" y="0.000000" maskUnits="userSpaceOnUse">
		<g filter="url(#pixso_custom_mask_type_luminance)">
			<g id="hms_mask_0">
				<rect id="矩形 543951" width="20.000000" height="20.000000" x="0.000000" y="0.000000" fill="rgb(255,255,255)" />
				<g id="组合 31797">
					<path id="矢量 2999" d="M18.2579 16.8583C18.3913 16.4583 18.4579 16.0583 18.4579 15.6583C18.4579 14.9527 18.2774 14.3027 17.9163 13.7083C17.5607 13.1139 17.0829 12.6416 16.4829 12.2916C15.8829 11.9361 15.2274 11.7583 14.5163 11.7583C13.8107 11.7583 13.1579 11.9361 12.5579 12.2916C11.9579 12.6416 11.4829 13.1139 11.1329 13.7083C10.7774 14.3027 10.5996 14.9527 10.5996 15.6583C10.5996 16.3805 10.7774 17.0444 11.1329 17.65C11.4829 18.2555 11.9579 18.7361 12.5579 19.0916C13.1579 19.4416 13.8107 19.6166 14.5163 19.6166C15.0774 19.6166 15.6246 19.4916 16.1579 19.2416L17.0996 20.1833C17.4052 20.4889 17.7718 20.6472 18.1996 20.6583C18.6274 20.675 19.0079 20.5222 19.3413 20.2C19.6579 19.8944 19.8135 19.5166 19.8079 19.0666C19.8024 18.6222 19.6329 18.2389 19.2996 17.9166L18.2579 16.8583Z" fill="rgb(0,0,0)" fill-rule="evenodd" />
				</g>
			</g>
		</g>
	</mask>
	<rect id="doc_text_badge_magnifyingglass" width="20.000000" height="20.000000" x="0.000000" y="0.000000" />
	<rect id="矩形 543950" width="20.000000" height="20.000000" x="0.000000" y="0.000000" opacity="0" fill="rgb(0,0,0)" />
	<g id="mask" mask="url(#mask_1)">
		<g id="组合 31796">
			<path id="矢量 2998" d="M15 2.08332C15.3444 2.08332 15.6417 2.20276 15.8917 2.44165C16.1361 2.68054 16.2583 2.97221 16.2583 3.31665L16.2583 16.6583C16.2583 17.0083 16.1361 17.3028 15.8917 17.5417C15.6417 17.7805 15.3444 17.9 15 17.9L5 17.9C4.66667 17.9 4.37778 17.7778 4.13333 17.5333C3.88333 17.2833 3.75833 16.9917 3.75833 16.6583L3.75833 3.31665C3.75833 2.97221 3.88333 2.68054 4.13333 2.44165C4.37778 2.20276 4.66667 2.08332 5 2.08332L15 2.08332ZM5 0.81665C4.54444 0.81665 4.12778 0.930539 3.75 1.15832C3.37222 1.38609 3.06944 1.68887 2.84167 2.06665C2.61389 2.44998 2.5 2.86665 2.5 3.31665L2.5 16.6583C2.5 17.1139 2.61389 17.5305 2.84167 17.9083C3.06944 18.2917 3.37222 18.5944 3.75 18.8167C4.12778 19.0444 4.54444 19.1583 5 19.1583L15 19.1583C15.4556 19.1583 15.8722 19.0444 16.25 18.8167C16.6278 18.5944 16.9306 18.2917 17.1583 17.9083C17.3861 17.5305 17.5 17.1139 17.5 16.6583L17.5 3.31665C17.5 2.86665 17.3861 2.44998 17.1583 2.06665C16.9306 1.68887 16.6278 1.38609 16.25 1.15832C15.8722 0.930539 15.4556 0.81665 15 0.81665L5 0.81665ZM13.7417 6.45832C13.9139 6.45832 14.0611 6.39998 14.1833 6.28332C14.3 6.1611 14.3583 6.01387 14.3583 5.84165C14.3583 5.66943 14.3 5.51943 14.1833 5.39165C14.0611 5.26387 13.9139 5.19998 13.7417 5.19998L6.28333 5.19998C6.10556 5.19998 5.95556 5.2611 5.83333 5.38332C5.70556 5.49998 5.64167 5.65276 5.64167 5.84165C5.64167 6.01387 5.70556 6.1611 5.83333 6.28332C5.95556 6.39998 6.10556 6.45832 6.28333 6.45832L13.7417 6.45832ZM11.1 9.91665C11.2722 9.91665 11.4194 9.85832 11.5417 9.74165C11.6583 9.61943 11.7167 9.47221 11.7167 9.29998C11.7167 9.12776 11.6583 8.98054 11.5417 8.85832C11.4194 8.74165 11.2722 8.68332 11.1 8.68332L6.28333 8.68332C6.10556 8.68332 5.95556 8.74165 5.83333 8.85832C5.70556 8.98054 5.64167 9.12776 5.64167 9.29998C5.64167 9.47221 5.70556 9.61943 5.83333 9.74165C5.95556 9.85832 6.10556 9.91665 6.28333 9.91665L11.1 9.91665Z" fill="rgb(10,89,247)" fill-rule="evenodd" />
		</g>
	</g>
	<g id="组合 31798">
		<path id="矢量 3000" d="M17.0996 17.1C17.2218 16.8444 17.3107 16.6055 17.3663 16.3833C17.4274 16.1555 17.4579 15.9139 17.4579 15.6583C17.4579 15.1416 17.3246 14.6583 17.0579 14.2083C16.7913 13.7639 16.4329 13.4111 15.9829 13.15C15.5274 12.8889 15.0385 12.7583 14.5163 12.7583C13.9996 12.7583 13.5163 12.8889 13.0663 13.15C12.6218 13.4111 12.2663 13.7639 11.9996 14.2083C11.7329 14.6583 11.5996 15.1416 11.5996 15.6583C11.5996 16.1916 11.7329 16.6861 11.9996 17.1416C12.2663 17.5916 12.6218 17.95 13.0663 18.2166C13.5163 18.4833 13.9996 18.6166 14.5163 18.6166C14.8496 18.6166 15.1663 18.5611 15.4663 18.45C15.7663 18.3389 16.0441 18.1833 16.2996 17.9833L17.7996 19.4833C17.9218 19.6 18.0579 19.6583 18.2079 19.6583C18.3635 19.6583 18.5079 19.6 18.6413 19.4833C18.7579 19.3611 18.8135 19.2194 18.8079 19.0583C18.8024 18.8972 18.7329 18.7583 18.5996 18.6416L17.0996 17.1ZM12.8579 15.6583C12.8579 15.2194 13.0218 14.8361 13.3496 14.5083C13.6774 14.1805 14.0663 14.0166 14.5163 14.0166C14.9607 14.0166 15.3524 14.1805 15.6913 14.5083C16.0302 14.8361 16.1996 15.2194 16.1996 15.6583C16.1996 16.125 16.0329 16.5222 15.6996 16.85C15.3663 17.1777 14.9718 17.3416 14.5163 17.3416C14.0663 17.3416 13.6774 17.1777 13.3496 16.85C13.0218 16.5222 12.8579 16.125 12.8579 15.6583Z" fill="rgb(10,89,247)" fill-rule="nonzero" />
	</g>
</svg>
