<svg viewBox="0 0 20 20" xmlns="http://www.w3.org/2000/svg" xmlns:xlink="http://www.w3.org/1999/xlink" width="20.000000" height="20.000000" fill="none">
	<rect id="science_technology" width="20.000000" height="20.000000" x="0.000000" y="0.000000" />
	<rect id="矩形 3650" width="20.000000" height="20.000000" x="0.000000" y="0.000000" opacity="0" fill="rgb(0,0,0)" />
	<g id="组合 30079">
		<path id="矢量 19" d="M15.5423 18.0417C15.9257 18.0417 16.2757 17.9833 16.5923 17.8667C16.9034 17.7556 17.1673 17.5944 17.384 17.3833C18.0229 16.7389 18.2173 15.8306 17.9673 14.6583C17.7229 13.4861 17.1534 12.2111 16.259 10.8333C15.3645 9.45 14.2979 8.14444 13.059 6.91666C11.8312 5.69444 10.5312 4.63333 9.15899 3.73333C7.78677 2.83333 6.51177 2.25833 5.33399 2.00833C4.15066 1.76388 3.23955 1.96111 2.60066 2.59999C2.1451 3.05555 1.92288 3.67777 1.93399 4.46666C1.93955 5.26111 2.17566 6.17222 2.64232 7.2C3.0701 8.14444 3.65066 9.12499 4.38399 10.1417C5.11732 11.1528 5.96177 12.1333 6.91732 13.0833C7.87844 14.0389 8.86177 14.8833 9.86732 15.6167C10.8784 16.35 11.8507 16.925 12.784 17.3417C13.7951 17.8083 14.7145 18.0417 15.5423 18.0417ZM4.41732 3.18333C4.97844 3.18333 5.68399 3.36111 6.53399 3.71666C7.37844 4.07777 8.2951 4.60833 9.28399 5.30833C10.2673 6.00833 11.2395 6.83888 12.2007 7.79999C13.3895 8.98888 14.3729 10.1889 15.1507 11.4C15.9284 12.6111 16.434 13.6778 16.6673 14.6C16.9007 15.5222 16.8451 16.1556 16.5007 16.5C16.2451 16.7556 15.834 16.8556 15.2673 16.8C14.7007 16.7444 14.0451 16.5444 13.3007 16.2C12.434 15.8111 11.5229 15.2722 10.5673 14.5833C9.61732 13.8889 8.6951 13.0944 7.80066 12.2C6.8951 11.2778 6.0951 10.3472 5.40066 9.40833C4.70621 8.46944 4.16732 7.56666 3.78399 6.69999C3.45066 5.93888 3.25621 5.27499 3.20066 4.70833C3.1451 4.14166 3.23955 3.73888 3.48399 3.49999C3.58955 3.39444 3.71732 3.31388 3.86732 3.25833C4.02288 3.20833 4.20621 3.18333 4.41732 3.18333Z" fill="rgb(108,0,255)" fill-rule="nonzero" />
		<path id="矢量 20" d="M4.41732 18.0583C5.57844 18.0583 6.95343 17.5861 8.54232 16.6417C10.1257 15.6917 11.6312 14.5056 13.059 13.0833C14.2979 11.8556 15.3645 10.55 16.259 9.16666C17.1534 7.78888 17.7229 6.51111 17.9673 5.33333C18.2173 4.14999 18.0229 3.23888 17.384 2.59999C16.7395 1.96111 15.8312 1.76388 14.659 2.00833C13.4868 2.25833 12.2118 2.82777 10.834 3.71666C9.45066 4.61111 8.13955 5.67777 6.90066 6.91666C5.93955 7.87777 5.09232 8.86111 4.35899 9.86666C3.62566 10.8778 3.05344 11.85 2.64232 12.7833C2.17566 13.8056 1.93955 14.7139 1.93399 15.5083C1.92288 16.3028 2.1451 16.9278 2.60066 17.3833C2.82843 17.6056 3.0951 17.775 3.40066 17.8917C3.70621 18.0028 4.0451 18.0583 4.41732 18.0583ZM16.5007 3.49999C16.8451 3.84444 16.9007 4.47499 16.6673 5.39166C16.434 6.30277 15.9284 7.36666 15.1507 8.58333C14.3729 9.79444 13.3895 11 12.2007 12.2C11.0118 13.4 9.80899 14.3889 8.59233 15.1667C7.3701 15.95 6.30066 16.4583 5.38399 16.6917C4.46177 16.925 3.82844 16.8611 3.48399 16.5C3.23955 16.2444 3.1451 15.8333 3.20066 15.2667C3.25621 14.7 3.45066 14.0444 3.78399 13.3C4.16732 12.4333 4.70621 11.5278 5.40066 10.5833C6.0951 9.63333 6.8951 8.70555 7.80066 7.79999C8.76177 6.83888 9.73121 6.00833 10.709 5.30833C11.6923 4.60833 12.6062 4.07777 13.4507 3.71666C14.2951 3.36111 14.9979 3.18333 15.559 3.18333C15.7757 3.18333 15.959 3.20833 16.109 3.25833C16.2645 3.31388 16.3951 3.39444 16.5007 3.49999Z" fill="rgb(108,0,255)" fill-rule="nonzero" />
	</g>
</svg>
