<svg viewBox="0 0 18 18" xmlns="http://www.w3.org/2000/svg" xmlns:xlink="http://www.w3.org/1999/xlink" width="18.000000" height="18.000000" fill="none">
	<rect id="容器 72011" width="18.000000" height="18.000000" x="0.000000" y="0.000000" fill="rgb(255,255,255)" fill-opacity="0" />
	<g id="组合 31910">
		<g id="组合 31816">
			<path id="矢量 3019" d="M14.7499 10.2422C14.2099 10.2422 13.7074 10.3772 13.2424 10.6472C12.7824 10.9172 12.4174 11.2797 12.1474 11.7347C11.8774 12.1947 11.7424 12.6947 11.7424 13.2347C11.7424 13.7847 11.8774 14.2897 12.1474 14.7497C12.4174 15.2147 12.7824 15.5822 13.2424 15.8522C13.7074 16.1222 14.2099 16.2572 14.7499 16.2572C15.2899 16.2572 15.7899 16.1222 16.2499 15.8522C16.7149 15.5822 17.0824 15.2147 17.3524 14.7497C17.6224 14.2897 17.7574 13.7847 17.7574 13.2347C17.7574 12.6947 17.6224 12.1947 17.3524 11.7347C17.0824 11.2797 16.7149 10.9172 16.2499 10.6472C15.7899 10.3772 15.2899 10.2422 14.7499 10.2422ZM16.1899 12.8897C16.2949 12.8897 16.3849 12.9247 16.4599 12.9947C16.5299 13.0697 16.5649 13.1597 16.5649 13.2647C16.5649 13.3647 16.5299 13.4522 16.4599 13.5272C16.3849 13.6072 16.2949 13.6472 16.1899 13.6472L15.1099 13.6472L15.1099 14.7272C15.1099 14.8322 15.0699 14.9222 14.9899 14.9972C14.9149 15.0672 14.8274 15.1022 14.7274 15.1022C14.6224 15.1022 14.5324 15.0672 14.4574 14.9972C14.3874 14.9222 14.3524 14.8322 14.3524 14.7272L14.3524 13.6472L13.2724 13.6472C13.1624 13.6472 13.0724 13.6072 13.0024 13.5272C12.9324 13.4522 12.8974 13.3647 12.8974 13.2647C12.8974 13.1597 12.9324 13.0697 13.0024 12.9947C13.0724 12.9247 13.1624 12.8897 13.2724 12.8897L14.3524 12.8897L14.3524 11.7947C14.3524 11.6947 14.3874 11.6097 14.4574 11.5397C14.5324 11.4697 14.6224 11.4347 14.7274 11.4347C14.8274 11.4347 14.9149 11.4697 14.9899 11.5397C15.0699 11.6097 15.1099 11.6947 15.1099 11.7947L15.1099 12.8897L16.1899 12.8897Z" fill="rgb(102,102,102)" fill-rule="nonzero" />
		</g>
		<path id="减去顶层" d="M14.9829 1.6924L14.9924 1.69238C15.379 1.69238 15.7374 1.76074 16.0674 1.89746C16.3973 2.03414 16.699 2.23914 16.9723 2.51247C17.2456 2.7858 17.4506 3.08743 17.5873 3.41736C17.724 3.74738 17.7924 4.10572 17.7924 4.49238L17.7924 10.6543C17.4837 10.2909 17.1113 9.98341 16.6924 9.74907L16.6924 4.57078L16.6887 4.44602C16.6737 4.2056 16.6181 3.98454 16.5219 3.78285C16.4327 3.59573 16.3085 3.42528 16.1494 3.27149C15.9762 3.10407 15.7861 2.98053 15.5791 2.90086C15.3939 2.82959 15.1951 2.79343 14.9829 2.79241C14.7517 2.79351 14.5373 2.83501 14.3396 2.91691C14.1393 2.9999 13.9562 3.12436 13.7903 3.29029C13.6244 3.45622 13.4999 3.63933 13.4169 3.83963C13.3339 4.04002 13.2924 4.2576 13.2924 4.49238L13.2924 9.51329C12.8901 9.66985 12.5193 9.88963 12.1924 10.1604L12.1924 4.49238L12.1924 4.48013L5.79236 4.48013L5.79238 4.49238L5.79238 13.1174C5.79238 13.2693 5.73869 13.3989 5.63129 13.5063C5.5239 13.6137 5.39426 13.6674 5.24238 13.6674L5.21126 13.6674C5.07693 13.6674 4.9585 13.624 4.85596 13.5372C4.75342 13.4504 4.69105 13.3408 4.66883 13.2083C4.636 13.0126 4.57431 12.8327 4.48376 12.6688C4.38723 12.4941 4.25789 12.3375 4.09576 12.199C3.93836 12.0646 3.76856 11.9635 3.58636 11.8957C3.40118 11.8268 3.20319 11.7924 2.99238 11.7924C2.78158 11.7924 2.58359 11.8268 2.39841 11.8957C2.21621 11.9635 2.04641 12.0646 1.88901 12.199C1.72687 12.3375 1.59754 12.4941 1.501 12.6688C1.41046 12.8327 1.34877 13.0126 1.31594 13.2083C1.31095 13.2381 1.30394 13.2667 1.29491 13.2941L1.29609 13.3362C1.31225 13.606 1.37411 13.8542 1.48167 14.0806C1.58136 14.2905 1.72031 14.4817 1.89852 14.6543C2.09241 14.8421 2.30527 14.9807 2.53709 15.0702C2.74813 15.1517 2.97488 15.1924 3.21736 15.1924L11.2491 15.1924C11.4834 15.6113 11.7909 15.9837 12.1543 16.2924L3.21736 16.2924C2.82647 16.2924 2.46171 16.2259 2.12308 16.0928C1.76371 15.9516 1.43377 15.7355 1.13327 15.4445C0.852187 15.1723 0.634022 14.8706 0.478776 14.5394C0.314765 14.1895 0.220978 13.8067 0.197415 13.3909C0.197263 13.3883 0.197132 13.3856 0.19702 13.3829C0.196911 13.3803 0.19682 13.3778 0.196747 13.3752L0.192597 13.2265L0.192432 13.2185L0.192383 13.2111L0.192383 4.49238C0.192383 4.10572 0.260742 3.74738 0.39746 3.41736C0.534141 3.08743 0.739145 2.7858 1.01247 2.51247C1.2858 2.23914 1.58743 2.03414 1.91736 1.89746C2.24738 1.76074 2.60572 1.69238 2.99238 1.69238L3.00181 1.6924L3.01118 1.69238C3.32427 1.69238 3.62131 1.73987 3.9023 1.83484C4.19604 1.93411 4.47225 2.08528 4.73091 2.28834C4.971 2.47682 5.17264 2.69138 5.33582 2.93201C5.43108 3.0725 5.51323 3.22187 5.58228 3.38013L12.4025 3.38013C12.4715 3.22187 12.5537 3.07251 12.6489 2.93203C12.8121 2.69139 13.0138 2.47682 13.2539 2.28834C13.5125 2.08528 13.7887 1.93412 14.0824 1.83484C14.3634 1.73987 14.6605 1.69238 14.9736 1.69238L14.9829 1.6924L14.9829 1.6924ZM1.29238 11.2668C1.51904 11.0917 1.76054 10.9566 2.01689 10.8616C2.32114 10.7488 2.64631 10.6924 2.99238 10.6924C3.33846 10.6924 3.66362 10.7488 3.96787 10.8616C4.22422 10.9566 4.46572 11.0917 4.69238 11.2668L4.69238 4.49238C4.69238 4.2576 4.65087 4.04002 4.56785 3.83963C4.48487 3.63934 4.36041 3.45622 4.19448 3.29029C4.02854 3.12436 3.84543 2.9999 3.64513 2.91691C3.44744 2.83501 3.233 2.7935 3.00183 2.79241C2.78102 2.79347 2.57525 2.83214 2.38453 2.90843C2.17085 2.9939 1.97605 3.12659 1.80014 3.3065C1.63952 3.47076 1.51701 3.65136 1.4326 3.84829C1.33912 4.06639 1.29238 4.30453 1.29238 4.5627L1.29238 11.2668Z" fill="rgb(102,102,102)" fill-rule="evenodd" />
	</g>
</svg>
