<svg viewBox="0 0 211.323 41.7803" xmlns="http://www.w3.org/2000/svg" xmlns:xlink="http://www.w3.org/1999/xlink" width="211.323486" height="41.780273" fill="none" customFrame="#000000">
	<rect id="容器 71917" width="211.323593" height="33.000000" x="0.000000" y="0.000000" />
	<g id="组合 1">
		<path id="矢量 14" d="M1.70129 11.5484C0.567098 13.668 0 16.1458 0 18.9819C0 21.8421 0.567098 24.3351 1.70129 26.4606C2.51162 27.967 3.52915 29.2209 4.75387 30.2223C5.25248 30.6301 5.78542 30.996 6.3527 31.32C6.8311 31.5924 7.32305 31.8317 7.82857 32.0379C9.40132 32.6793 11.1054 33 12.9407 33C14.7669 33 16.4625 32.6809 18.0274 32.0427C18.5356 31.8354 19.03 31.5945 19.5106 31.32C20.0854 30.9926 20.6252 30.6226 21.13 30.2099C22.3521 29.2104 23.3689 27.9607 24.1801 26.4606C25.3324 24.3351 25.9085 21.8421 25.9085 18.9819C25.9085 16.1458 25.3324 13.668 24.1801 11.5484C23.3619 10.0311 22.3346 8.76996 21.0983 7.76506C20.6026 7.3622 20.0734 7.00051 19.5106 6.68C19.03 6.40547 18.5356 6.16458 18.0274 5.95734C16.4625 5.31911 14.7669 5 12.9407 5C11.1054 5 9.40132 5.3207 7.82857 5.96211C7.32305 6.16828 6.83109 6.40757 6.3527 6.68C5.79736 6.99723 5.27492 7.35479 4.78539 7.75269C3.5466 8.75961 2.51857 10.0248 1.70129 11.5484ZM6.57894 23.76C5.97564 22.3751 5.674 20.7824 5.674 18.9819C5.674 17.1815 5.97564 15.5978 6.57894 14.231C7.11248 13.0168 7.83948 12.0475 8.75994 11.3232C8.88028 11.2285 9.00393 11.1379 9.13088 11.0516C9.46002 10.8272 9.8039 10.6363 10.1625 10.4788C11.0069 10.108 11.9329 9.92258 12.9407 9.92258C13.94 9.92258 14.8583 10.1064 15.6956 10.4741C16.0562 10.6325 16.4018 10.825 16.7324 11.0516C16.8754 11.1483 17.0142 11.2503 17.1488 11.3575C18.0534 12.078 18.7682 13.0359 19.2934 14.231C19.8967 15.5978 20.1983 17.1815 20.1983 18.9819C20.1983 20.7824 19.8967 22.3751 19.2934 23.76C18.7647 24.9684 18.0437 25.9364 17.1304 26.6639C17.0016 26.7665 16.8689 26.8644 16.7324 26.9574C16.4018 27.184 16.0562 27.3765 15.6956 27.5349C14.8583 27.9026 13.94 28.0865 12.9407 28.0865C11.9329 28.0865 11.0069 27.9011 10.1625 27.5303C9.8039 27.3728 9.46002 27.1818 9.13088 26.9574C9.01044 26.8749 8.89297 26.7885 8.77848 26.6984C7.84924 25.9671 7.11606 24.9877 6.57894 23.76Z" fill="rgb(0,0,0)" fill-rule="evenodd" />
		<path id="矢量 15" d="M39.959 28.2617C39.5138 28.4398 39.0328 28.5289 38.516 28.5289C37.8545 28.5289 37.2554 28.3997 36.7186 28.1414C36.1932 27.8886 35.7275 27.5119 35.3216 27.0115C34.5071 25.9998 34.0999 24.654 34.0999 22.974C34.0999 21.276 34.5011 19.9272 35.3035 18.9276C35.659 18.4847 36.0672 18.1399 36.5281 17.8933C37.1075 17.5833 37.7701 17.4282 38.516 17.4282C39.0964 17.4282 39.6296 17.5352 40.1154 17.7491C40.887 18.0889 41.5394 18.6985 42.0725 19.5779L45.9999 17.2837C45.6629 16.4988 45.2173 15.8178 44.6631 15.2406C44.2054 14.7639 43.6737 14.3581 43.0679 14.0231C42.9513 13.9583 42.8334 13.8964 42.714 13.8373C41.4679 13.2205 40.0686 12.9121 38.516 12.9121C37.5234 12.9121 36.5685 13.0434 35.6513 13.306C34.991 13.495 34.3501 13.7521 33.7289 14.0773C33.2795 14.3125 32.8561 14.5817 32.4586 14.8848C31.5437 15.5827 30.7665 16.4606 30.1272 17.5186C29.2162 19.036 28.7607 20.8545 28.7607 22.974C28.7607 25.0756 29.2162 26.885 30.1272 28.4024C30.7587 29.4432 31.5246 30.3098 32.425 31.0022C32.8321 31.3153 33.2668 31.5928 33.7289 31.8347C34.3501 32.1599 34.991 32.417 35.6513 32.606C36.5685 32.8686 37.5234 32.9999 38.516 32.9999C40.0686 32.9999 41.4679 32.6915 42.714 32.0746C42.8334 32.0156 42.9513 31.9536 43.0679 31.8889C43.6683 31.5596 44.196 31.16 44.6509 30.6903C45.2108 30.1123 45.6604 29.4279 45.9999 28.6373L42.0725 26.3431C41.4918 27.2908 40.7873 27.9303 39.959 28.2617Z" fill="rgb(0,0,0)" fill-rule="evenodd" />
		<path id="矢量 16" d="M57.5261 32.9998C59.7764 32.9998 61.532 32.4819 62.7929 31.4462L61.0102 27.752C60.4731 28.115 59.9122 28.3508 59.3277 28.4594C59.0784 28.5057 58.8248 28.5288 58.5668 28.5288C57.8439 28.5288 57.2659 28.352 56.8328 27.9983C56.6732 27.868 56.5333 27.7136 56.413 27.5353C55.9726 26.8669 55.7524 25.8914 55.7524 24.6088L55.7524 17.7262L61.535 17.7262L61.535 13.3998L55.7524 13.3998L55.7524 7.51074L50.5943 7.51074L50.5943 13.3998L47.1826 13.3998L47.1826 17.7262L50.5943 17.7262L50.5943 25.4578C50.5943 28.294 51.2307 30.26 52.5037 31.3559C52.6305 31.4651 52.7612 31.5688 52.896 31.6671C54.1141 32.5555 55.6575 32.9998 57.5261 32.9998Z" fill="rgb(0,0,0)" fill-rule="evenodd" />
		<path id="矢量 17" d="M64.7844 18.1274C64.0465 19.5527 63.6775 21.1682 63.6775 22.974C63.6775 24.8043 64.0542 26.4378 64.8077 27.8743C64.8772 28.0069 64.9499 28.1378 65.0259 28.2669C65.5961 29.2308 66.2862 30.0524 67.0961 30.7316C67.5714 31.1303 68.0879 31.4799 68.6456 31.7805C69.2499 32.1062 69.874 32.3666 70.518 32.5618C71.4813 32.8538 72.4891 32.9999 73.5414 32.9999C74.544 32.9999 75.5061 32.8636 76.4278 32.591C77.0979 32.3929 77.7465 32.1227 78.3738 31.7805C78.9037 31.4926 79.3961 31.1597 79.8511 30.7819C80.6808 30.093 81.3859 29.2547 81.9664 28.2669C82.0515 28.1231 82.1326 27.9772 82.2097 27.8292C82.9524 26.4036 83.3238 24.7852 83.3238 22.974C83.3238 21.1872 82.9601 19.5867 82.2328 18.1724C82.1488 18.0092 82.06 17.8484 81.9664 17.6902C81.3936 16.7156 80.6996 15.8841 79.8844 15.1956C79.4202 14.8036 78.9166 14.4579 78.3738 14.1586C77.7123 13.7897 77.027 13.5027 76.3179 13.2975C75.4297 13.0406 74.5042 12.9121 73.5414 12.9121C72.5307 12.9121 71.5611 13.0498 70.6324 13.3252C69.9479 13.5282 69.2856 13.806 68.6456 14.1586C68.0745 14.471 67.5466 14.8339 67.0619 15.2473C66.2668 15.9256 65.5881 16.7399 65.0259 17.6902C64.9414 17.8339 64.8609 17.9796 64.7844 18.1274ZM70.258 26.9883C69.4304 25.9929 69.0167 24.6548 69.0167 22.974C69.0167 21.3136 69.4233 19.9814 70.2367 18.9773C70.2551 18.9546 70.2738 18.932 70.2926 18.9095C70.7598 18.3578 71.2908 17.9566 71.8854 17.7057C72.381 17.4966 72.921 17.3921 73.5052 17.3921C74.1062 17.3921 74.6584 17.5028 75.1618 17.7241C75.7346 17.9759 76.2442 18.3711 76.6906 18.9095C76.695 18.9148 76.6993 18.9201 76.7037 18.9254C77.5335 19.9353 77.9484 21.2849 77.9484 22.974C77.9484 24.6781 77.5292 26.03 76.6906 27.0295C76.2521 27.5521 75.7527 27.9381 75.1922 28.1875C74.6807 28.4151 74.1184 28.5289 73.5052 28.5289C72.909 28.5289 72.3589 28.4213 71.855 28.2062C71.2726 27.9576 70.7519 27.5654 70.2926 27.0295C70.281 27.0159 70.2694 27.0021 70.258 26.9883Z" fill="rgb(0,0,0)" fill-rule="evenodd" />
	</g>
	<path id="" d="M106.441 6.65039L117.102 33L111.556 33L109.253 26.9883L98.9878 26.9883L96.7554 33L91.5435 33L101.871 6.65039L106.441 6.65039ZM107.557 22.5234L104.033 13.2686L100.614 22.5234L107.557 22.5234ZM137.15 14.3496L137.15 31.0928C137.15 34.8604 136.201 37.582 134.303 39.2578C132.41 40.9395 130.061 41.7803 127.254 41.7803C125.215 41.7803 123.419 41.3496 121.866 40.4883C120.319 39.627 119.224 38.4258 118.579 36.8848L122.429 34.6963C123.366 36.4951 124.975 37.3945 127.254 37.3945C129.029 37.3945 130.283 36.8701 131.016 35.8213C131.748 34.7783 132.126 33.0938 132.149 30.7676C130.901 32.543 129.1 33.4307 126.744 33.4307C125.232 33.4307 123.817 33.041 122.499 32.2617C121.181 31.4824 120.117 30.3545 119.309 28.8779C118.506 27.4014 118.105 25.667 118.105 23.6748C118.105 21.6592 118.506 19.9131 119.309 18.4365C120.117 16.96 121.181 15.832 122.499 15.0527C123.817 14.2734 125.232 13.8838 126.744 13.8838C127.969 13.8838 129.073 14.1475 130.058 14.6748C131.042 15.2021 131.848 16.0078 132.475 17.0918C132.639 16.1074 132.732 15.1934 132.756 14.3496L137.15 14.3496ZM127.685 29.1504C128.933 29.1504 129.987 28.6934 130.849 27.7793C131.716 26.8652 132.149 25.4971 132.149 23.6748C132.149 21.876 131.716 20.54 130.849 19.667C129.987 18.7881 128.933 18.3486 127.685 18.3486C126.366 18.3486 125.303 18.8174 124.494 19.7549C123.691 20.6865 123.29 21.9932 123.29 23.6748C123.29 25.3564 123.691 26.6895 124.494 27.6738C125.303 28.6582 126.366 29.1504 127.685 29.1504ZM149.929 13.8838C151.587 13.8838 153.058 14.25 154.341 14.9824C155.624 15.7148 156.62 16.749 157.329 18.085C158.038 19.415 158.393 20.9414 158.393 22.6641C158.393 23.4375 158.32 24.2197 158.173 25.0107L145.789 25.0107C146.006 26.3994 146.51 27.4482 147.301 28.1572C148.092 28.8662 149.076 29.2207 150.254 29.2207C151.098 29.2207 151.848 29.0361 152.504 28.667C153.166 28.292 153.676 27.7324 154.033 26.9883L157.707 29.1504C157.203 30.5156 156.237 31.5703 154.807 32.3145C153.383 33.0586 151.795 33.4307 150.043 33.4307C148.362 33.4307 146.8 33.0586 145.359 32.3145C143.917 31.5703 142.757 30.4541 141.878 28.9658C141.005 27.4775 140.569 25.6904 140.569 23.6045C140.569 21.542 141.005 19.7783 141.878 18.3135C142.757 16.8486 143.905 15.7441 145.323 15C146.741 14.2559 148.277 13.8838 149.929 13.8838ZM149.788 17.9531C148.804 17.9531 147.963 18.2666 147.266 18.8936C146.569 19.5146 146.1 20.3877 145.86 21.5127L153.278 21.5127C153.184 20.3643 152.818 19.4854 152.179 18.876C151.546 18.2607 150.749 17.9531 149.788 17.9531ZM172.398 13.8838C174.46 13.8838 176.092 14.5635 177.293 15.9229C178.495 17.2764 179.095 19.248 179.095 21.8379L179.095 33L174.085 33L174.085 23.4639C174.085 20.0537 172.957 18.3486 170.702 18.3486C169.5 18.3486 168.534 18.8115 167.801 19.7373C167.075 20.6572 166.711 21.958 166.711 23.6396L166.711 33L161.702 33L161.702 14.3496L166.096 14.3496C166.213 15.8145 166.322 16.8105 166.421 17.3379C167.623 15.0352 169.615 13.8838 172.398 13.8838ZM196.301 31.9189C195.077 32.9268 193.372 33.4307 191.186 33.4307C189.171 33.4307 187.545 32.8975 186.308 31.8311C185.072 30.7646 184.454 28.8516 184.454 26.0918L184.454 18.5684L181.14 18.5684L181.14 14.3496L184.454 14.3496L184.454 8.62793L189.464 8.62793L189.464 14.3496L195.08 14.3496L195.08 18.5684L189.464 18.5684L189.464 25.2568C189.464 26.5049 189.677 27.4541 190.105 28.1045C190.539 28.7549 191.236 29.0801 192.197 29.0801C193.035 29.0801 193.826 28.8281 194.57 28.3242L196.301 31.9189Z" fill="rgb(0,0,0)" fill-opacity="0.899999976" fill-rule="nonzero" />
	<circle id="椭圆 1" cx="208.32373" cy="30" r="3" fill="rgb(10,89,247)" />
</svg>
