<svg viewBox="0 0 139.955 28" xmlns="http://www.w3.org/2000/svg" xmlns:xlink="http://www.w3.org/1999/xlink" width="139.955078" height="28.000000" fill="none" customFrame="#000000">
	<g id="组合 16">
		<g id="组合 1">
			<path id="矢量 14" d="M1.70129 6.54839C0.567098 8.66796 0 11.1458 0 13.9819C0 16.8421 0.567098 19.3351 1.70129 21.4606C2.51162 22.967 3.52915 24.2209 4.75387 25.2223C5.25248 25.6301 5.78542 25.996 6.3527 26.32C6.8311 26.5924 7.32305 26.8317 7.82857 27.0379C9.40132 27.6793 11.1054 28 12.9407 28C14.7669 28 16.4625 27.6809 18.0274 27.0427C18.5356 26.8354 19.03 26.5945 19.5106 26.32C20.0854 25.9926 20.6252 25.6226 21.13 25.2099C22.3521 24.2104 23.3689 22.9607 24.1801 21.4606C25.3324 19.3351 25.9085 16.8421 25.9085 13.9819C25.9085 11.1458 25.3324 8.66796 24.1801 6.54839C23.3619 5.03108 22.3346 3.76996 21.0983 2.76506C20.6026 2.36219 20.0734 2.00051 19.5106 1.68C19.03 1.40547 18.5356 1.16458 18.0274 0.957337C16.4625 0.319113 14.7669 0 12.9407 0C11.1054 0 9.40132 0.320704 7.82857 0.962113C7.32305 1.16828 6.83109 1.40757 6.3527 1.68C5.79736 1.99723 5.27492 2.35479 4.78539 2.75269C3.5466 3.75961 2.51857 5.02484 1.70129 6.54839ZM6.57894 18.76C5.97564 17.3751 5.674 15.7824 5.674 13.9819C5.674 12.1815 5.97564 10.5978 6.57894 9.23097C7.11248 8.0168 7.83948 7.04753 8.75994 6.32316C8.88028 6.22846 9.00393 6.13794 9.13088 6.05161C9.46002 5.82722 9.8039 5.63627 10.1625 5.47878C11.0069 5.10798 11.9329 4.92258 12.9407 4.92258C13.94 4.92258 14.8583 5.10642 15.6956 5.47411C16.0562 5.6325 16.4018 5.825 16.7324 6.05161C16.8754 6.14831 17.0142 6.25027 17.1488 6.35747C18.0534 7.07804 18.7682 8.03587 19.2934 9.23097C19.8967 10.5978 20.1983 12.1815 20.1983 13.9819C20.1983 15.7824 19.8967 17.3751 19.2934 18.76C18.7647 19.9684 18.0437 20.9364 17.1304 21.6639C17.0016 21.7665 16.8689 21.8644 16.7324 21.9574C16.4018 22.184 16.0562 22.3765 15.6956 22.5349C14.8583 22.9026 13.94 23.0865 12.9407 23.0865C11.9329 23.0865 11.0069 22.9011 10.1625 22.5303C9.8039 22.3728 9.46002 22.1818 9.13088 21.9574C9.01044 21.8749 8.89297 21.7885 8.77848 21.6984C7.84924 20.9671 7.11606 19.9877 6.57894 18.76Z" fill="rgb(0,0,0)" fill-rule="evenodd" />
			<path id="矢量 15" d="M39.959 23.2616C39.5138 23.4398 39.0328 23.5288 38.516 23.5288C37.8545 23.5288 37.2554 23.3997 36.7186 23.1414C36.1932 22.8885 35.7275 22.5118 35.3216 22.0114C34.5071 20.9998 34.0999 19.654 34.0999 17.974C34.0999 16.2759 34.5011 14.9271 35.3035 13.9275C35.659 13.4846 36.0672 13.1399 36.5281 12.8932C37.1075 12.5832 37.7701 12.4282 38.516 12.4282C39.0964 12.4282 39.6296 12.5351 40.1154 12.7491C40.887 13.0889 41.5394 13.6984 42.0725 14.5779L45.9999 12.2837C45.6629 11.4987 45.2173 10.8177 44.6631 10.2405C44.2054 9.76384 43.6737 9.35801 43.0679 9.02302C42.9513 8.95827 42.8334 8.89635 42.714 8.83726C41.4679 8.22045 40.0686 7.91205 38.516 7.91205C37.5234 7.91205 36.5685 8.04333 35.6513 8.30589C34.991 8.49494 34.3501 8.75205 33.7289 9.07721C33.2795 9.31243 32.8561 9.58161 32.4586 9.88474C31.5437 10.5827 30.7665 11.4606 30.1272 12.5185C29.2162 14.0359 28.7607 15.8544 28.7607 17.974C28.7607 20.0755 29.2162 21.885 30.1272 23.4024C30.7587 24.4431 31.5246 25.3097 32.425 26.0022C32.8321 26.3153 33.2668 26.5928 33.7289 26.8346C34.3501 27.1598 34.991 27.4169 35.6513 27.6059C36.5685 27.8685 37.5234 27.9998 38.516 27.9998C40.0686 27.9998 41.4679 27.6914 42.714 27.0746C42.8334 27.0155 42.9513 26.9536 43.0679 26.8888C43.6683 26.5595 44.196 26.16 44.6509 25.6903C45.2108 25.1122 45.6604 24.4279 45.9999 23.6372L42.0725 21.343C41.4918 22.2907 40.7873 22.9303 39.959 23.2616Z" fill="rgb(0,0,0)" fill-rule="evenodd" />
			<path id="矢量 16" d="M57.5261 27.9999C59.7764 27.9999 61.532 27.482 62.7929 26.4464L61.0102 22.7522C60.4731 23.1152 59.9122 23.3509 59.3277 23.4595C59.0784 23.5058 58.8248 23.5289 58.5668 23.5289C57.8439 23.5289 57.2659 23.3521 56.8328 22.9985C56.6732 22.8681 56.5333 22.7138 56.413 22.5354C55.9726 21.867 55.7524 20.8915 55.7524 19.6089L55.7524 12.7263L61.535 12.7263L61.535 8.3999L55.7524 8.3999L55.7524 2.51086L50.5943 2.51086L50.5943 8.3999L47.1826 8.3999L47.1826 12.7263L50.5943 12.7263L50.5943 20.458C50.5943 23.2941 51.2307 25.2601 52.5037 26.356C52.6305 26.4652 52.7612 26.5689 52.896 26.6672C54.1141 27.5557 55.6575 27.9999 57.5261 27.9999Z" fill="rgb(0,0,0)" fill-rule="evenodd" />
			<path id="矢量 17" d="M64.7841 13.1274C64.0462 14.5526 63.6772 16.1681 63.6772 17.974C63.6772 19.8043 64.054 21.4377 64.8074 22.8743C64.877 23.0068 64.9497 23.1377 65.0256 23.2669C65.5959 24.2307 66.286 25.0523 67.0959 25.7316C67.5711 26.1302 68.0876 26.4798 68.6454 26.7804C69.2496 27.1061 69.8738 27.3666 70.5177 27.5618C71.4811 27.8538 72.4889 27.9998 73.5411 27.9998C74.5437 27.9998 75.5059 27.8635 76.4276 27.5909C77.0976 27.3928 77.7463 27.1226 78.3735 26.7804C78.9034 26.4925 79.3959 26.1597 79.8509 25.7819C80.6805 25.093 81.3856 24.2547 81.9662 23.2669C82.0513 23.1231 82.1324 22.9771 82.2095 22.8292C82.9522 21.4035 83.3236 19.7851 83.3236 17.974C83.3236 16.1871 82.9599 14.5866 82.2326 13.1724C82.1486 13.0091 82.0598 12.8484 81.9662 12.6901C81.3934 11.7156 80.6994 10.8841 79.8841 10.1955C79.4199 9.80349 78.9164 9.45781 78.3735 9.1585C77.712 8.78962 77.0268 8.50262 76.3177 8.29749C75.4295 8.04053 74.504 7.91205 73.5411 7.91205C72.5305 7.91205 71.5608 8.04974 70.6321 8.32512C69.9476 8.52811 69.2854 8.8059 68.6454 9.1585C68.0742 9.47091 67.5463 9.83383 67.0617 10.2473C66.2665 10.9256 65.5879 11.7399 65.0256 12.6901C64.9412 12.8338 64.8607 12.9796 64.7841 13.1274ZM70.2577 21.9883C69.4302 20.9929 69.0164 19.6548 69.0164 17.974C69.0164 16.3136 69.4231 14.9813 70.2364 13.9773C70.2549 13.9545 70.2735 13.9319 70.2924 13.9095C70.7596 13.3578 71.2905 12.9565 71.8851 12.7057C72.3808 12.4966 72.9207 12.392 73.5049 12.392C74.106 12.392 74.6582 12.5027 75.1615 12.724C75.7344 12.9758 76.244 13.371 76.6903 13.9095C76.6947 13.9148 76.6991 13.92 76.7034 13.9254C77.5333 14.9352 77.9482 16.2848 77.9482 17.974C77.9482 19.6781 77.5289 21.0299 76.6903 22.0295C76.2519 22.5521 75.7525 22.9381 75.192 23.1874C74.6805 23.415 74.1181 23.5288 73.5049 23.5288C72.9088 23.5288 72.3587 23.4213 71.8547 23.2061C71.2724 22.9575 70.7516 22.5653 70.2924 22.0295C70.2808 22.0158 70.2692 22.0021 70.2577 21.9883Z" fill="rgb(0,0,0)" fill-rule="evenodd" />
		</g>
		<g id="AI">
			<path id="矢量 1" d="M117.521 28L106.783 1.55554L102.18 1.55554L91.7778 28L97.0275 28L99.2761 21.9666L109.616 21.9666L111.935 28L117.521 28ZM104.358 8.20635L107.907 17.4857L100.914 17.4857L104.358 8.20635Z" fill="rgb(0,0,0)" fill-rule="evenodd" />
			<path id="矢量 2" d="M125.82 28L120.562 28L120.562 1.55554L125.82 1.55554L125.82 28Z" fill="rgb(0,0,0)" fill-rule="evenodd" />
		</g>
		<circle id="椭圆 1" cx="136.955078" cy="25" r="3" fill="rgb(10,89,247)" />
	</g>
</svg>
