<svg viewBox="0 0 20 20" xmlns="http://www.w3.org/2000/svg" xmlns:xlink="http://www.w3.org/1999/xlink" width="20.000000" height="20.000000" fill="none">
	<rect id="IconSettings1" width="20.000000" height="20.000000" x="0.000000" y="0.000000" />
	<rect id="矩形 11" width="20.000000" height="20.000000" x="0.000000" y="0.000000" opacity="0" fill="rgb(10,89,247)" />
	<g id="组合 15">
		<path id="矢量 14" d="M10.0166 7.50001C10.4722 7.50001 10.8889 7.6139 11.2666 7.84168C11.65 8.06945 11.95 8.37501 12.1666 8.75834C12.3889 9.14723 12.5 9.56668 12.5 10.0167C12.5 10.4722 12.3889 10.8889 12.1666 11.2667C11.95 11.65 11.65 11.95 11.2666 12.1667C10.8889 12.3889 10.4666 12.5 9.99998 12.5C9.54442 12.5 9.12498 12.3861 8.74165 12.1583C8.35276 11.9306 8.04998 11.625 7.83331 11.2417C7.61109 10.8528 7.49998 10.4333 7.49998 9.98334C7.49998 9.52779 7.61387 9.11112 7.84165 8.73334C8.06942 8.35001 8.37498 8.05001 8.75831 7.83334C9.1472 7.61112 9.56665 7.50001 10.0166 7.50001ZM10.0416 6.25834C9.35831 6.25834 8.72776 6.42501 8.14998 6.75834C7.5722 7.09168 7.11109 7.54168 6.76665 8.10834C6.42776 8.67501 6.25831 9.30001 6.25831 9.98334C6.25831 10.6611 6.42498 11.2889 6.75831 11.8667C7.09165 12.45 7.54442 12.9111 8.11665 13.25C8.69442 13.5889 9.3222 13.7583 9.99998 13.7583C10.6778 13.7583 11.3055 13.5917 11.8833 13.2583C12.4555 12.925 12.9111 12.4722 13.25 11.9C13.5889 11.3278 13.7583 10.7 13.7583 10.0167C13.7583 9.3389 13.5916 8.7139 13.2583 8.14168C12.925 7.56945 12.475 7.11112 11.9083 6.76668C11.3416 6.42779 10.7194 6.25834 10.0416 6.25834ZM11.3 18.8833C11.5555 18.8833 11.7889 18.8111 12 18.6667C12.2111 18.5278 12.3722 18.3445 12.4833 18.1167L13.1583 16.5417L13.3166 16.4583C13.5611 16.3139 13.8028 16.1667 14.0416 16.0167L15.7583 16.2417C16.025 16.2695 16.2722 16.225 16.5 16.1083C16.7278 15.9972 16.9083 15.8278 17.0416 15.6L18.3583 13.3167C18.4916 13.0945 18.55 12.8556 18.5333 12.6C18.5111 12.3445 18.4278 12.1111 18.2833 11.9L17.2416 10.5L17.2416 9.51668L18.2833 8.11668C18.4389 7.90556 18.525 7.67223 18.5416 7.41668C18.5528 7.16668 18.4916 6.92779 18.3583 6.70001L17.0416 4.40001C16.9194 4.1889 16.7444 4.02223 16.5166 3.90001C16.2944 3.77779 16.05 3.73057 15.7833 3.75834L14.0416 3.98334C13.8028 3.80557 13.5278 3.64445 13.2166 3.50001L12.5166 1.85834C12.4111 1.63057 12.2528 1.44445 12.0416 1.30001C11.825 1.15557 11.5916 1.08334 11.3416 1.08334L8.69998 1.08334C8.44442 1.08334 8.20831 1.15557 7.99165 1.30001C7.76942 1.44445 7.60553 1.63057 7.49998 1.85834L6.79998 3.50001L6.59998 3.61668C6.49442 3.67223 6.39165 3.72779 6.29165 3.78334C6.19165 3.83334 6.09442 3.89168 5.99998 3.95834L4.24165 3.75834C3.98609 3.71945 3.74165 3.75557 3.50831 3.86668C3.27498 3.98334 3.09165 4.15557 2.95831 4.38334L1.64165 6.68334C1.50831 6.89445 1.44998 7.13056 1.46665 7.39168C1.48887 7.65279 1.5722 7.8889 1.71665 8.10001L2.78331 9.51668L2.78331 10.4417L1.71665 11.8583C1.56109 12.075 1.47498 12.3083 1.45831 12.5583C1.4472 12.8139 1.50831 13.0556 1.64165 13.2833L2.94165 15.5583C3.07498 15.7861 3.25554 15.9556 3.48331 16.0667C3.70554 16.1833 3.94998 16.2278 4.21665 16.2L5.94165 16C6.31387 16.2389 6.59442 16.4056 6.78331 16.5L7.48331 18.1C7.5722 18.3389 7.72498 18.5278 7.94165 18.6667C8.15276 18.8111 8.39165 18.8833 8.65831 18.8833L11.3 18.8833ZM5.89998 14.7167L3.99998 14.9167L2.68331 12.5833L3.81665 11.0583C3.93887 10.875 3.99998 10.6889 3.99998 10.5C3.98887 10.3389 3.98331 10.1583 3.98331 9.95834C3.98331 9.75834 3.98887 9.57779 3.99998 9.41668C3.99998 9.20556 3.93887 9.0139 3.81665 8.84168L2.68331 7.28334L4.04165 4.95834L5.95831 5.20001C6.08053 5.21112 6.19165 5.20557 6.29165 5.18334C6.39165 5.15557 6.48054 5.1139 6.55831 5.05834C6.7972 4.88612 7.09165 4.71945 7.44165 4.55834C7.64165 4.45279 7.78053 4.30557 7.85831 4.11668L8.65831 2.31668L11.3416 2.34168L12.1 4.11668C12.1666 4.29445 12.3055 4.44168 12.5166 4.55834C12.8111 4.69168 13.1111 4.86668 13.4166 5.08334C13.6166 5.21668 13.8166 5.26112 14.0166 5.21668L15.9416 5.01668L17.2583 7.35834L16.1416 8.85834C15.9916 9.01945 15.9305 9.2139 15.9583 9.44168C15.975 9.6139 15.9833 9.80279 15.9833 10.0083C15.9833 10.2139 15.975 10.3972 15.9583 10.5583C15.9472 10.775 16.0083 10.9695 16.1416 11.1417L17.2583 12.6583L15.9 14.9833L14.0416 14.7583C13.9361 14.7472 13.8278 14.75 13.7166 14.7667C13.6111 14.7889 13.5194 14.8333 13.4416 14.9C13.1472 15.1111 12.8333 15.2917 12.5 15.4417C12.4055 15.4917 12.3194 15.5556 12.2416 15.6333C12.1583 15.7056 12.0972 15.7889 12.0583 15.8833L11.3 17.6167L8.61665 17.6L7.88331 15.8583C7.78887 15.6583 7.6472 15.5111 7.45831 15.4167C7.19165 15.3 6.88609 15.1278 6.54165 14.9C6.39165 14.7945 6.22498 14.7417 6.04165 14.7417L5.89998 14.7167Z" fill="rgb(10,89,247)" fill-opacity="0.899999976" fill-rule="nonzero" />
	</g>
</svg>
