<svg viewBox="0 0 14 14" xmlns="http://www.w3.org/2000/svg" xmlns:xlink="http://www.w3.org/1999/xlink" width="14.000000" height="14.000000" fill="none" customFrame="#000000">
	<rect id="IconSearch" width="14.000000" height="14.000000" x="0.000000" y="0.000000" />
	<path id="合并" d="M11.4839 7.14791C11.4288 7.63503 11.3043 8.10251 11.1103 8.55033C10.999 8.80727 11.1135 9.09658 11.3704 9.20787C11.6273 9.31916 11.9167 9.20472 12.028 8.94779C12.2614 8.40871 12.4113 7.8462 12.4776 7.26026C12.5432 6.67949 12.5239 6.10178 12.4194 5.52714C12.3135 4.94442 12.1249 4.391 11.8534 3.86689C11.5729 3.32533 11.2151 2.83703 10.7801 2.40199C10.4681 2.09006 10.1305 1.81861 9.76708 1.58764C9.46873 1.39801 9.15303 1.23567 8.81999 1.10062C8.48353 0.964175 8.14043 0.859916 7.7907 0.78784C7.39908 0.707133 6.99915 0.666779 6.5909 0.666779C6.18266 0.666779 5.78273 0.707131 5.39113 0.787835C5.04139 0.859911 4.69828 0.964172 4.36181 1.10062C4.02875 1.23568 3.71304 1.39803 3.41468 1.58767C3.0513 1.81863 2.71366 2.09007 2.40174 2.40199C2.08983 2.7139 1.81839 3.05154 1.58743 3.41491C1.39779 3.71328 1.23543 4.02899 1.10037 4.36205C0.963928 4.69853 0.859668 5.04163 0.787592 5.39137C0.706887 5.78298 0.666534 6.1829 0.666534 6.59115C0.666534 6.99939 0.706888 7.39933 0.787596 7.79094C0.859672 8.14067 0.963931 8.48377 1.10037 8.82024C1.23543 9.15329 1.39778 9.469 1.58742 9.76737C1.81838 10.1307 2.08982 10.4684 2.40174 10.7803C2.71364 11.0922 3.05126 11.3636 3.41461 11.5946C3.71299 11.7842 4.02873 11.9466 4.36181 12.0817C5.07504 12.3709 5.81807 12.5155 6.5909 12.5155C7.36373 12.5155 8.10676 12.3709 8.81999 12.0817C9.15308 11.9466 9.46881 11.7842 9.76719 11.5946C9.992 11.4517 10.207 11.2933 10.4121 11.1194L12.7713 13.4787C12.9693 13.6767 13.2804 13.6767 13.4784 13.4787C13.6764 13.2807 13.6764 12.9695 13.4784 12.7716L10.7801 10.0732C10.5444 9.8375 10.3087 9.8375 10.073 10.0732C9.80881 10.3373 9.52262 10.5665 9.21441 10.7607C8.97137 10.9139 8.71464 11.0453 8.4442 11.155C7.85147 11.3953 7.2337 11.5155 6.5909 11.5155C5.9481 11.5155 5.33033 11.3953 4.7376 11.155C4.1242 10.9062 3.58129 10.5456 3.10885 10.0732C2.84471 9.80906 2.61553 9.52288 2.42131 9.21467C2.26816 8.97163 2.13675 8.71489 2.02708 8.44444C1.91506 8.16821 1.82914 7.88654 1.76933 7.59943C1.7008 7.27047 1.66653 6.93438 1.66653 6.59115C1.66653 6.24791 1.7008 5.91181 1.76933 5.58285C1.82915 5.29575 1.91506 5.01408 2.02708 4.73785C2.13675 4.4674 2.26816 4.21065 2.42132 3.9676C2.61553 3.6594 2.84471 3.37323 3.10885 3.10909C3.37298 2.84496 3.65914 2.61579 3.96734 2.42157C4.21039 2.26841 4.46715 2.13699 4.7376 2.02732C5.01384 1.9153 5.29552 1.82938 5.58263 1.76957C5.91158 1.70104 6.24767 1.66678 6.5909 1.66678C6.93414 1.66678 7.27023 1.70104 7.59919 1.76958C7.8863 1.82939 8.16797 1.9153 8.4442 2.02732C8.71463 2.13699 8.97137 2.26839 9.2144 2.42154C9.52262 2.61576 9.8088 2.84494 10.073 3.10909C10.2943 3.33045 10.4915 3.56823 10.6647 3.82243C10.7747 3.98393 10.8749 4.15207 10.9654 4.32683C11.1909 4.76202 11.3476 5.22172 11.4355 5.70592C11.5224 6.184 11.5385 6.66467 11.4839 7.14791Z" fill="rgb(119,119,119)" fill-rule="evenodd" />
</svg>
