<svg viewBox="0 0 20 20" xmlns="http://www.w3.org/2000/svg" xmlns:xlink="http://www.w3.org/1999/xlink" width="20.000000" height="20.000000" fill="none">
	<rect id="IconSkill1" width="20.000000" height="20.000000" x="0.000000" y="0.000000" />
	<rect id="矩形 7512" width="20.000000" height="20.000000" x="0.000000" y="0.000000" opacity="0" fill="rgb(0,0,0)" />
	<g id="组合 30146">
		<path id="矢量 842" d="M17.1167 5.2C16.8389 5.2 16.6472 5.30555 16.5417 5.51666C16.4361 5.73333 16.4389 5.94722 16.55 6.15833C16.6611 6.375 16.85 6.48333 17.1167 6.48333C17.4389 6.46666 17.7528 6.37777 18.0583 6.21666C18.3639 6.06111 18.6167 5.83333 18.8167 5.53333C19.0167 5.23333 19.1167 4.88333 19.1167 4.48333C19.1167 3.72222 18.9083 3.14166 18.4917 2.74166C18.0694 2.34166 17.4 2.14166 16.4833 2.14166L7.95833 2.14166C7.48055 2.14166 7.00555 2.21666 6.53333 2.36666C6.05555 2.52222 5.64444 2.74722 5.3 3.04166C5.07222 3.225 4.85833 3.45833 4.65833 3.74166C4.45833 4.01944 4.30555 4.30555 4.2 4.6C4.27777 4.85555 4.39166 5.09166 4.54166 5.30833C4.68611 5.53055 4.89166 5.78055 5.15833 6.05833C5.19722 5.68611 5.27222 5.35277 5.38333 5.05833C5.48889 4.76388 5.65555 4.50555 5.88333 4.28333C6.12222 3.98888 6.425 3.77222 6.79166 3.63333C7.15833 3.48888 7.54722 3.41666 7.95833 3.41666L14.5833 3.41666C14.0333 4.27222 13.7917 5.36111 13.8583 6.68333C13.925 8 14.1389 9.29166 14.5 10.5583L14.5167 10.6167C14.8111 11.6833 15.0056 12.6778 15.1 13.6C15.1944 14.5222 15.0472 15.2278 14.6583 15.7167C14.3639 16.0778 13.9639 16.3444 13.4583 16.5167C12.9528 16.6944 12.3278 16.775 11.5833 16.7583L11.2417 16.7583C10.8528 16.7583 10.5333 16.7417 10.2833 16.7083C10.0278 16.675 9.78889 16.5889 9.56666 16.45C9.35 16.3111 9.2 16.0889 9.11666 15.7833C9.11666 15.7667 9.11666 15.7556 9.11666 15.75C9.11666 15.7444 9.11111 15.7333 9.1 15.7167C9.04444 15.45 9.075 15.2389 9.19166 15.0833C9.30277 14.9222 9.51944 14.7556 9.84166 14.5833C10.0417 14.4889 10.1639 14.3417 10.2083 14.1417C10.2583 13.9417 10.2278 13.7611 10.1167 13.6C10.0111 13.4389 9.85833 13.3583 9.65833 13.3583L6.41666 13.3583C6.41666 13.1194 6.39722 12.8611 6.35833 12.5833C6.31944 12.2722 6.23333 11.8417 6.1 11.2917C5.96666 10.7361 5.83888 10.225 5.71666 9.75833C5.70555 9.69166 5.69444 9.63889 5.68333 9.6C5.66666 9.56111 5.65277 9.50833 5.64166 9.44166L4.4 9.78333C4.47777 10.0611 4.55 10.3472 4.61666 10.6417C4.91111 11.7361 5.07777 12.4417 5.11666 12.7583C5.13333 12.9083 5.14166 13.0556 5.14166 13.2C5.14166 13.2556 5.14166 13.3083 5.14166 13.3583L4.24166 13.3583C3.14722 13.3583 2.35277 13.75 1.85833 14.5333C1.36388 15.3111 1.30555 16.0861 1.68333 16.8583C2.05555 17.6306 2.79444 18.0167 3.9 18.0167L11.5417 18.0167C12.6583 18.0167 13.5889 17.8556 14.3333 17.5333C15.0722 17.2056 15.6222 16.6806 15.9833 15.9583C16.5833 14.8139 16.5028 12.9083 15.7417 10.2417C15.3917 8.95833 15.1806 7.65833 15.1083 6.34166C15.0361 5.01944 15.3528 4.13888 16.0583 3.7C16.3417 3.52777 16.6194 3.44166 16.8917 3.44166C17.1639 3.44166 17.3889 3.52777 17.5667 3.7C17.75 3.87222 17.8417 4.13333 17.8417 4.48333C17.8417 4.65555 17.7833 4.79722 17.6667 4.90833C17.5556 5.025 17.4278 5.10833 17.2833 5.15833C17.2278 5.175 17.1722 5.18888 17.1167 5.2ZM2.95833 5.5C3.01389 5.37777 3.1 5.31666 3.21666 5.31666C3.33889 5.31666 3.42777 5.37777 3.48333 5.5L3.91666 6.65833C3.94444 6.74166 3.99166 6.79444 4.05833 6.81666L5.24166 7.25833C5.35833 7.31389 5.41666 7.4 5.41666 7.51666C5.41666 7.63888 5.35833 7.71944 5.24166 7.75833L4.05833 8.21666C3.99166 8.24444 3.94444 8.3 3.91666 8.38333L3.48333 9.54166C3.42777 9.65833 3.33889 9.71666 3.21666 9.71666C3.1 9.71666 3.01389 9.65833 2.95833 9.54166L2.51666 8.38333C2.49444 8.3 2.44166 8.24444 2.35833 8.21666L1.18333 7.75833C1.07222 7.71944 1.01666 7.63888 1.01666 7.51666C1.01666 7.4 1.07222 7.32222 1.18333 7.28333L2.35833 6.81666C2.44166 6.79444 2.49444 6.74166 2.51666 6.65833L2.95833 5.5ZM3.9 16.7417C3.46111 16.7417 3.14166 16.5639 2.94166 16.2083C2.74166 15.8583 2.75555 15.5083 2.98333 15.1583C3.20555 14.8139 3.625 14.6417 4.24166 14.6417L7.9 14.6167C7.82222 14.8333 7.78333 15.0639 7.78333 15.3083C7.78333 15.5583 7.81666 15.8056 7.88333 16.05C7.95 16.2944 8.03611 16.525 8.14166 16.7417L3.9 16.7417Z" fill="rgb(10,89,247)" fill-rule="nonzero" />
	</g>
</svg>
