<svg viewBox="0 0 18 18" xmlns="http://www.w3.org/2000/svg" xmlns:xlink="http://www.w3.org/1999/xlink" width="18.000000" height="18.000000" fill="none">
	<defs>
		<filter id="pixso_custom_mask_type_luminance">
			<feColorMatrix type="matrix" values="1 0 0 0 0 0 1 0 0 0 0 0 1 0 0 0 0 0 1 0 " />
		</filter>
	</defs>
	<mask id="mask_1" width="18.000000" height="18.000000" x="0.000000" y="0.000000" maskUnits="userSpaceOnUse">
		<g filter="url(#pixso_custom_mask_type_luminance)">
			<g id="hms_mask_0">
				<rect id="矩形 543966" width="18.000000" height="18.000000" x="0.000000" y="0.000000" fill="rgb(255,255,255)" />
				<g id="组合 31818">
					<path id="矢量 3022" d="M9 6.22501C9.05 6.22501 9.09 6.23751 9.12 6.26251C9.15 6.28751 9.165 6.32501 9.165 6.37501C9.345 7.21501 9.7425 7.94001 10.3575 8.55001C10.9775 9.16001 11.7075 9.55501 12.5475 9.73501C12.5925 9.75001 12.6275 9.77501 12.6525 9.81001C12.6775 9.84501 12.69 9.88001 12.69 9.91501C12.69 9.96501 12.6775 10.005 12.6525 10.035C12.6275 10.065 12.5925 10.08 12.5475 10.08C11.7075 10.26 10.9775 10.6625 10.3575 11.2875C9.7425 11.9125 9.345 12.645 9.165 13.485C9.15 13.52 9.1275 13.5525 9.0975 13.5825C9.0675 13.6125 9.035 13.6275 9 13.6275C8.95 13.6275 8.91 13.6125 8.88 13.5825C8.85 13.5525 8.83 13.52 8.82 13.485C8.64 12.63 8.245 11.895 7.635 11.28C7.02 10.66 6.2875 10.26 5.4375 10.08C5.4025 10.08 5.3725 10.065 5.3475 10.035C5.3225 10.005 5.31 9.96501 5.31 9.91501C5.31 9.87001 5.3225 9.83251 5.3475 9.80251C5.3725 9.77251 5.4025 9.75001 5.4375 9.73501C6.2875 9.55501 7.02 9.16001 7.635 8.55001C8.245 7.94001 8.64 7.21501 8.82 6.37501C8.83 6.32501 8.85 6.28751 8.88 6.26251C8.91 6.23751 8.95 6.22501 9 6.22501Z" fill="rgb(0,0,0)" fill-rule="evenodd" />
				</g>
			</g>
		</g>
	</mask>
	<rect id="IconStudio1" width="18.000000" height="18.000000" x="0.000000" y="0.000000" />
	<rect id="矩形 543965" width="18.000000" height="18.000000" x="0.000000" y="0.000000" opacity="0" fill="rgb(0,0,0)" />
	<g id="mask" mask="url(#mask_1)">
		<g id="组合 31817">
			<path id="矢量 3020" d="M2.73751 3.32999C2.10251 3.32999 1.61251 3.49999 1.26751 3.83999C0.927507 4.18499 0.757507 4.67499 0.757507 5.30999L0.757507 14.85C0.757507 15.485 0.927507 15.975 1.26751 16.32C1.61251 16.66 2.10251 16.83 2.73751 16.83L15.2625 16.83C15.8975 16.83 16.3875 16.66 16.7325 16.32C17.0725 15.975 17.2425 15.485 17.2425 14.85L17.2425 5.30999C17.2425 4.67499 17.0725 4.18499 16.7325 3.83999C16.3875 3.49999 15.8975 3.32999 15.2625 3.32999L2.73751 3.32999Z" fill="rgb(10,89,247)" fill-rule="evenodd" />
			<path id="矢量 3021" d="M14.9925 2.34001C15.1475 2.34001 15.3575 2.36501 15.6225 2.41501C15.4325 2.04001 15.1575 1.74001 14.7975 1.51501C14.4375 1.28501 14.0475 1.17001 13.6275 1.17001L4.3725 1.17001C3.9525 1.17001 3.5625 1.28501 3.2025 1.51501C2.8425 1.74001 2.5675 2.04001 2.3775 2.41501C2.6425 2.36501 2.8525 2.34001 3.0075 2.34001L14.9925 2.34001Z" fill="rgb(10,89,247)" fill-rule="evenodd" />
		</g>
	</g>
</svg>
