<svg viewBox="0 0 18 18" xmlns="http://www.w3.org/2000/svg" xmlns:xlink="http://www.w3.org/1999/xlink" width="18.000000" height="18.000000" fill="none">
	<rect id="IconStudio" width="18.000000" height="18.000000" x="0.000000" y="0.000000" />
	<rect id="矩形 543961" width="18.000000" height="18.000000" x="0.000000" y="0.000000" opacity="0" fill="rgb(0,0,0)" />
	<g id="组合 31811">
		<path id="矢量 3015" d="M14.9775 2.34C15.1675 2.34 15.3775 2.365 15.6075 2.415C15.4275 2.055 15.16 1.7575 14.805 1.5225C14.45 1.2875 14.0575 1.17 13.6275 1.17L4.37251 1.17C3.92751 1.17 3.53251 1.2875 3.18751 1.5225C2.83751 1.7575 2.56751 2.055 2.37751 2.415C2.61751 2.365 2.82751 2.34 3.00751 2.34L14.9775 2.34ZM2.73751 3.33C2.10251 3.33 1.61251 3.5 1.26751 3.84C0.927507 4.185 0.757507 4.675 0.757507 5.31L0.757507 14.85C0.757507 15.485 0.927507 15.975 1.26751 16.32C1.61251 16.66 2.10251 16.83 2.73751 16.83L15.2625 16.83C15.8975 16.83 16.3875 16.66 16.7325 16.32C17.0725 15.975 17.2425 15.485 17.2425 14.85L17.2425 5.31C17.2425 4.675 17.0725 4.185 16.7325 3.84C16.3875 3.5 15.8975 3.33 15.2625 3.33L2.73751 3.33ZM15.315 4.425C15.57 4.425 15.77 4.495 15.915 4.635C16.055 4.775 16.125 4.975 16.125 5.235L16.125 14.9025C16.125 15.1775 16.06 15.385 15.93 15.525C15.8 15.665 15.595 15.735 15.315 15.735L2.68501 15.735C2.39501 15.735 2.18501 15.665 2.05501 15.525C1.92001 15.385 1.85251 15.1775 1.85251 14.9025L1.85251 5.235C1.85251 4.985 1.92501 4.7875 2.07001 4.6425C2.21501 4.4975 2.42001 4.425 2.68501 4.425L15.315 4.425Z" fill="rgb(0,0,0)" fill-opacity="0.600000024" fill-rule="nonzero" />
		<path id="矢量 3016" d="M9 6.22501C8.95 6.22501 8.91 6.23751 8.88 6.26251C8.85 6.28751 8.83 6.32501 8.82 6.37501C8.64 7.21501 8.245 7.94001 7.635 8.55001C7.02 9.16001 6.2875 9.55501 5.4375 9.73501C5.4025 9.75001 5.3725 9.77251 5.3475 9.80251C5.3225 9.83251 5.31 9.87001 5.31 9.91501C5.31 9.96501 5.3225 10.005 5.3475 10.035C5.3725 10.065 5.4025 10.08 5.4375 10.08C6.2875 10.26 7.02 10.66 7.635 11.28C8.245 11.895 8.64 12.63 8.82 13.485C8.83 13.52 8.85 13.5525 8.88 13.5825C8.91 13.6125 8.95 13.6275 9 13.6275C9.035 13.6275 9.0675 13.6125 9.0975 13.5825C9.1275 13.5525 9.15 13.52 9.165 13.485C9.345 12.645 9.7425 11.9125 10.3575 11.2875C10.9775 10.6625 11.7075 10.26 12.5475 10.08C12.5925 10.08 12.6275 10.065 12.6525 10.035C12.6775 10.005 12.69 9.96501 12.69 9.91501C12.69 9.88001 12.6775 9.84501 12.6525 9.81001C12.6275 9.77501 12.5925 9.75001 12.5475 9.73501C11.7075 9.55501 10.9775 9.16001 10.3575 8.55001C9.7425 7.94001 9.345 7.21501 9.165 6.37501C9.165 6.32501 9.15 6.28751 9.12 6.26251C9.09 6.23751 9.05 6.22501 9 6.22501Z" fill="rgb(0,0,0)" fill-opacity="0.600000024" fill-rule="nonzero" />
	</g>
</svg>
