<svg viewBox="0 0 20 20" xmlns="http://www.w3.org/2000/svg" xmlns:xlink="http://www.w3.org/1999/xlink" width="20.000000" height="20.000000" fill="none">
	<rect id="IconAsset1" width="20.000000" height="20.000000" x="0.000000" y="0.000000" />
	<rect id="矩形 7514" width="20.000000" height="20.000000" x="0.000000" y="0.000000" opacity="0" fill="rgb(0,0,0)" />
	<g id="组合 30148">
		<path id="矢量 845" d="M9.99998 15.7583C10.1722 15.7583 10.3194 15.7 10.4416 15.5833C10.5583 15.4611 10.6166 15.3139 10.6166 15.1417L10.6166 9.35835C10.6166 9.18612 10.5583 9.0389 10.4416 8.91668C10.3194 8.80001 10.1722 8.74168 9.99998 8.74168C9.82775 8.74168 9.68053 8.80001 9.55831 8.91668C9.44164 9.0389 9.38331 9.18612 9.38331 9.35835L9.38331 15.1417C9.38331 15.3139 9.44164 15.4611 9.55831 15.5833C9.68053 15.7 9.82775 15.7583 9.99998 15.7583ZM17.8583 4.05834C17.6861 3.92501 17.5 3.84168 17.3 3.80835C17.1 3.77501 16.9 3.79168 16.7 3.85835L16.0416 4.08334L16.0416 2.21668C16.0416 2.17779 16.0416 2.14446 16.0416 2.11668C16.0028 1.90557 15.9028 1.7389 15.7416 1.61668C15.6472 1.55001 15.5472 1.50557 15.4416 1.48334C15.3361 1.45557 15.2222 1.45557 15.1 1.48334C14.3778 1.66668 13.5444 2.0389 12.6 2.60001C11.6555 3.16112 10.7833 4.00834 9.98331 5.14168C9.18331 4.00834 8.30553 3.16112 7.34998 2.60001C6.39442 2.0389 5.56386 1.66668 4.85831 1.48334C4.8472 1.48334 4.83886 1.48334 4.83331 1.48334C4.8222 1.48334 4.81664 1.47501 4.81664 1.45834C4.71109 1.44723 4.60553 1.45557 4.49998 1.48334C4.39442 1.50557 4.29998 1.55001 4.21664 1.61668C4.03331 1.76668 3.94164 1.96668 3.94164 2.21668L3.94164 4.08334L3.29998 3.88334L3.19998 3.84168C2.78886 3.74723 2.43609 3.81946 2.14164 4.05834C1.96942 4.18057 1.83609 4.33334 1.74164 4.51668C1.6472 4.70557 1.59998 4.90001 1.59998 5.10001L1.59998 14.9583C1.59998 15.2417 1.68331 15.4917 1.84998 15.7083C2.01664 15.9306 2.23331 16.0889 2.49998 16.1833L9.29998 18.4417C9.60553 18.5195 9.84998 18.5583 10.0333 18.5583C10.2111 18.5583 10.4472 18.5195 10.7416 18.4417L17.5166 16.1833C17.7833 16.0889 17.9972 15.9306 18.1583 15.7083C18.3194 15.4917 18.4 15.2417 18.4 14.9583L18.4 5.10001C18.4 4.8889 18.3528 4.69168 18.2583 4.50834C18.1639 4.33057 18.0305 4.18057 17.8583 4.05834ZM14.8 4.50001L11.1 5.71668C11.6611 4.96112 12.2666 4.35835 12.9166 3.90834C13.5722 3.4639 14.2 3.12779 14.8 2.90001L14.8 4.50001ZM5.18331 2.90001C5.53886 3.03334 5.9222 3.2139 6.33331 3.44168C6.73886 3.66946 7.16386 3.97223 7.60831 4.35001C8.05831 4.72779 8.47498 5.17779 8.85831 5.70001L5.18331 4.50001L5.18331 2.90001ZM10.3416 17.2417C10.125 17.3083 9.90553 17.3083 9.68331 17.2417L2.85831 14.9583L2.89998 5.05834L9.29998 7.15835C9.76664 7.31946 10.2472 7.31946 10.7416 7.15835L17.1416 5.10001L17.1416 14.9583L10.3416 17.2417Z" fill="rgb(10,89,247)" fill-rule="nonzero" />
	</g>
</svg>
