<svg viewBox="0 0 20 20" xmlns="http://www.w3.org/2000/svg" xmlns:xlink="http://www.w3.org/1999/xlink" width="20.000000" height="20.000000" fill="none">
	<rect id="IconAsset" width="20.000000" height="20.000000" x="0.000000" y="0.000000" />
	<rect id="矩形 7514" width="20.000000" height="20.000000" x="0.000000" y="0.000000" opacity="0" fill="rgb(0,0,0)" />
	<g id="组合 30148">
		<path id="矢量 845" d="M10 15.7583C10.1722 15.7583 10.3195 15.7 10.4417 15.5833C10.5583 15.4611 10.6167 15.3139 10.6167 15.1417L10.6167 9.35835C10.6167 9.18612 10.5583 9.0389 10.4417 8.91668C10.3195 8.80001 10.1722 8.74168 10 8.74168C9.82778 8.74168 9.68056 8.80001 9.55834 8.91668C9.44167 9.0389 9.38334 9.18612 9.38334 9.35835L9.38334 15.1417C9.38334 15.3139 9.44167 15.4611 9.55834 15.5833C9.68056 15.7 9.82778 15.7583 10 15.7583ZM17.8583 4.05834C17.6861 3.92501 17.5 3.84168 17.3 3.80835C17.1 3.77501 16.9 3.79168 16.7 3.85835L16.0417 4.08334L16.0417 2.21668C16.0417 2.17779 16.0417 2.14446 16.0417 2.11668C16.0028 1.90557 15.9028 1.7389 15.7417 1.61668C15.6472 1.55001 15.5472 1.50557 15.4417 1.48334C15.3361 1.45557 15.2222 1.45557 15.1 1.48334C14.3778 1.66668 13.5445 2.0389 12.6 2.60001C11.6556 3.16112 10.7833 4.00834 9.98334 5.14168C9.18334 4.00834 8.30556 3.16112 7.35001 2.60001C6.39445 2.0389 5.5639 1.66668 4.85834 1.48334C4.84723 1.48334 4.83889 1.48334 4.83334 1.48334C4.82223 1.48334 4.81667 1.47501 4.81667 1.45834C4.71112 1.44723 4.60556 1.45557 4.50001 1.48334C4.39445 1.50557 4.30001 1.55001 4.21667 1.61668C4.03334 1.76668 3.94167 1.96668 3.94167 2.21668L3.94167 4.08334L3.30001 3.88334L3.20001 3.84168C2.7889 3.74723 2.43612 3.81946 2.14167 4.05834C1.96945 4.18057 1.83612 4.33334 1.74167 4.51668C1.64723 4.70557 1.60001 4.90001 1.60001 5.10001L1.60001 14.9583C1.60001 15.2417 1.68334 15.4917 1.85001 15.7083C2.01667 15.9306 2.23334 16.0889 2.50001 16.1833L9.30001 18.4417C9.60556 18.5195 9.85001 18.5583 10.0333 18.5583C10.2111 18.5583 10.4472 18.5195 10.7417 18.4417L17.5167 16.1833C17.7833 16.0889 17.9972 15.9306 18.1583 15.7083C18.3195 15.4917 18.4 15.2417 18.4 14.9583L18.4 5.10001C18.4 4.8889 18.3528 4.69168 18.2583 4.50834C18.1639 4.33057 18.0306 4.18057 17.8583 4.05834ZM14.8 4.50001L11.1 5.71668C11.6611 4.96112 12.2667 4.35835 12.9167 3.90834C13.5722 3.4639 14.2 3.12779 14.8 2.90001L14.8 4.50001ZM5.18334 2.90001C5.53889 3.03334 5.92223 3.2139 6.33334 3.44168C6.7389 3.66946 7.1639 3.97223 7.60834 4.35001C8.05834 4.72779 8.47501 5.17779 8.85834 5.70001L5.18334 4.50001L5.18334 2.90001ZM10.3417 17.2417C10.125 17.3083 9.90556 17.3083 9.68334 17.2417L2.85834 14.9583L2.90001 5.05834L9.30001 7.15835C9.76667 7.31946 10.2472 7.31946 10.7417 7.15835L17.1417 5.10001L17.1417 14.9583L10.3417 17.2417Z" fill="rgb(0,0,0)" fill-opacity="0.899999976" fill-rule="nonzero" />
	</g>
</svg>
