<svg viewBox="0 0 26 24" xmlns="http://www.w3.org/2000/svg" xmlns:xlink="http://www.w3.org/1999/xlink" width="26.000000" height="24.000000" fill="none" customFrame="#000000">
	<defs>
		<linearGradient id="paint_linear_0" x1="1.82565975" x2="17.8180275" y1="19.9871101" y2="3.35504913" gradientUnits="userSpaceOnUse">
			<stop stop-color="rgb(1,51,206)" offset="0" stop-opacity="1" />
			<stop stop-color="rgb(1,93,225)" offset="0.349999994" stop-opacity="1" />
		</linearGradient>
		<linearGradient id="paint_linear_1" x1="8.57005024" x2="22.4137383" y1="8.45344067" y2="22.8508739" gradientUnits="userSpaceOnUse">
			<stop stop-color="rgb(1,93,225)" offset="0" stop-opacity="1" />
			<stop stop-color="rgb(100,205,247)" offset="1" stop-opacity="1" />
		</linearGradient>
	</defs>
	<rect id="OctoLogo" width="26.000000" height="24.000000" x="0.000000" y="0.000000" />
	<g id="g">
		<path id="path_00000089550507907692083430000011116342118019135877_" />
		<path id="path" d="M22.6489 9.22222C22.6489 8.33333 22.3022 7.55556 21.7244 7.11111L15.2533 0.888889C14.6756 0.333333 13.8667 0 13.0578 0C12.2489 0 11.44 0.333333 10.8622 0.888889L4.39111 7C3.81333 7.55556 3.35111 8.33333 3.35111 9.22222C3.35111 10.8889 4.73778 12.2222 6.47111 12.2222C8.20444 12.2222 9.59111 10.8889 9.59111 9.22222L12.9422 6L16.2933 9.22222L7.28 17.8889L3.81333 14.5556L0 18.2222L5.08444 23.1111C5.66222 23.6667 6.47111 24 7.28 24C8.08889 24 8.89778 23.6667 9.47556 23.1111L21.6089 11.4444C22.1867 10.8889 22.6489 10.1111 22.6489 9.22222Z" fill="url(#paint_linear_0)" fill-rule="nonzero" />
		<path id="path_00000013875002828899643280000011641478877652804273_" />
		<path id="path_00000170997707182529309390000003411054097233916074_" d="M26 18.2222L22.1867 14.5556L18.72 17.8889L8.08888 7.66666L4.27554 11.3333L16.4089 23C16.9867 23.5556 17.7955 24 18.72 24C19.5289 24 20.3378 23.6667 20.9155 23.1111L26 18.2222Z" fill="url(#paint_linear_1)" fill-rule="nonzero" />
	</g>
</svg>
