<svg viewBox="0 0 16 16" xmlns="http://www.w3.org/2000/svg" xmlns:xlink="http://www.w3.org/1999/xlink" width="16.000000" height="16.000000" fill="none">
	<rect id="checkmark" width="16.000000" height="16.000000" x="0.000000" y="0.000000" />
	<rect id="矩形 543969" width="16.000000" height="16.000000" x="0.000000" y="0.000000" opacity="0" fill="rgb(0,0,0)" />
	<g id="组合 31823">
		<path id="矢量 3025" d="M6.33299 12.1266C6.51522 12.1266 6.693 12.0933 6.86633 12.0266C7.03522 11.9555 7.18411 11.8555 7.31299 11.7266L14.353 4.71994C14.4463 4.62216 14.493 4.50438 14.493 4.3666C14.493 4.22883 14.4463 4.11105 14.353 4.01327C14.2552 3.9066 14.1374 3.85327 13.9997 3.85327C13.8619 3.85327 13.7397 3.9066 13.633 4.01327L6.593 11.0266C6.51744 11.0977 6.43077 11.1333 6.33299 11.1333C6.23966 11.1333 6.15522 11.0977 6.07966 11.0266L2.35299 7.3266C2.25522 7.21994 2.13744 7.16883 1.99966 7.17327C1.86188 7.18216 1.74411 7.23327 1.64633 7.3266C1.53966 7.42438 1.48633 7.54216 1.48633 7.67994C1.48633 7.81772 1.53966 7.93549 1.64633 8.03327L5.373 11.7266C5.50188 11.8555 5.64855 11.9555 5.81299 12.0266C5.98188 12.0933 6.15522 12.1266 6.33299 12.1266Z" fill="rgb(0,0,0)" fill-opacity="0.90196079" fill-rule="nonzero" />
	</g>
</svg>
