<svg viewBox="0 0 20 20" xmlns="http://www.w3.org/2000/svg" xmlns:xlink="http://www.w3.org/1999/xlink" width="20.000000" height="20.000000" fill="none">
	<rect id="chevron_down" width="20.000000" height="20.000000" x="0.000000" y="0.000000" />
	<rect id="矩形 9" width="20.000000" height="20.000000" x="0.000000" y="0.000000" opacity="0" fill="rgb(0,0,0)" />
	<g id="组合 10">
		<path id="矢量 13" d="M10.0001 13.0418C10.2556 13.0418 10.4751 12.9474 10.6584 12.7585L15.4418 8.04183C15.5584 7.91961 15.6168 7.77238 15.6168 7.60016C15.6168 7.42794 15.5584 7.27516 15.4418 7.14183C15.3195 7.01961 15.1723 6.9585 15.0001 6.9585C14.8279 6.9585 14.6751 7.01961 14.5418 7.14183L10.0001 11.6585L5.44176 7.14183C5.31953 7.01961 5.17231 6.9585 5.00009 6.9585C4.82787 6.9585 4.68064 7.01961 4.55842 7.14183C4.44176 7.27516 4.38342 7.42794 4.38342 7.60016C4.38342 7.77238 4.44176 7.91961 4.55842 8.04183L9.34176 12.7585C9.52509 12.9474 9.74453 13.0418 10.0001 13.0418Z" fill="rgb(0,0,0)" fill-opacity="0.600000024" fill-rule="nonzero" />
	</g>
</svg>
