<svg viewBox="0 0 16 16" xmlns="http://www.w3.org/2000/svg" xmlns:xlink="http://www.w3.org/1999/xlink" width="16.000000" height="16.000000" fill="none">
	<rect id="heart" width="16.000000" height="16.000000" x="0.000000" y="0.000000" />
	<rect id="矩形 6888" width="16.000000" height="16.000000" x="0.000000" y="0.000000" opacity="0" fill="rgb(0,0,0)" />
	<g id="组合 2">
		<path id="矢量 1" d="M1.68001 6.22633C1.68001 5.43522 1.82223 4.75744 2.10667 4.193C2.38667 3.62855 2.78667 3.20188 3.30667 2.91299C3.82223 2.62411 4.43778 2.47966 5.15334 2.47966C5.62001 2.47966 6.07112 2.57522 6.50667 2.76633C6.93778 2.95744 7.31778 3.23077 7.64667 3.58633C7.73112 3.69299 7.8489 3.74633 8.00001 3.74633C8.16001 3.74633 8.28223 3.69299 8.36667 3.58633C8.70001 3.23077 9.08223 2.95744 9.51334 2.76633C9.94445 2.57522 10.3889 2.47966 10.8467 2.47966C11.6467 2.47966 12.3089 2.65744 12.8333 3.01299C13.3533 3.37299 13.7311 3.83522 13.9667 4.39966C14.2022 4.96411 14.32 5.573 14.32 6.22633C14.32 7.03522 13.8667 8.053 12.96 9.27966C12.4578 9.95077 11.8689 10.6174 11.1933 11.2797C10.5133 11.9419 9.87556 12.4841 9.28001 12.9063C8.68445 13.3241 8.25778 13.533 8.00001 13.533C7.74223 13.533 7.33112 13.3286 6.76667 12.9197C6.20223 12.5108 5.58445 11.9752 4.91334 11.313C4.24223 10.6508 3.63334 9.973 3.08667 9.27966C2.66001 8.74633 2.32001 8.20411 2.06667 7.653C1.8089 7.10633 1.68001 6.63077 1.68001 6.22633ZM10.8467 1.48633C10.3267 1.48633 9.82223 1.57966 9.33334 1.76633C8.8489 1.95299 8.40445 2.21744 8.00001 2.55966C7.59556 2.21744 7.15112 1.95299 6.66667 1.76633C6.17778 1.57966 5.67334 1.48633 5.15334 1.48633C4.28667 1.48633 3.51334 1.69522 2.83334 2.11299C2.1489 2.52633 1.61778 3.08411 1.24001 3.78633C0.862229 4.48411 0.67334 5.24855 0.67334 6.07966C0.67334 6.81744 0.931118 7.64633 1.44667 8.56633C1.96667 9.49077 2.64223 10.3908 3.47334 11.2663C4.35778 12.1908 5.21778 12.9641 6.05334 13.5863C6.89334 14.2041 7.53778 14.513 7.98667 14.513C8.48445 14.513 9.13778 14.2108 9.94667 13.6063C10.7511 13.0063 11.6067 12.2263 12.5133 11.2663C13.3356 10.413 14.0089 9.52188 14.5333 8.59299C15.0622 7.66411 15.3267 6.82633 15.3267 6.07966C15.3267 5.24855 15.1356 4.48411 14.7533 3.78633C14.3667 3.08411 13.8333 2.52633 13.1533 2.11299C12.4689 1.69522 11.7 1.48633 10.8467 1.48633Z" fill="rgb(0,0,0)" fill-opacity="0.90196079" fill-rule="nonzero" />
	</g>
</svg>
