<svg viewBox="0 0 16 16" xmlns="http://www.w3.org/2000/svg" xmlns:xlink="http://www.w3.org/1999/xlink" width="16.000000" height="16.000000" fill="none">
	<rect id="ic_public_switchover" width="16.000000" height="16.000000" x="0.000000" y="0.000000" />
	<g id="ic_public_switchover-切换/base/ic_public_switchover">
		<path id="path1" d="M0.501823 7.99389C0.501823 6.8222 0.497722 5.6505 0.501823 4.47881C0.499465 3.91183 0.569153 3.34684 0.709212 2.79743C1.0162 1.63452 1.7737 0.944393 2.93543 0.676661C3.51794 0.550805 4.11291 0.491839 4.70879 0.500907C6.95571 0.500907 9.20282 0.500907 11.4501 0.500907C12.0177 0.497384 12.5836 0.562295 13.1356 0.694236C14.3325 0.98716 15.0507 1.74525 15.3243 2.93803C15.4473 3.50176 15.5061 4.07761 15.4995 4.65456C15.4995 6.9257 15.4995 9.19703 15.4995 11.4686C15.5026 12.0306 15.4379 12.591 15.3068 13.1376C15.0138 14.3351 14.2522 15.0498 13.0594 15.3234C12.4769 15.4488 11.882 15.5078 11.2861 15.4992C9.04855 15.4992 6.8112 15.4992 4.57404 15.4992C4.00215 15.5038 3.43176 15.4399 2.87509 15.3088C1.67293 15.0159 0.951167 14.2543 0.678163 13.0556C0.538731 12.4463 0.501823 11.8353 0.501823 11.219C0.501823 10.1441 0.501823 9.06912 0.501823 7.99389Z" fill="rgb(255,255,255)" fill-opacity="0" fill-rule="nonzero" />
		<path id="path1" d="M0.501823 4.47881C0.499465 3.91183 0.569153 3.34684 0.709212 2.79743C1.0162 1.63452 1.7737 0.944393 2.93543 0.676661C3.51794 0.550805 4.11291 0.491839 4.70879 0.500907C6.95571 0.500907 9.20282 0.500907 11.4501 0.500907C12.0177 0.497384 12.5836 0.562295 13.1356 0.694236C14.3325 0.98716 15.0507 1.74525 15.3243 2.93803C15.4473 3.50176 15.5061 4.07761 15.4995 4.65456C15.4995 6.9257 15.4995 9.19703 15.4995 11.4686C15.5026 12.0306 15.4379 12.591 15.3068 13.1376C15.0138 14.3351 14.2522 15.0498 13.0594 15.3234C12.4769 15.4488 11.882 15.5078 11.2861 15.4992C9.04855 15.4992 6.8112 15.4992 4.57404 15.4992C4.00215 15.5038 3.43176 15.4399 2.87509 15.3088C1.67293 15.0159 0.951167 14.2543 0.678163 13.0556C0.538731 12.4463 0.501823 11.8353 0.501823 11.219C0.501823 10.1441 0.501823 9.06912 0.501823 7.99389C0.501823 6.8222 0.497722 5.6505 0.501823 4.47881Z" fill-rule="nonzero" stroke="rgb(255,255,255)" stroke-opacity="0" stroke-width="0.886667" />
		<path id="path2" d="M0.501823 4.47881C0.499465 3.91183 0.569153 3.34684 0.709212 2.79743C1.0162 1.63452 1.7737 0.944393 2.93543 0.676661C3.51794 0.550805 4.11291 0.491839 4.70879 0.500907C6.95571 0.500907 9.20282 0.500907 11.4501 0.500907C12.0177 0.497384 12.5836 0.562295 13.1356 0.694236C14.3325 0.98716 15.0507 1.74525 15.3243 2.93803C15.4473 3.50176 15.5061 4.07761 15.4995 4.65456C15.4995 6.9257 15.4995 9.19703 15.4995 11.4686C15.5026 12.0306 15.4379 12.591 15.3068 13.1376C15.0138 14.3351 14.2522 15.0498 13.0594 15.3234C12.4769 15.4488 11.882 15.5078 11.2861 15.4992C9.04855 15.4992 6.8112 15.4992 4.57404 15.4992C4.00215 15.5038 3.43176 15.4399 2.87509 15.3088C1.67293 15.0159 0.951167 14.2543 0.678163 13.0556C0.538731 12.4463 0.501823 11.8353 0.501823 11.219C0.501823 10.1441 0.501823 9.06912 0.501823 7.99389C0.501823 6.8222 0.497722 5.6505 0.501823 4.47881Z" fill-rule="nonzero" stroke="rgb(255,255,255)" stroke-opacity="0" stroke-width="0.886667" />
		<circle id="path3" cx="8" cy="8" r="8" fill="rgb(255,255,255)" fill-opacity="0" />
		<path id="path4" d="M1 5.68927L14.9992 5.68927L11.1043 1.83337M15 10.3334L1 10.3334L4.89497 14.1893" stroke="rgb(25,25,25)" stroke-linecap="round" stroke-linejoin="round" stroke-width="0.886667" />
		<path id="path5" d="M15 10C15.1841 10 15.3334 10.1492 15.3334 10.3333C15.3334 10.5174 15.1841 10.6667 15 10.6667L1.81035 10.6666L5.1295 13.9523C5.25027 14.0719 5.26046 14.2609 5.15945 14.3922L5.13188 14.4237C5.00236 14.5546 4.79131 14.5556 4.66048 14.4261L0.765507 10.5702C0.553886 10.3607 0.702239 10 1.00002 10L15 10ZM10.8674 1.59882C10.9969 1.46799 11.208 1.46693 11.3388 1.59645L15.2338 5.45235C15.4454 5.66184 15.297 6.02257 14.9992 6.02257L1.00002 6.02257C0.815923 6.02257 0.666685 5.87333 0.666685 5.68923C0.666685 5.50514 0.815923 5.3559 1.00002 5.3559L14.1887 5.35567L10.8698 2.07022C10.749 1.95067 10.7388 1.76164 10.8398 1.63036L10.8674 1.59882Z" fill="rgb(255,255,255)" fill-opacity="0" fill-rule="nonzero" />
		<path id="path5" d="M15.3334 10.3333C15.3334 10.5174 15.1841 10.6667 15 10.6667L1.81035 10.6666L5.1295 13.9523C5.25027 14.0719 5.26046 14.2609 5.15945 14.3922L5.13188 14.4237C5.00236 14.5546 4.79131 14.5556 4.66048 14.4261L0.765507 10.5702C0.553886 10.3607 0.702239 10 1.00002 10L15 10C15.1841 10 15.3334 10.1492 15.3334 10.3333ZM11.3388 1.59645L15.2338 5.45235C15.4454 5.66184 15.297 6.02257 14.9992 6.02257L1.00002 6.02257C0.815923 6.02257 0.666685 5.87333 0.666685 5.68923C0.666685 5.50514 0.815923 5.3559 1.00002 5.3559L14.1887 5.35567L10.8698 2.07022C10.749 1.95067 10.7388 1.76164 10.8398 1.63036L10.8674 1.59882C10.9969 1.46799 11.208 1.46693 11.3388 1.59645Z" fill-rule="nonzero" stroke="rgb(255,255,255)" stroke-opacity="0" stroke-linejoin="round" stroke-width="0.886667" />
	</g>
</svg>
