<svg viewBox="0 0 26 26" xmlns="http://www.w3.org/2000/svg" xmlns:xlink="http://www.w3.org/1999/xlink" width="26.000000" height="26.000000" fill="none">
	<defs>
		<clipPath id="clipPath_2">
			<rect width="18.199999" height="18.199999" x="3.900391" y="3.899902" fill="rgb(255,255,255)" />
		</clipPath>
		<linearGradient id="paint_linear_3" x1="5.22656155" x2="20.9452896" y1="10.9686356" y2="11.429081" gradientUnits="userSpaceOnUse">
			<stop stop-color="rgb(29,190,222)" offset="0" stop-opacity="1" />
			<stop stop-color="rgb(25,201,238)" offset="1" stop-opacity="1" />
		</linearGradient>
		<linearGradient id="paint_linear_4" x1="11" x2="15.8995571" y1="17.8028069" y2="17.924593" gradientUnits="userSpaceOnUse">
			<stop stop-color="rgb(29,190,222)" offset="0" stop-opacity="1" />
			<stop stop-color="rgb(25,201,238)" offset="1" stop-opacity="1" />
		</linearGradient>
		<linearGradient id="paint_linear_5" x1="17.0449219" x2="21.9675598" y1="17.8028069" y2="17.9257431" gradientUnits="userSpaceOnUse">
			<stop stop-color="rgb(29,190,222)" offset="0" stop-opacity="1" />
			<stop stop-color="rgb(25,201,238)" offset="1" stop-opacity="1" />
		</linearGradient>
	</defs>
	<rect id="容器 2496" width="26.000000" height="26.000000" x="0.000000" y="0.000000" fill="rgb(255,255,255)" fill-opacity="0" />
	<g id="svg 7" clip-path="url(#clipPath_2)" customFrame="url(#clipPath_2)">
		<rect id="svg 7" width="18.199999" height="18.199999" x="3.900391" y="3.899902" />
		<path id="path3" d="M20.7725 13.8525C20.7725 13.8525 20.7725 10.3686 20.7725 7.82688C20.7725 6.39114 19.6087 5.22735 18.173 5.22735C15.3092 5.22732 10.727 5.22728 7.82622 5.2273C6.39041 5.2273 5.22656 6.39122 5.22656 7.82703L5.22657 18.173C5.22657 19.609 6.39062 20.773 7.82655 20.773L8.91431 20.773" stroke="url(#paint_linear_3)" stroke-linecap="round" stroke-linejoin="round" stroke-width="1.300000" />
		<path id="矢量 1" d="M14.7058 17.9414L12.1312 17.9414L12.1312 16.2599C12.1312 15.9476 11.8779 15.6943 11.5656 15.6943C11.2532 15.6943 11 15.9476 11 16.2599L11 20.8378C11 21.1502 11.2532 21.4034 11.5656 21.4034C11.8779 21.4034 12.1312 21.1502 12.1312 20.8378L12.1312 18.9469L14.7058 18.9469L14.7058 20.834C14.7058 21.1485 14.9607 21.4034 15.2751 21.4034C15.5896 21.4034 15.8445 21.1485 15.8445 20.834L15.8445 16.2637C15.8445 15.9493 15.5896 15.6943 15.2751 15.6943C14.9607 15.6943 14.7058 15.9493 14.7058 16.2637L14.7058 17.9414Z" fill="url(#paint_linear_4)" fill-rule="evenodd" />
		<path id="矢量 2" d="M20.4133 16.008C19.9752 15.7989 19.4871 15.6943 18.9492 15.6943L17.6949 15.6943C17.3359 15.6943 17.0449 15.9854 17.0449 16.3443L17.0449 20.7534C17.0449 21.1124 17.3359 21.4034 17.6949 21.4034L18.9492 21.4034C19.5103 21.4034 20.0143 21.2905 20.4611 21.0645L20.4612 21.0645C20.681 20.9536 20.8781 20.818 21.0524 20.6577C21.2334 20.4912 21.39 20.298 21.5219 20.078C21.7822 19.6464 21.9123 19.1341 21.9123 18.5413C21.9123 17.9484 21.7822 17.4374 21.5219 17.0083C21.3954 16.7987 21.2461 16.6137 21.0739 16.4532C20.8935 16.285 20.688 16.1438 20.4574 16.0295C20.4428 16.0222 20.4281 16.015 20.4133 16.008ZM20.1578 20.0113C19.8346 20.2944 19.3872 20.436 18.8159 20.436L18.1761 20.436L18.1761 16.6541L18.8159 16.6541C19.3679 16.6541 19.8054 16.7901 20.1283 17.0621C20.1611 17.0897 20.1927 17.1188 20.2232 17.1492C20.2622 17.1881 20.2989 17.2288 20.3333 17.2714C20.5913 17.5904 20.7202 18.0137 20.7202 18.5413C20.7202 19.0991 20.5824 19.5388 20.3068 19.8606C20.282 19.8896 20.256 19.9176 20.2289 19.9447C20.2059 19.9677 20.1822 19.9899 20.1578 20.0113Z" fill="url(#paint_linear_5)" fill-rule="evenodd" />
	</g>
</svg>
