<svg viewBox="0 0 16 16" xmlns="http://www.w3.org/2000/svg" xmlns:xlink="http://www.w3.org/1999/xlink" width="16.000000" height="16.000000" fill="none">
	<rect id="svg 19" width="15.999997" height="16.000000" x="0.000000" y="0.000000" />
	<path id="path1" d="M-0.000471644 7.99338C-0.000471644 6.74338 -0.00380498 5.49338 -0.000471644 4.24338C-0.00380498 3.63671 0.0728617 3.03338 0.219528 2.45005C0.549528 1.21005 1.35619 0.473381 2.59619 0.186714C3.21619 0.0533806 3.85286 -0.00995275 4.48619 4.72466e-05C6.88286 4.72466e-05 9.27953 4.72466e-05 11.6795 4.72466e-05C12.2829 -0.00328609 12.8862 0.0633806 13.4762 0.206714C14.7529 0.516714 15.5195 1.32671 15.8095 2.60005C15.9429 3.20005 16.0029 3.81338 15.9962 4.43005C15.9962 6.85338 15.9962 9.27671 15.9962 11.6967C15.9995 12.2967 15.9329 12.8967 15.7929 13.48C15.4795 14.7567 14.6662 15.5167 13.3962 15.81C12.7729 15.9434 12.1395 16.0067 11.5029 15.9967C9.11619 15.9967 6.72953 15.9967 4.34286 15.9967C3.73286 16.0034 3.12619 15.9334 2.53286 15.7934C1.24953 15.4834 0.479528 14.67 0.189528 13.39C0.0395283 12.74 -0.000471644 12.09 -0.000471644 11.4334C-0.000471644 10.2867 -0.000471644 9.14005 -0.000471644 7.99338Z" fill="rgb(255,255,255)" fill-opacity="0" fill-rule="evenodd" />
	<ellipse id="path2" rx="7.999999" ry="8.000000" cx="7.99999857" cy="8" fill="rgb(255,255,255)" fill-opacity="0" />
	<path id="path3" d="M1.83398 13.6634L1.83398 2.66675C1.83398 1.56008 2.72732 0.666748 3.83398 0.666748L12.1673 0.666748C13.2706 0.666748 14.1673 1.56008 14.1673 2.66675L14.1673 10.6634C14.1673 11.7701 13.2706 12.6634 12.1673 12.6634L3.16732 12.6634C2.43065 12.6634 1.83398 13.2601 1.83398 13.9967C1.83398 14.7334 2.43065 15.3334 3.16732 15.3334L14.1673 15.3334" fill-rule="nonzero" stroke="rgb(25,25,25)" stroke-linecap="round" stroke-width="1.000000" />
	<path id="path5" d="M8.27268 5.57341L9.81602 4.29008C9.83935 4.27008 9.87601 4.27008 9.90268 4.29008L11.386 5.57008C11.4293 5.60675 11.4993 5.57675 11.4993 5.52008L11.4993 0.666748L8.16602 0.666748L8.16602 5.52341C8.16602 5.58008 8.22935 5.61008 8.27268 5.57341Z" fill-rule="nonzero" stroke="rgb(25,25,25)" stroke-linejoin="round" stroke-width="1.000000" />
	<path id="减去顶层" d="M7.66732 0L7.66732 5.19107C7.66732 5.24977 7.67562 5.3059 7.69225 5.35947C7.70808 5.41047 7.73145 5.45913 7.76238 5.50547C7.79115 5.5486 7.82438 5.5865 7.86212 5.61927C7.90112 5.6531 7.94492 5.6814 7.99348 5.70417C8.0421 5.72694 8.09188 5.74249 8.14282 5.7508C8.19215 5.75887 8.24255 5.76017 8.29412 5.75467C8.34948 5.7488 8.40182 5.7356 8.45118 5.71513C8.50298 5.69367 8.55142 5.66413 8.59655 5.62653L9.85605 4.578L11.0644 5.61757C11.1093 5.6562 11.1577 5.6867 11.2096 5.70907C11.259 5.73037 11.3115 5.7443 11.3673 5.7509C11.4191 5.75703 11.4698 5.75627 11.5195 5.74867C11.5709 5.7408 11.6212 5.7256 11.6703 5.70303C11.7194 5.6805 11.7637 5.65233 11.8032 5.6185C11.8414 5.5858 11.875 5.5478 11.9042 5.50453C11.9355 5.458 11.9593 5.40907 11.9753 5.35773C11.9922 5.3038 12.0006 5.24723 12.0006 5.188L12.0006 0L12.1673 0C13.548 0 14.6673 1.11928 14.6673 2.5L14.6673 10.6667C14.6673 12.0474 13.548 13.1667 12.1673 13.1667L3.25065 13.1667C2.74438 13.1667 2.33398 13.5771 2.33398 14.0833C2.33398 14.5896 2.74438 15 3.25065 15L14.1673 15C14.4434 15 14.6673 15.2239 14.6673 15.5C14.6673 15.7761 14.4434 16 14.1673 16L3.83398 16C2.45329 16 1.33398 14.8807 1.33398 13.5L1.33398 2.5C1.33398 1.11928 2.45329 0 3.83398 0L7.66732 0Z" fill="rgb(255,255,255)" fill-opacity="0" fill-rule="evenodd" />
</svg>
