<svg viewBox="0 0 26 26" xmlns="http://www.w3.org/2000/svg" xmlns:xlink="http://www.w3.org/1999/xlink" width="26.000000" height="26.000000" fill="none">
	<defs>
		<clipPath id="clipPath_0">
			<rect width="18.200001" height="18.200001" x="3.900391" y="3.899902" fill="rgb(255,255,255)" />
		</clipPath>
	</defs>
	<rect id="容器 2496" width="26.000000" height="26.000000" x="0.000000" y="0.000000" fill="rgb(255,255,255)" fill-opacity="0" />
	<g id="svg 1" clip-path="url(#clipPath_0)" customFrame="url(#clipPath_0)">
		<rect id="svg 1" width="18.200001" height="18.200001" x="3.900391" y="3.899902" />
		<path id="path3" d="M14.8555 20.7731L7.50156 20.7729C6.24273 20.7729 5.22656 19.7529 5.22656 18.4979L5.22656 7.50205C5.22656 6.24322 6.24273 5.22705 7.50156 5.22705L18.4974 5.22705C19.7524 5.22705 20.7724 6.24322 20.7724 7.50205L20.7724 13" stroke="rgb(10,89,247)" stroke-linejoin="round" stroke-width="1.300000" />
		<circle id="path4" cx="9.21718788" cy="8.80996132" r="0.568750024" fill="rgb(10,89,247)" />
		<circle id="path4" cx="9.21718788" cy="8.80996132" r="0.568750024" stroke="rgb(10,89,247)" stroke-linejoin="round" stroke-width="1.300000" />
		<path id="path3" d="M16.5249 15.153L14.9963 13.6748C13.8221 12.5393 11.9202 12.6822 10.9288 13.9804L6.19531 20.1791" stroke="rgb(10,89,247)" stroke-linecap="round" stroke-linejoin="round" stroke-width="1.300000" />
		<path id="路径" d="M18.8209 15.7214L18.8 15.802C18.4537 17.0622 17.446 18.0503 16.176 18.3707C15.9387 18.4306 15.9387 18.7681 16.176 18.8279C17.4727 19.1548 18.494 20.1771 18.8208 21.4753C18.8806 21.7128 19.2178 21.7128 19.2775 21.4752C19.604 20.1772 20.6252 19.1548 21.922 18.8276C22.1593 18.7678 22.1592 18.4302 21.9219 18.3704C20.668 18.0544 19.6687 17.0866 19.3098 15.8439L19.2762 15.7191C19.2131 15.4857 18.8817 15.4873 18.8209 15.7214Z" fill="rgb(10,89,247)" fill-rule="evenodd" />
		<path id="路径" d="M18.1407 15.6256L18.1603 15.55Q18.2491 15.2078 18.4702 15.036Q18.6912 14.8642 19.0443 14.8624C19.2796 14.8613 19.4715 14.9172 19.6199 15.0302Q19.8429 15.1999 19.9351 15.5413L19.9656 15.6546C20.0348 15.8944 20.1305 16.1188 20.2527 16.3278L20.2527 16.3279Q20.4553 16.6744 20.7548 16.9642Q21.0581 17.2576 21.4158 17.4494Q21.7311 17.6185 22.0887 17.7086C22.2048 17.7379 22.3083 17.7848 22.3992 17.8494C22.4785 17.9057 22.5482 17.9754 22.6083 18.0585C22.6633 18.1345 22.7053 18.215 22.7342 18.2999C22.7664 18.3941 22.7824 18.4938 22.7824 18.5989Q22.7825 18.7566 22.7343 18.8979L22.7343 18.898C22.7054 18.9829 22.6634 19.0634 22.6084 19.1394C22.5483 19.2225 22.4786 19.2922 22.3994 19.3485C22.3085 19.4132 22.205 19.4601 22.0889 19.4894Q21.7166 19.5833 21.3908 19.7621L21.3908 19.7621C21.1473 19.8957 20.9233 20.0649 20.7188 20.2697C20.5155 20.4732 20.3474 20.6959 20.2143 20.938C20.094 21.1568 20.0024 21.3914 19.9394 21.6417Q19.8956 21.816 19.7986 21.9526C19.7424 22.0317 19.6729 22.1013 19.5901 22.1614C19.5139 22.2166 19.4333 22.2587 19.3482 22.2877C19.254 22.3199 19.1544 22.3359 19.0492 22.3359C18.9441 22.3359 18.8444 22.3199 18.7502 22.2878C18.6652 22.2588 18.5845 22.2167 18.5084 22.1615C18.4255 22.1014 18.356 22.0318 18.2998 21.9528C18.2351 21.8617 18.1882 21.7581 18.1589 21.6419C18.0958 21.3911 18.0039 21.1562 17.8833 20.9371Q17.6838 20.5745 17.3793 20.2697Q17.0721 19.9622 16.7062 19.7617C16.4893 19.6429 16.257 19.5522 16.0092 19.4897Q15.8351 19.4459 15.6987 19.349Q15.5799 19.2645 15.4897 19.1398Q15.4071 19.0258 15.3637 18.8985C15.3316 18.8043 15.3156 18.7046 15.3155 18.5994C15.3155 18.4943 15.3316 18.3946 15.3637 18.3004Q15.4071 18.173 15.4896 18.059C15.5497 17.9758 15.6194 17.9061 15.6986 17.8498C15.7895 17.7852 15.893 17.7382 16.0091 17.709Q16.3719 17.6174 16.691 17.4449L16.691 17.4449Q17.0519 17.2498 17.3568 16.9512Q17.663 16.6513 17.8659 16.293L17.8659 16.293L17.8659 16.293Q18.0423 15.9814 18.1407 15.6256ZM18.8 15.802L18.8209 15.7214C18.8817 15.4873 19.2131 15.4857 19.2762 15.7191L19.3098 15.8439C19.3335 15.9258 19.3599 16.0065 19.389 16.0859C19.3899 16.0883 19.3908 16.0908 19.3917 16.0932C19.3979 16.1101 19.4043 16.1269 19.4107 16.1436C19.7815 17.1043 20.5457 17.8675 21.503 18.2372C21.5216 18.2444 21.5404 18.2515 21.5592 18.2584C21.6774 18.3018 21.7984 18.3393 21.9219 18.3704C22.1592 18.4302 22.1593 18.7678 21.922 18.8276C21.7984 18.8588 21.6774 18.8963 21.5592 18.9397C21.5427 18.9458 21.5261 18.952 21.5097 18.9583L21.5083 18.9589C21.5065 18.9595 21.5048 18.9602 21.5031 18.9609C20.5444 19.3313 19.781 20.0954 19.4109 21.0549C19.4036 21.0738 19.3964 21.0928 19.3895 21.1119C19.3461 21.2303 19.3086 21.3515 19.2775 21.4752C19.2178 21.7128 18.8806 21.7128 18.8208 21.4753C18.7896 21.3516 18.7522 21.2303 18.7088 21.112C18.7027 21.0953 18.6964 21.0787 18.6901 21.0622C18.6892 21.0598 18.6883 21.0574 18.6873 21.055C18.3171 20.0954 17.5536 19.3313 16.595 18.9611C16.5763 18.9539 16.5576 18.9468 16.5388 18.9399C16.4206 18.8965 16.2996 18.8591 16.176 18.8279C15.9387 18.7681 15.9387 18.4306 16.176 18.3707C16.2995 18.3396 16.4206 18.3021 16.5388 18.2587C16.5576 18.2517 16.5763 18.2447 16.595 18.2375C17.5535 17.8671 18.3179 17.1029 18.6875 16.1436C18.6893 16.1391 18.691 16.1346 18.6927 16.1301C18.6983 16.1155 18.7038 16.1008 18.7092 16.0861C18.7432 15.9931 18.7735 15.8983 18.8 15.802Z" fill="rgb(255,255,255)" fill-opacity="0" fill-rule="evenodd" />
	</g>
</svg>
