<svg viewBox="0 0 26 26" xmlns="http://www.w3.org/2000/svg" xmlns:xlink="http://www.w3.org/1999/xlink" width="26.000000" height="26.000000" fill="none">
	<defs>
		<clipPath id="clipPath_1">
			<rect width="18.199999" height="18.199999" x="3.900391" y="3.899902" fill="rgb(255,255,255)" />
		</clipPath>
		<linearGradient id="paint_linear_0" x1="5.22656345" x2="21.9603806" y1="5.22705078" y2="6.63293648" gradientUnits="userSpaceOnUse">
			<stop stop-color="rgb(117,74,255)" offset="0" stop-opacity="1" />
			<stop stop-color="rgb(60,0,255)" offset="1" stop-opacity="1" />
		</linearGradient>
		<linearGradient id="paint_linear_1" x1="15.9980469" x2="22.566328" y1="15.5449219" y2="16.0961628" gradientUnits="userSpaceOnUse">
			<stop stop-color="rgb(117,74,255)" offset="0" stop-opacity="1" />
			<stop stop-color="rgb(60,0,255)" offset="1" stop-opacity="1" />
		</linearGradient>
		<linearGradient id="paint_linear_2" x1="2.38418579e-07" x2="5.59737301" y1="0" y2="0.470268548" gradientUnits="userSpaceOnUse">
			<stop stop-color="rgb(117,74,255)" offset="0" stop-opacity="1" />
			<stop stop-color="rgb(60,0,255)" offset="1" stop-opacity="1" />
		</linearGradient>
	</defs>
	<rect id="容器 2497" width="26.000000" height="26.000000" x="0.000000" y="0.000000" fill="rgb(255,255,255)" fill-opacity="0" />
	<g id="组合 1">
		<g id="svg 1" clip-path="url(#clipPath_1)" customFrame="url(#clipPath_1)">
			<rect id="svg 1" width="18.199999" height="18.199999" x="3.900391" y="3.899902" />
			<path id="path3" d="M14.8555 20.7731L7.50156 20.7729C6.24273 20.7729 5.22656 19.7529 5.22656 18.4979L5.22656 7.50205C5.22656 6.24322 6.24273 5.22705 7.50156 5.22705L18.4974 5.22705C19.7524 5.22705 20.7724 6.24322 20.7724 7.50205L20.7724 13" stroke="url(#paint_linear_0)" stroke-linejoin="round" stroke-width="1.300000" />
			<path id="路径" d="M18.8209 15.7214L18.8 15.802C18.4537 17.0622 17.446 18.0503 16.176 18.3707C15.9387 18.4306 15.9387 18.7681 16.176 18.8279C17.4727 19.1548 18.494 20.1771 18.8208 21.4753C18.8806 21.7128 19.2178 21.7128 19.2775 21.4752C19.604 20.1772 20.6252 19.1548 21.922 18.8276C22.1593 18.7678 22.1592 18.4302 21.9219 18.3704C20.668 18.0544 19.6687 17.0866 19.3098 15.8439L19.2762 15.7191C19.2131 15.4857 18.8817 15.4873 18.8209 15.7214Z" fill="url(#paint_linear_1)" fill-rule="evenodd" />
			<path id="路径" d="M18.1407 15.6256L18.1603 15.55Q18.2491 15.2078 18.4702 15.036Q18.6912 14.8642 19.0443 14.8624Q19.3973 14.8607 19.6199 15.0302Q19.8429 15.1999 19.9351 15.5413L19.9656 15.6546C20.0348 15.8944 20.1305 16.1188 20.2526 16.3278L20.2527 16.3278Q20.4552 16.6743 20.7548 16.9642Q21.0581 17.2576 21.4158 17.4494L21.4158 17.4494Q21.7311 17.6185 22.0887 17.7086C22.2048 17.7379 22.3083 17.7848 22.3992 17.8494Q22.5181 17.9338 22.6083 18.0585C22.6633 18.1345 22.7053 18.215 22.7342 18.2999C22.7664 18.3941 22.7824 18.4938 22.7824 18.5989C22.7824 18.7041 22.7664 18.8038 22.7343 18.898C22.7054 18.9829 22.6634 19.0634 22.6084 19.1394C22.5483 19.2225 22.4786 19.2922 22.3994 19.3485C22.3085 19.4132 22.205 19.4601 22.0889 19.4894Q21.7166 19.5833 21.3908 19.7621L21.3907 19.7622Q21.0255 19.9626 20.7188 20.2697C20.5155 20.4732 20.3474 20.6959 20.2143 20.938C20.094 21.1568 20.0024 21.3914 19.9394 21.6417C19.9102 21.7579 19.8632 21.8616 19.7986 21.9526C19.7424 22.0317 19.6729 22.1013 19.5901 22.1614Q19.4759 22.2442 19.3483 22.2877L19.3482 22.2877C19.254 22.3199 19.1544 22.3359 19.0492 22.3359C18.9441 22.3359 18.8444 22.3199 18.7502 22.2878C18.6651 22.2588 18.5845 22.2167 18.5084 22.1615Q18.3841 22.0714 18.2998 21.9528L18.2998 21.9528C18.2351 21.8617 18.1882 21.7581 18.1589 21.6419C18.0958 21.3911 18.0039 21.1562 17.8833 20.937C17.7503 20.6954 17.5823 20.4729 17.3793 20.2697Q17.0721 19.9622 16.7062 19.7617L16.7062 19.7617L16.7062 19.7617Q16.3809 19.5834 16.0092 19.4897C15.8932 19.4605 15.7897 19.4136 15.6987 19.349C15.6195 19.2927 15.5498 19.223 15.4897 19.1398C15.4347 19.0638 15.3927 18.9834 15.3637 18.8985Q15.3156 18.7572 15.3155 18.5994C15.3155 18.4943 15.3316 18.3946 15.3637 18.3004Q15.4071 18.173 15.4896 18.059C15.5497 17.9758 15.6194 17.9061 15.6986 17.8498C15.7895 17.7852 15.893 17.7382 16.0091 17.709Q16.3719 17.6174 16.691 17.4449L16.691 17.4449L16.691 17.4449Q17.0519 17.2498 17.3568 16.9512Q17.663 16.6514 17.8659 16.2931L17.8659 16.293Q18.0423 15.9814 18.1407 15.6256ZM18.6954 16.123C18.7001 16.1107 18.7046 16.0984 18.7092 16.0861C18.7432 15.9931 18.7735 15.8983 18.8 15.802L18.8209 15.7214C18.8817 15.4873 19.2131 15.4857 19.2762 15.7191L19.3098 15.8439C19.3335 15.9258 19.3599 16.0065 19.389 16.0859C19.3918 16.0934 19.3945 16.1008 19.3973 16.1083C19.4017 16.1201 19.4062 16.1319 19.4107 16.1436C19.7815 17.1043 20.5457 17.8675 21.503 18.2372C21.5056 18.2382 21.5081 18.2392 21.5107 18.2402C21.5268 18.2464 21.543 18.2525 21.5592 18.2584C21.6774 18.3018 21.7984 18.3393 21.9219 18.3704C22.1592 18.4302 22.1593 18.7678 21.922 18.8276C21.7984 18.8588 21.6774 18.8963 21.5592 18.9397C21.5498 18.9432 21.5404 18.9467 21.531 18.9502C21.5217 18.9537 21.5124 18.9573 21.5031 18.9609C20.5444 19.3313 19.781 20.0954 19.4109 21.0549C19.4072 21.0644 19.4036 21.074 19.4 21.0836C19.3964 21.093 19.3929 21.1024 19.3895 21.1119C19.3461 21.2303 19.3086 21.3515 19.2775 21.4752C19.2178 21.7128 18.8806 21.7128 18.8208 21.4753C18.7896 21.3516 18.7522 21.2303 18.7088 21.112C18.7027 21.0953 18.6965 21.0788 18.6901 21.0622C18.6892 21.0598 18.6883 21.0574 18.6873 21.055C18.3171 20.0954 17.5536 19.3313 16.595 18.9611C16.5763 18.9539 16.5576 18.9468 16.5388 18.9399C16.4206 18.8965 16.2996 18.8591 16.176 18.8279C15.9387 18.7681 15.9387 18.4306 16.176 18.3707C16.2995 18.3396 16.4206 18.3021 16.5388 18.2587C16.5576 18.2517 16.5763 18.2447 16.595 18.2375C17.5535 17.8671 18.3179 17.1029 18.6875 16.1437C18.6902 16.1368 18.6928 16.1299 18.6954 16.123Z" fill="rgb(255,255,255)" fill-opacity="0" fill-rule="evenodd" />
			<path id="多边形 1" d="M4.85167 3.9L0.348334 3.9L2.6 0L4.85167 3.9Z" fill="rgb(196,196,196)" fill-opacity="0" fill-rule="evenodd" transform="matrix(0,1,-1,0,15.5996,10.3999)" />
			<path id="多边形 1" d="M-0.570905 4.81924Q-0.380524 5.00962 -0.150714 5.10481Q0.0790953 5.2 0.348334 5.2L4.85167 5.2Q4.93725 5.2 5.02137 5.18892Q5.10548 5.17785 5.18813 5.1557Q5.27079 5.13356 5.34917 5.10109L5.34919 5.10108Q5.42756 5.06862 5.50167 5.02583C5.81256 4.84634 6.01446 4.58322 6.10737 4.23646Q6.17705 3.9764 6.14459 3.72978Q6.11212 3.48317 5.9775 3.25L3.72583 -0.65C3.66878 -0.748813 3.59992 -0.83856 3.51924 -0.91924Q3.45873 -0.979745 3.39143 -1.03139L3.39141 -1.0314Q3.32411 -1.08305 3.25 -1.12583Q3.01683 -1.26045 2.77021 -1.29292Q2.5236 -1.32539 2.26354 -1.2557Q2.00347 -1.18602 1.80613 -1.03459Q1.60879 -0.883167 1.47417 -0.65L-0.777499 3.25Q-0.820287 3.32411 -0.852755 3.4025Q-0.885222 3.48088 -0.90737 3.56354Q-0.929516 3.64619 -0.94059 3.73029L-0.940592 3.73031Q-0.951666 3.81442 -0.951666 3.9Q-0.951666 4.16924 -0.856476 4.39905Q-0.761285 4.62886 -0.570905 4.81924ZM1.09889 2.6L0.348334 3.9L1.84944 3.9L3.35056 3.9L4.85167 3.9L4.10111 2.6L3.35056 1.3L2.6 0L1.84944 1.3L1.09889 2.6Z" fill="url(#paint_linear_2)" fill-rule="evenodd" transform="matrix(0,1,-1,0,15.5996,10.3999)" />
		</g>
	</g>
</svg>
