<svg viewBox="0 0 52 64" xmlns="http://www.w3.org/2000/svg" xmlns:xlink="http://www.w3.org/1999/xlink" width="52.000000" height="64.000000" fill="none" customFrame="#000000">
	<defs>
		<clipPath id="clipPath_4">
			<rect width="47.276047" height="60.210190" x="0.000000" y="0.000000" rx="1.000000" fill="rgb(255,255,255)" transform="matrix(0.996434,-0.0843751,0.0812575,0.996693,0,3.98877)" />
		</clipPath>
		<clipPath id="clipPath_5">
			<rect width="13.621625" height="13.999999" x="0.000000" y="0.000000" fill="rgb(255,255,255)" transform="matrix(0.996434,-0.0843751,0.0812575,0.996693,18.457,25.6138)" />
		</clipPath>
	</defs>
	<g id="组合 31770">
		<g id="容器 30133" clip-path="url(#clipPath_4)" customFrame="url(#clipPath_4)">
			<rect id="容器 30133" width="47.276047" height="60.210190" x="0.000000" y="0.000000" rx="1.000000" fill="rgb(241,242,242)" transform="matrix(0.996434,-0.0843751,0.0812575,0.996693,0,3.98877)" />
			<g id="ic_public_plus" clip-path="url(#clipPath_5)" customFrame="url(#clipPath_5)">
				<rect id="ic_public_plus" width="13.621625" height="13.999999" x="0.000000" y="0.000000" transform="matrix(0.996434,-0.0843751,0.0812575,0.996693,18.457,25.6138)" />
				<g id="ic_public_plus-加1/base/ic_public_plus">
					<path id="path1" d="M0.0015517 6.55716C0.0015517 5.53192 -0.00193962 4.50669 0.0015517 3.48146C-0.000455178 2.98535 0.0588737 2.49099 0.178113 2.01025C0.439464 0.992706 1.08436 0.388844 2.07341 0.154578C2.56933 0.0444542 3.07585 -0.00714125 3.58316 0.000793507C5.49608 0.000793507 7.40916 0.000793507 9.32241 0.000793507C9.8056 -0.00228925 10.2874 0.0545083 10.7573 0.169957C11.7763 0.426265 12.3878 1.08959 12.6207 2.13328C12.7254 2.62654 12.7755 3.13041 12.7698 3.63524C12.7698 5.62249 12.7698 7.6099 12.7698 9.59748C12.7725 10.0893 12.7174 10.5797 12.6058 11.0579C12.3564 12.1057 11.708 12.7311 10.6925 12.9705C10.1965 13.0802 9.69004 13.1318 9.18276 13.1243C7.27782 13.1243 5.37305 13.1243 3.46844 13.1243C2.98156 13.1284 2.49596 13.0724 2.02204 12.9577C0.998576 12.7014 0.384102 12.035 0.151679 10.9862C0.0329737 10.453 0.0015517 9.91838 0.0015517 9.37911C0.0015517 8.43863 0.0015517 7.49798 0.0015517 6.55716Z" fill="rgb(255,255,255)" fill-opacity="0" fill-rule="nonzero" transform="matrix(0.996434,-0.0843751,0.0812575,0.996693,18.916,26.0139)" />
					<path id="path1" d="M0.0015517 3.48146C-0.000455178 2.98535 0.0588737 2.49099 0.178113 2.01025C0.439464 0.992706 1.08436 0.388844 2.07341 0.154578C2.56933 0.0444542 3.07585 -0.00714125 3.58316 0.000793507C5.49608 0.000793507 7.40916 0.000793507 9.32241 0.000793507C9.8056 -0.00228925 10.2874 0.0545083 10.7573 0.169957C11.7763 0.426265 12.3878 1.08959 12.6207 2.13328C12.7254 2.62654 12.7755 3.13041 12.7698 3.63524C12.7698 5.62249 12.7698 7.6099 12.7698 9.59748C12.7725 10.0893 12.7174 10.5797 12.6058 11.0579C12.3564 12.1057 11.708 12.7311 10.6925 12.9705C10.1965 13.0802 9.69004 13.1318 9.18276 13.1243C7.27782 13.1243 5.37305 13.1243 3.46844 13.1243C2.98156 13.1284 2.49596 13.0724 2.02204 12.9577C0.998576 12.7014 0.384102 12.035 0.151679 10.9862C0.0329737 10.453 0.0015517 9.91838 0.0015517 9.37911C0.0015517 8.43863 0.0015517 7.49798 0.0015517 6.55716C0.0015517 5.53192 -0.00193962 4.50669 0.0015517 3.48146Z" fill-rule="nonzero" stroke="rgb(255,255,255)" stroke-opacity="0" stroke-width="0.498750" transform="matrix(0.996434,-0.0843751,0.0812575,0.996693,18.916,26.0139)" />
					<path id="path2" d="M0.0015517 3.48146C-0.000455178 2.98535 0.0588737 2.49099 0.178113 2.01025C0.439464 0.992706 1.08436 0.388844 2.07341 0.154578C2.56933 0.0444542 3.07585 -0.00714125 3.58316 0.000793507C5.49608 0.000793507 7.40916 0.000793507 9.32241 0.000793507C9.8056 -0.00228925 10.2874 0.0545083 10.7573 0.169957C11.7763 0.426265 12.3878 1.08959 12.6207 2.13328C12.7254 2.62654 12.7755 3.13041 12.7698 3.63524C12.7698 5.62249 12.7698 7.6099 12.7698 9.59748C12.7725 10.0893 12.7174 10.5797 12.6058 11.0579C12.3564 12.1057 11.708 12.7311 10.6925 12.9705C10.1965 13.0802 9.69004 13.1318 9.18276 13.1243C7.27782 13.1243 5.37305 13.1243 3.46844 13.1243C2.98156 13.1284 2.49596 13.0724 2.02204 12.9577C0.998576 12.7014 0.384102 12.035 0.151679 10.9862C0.0329737 10.453 0.0015517 9.91838 0.0015517 9.37911C0.0015517 8.43863 0.0015517 7.49798 0.0015517 6.55716C0.0015517 5.53192 -0.00193962 4.50669 0.0015517 3.48146Z" fill-rule="nonzero" stroke="rgb(255,255,255)" stroke-opacity="0" stroke-width="0.498750" transform="matrix(0.996434,-0.0843751,0.0812575,0.996693,18.916,26.0139)" />
					<ellipse id="path3" rx="6.810812" ry="7.000000" cx="6.81081247" cy="6.99999952" fill="rgb(255,255,255)" fill-opacity="0" transform="matrix(0.996434,-0.0843751,0.0812575,0.996693,18.457,25.6138)" />
					<path id="path4" d="M0 6.41667L12.4865 6.41667M6.24325 12.8333L6.24325 0" stroke="rgb(145,155,162)" stroke-linecap="round" stroke-linejoin="round" stroke-width="1.000000" transform="matrix(0.996434,-0.0843751,0.0812575,0.996693,19.0684,26.1472)" />
					<path id="path5" d="M6.24325 0C6.39997 0 6.52703 0.124906 6.52703 0.278986L6.52675 6.125L12.215 6.125C12.365 6.125 12.4865 6.25558 12.4865 6.41667C12.4865 6.57775 12.365 6.70833 12.215 6.70833L6.52675 6.70833L6.52703 12.5543C6.52703 12.7084 6.39997 12.8333 6.24325 12.8333C6.08652 12.8333 5.95946 12.7084 5.95946 12.5543L5.95918 6.70833L0.271445 6.70833C0.12153 6.70833 0 6.57775 0 6.41667C0 6.25558 0.12153 6.125 0.271445 6.125L5.95918 6.125L5.95946 0.278986C5.95946 0.124906 6.08652 0 6.24325 0Z" fill="rgb(255,255,255)" fill-opacity="0" fill-rule="nonzero" transform="matrix(0.996434,-0.0843751,0.0812575,0.996693,19.0684,26.1472)" />
					<path id="path5" d="M6.52703 0.278986L6.52675 6.125L12.215 6.125C12.365 6.125 12.4865 6.25558 12.4865 6.41667C12.4865 6.57775 12.365 6.70833 12.215 6.70833L6.52675 6.70833L6.52703 12.5543C6.52703 12.7084 6.39997 12.8333 6.24325 12.8333C6.08652 12.8333 5.95946 12.7084 5.95946 12.5543L5.95918 6.70833L0.271445 6.70833C0.12153 6.70833 0 6.57775 0 6.41667C0 6.25558 0.12153 6.125 0.271445 6.125L5.95918 6.125L5.95946 0.278986C5.95946 0.124906 6.08652 0 6.24325 0C6.39997 0 6.52703 0.124906 6.52703 0.278986Z" fill-rule="nonzero" stroke="rgb(255,255,255)" stroke-opacity="0" stroke-width="0.498750" transform="matrix(0.996434,-0.0843751,0.0812575,0.996693,19.0684,26.1472)" />
				</g>
			</g>
		</g>
		<rect id="容器 30133" width="46.776047" height="59.710190" x="0.250000" y="0.250000" rx="0.750000" stroke="rgb(223,223,223)" stroke-width="0.500000" transform="matrix(0.996434,-0.0843751,0.0812575,0.996693,0,3.98877)" />
	</g>
</svg>
