<svg viewBox="0 0 16 16" xmlns="http://www.w3.org/2000/svg" xmlns:xlink="http://www.w3.org/1999/xlink" width="16.000000" height="16.000000" fill="none">
	<rect id="slider_horizontal_2" width="16.000000" height="16.000000" x="0.000000" y="0.000000" />
	<rect id="矩形 541889" width="16.000000" height="16.000000" x="0.000000" y="0.000000" opacity="0" fill="rgb(0,0,0)" />
	<g id="组合 30133">
		<path id="矢量 864" d="M10.4474 4.14663C10.6608 4.14663 10.843 4.21997 10.9941 4.36663C11.1408 4.51775 11.2141 4.69997 11.2141 4.9133C11.2141 5.12663 11.1408 5.30663 10.9941 5.4533C10.843 5.60441 10.6608 5.67997 10.4474 5.67997C10.2341 5.67997 10.0563 5.61108 9.91409 5.4733C9.76742 5.33552 9.68964 5.15997 9.68076 4.94663C9.68964 4.7333 9.76964 4.54663 9.92076 4.38663C10.0719 4.22663 10.2474 4.14663 10.4474 4.14663ZM8.75409 5.40663C8.86964 5.77997 9.08076 6.08663 9.38742 6.32663C9.68964 6.56663 10.043 6.68663 10.4474 6.68663C10.843 6.68663 11.1963 6.56663 11.5074 6.32663C11.8141 6.08663 12.0208 5.77997 12.1274 5.40663L14.3874 5.40663C14.5252 5.40663 14.6408 5.35997 14.7341 5.26663C14.8319 5.16886 14.8808 5.05108 14.8808 4.9133C14.8808 4.77552 14.8319 4.65775 14.7341 4.55997C14.6408 4.46219 14.5252 4.4133 14.3874 4.4133L12.1274 4.4133C12.0208 4.03997 11.8141 3.7333 11.5074 3.4933C11.1963 3.2533 10.843 3.1333 10.4474 3.1333C10.043 3.1333 9.68964 3.2533 9.38742 3.4933C9.08076 3.7333 8.86964 4.03997 8.75409 4.4133L1.60076 4.4133C1.46298 4.4133 1.3452 4.46219 1.24742 4.55997C1.15409 4.65775 1.10742 4.77552 1.10742 4.9133C1.10742 5.05108 1.15409 5.16886 1.24742 5.26663C1.3452 5.35997 1.46298 5.40663 1.60076 5.40663L8.75409 5.40663ZM5.60076 11.8733C5.38742 11.8733 5.20298 11.7977 5.04742 11.6466C4.89187 11.5 4.81409 11.3244 4.81409 11.12C4.81409 10.8977 4.89187 10.7111 5.04742 10.56C5.20298 10.4089 5.38742 10.3333 5.60076 10.3333C5.81409 10.3333 5.99631 10.4089 6.14742 10.56C6.29409 10.7111 6.36742 10.8977 6.36742 11.12C6.36742 11.3333 6.28964 11.5111 6.13409 11.6533C5.98298 11.8 5.8052 11.8733 5.60076 11.8733ZM7.28076 10.6066C7.17409 10.2333 6.9652 9.92663 6.65409 9.68663C6.34742 9.44663 5.99631 9.32663 5.60076 9.32663C5.19631 9.32663 4.84076 9.44663 4.53409 9.68663C4.23187 9.92663 4.02298 10.2333 3.90742 10.6066L1.60076 10.6066C1.46298 10.6066 1.3452 10.6555 1.24742 10.7533C1.15409 10.8466 1.10742 10.9644 1.10742 11.1066C1.10742 11.2444 1.15409 11.36 1.24742 11.4533C1.3452 11.5511 1.46298 11.6 1.60076 11.6L3.90742 11.6C4.02298 11.9733 4.23187 12.28 4.53409 12.52C4.84076 12.76 5.19631 12.88 5.60076 12.88C5.99631 12.88 6.34742 12.76 6.65409 12.52C6.9652 12.28 7.17409 11.9733 7.28076 11.6L14.3874 11.6C14.5252 11.6 14.6408 11.5511 14.7341 11.4533C14.8319 11.36 14.8808 11.2444 14.8808 11.1066C14.8808 10.9644 14.8319 10.8466 14.7341 10.7533C14.6408 10.6555 14.5252 10.6066 14.3874 10.6066L7.28076 10.6066Z" fill="rgb(0,0,0)" fill-rule="nonzero" />
	</g>
</svg>
