<svg viewBox="0 0 16 16" xmlns="http://www.w3.org/2000/svg" xmlns:xlink="http://www.w3.org/1999/xlink" width="16.000000" height="16.000000" fill="none">
	<rect id="chevron_down" width="16.000000" height="16.000000" x="0.000000" y="0.000000" />
	<rect id="矩形 9" width="16.000000" height="16.000000" x="0.000000" y="0.000000" opacity="0" fill="rgb(25,25,25)" />
	<g id="组合 10">
		<path id="矢量 13" d="M7.99919 10.4336C8.20364 10.4336 8.37919 10.358 8.52586 10.2069L12.3525 6.43356C12.4459 6.33578 12.4925 6.21801 12.4925 6.08023C12.4925 5.94245 12.4459 5.82023 12.3525 5.71356C12.2547 5.61578 12.137 5.56689 11.9992 5.56689C11.8614 5.56689 11.7392 5.61578 11.6325 5.71356L7.99919 9.32689L4.35253 5.71356C4.25475 5.61578 4.13697 5.56689 3.99919 5.56689C3.86141 5.56689 3.74364 5.61578 3.64586 5.71356C3.55253 5.82023 3.50586 5.94245 3.50586 6.08023C3.50586 6.21801 3.55253 6.33578 3.64586 6.43356L7.47253 10.2069C7.61919 10.358 7.79475 10.4336 7.99919 10.4336Z" fill="rgb(25,25,25)" fill-rule="nonzero" />
	</g>
</svg>
