<svg viewBox="0 0 26 26" xmlns="http://www.w3.org/2000/svg" xmlns:xlink="http://www.w3.org/1999/xlink" width="26.000000" height="26.000000" fill="none">
	<defs>
		<clipPath id="clipPath_3">
			<rect width="18.199999" height="18.199999" x="3.900391" y="3.899902" fill="rgb(255,255,255)" />
		</clipPath>
		<linearGradient id="paint_linear_6" x1="1.43051147e-06" x2="13.2085857" y1="9.53674316e-07" y2="13.3020592" gradientUnits="userSpaceOnUse">
			<stop stop-color="rgb(5,184,90)" offset="0" stop-opacity="1" />
			<stop stop-color="rgb(6,150,75)" offset="1" stop-opacity="1" />
		</linearGradient>
		<linearGradient id="paint_linear_7" x1="12.0996103" x2="24.3441734" y1="8.45849705" y2="17.3338223" gradientUnits="userSpaceOnUse">
			<stop stop-color="rgb(5,184,90)" offset="0" stop-opacity="1" />
			<stop stop-color="rgb(6,150,75)" offset="1" stop-opacity="1" />
		</linearGradient>
	</defs>
	<rect id="容器 2496" width="26.000000" height="26.000000" x="0.000000" y="0.000000" fill="rgb(255,255,255)" fill-opacity="0" />
	<g id="svg 8" clip-path="url(#clipPath_3)" customFrame="url(#clipPath_3)">
		<rect id="svg 8" width="18.199999" height="18.199999" x="3.900391" y="3.899902" />
		<path id="椭圆 2" d="M4.2357 13.2089C3.39723 12.861 2.64275 12.3517 2.01079 11.7197C0.768421 10.4774 0 8.76106 0 6.86527C0 3.07368 3.07368 0 6.86527 0C9.81559 0 12.3313 1.86124 13.3024 4.47343" stroke="url(#paint_linear_6)" stroke-linecap="round" stroke-linejoin="round" stroke-dasharray="0.5 1.5 " stroke-width="1.300000" transform="matrix(0.965926,-0.258819,0.258819,0.965926,3.12305,6.7124)" />
		<path id="矢量 2" d="M18.2213 16.9109C18.2 16.9493 18.1768 16.9865 18.1517 17.0225C18.1265 17.0585 18.0995 17.093 18.0707 17.1261C18.0418 17.1593 18.0113 17.1908 17.9791 17.2206C17.947 17.2505 17.9133 17.2786 17.8781 17.3049C17.843 17.3312 17.8065 17.3556 17.7688 17.378C17.731 17.4005 17.6922 17.4209 17.6523 17.4392C17.6124 17.4575 17.5716 17.4737 17.53 17.4876C17.4884 17.5016 17.4461 17.5134 17.4032 17.5229C17.3604 17.5324 17.3171 17.5396 17.2735 17.5445C17.2298 17.5495 17.1861 17.552 17.1422 17.5523C17.0983 17.5526 17.0545 17.5505 17.0108 17.5462C16.9671 17.5418 16.9237 17.5351 16.8807 17.5261C16.8378 17.5172 16.7954 17.5059 16.7536 17.4925C16.7118 17.479 16.6708 17.4633 16.6307 17.4455C16.5905 17.4277 16.5515 17.4078 16.5134 17.3858L15.724 16.9303C15.6859 16.9083 15.6492 16.8844 15.6137 16.8586C15.5782 16.8327 15.5442 16.8051 15.5117 16.7756C15.4791 16.7462 15.4482 16.7151 15.419 16.6824C15.3897 16.6496 15.3623 16.6154 15.3367 16.5798C15.3111 16.5442 15.2874 16.5073 15.2657 16.4691C15.244 16.431 15.2244 16.3918 15.2068 16.3515C15.1893 16.3113 15.1739 16.2703 15.1607 16.2284C15.1475 16.1865 15.1366 16.1441 15.1279 16.1011C15.1192 16.058 15.1128 16.0147 15.1087 15.971C15.1046 15.9273 15.1028 15.8835 15.1034 15.8396C15.1039 15.7957 15.1068 15.752 15.112 15.7084C15.1172 15.6648 15.1247 15.6216 15.1345 15.5788C15.1442 15.536 15.1562 15.4939 15.1705 15.4523C15.1847 15.4108 15.2011 15.3702 15.2197 15.3304C15.2382 15.2906 15.2589 15.2519 15.2815 15.2144C15.3042 15.1768 15.3288 15.1405 15.3553 15.1055L20.1717 8.74238C20.1971 8.70807 20.2255 8.67634 20.2568 8.6472C20.288 8.61806 20.3216 8.59199 20.3577 8.56898C20.3937 8.54598 20.4315 8.52642 20.4711 8.51032C20.5106 8.49421 20.5513 8.48182 20.5932 8.47314C20.635 8.46446 20.6773 8.45964 20.72 8.45868C20.7628 8.45771 20.8052 8.46062 20.8474 8.46741C20.8896 8.47419 20.9308 8.48473 20.9711 8.49904C21.0114 8.51335 21.05 8.53118 21.087 8.55254C21.124 8.57389 21.1588 8.59842 21.1913 8.62612C21.2239 8.65383 21.2536 8.68425 21.2806 8.71738C21.3076 8.75051 21.3314 8.78581 21.3519 8.82328C21.3725 8.86075 21.3895 8.89977 21.4029 8.94034C21.4163 8.98091 21.426 9.02236 21.4318 9.06469C21.4377 9.10701 21.4397 9.14952 21.4378 9.19222C21.4359 9.23491 21.4302 9.27707 21.4206 9.31872C21.411 9.36036 21.3977 9.40079 21.3807 9.44002L18.2774 16.7925L18.2786 16.7925C18.2616 16.8329 18.2425 16.8724 18.2213 16.9109ZM15.7475 17.5571C16.8963 18.2813 16.9889 19.4191 15.7475 20.6605C14.464 21.944 11.9962 21.1446 12.103 20.4668C12.1402 20.2359 12.3003 20.0547 12.4605 19.871C12.6069 19.7071 12.7534 19.5408 12.8093 19.3372L12.8093 19.3372C13.4697 16.9414 14.5988 16.833 15.7475 17.5571Z" fill-rule="evenodd" stroke="url(#paint_linear_7)" stroke-width="1.300000" />
	</g>
</svg>
