<svg viewBox="0 0 20 20" xmlns="http://www.w3.org/2000/svg" xmlns:xlink="http://www.w3.org/1999/xlink" width="20.000000" height="20.000000" fill="none">
	<defs>
		<clipPath id="clipPath_11">
			<rect width="14.000000" height="14.000000" x="3.000000" y="3.000000" fill="rgb(255,255,255)" />
		</clipPath>
	</defs>
	<rect id="容器 2496" width="20.000000" height="20.000000" x="0.000000" y="0.000000" fill="rgb(255,255,255)" fill-opacity="0" />
	<g id="svg 10" clip-path="url(#clipPath_11)" customFrame="url(#clipPath_11)">
		<rect id="svg 10" width="14.000000" height="14.000000" x="3.000000" y="3.000000" />
		<path id="path3" d="M10.5453 15.9793L5.77051 15.9791C4.80217 15.9791 4.02051 15.1945 4.02051 14.2291L4.02051 5.77075C4.02051 4.80242 4.80217 4.02075 5.77051 4.02075L14.2288 4.02075C15.1943 4.02075 15.9788 4.80242 15.9788 5.77075L15.9788 9.99992" stroke="rgb(25,25,25)" stroke-linejoin="round" stroke-width="1.000000" />
		<circle id="path4" cx="7.09082031" cy="6.77685547" r="0.4375" fill="rgb(25,25,25)" />
		<circle id="path4" cx="7.09082031" cy="6.77685547" r="0.4375" stroke="rgb(25,25,25)" stroke-linejoin="round" stroke-width="1.000000" />
		<path id="path3" d="M12.7115 10.4656L11.204 9.59923C10.2574 9.05525 9.05188 9.32731 8.43069 10.2251L4.76562 15.5222" stroke="rgb(25,25,25)" stroke-linecap="round" stroke-linejoin="round" stroke-width="1.000000" />
		<path id="直线 6" d="M0 0L3.96551 0" stroke="rgb(25,25,25)" stroke-linecap="round" stroke-linejoin="round" stroke-width="1.000000" transform="matrix(0.5,-0.866025,0.866025,0.5,13.0371,16.2041)" />
		<path id="矩形 1" d="M0 0L2.90016 0L2.90016 2.90016" stroke="rgb(25,25,25)" stroke-linecap="round" stroke-linejoin="round" stroke-width="1.000000" transform="matrix(0.965926,-0.258819,0.258819,0.965926,12.6963,12.6926)" />
	</g>
</svg>
