<svg viewBox="0 0 20 20" xmlns="http://www.w3.org/2000/svg" xmlns:xlink="http://www.w3.org/1999/xlink" width="20.000000" height="20.000000" fill="none">
	<defs>
		<clipPath id="clipPath_8">
			<rect width="14.000000" height="14.000000" x="3.000000" y="3.000000" fill="rgb(255,255,255)" />
		</clipPath>
	</defs>
	<rect id="容器 2496" width="20.000000" height="20.000000" x="0.000000" y="0.000000" fill="rgb(255,255,255)" fill-opacity="0" />
	<g id="svg 7" clip-path="url(#clipPath_8)" customFrame="url(#clipPath_8)">
		<rect id="svg 7" width="14.000000" height="14.000000" x="3.000000" y="3.000000" />
		<path id="path3" d="M15.9789 10.6558C15.9789 10.6558 15.9789 7.97587 15.9789 6.02067C15.9789 4.91626 15.0837 4.02104 13.9793 4.02104C11.7763 4.02101 8.25161 4.02098 6.02024 4.021C4.91578 4.021 4.02051 4.91633 4.02051 6.02079L4.02051 13.9793C4.02051 15.0838 4.91594 15.9792 6.0205 15.9792L6.85724 15.9793" stroke="rgb(25,25,25)" stroke-linecap="round" stroke-linejoin="round" stroke-width="1.000000" />
		<path id="矢量 1" d="M11.3115 13.801L9.33105 13.801L9.33105 12.5076C9.33105 12.2673 9.13627 12.0725 8.896 12.0725C8.65572 12.0725 8.46094 12.2673 8.46094 12.5076L8.46094 16.0291C8.46094 16.2693 8.65572 16.4641 8.896 16.4641C9.13627 16.4641 9.33105 16.2693 9.33105 16.0291L9.33105 14.5745L11.3115 14.5745L11.3115 16.0261C11.3115 16.268 11.5076 16.4641 11.7495 16.4641C11.9914 16.4641 12.1875 16.268 12.1875 16.0261L12.1875 12.5105C12.1875 12.2686 11.9914 12.0725 11.7495 12.0725C11.5076 12.0725 11.3115 12.2686 11.3115 12.5105L11.3115 13.801Z" fill="rgb(25,25,25)" fill-rule="evenodd" />
		<path id="矢量 2" d="M15.7024 12.3138C15.3654 12.1529 14.99 12.0725 14.5762 12.0725L13.6113 12.0725C13.3352 12.0725 13.1113 12.2964 13.1113 12.5725L13.1113 15.9641C13.1113 16.2403 13.3352 16.4641 13.6113 16.4641L14.5762 16.4641C15.0078 16.4641 15.3954 16.3772 15.7392 16.2034L15.7393 16.2034C15.9083 16.1181 16.0599 16.0138 16.194 15.8905C16.3333 15.7624 16.4537 15.6138 16.5552 15.4446C16.7554 15.1125 16.8555 14.7185 16.8555 14.2625C16.8555 13.8064 16.7554 13.4133 16.5552 13.0833C16.4579 12.9221 16.343 12.7797 16.2105 12.6562C16.0718 12.5269 15.9137 12.4183 15.7363 12.3303C15.7251 12.3247 15.7137 12.3192 15.7024 12.3138ZM15.5059 15.3932C15.2572 15.6111 14.9131 15.72 14.4736 15.72L13.9814 15.72L13.9814 12.8108L14.4736 12.8108C14.8983 12.8108 15.2348 12.9154 15.4832 13.1246C15.5084 13.1459 15.5327 13.1682 15.5562 13.1917C15.5862 13.2215 15.6144 13.2529 15.6409 13.2856C15.8393 13.531 15.9385 13.8566 15.9385 14.2625C15.9385 14.6915 15.8325 15.0298 15.6205 15.2773C15.6014 15.2996 15.5814 15.3212 15.5605 15.342C15.5429 15.3597 15.5246 15.3768 15.5059 15.3932Z" fill="rgb(25,25,25)" fill-rule="evenodd" />
	</g>
</svg>
