<svg viewBox="0 0 20 20" xmlns="http://www.w3.org/2000/svg" xmlns:xlink="http://www.w3.org/1999/xlink" width="20.000000" height="20.000000" fill="none">
	<defs>
		<clipPath id="clipPath_10">
			<rect width="14.000000" height="14.000000" x="3.000000" y="3.000000" fill="rgb(255,255,255)" />
		</clipPath>
	</defs>
	<rect id="容器 2496" width="20.000000" height="20.000000" x="0.000000" y="0.000000" fill="rgb(255,255,255)" fill-opacity="0" />
	<g id="svg 8" clip-path="url(#clipPath_10)" customFrame="url(#clipPath_10)">
		<rect id="svg 8" width="14.000000" height="14.000000" x="3.000000" y="3.000000" />
		<path id="椭圆 2" d="M3.25823 10.1607C2.61325 9.89306 2.03288 9.50131 1.54676 9.01519C0.591093 8.05952 0 6.73927 0 5.28097C0 2.36437 2.36437 0 5.28097 0C7.55045 0 9.48562 1.43172 10.2326 3.4411" stroke="rgb(25,25,25)" stroke-linecap="round" stroke-linejoin="round" stroke-dasharray="0.5 1.5 " stroke-width="1.000000" transform="matrix(0.965926,-0.258819,0.258819,0.965926,2.40234,5.16333)" />
		<path id="矢量 2" d="M14.0166 13.0082C14.0002 13.0377 13.9824 13.0664 13.963 13.094C13.9437 13.1217 13.9229 13.1483 13.9007 13.1738C13.8786 13.1992 13.8551 13.2235 13.8303 13.2465C13.8056 13.2694 13.7797 13.2911 13.7526 13.3113C13.7256 13.3315 13.6975 13.3503 13.6685 13.3675C13.6395 13.3848 13.6096 13.4005 13.5789 13.4146C13.5482 13.4287 13.5168 13.4411 13.4848 13.4518C13.4528 13.4626 13.4203 13.4716 13.3873 13.479C13.3544 13.4863 13.3211 13.4918 13.2875 13.4956C13.254 13.4994 13.2203 13.5014 13.1865 13.5016C13.1527 13.5018 13.119 13.5002 13.0854 13.4969C13.0518 13.4935 13.0185 13.4884 12.9854 13.4815C12.9523 13.4746 12.9197 13.4659 12.8876 13.4556C12.8554 13.4452 12.8239 13.4331 12.7931 13.4194C12.7622 13.4057 12.7321 13.3904 12.7029 13.3735L12.0956 13.0231C12.0663 13.0062 12.0381 12.9878 12.0108 12.9679C11.9835 12.9481 11.9573 12.9268 11.9323 12.9041C11.9073 12.8815 11.8835 12.8576 11.861 12.8324C11.8385 12.8072 11.8174 12.7809 11.7977 12.7535C11.778 12.7261 11.7598 12.6977 11.7431 12.6684C11.7264 12.639 11.7113 12.6089 11.6978 12.5779C11.6843 12.547 11.6725 12.5154 11.6623 12.4832C11.6522 12.451 11.6437 12.4183 11.637 12.3852C11.6304 12.3522 11.6254 12.3188 11.6223 12.2852C11.6191 12.2516 11.6178 12.2179 11.6182 12.1841C11.6186 12.1503 11.6208 12.1167 11.6248 12.0832C11.6288 12.0497 11.6346 12.0164 11.6421 11.9835C11.6496 11.9506 11.6589 11.9182 11.6698 11.8862C11.6808 11.8543 11.6934 11.823 11.7077 11.7924C11.722 11.7618 11.7378 11.7321 11.7552 11.7032C11.7727 11.6742 11.7916 11.6463 11.812 11.6194L15.5169 6.72472C15.5365 6.69833 15.5583 6.67392 15.5823 6.6515C15.6064 6.62909 15.6323 6.60903 15.66 6.59134C15.6877 6.57364 15.7167 6.5586 15.7472 6.54621C15.7776 6.53382 15.809 6.52429 15.8411 6.51761C15.8733 6.51094 15.9059 6.50723 15.9387 6.50649C15.9716 6.50574 16.0042 6.50798 16.0367 6.5132C16.0691 6.51842 16.1009 6.52653 16.1318 6.53754C16.1628 6.54854 16.1925 6.56226 16.221 6.57869C16.2495 6.59511 16.2762 6.61398 16.3013 6.63529C16.3263 6.6566 16.3492 6.68 16.3699 6.70549C16.3907 6.73097 16.409 6.75813 16.4248 6.78695C16.4406 6.81577 16.4537 6.84579 16.464 6.877C16.4743 6.9082 16.4817 6.94009 16.4862 6.97265C16.4908 7.00521 16.4923 7.03791 16.4908 7.07075C16.4894 7.10359 16.485 7.13602 16.4776 7.16806C16.4702 7.20009 16.46 7.23119 16.4469 7.26136L14.0598 12.9171L14.0607 12.9171C14.0476 12.9482 14.0329 12.9786 14.0166 13.0082ZM12.1137 13.5053C12.9974 14.0624 13.0686 14.9376 12.1137 15.8925C11.1264 16.8798 9.22808 16.2649 9.3102 15.7435C9.33884 15.5659 9.46202 15.4265 9.5852 15.2852C9.69788 15.1592 9.81055 15.0312 9.85352 14.8746L9.85352 14.8746C10.3615 13.0317 11.23 12.9483 12.1137 13.5053Z" fill-rule="evenodd" stroke="rgb(25,25,25)" stroke-width="1.000000" />
	</g>
</svg>
