<svg viewBox="0 0 20 20" xmlns="http://www.w3.org/2000/svg" xmlns:xlink="http://www.w3.org/1999/xlink" width="20.000000" height="20.000000" fill="none">
	<defs>
		<clipPath id="clipPath_12">
			<rect width="14.000000" height="14.000000" x="3.000000" y="3.000000" fill="rgb(255,255,255)" />
		</clipPath>
	</defs>
	<rect id="容器 2496" width="20.000000" height="20.000000" x="0.000000" y="0.000000" fill="rgb(255,255,255)" fill-opacity="0" />
	<g id="svg 6" clip-path="url(#clipPath_12)" customFrame="url(#clipPath_12)">
		<rect id="svg 6" width="14.000000" height="14.000000" x="3.000000" y="3.000000" />
		<path id="path3" d="M15.9789 10.8697C15.9789 9.23236 15.9789 7.3855 15.9789 6.02067C15.9789 4.91626 15.0837 4.02104 13.9793 4.02104C11.7763 4.02101 8.25161 4.02098 6.02024 4.021C4.91578 4.021 4.02051 4.91633 4.02051 6.02079L4.02051 13.9792C4.02051 15.0838 4.91594 15.9792 6.02051 15.9792C7.39381 15.9793 9.25665 15.9793 10.8907 15.9793" stroke="rgb(25,25,25)" stroke-linecap="round" stroke-linejoin="round" stroke-width="1.000000" />
		<path id="直线 3" d="M0 0L14.0888 0" stroke="rgb(25,25,25)" stroke-linecap="round" stroke-linejoin="round" stroke-width="1.000000" transform="matrix(-0.707107,0.707107,-0.707107,-0.707107,14.2236,4.3252)" />
		<path id="直线 4" d="M0 0L8.36443 0" stroke="rgb(25,25,25)" stroke-linecap="round" stroke-linejoin="round" stroke-width="1.000000" transform="matrix(-0.707107,0.707107,-0.707107,-0.707107,9.98633,4.09448)" />
		<path id="直线 5" d="M0 0L7.39832 0" stroke="rgb(25,25,25)" stroke-linecap="round" stroke-linejoin="round" stroke-width="1.000000" transform="matrix(-0.707107,0.707107,-0.707107,-0.707107,14.0723,8.97168)" />
		<path id="路径" d="M14.1188 11.8273L14.1047 11.8815C13.8716 12.7297 13.1934 13.3948 12.3385 13.6105C12.1788 13.6508 12.1788 13.878 12.3386 13.9182C13.2113 14.1382 13.8987 14.8263 14.1187 15.7001C14.1589 15.86 14.3859 15.86 14.4261 15.7001C14.6458 14.8264 15.3332 14.1382 16.206 13.918C16.3657 13.8777 16.3657 13.6505 16.206 13.6103C15.362 13.3975 14.6894 12.7462 14.4478 11.9097L14.4252 11.8258C14.3827 11.6686 14.1596 11.6697 14.1188 11.8273Z" fill="rgb(25,25,25)" fill-rule="evenodd" />
		<path id="路径" d="M13.6609 11.7628L13.6741 11.7119Q13.7339 11.4816 13.8827 11.3659Q14.0314 11.2503 14.2691 11.2491C14.4275 11.2483 14.5566 11.286 14.6565 11.362Q14.8066 11.4763 14.8687 11.7061L14.8892 11.7823Q15.049 12.3357 15.4084 12.6819Q15.765 13.0254 16.3183 13.1648Q16.5516 13.2236 16.6683 13.3734C16.7462 13.4733 16.7851 13.6035 16.7852 13.7641C16.7852 13.9247 16.7463 14.0549 16.6684 14.1548Q16.5517 14.3046 16.3184 14.3634Q15.7415 14.509 15.3801 14.8701Q15.0174 15.2325 14.8716 15.8121C14.8324 15.9679 14.7629 16.0847 14.6629 16.1626Q14.5132 16.2793 14.2724 16.2794Q14.0317 16.2794 13.8819 16.1627Q13.732 16.0459 13.6732 15.8122Q13.5271 15.2321 13.1639 14.8695Q12.8026 14.5089 12.2263 14.3637Q11.9929 14.3049 11.8762 14.1551Q11.7594 14.0053 11.7594 13.7644Q11.7594 13.5235 11.8761 13.3737Q11.9928 13.2239 12.2262 13.1651Q12.7904 13.0227 13.1495 12.6709Q13.5069 12.3206 13.6609 11.7628ZM14.1047 11.8815L14.1188 11.8273C14.1596 11.6697 14.3827 11.6686 14.4252 11.8258L14.4478 11.9097C14.4638 11.9649 14.4815 12.0192 14.5011 12.0726C14.5059 12.0856 14.5108 12.0986 14.5157 12.1115C14.7653 12.7581 15.2797 13.2717 15.924 13.5206C15.9353 13.525 15.9467 13.5293 15.9581 13.5335C15.9593 13.534 15.9606 13.5344 15.9618 13.5349C16.0414 13.5641 16.1228 13.5893 16.206 13.6103C16.3657 13.6505 16.3657 13.8777 16.206 13.918C16.1229 13.939 16.0414 13.9642 15.9619 13.9934C15.9492 13.9981 15.9366 14.0028 15.924 14.0077C15.2788 14.257 14.7649 14.7713 14.5159 15.4171C14.5109 15.4299 14.5061 15.4427 14.5014 15.4555C14.4722 15.5352 14.447 15.6168 14.4261 15.7001C14.3859 15.86 14.1589 15.86 14.1187 15.7001C14.0977 15.6168 14.0725 15.5352 14.0433 15.4555C14.0386 15.4427 14.0338 15.4299 14.0288 15.4172C13.7796 14.7713 13.2657 14.257 12.6205 14.0079C12.608 14.003 12.5954 13.9983 12.5827 13.9936C12.5032 13.9644 12.4217 13.9392 12.3386 13.9182C12.1788 13.878 12.1788 13.6508 12.3385 13.6105C12.4217 13.5895 12.5031 13.5643 12.5827 13.535C12.5953 13.5304 12.608 13.5256 12.6205 13.5208C13.2657 13.2715 13.7802 12.7571 14.029 12.1115C14.0339 12.0986 14.0388 12.0857 14.0435 12.0727C14.0664 12.0101 14.0869 11.9464 14.1047 11.8815Z" fill="rgb(255,255,255)" fill-opacity="0" fill-rule="evenodd" />
	</g>
</svg>
