<svg viewBox="0 0 20 20" xmlns="http://www.w3.org/2000/svg" xmlns:xlink="http://www.w3.org/1999/xlink" width="20.000000" height="20.000000" fill="none">
	<defs>
		<clipPath id="clipPath_6">
			<rect width="14.000000" height="14.000000" x="3.000000" y="3.000000" fill="rgb(255,255,255)" />
		</clipPath>
	</defs>
	<rect id="容器 2496" width="20.000000" height="20.000000" x="0.000000" y="0.000000" fill="rgb(255,255,255)" fill-opacity="0" />
	<g id="svg 1" clip-path="url(#clipPath_6)" customFrame="url(#clipPath_6)">
		<rect id="svg 1" width="14.000000" height="14.000000" x="3.000000" y="3.000000" />
		<path id="path3" d="M11.4274 15.9793L5.77051 15.9791C4.80217 15.9791 4.02051 15.1945 4.02051 14.2291L4.02051 5.77075C4.02051 4.80242 4.80217 4.02075 5.77051 4.02075L14.2288 4.02075C15.1943 4.02075 15.9788 4.80242 15.9788 5.77075L15.9788 9.99992" stroke="rgb(25,25,25)" stroke-linejoin="round" stroke-width="1.000000" />
		<circle id="path4" cx="7.09082031" cy="6.77685547" r="0.4375" fill="rgb(25,25,25)" />
		<circle id="path4" cx="7.09082031" cy="6.77685547" r="0.4375" stroke="rgb(25,25,25)" stroke-linejoin="round" stroke-width="1.000000" />
		<path id="path3" d="M12.7115 11.6561L11.5356 10.5191C10.6324 9.64556 9.16938 9.75548 8.40678 10.7541L4.76562 15.5223" stroke="rgb(25,25,25)" stroke-linecap="round" stroke-linejoin="round" stroke-width="1.000000" />
		<path id="路径" d="M14.4781 12.0933L14.462 12.1552C14.1956 13.1246 13.4205 13.8848 12.4435 14.1312C12.261 14.1773 12.261 14.4369 12.4436 14.4829C13.441 14.7343 14.2266 15.5208 14.478 16.5193C14.524 16.7021 14.7833 16.702 14.8293 16.5193C15.0804 15.5208 15.866 14.7343 16.8635 14.4827C17.046 14.4366 17.046 14.177 16.8635 14.131C15.8989 13.8879 15.1302 13.1434 14.8542 12.1875L14.8283 12.0915C14.7798 11.9119 14.5248 11.9132 14.4781 12.0933Z" fill="rgb(25,25,25)" fill-rule="evenodd" />
		<path id="路径" d="M13.9548 12.0196L13.9699 11.9614Q14.0382 11.6982 14.2083 11.566Q14.3783 11.4339 14.6499 11.4325Q14.9214 11.4312 15.0927 11.5615C15.207 11.6486 15.2878 11.7796 15.3351 11.9547L15.3586 12.0419Q15.5412 12.6743 15.9519 13.0699Q16.3595 13.4625 16.9918 13.6219C17.1696 13.6667 17.3029 13.7462 17.3919 13.8602C17.4809 13.9744 17.5254 14.1232 17.5254 14.3068C17.5254 14.4903 17.4809 14.6391 17.392 14.7533Q17.2586 14.9245 16.9919 14.9917Q16.7055 15.064 16.4549 15.2015L16.4549 15.2015L16.4549 15.2015Q16.1739 15.3557 15.938 15.5919C15.7816 15.7485 15.6523 15.9198 15.5499 16.106C15.4574 16.2744 15.3869 16.4548 15.3384 16.6474C15.2937 16.8254 15.2142 16.9589 15.1 17.0479C14.9859 17.1369 14.8371 17.1814 14.6537 17.1814C14.4703 17.1814 14.3215 17.1369 14.2074 17.048C14.0932 16.959 14.0137 16.8255 13.9689 16.6475C13.9203 16.4546 13.8496 16.2739 13.7569 16.1053L13.7568 16.1052Q13.6033 15.8264 13.3691 15.592Q13.1328 15.3554 12.8514 15.2012L12.8514 15.2012Q12.6011 15.0641 12.3152 14.992Q12.0486 14.9248 11.9152 14.7537Q11.7817 14.5824 11.7816 14.3071Q11.7816 14.0318 11.9151 13.8606Q12.0484 13.6894 12.3151 13.6222Q12.5942 13.5517 12.8397 13.4191L12.8397 13.419Q13.1173 13.269 13.3519 13.0393Q13.5874 12.8086 13.7434 12.533L13.7434 12.533L13.7434 12.533Q13.8792 12.2933 13.9548 12.0196ZM14.462 12.1552L14.4781 12.0933C14.5248 11.9132 14.7798 11.9119 14.8283 12.0915L14.8542 12.1875C14.8724 12.2505 14.8927 12.3126 14.9151 12.3736C14.9191 12.3847 14.9233 12.3958 14.9275 12.4068C14.9289 12.4106 14.9303 12.4143 14.9318 12.418C15.217 13.1571 15.8048 13.7441 16.5412 14.0285C16.5553 14.034 16.5695 14.0393 16.5837 14.0445L16.5844 14.0448C16.6754 14.0782 16.7685 14.107 16.8635 14.131C17.046 14.177 17.046 14.4366 16.8635 14.4827C16.7685 14.5067 16.6754 14.5355 16.5845 14.5689C16.5783 14.5711 16.5722 14.5734 16.5661 14.5757C16.5578 14.5788 16.5495 14.582 16.5413 14.5852C15.8038 14.8701 15.2166 15.4579 14.9319 16.196C14.9263 16.2105 14.9208 16.2251 14.9154 16.2398C14.882 16.3309 14.8532 16.4241 14.8293 16.5193C14.7833 16.702 14.524 16.7021 14.478 16.5193C14.454 16.4242 14.4252 16.3309 14.3918 16.2399C14.3882 16.23 14.3846 16.2203 14.3809 16.2105C14.379 16.2057 14.3772 16.2008 14.3753 16.196C14.0905 15.4579 13.5032 14.8701 12.7658 14.5854C12.7515 14.5798 12.7371 14.5744 12.7226 14.5691C12.6317 14.5357 12.5386 14.5069 12.4436 14.4829C12.261 14.4369 12.261 14.1773 12.4435 14.1312C12.5385 14.1072 12.6317 14.0784 12.7226 14.045C12.7282 14.0429 12.7338 14.0409 12.7394 14.0387C12.7482 14.0354 12.757 14.0321 12.7658 14.0287C13.5032 13.7438 14.0911 13.1559 14.3755 12.4181C14.3768 12.4145 14.3782 12.411 14.3795 12.4075C14.3838 12.3963 14.388 12.385 14.3921 12.3738C14.4183 12.3022 14.4416 12.2294 14.462 12.1552Z" fill="rgb(255,255,255)" fill-opacity="0" fill-rule="evenodd" />
	</g>
</svg>
