<svg viewBox="0 0 80 80" xmlns="http://www.w3.org/2000/svg" xmlns:xlink="http://www.w3.org/1999/xlink" width="80.000000" height="80.000000" fill="none" customFrame="#000000" mask="url(#mask_2)">
	<mask id="mask_3" width="70.000000" height="70.000000" x="5.000000" y="5.000000" maskUnits="userSpaceOnUse">
		<g filter="url(#pixso_custom_mask_type_outline)">
			<circle id="椭圆形" cx="40" cy="40" r="35" fill="rgb(255,255,255)" />
			<circle id="椭圆形" cx="40" cy="40" r="34.1666679" stroke="rgb(151,151,151)" stroke-opacity="0" stroke-width="1.666667" />
		</g>
	</mask>
	<defs>
		<filter id="pixso_custom_mask_type_outline">
			<feColorMatrix type="matrix" values="0 0 0 0 1 0 0 0 0 1 0 0 0 0 1 0 0 0 1 0 " />
		</filter>
		<radialGradient id="paint_radial_4" cx="0" cy="0" r="1" gradientUnits="userSpaceOnUse" gradientTransform="matrix(14.4162,32.3713,-32.3713,14.4162,32.3713,11.9959)">
			<stop stop-color="rgb(191,105,250)" offset="0" stop-opacity="1" />
			<stop stop-color="rgb(203,142,251)" offset="1" stop-opacity="1" />
		</radialGradient>
		<radialGradient id="paint_radial_5" cx="0" cy="0" r="1" gradientUnits="userSpaceOnUse" gradientTransform="matrix(-8.98689,-34.2139,34.2139,-8.98689,5.08259,35.3714)">
			<stop stop-color="rgb(125,223,231)" offset="0" stop-opacity="1" />
			<stop stop-color="rgb(140,163,250)" offset="1" stop-opacity="0.501960814" />
		</radialGradient>
		<radialGradient id="paint_radial_6" cx="0" cy="0" r="1" gradientUnits="userSpaceOnUse" gradientTransform="matrix(35.4313,52.7421,-52.7421,35.4313,12.8448,47.5274)">
			<stop stop-color="rgb(198,128,250)" offset="0" stop-opacity="1" />
			<stop stop-color="rgb(122,102,255)" offset="1" stop-opacity="0" />
		</radialGradient>
		<radialGradient id="paint_radial_7" cx="0" cy="0" r="1" gradientUnits="userSpaceOnUse" gradientTransform="matrix(-26.3686,-31.943,31.9436,-26.3691,17.2155,26.7168)">
			<stop stop-color="rgb(91,71,213)" offset="0" stop-opacity="1" />
			<stop stop-color="rgb(122,102,255)" offset="1" stop-opacity="0" />
		</radialGradient>
		<linearGradient id="paint_linear_10" x1="16.007412" x2="15.0445967" y1="2.98023224e-07" y2="15.5676451" gradientUnits="userSpaceOnUse">
			<stop stop-color="rgb(138,190,243)" offset="0" stop-opacity="1" />
			<stop stop-color="rgb(47,134,222)" offset="1" stop-opacity="1" />
		</linearGradient>
		<linearGradient id="paint_linear_11" x1="10.252655" x2="10.252655" y1="0" y2="34.3966026" gradientUnits="userSpaceOnUse">
			<stop stop-color="rgb(164,236,241)" offset="0" stop-opacity="1" />
			<stop stop-color="rgb(85,204,217)" offset="1" stop-opacity="1" />
		</linearGradient>
	</defs>
	<mask id="mask_2" width="70.000000" height="70.000000" x="5.000000" y="5.000000" maskUnits="userSpaceOnUse">
		<g filter="url(#pixso_custom_mask_type_outline)">
			<circle id="椭圆形" cx="40" cy="40" r="35" fill="rgb(255,255,255)" />
			<circle id="椭圆形" cx="40" cy="40" r="34.1666679" stroke="rgb(151,151,151)" stroke-opacity="0" stroke-width="1.666667" />
		</g>
	</mask>
	<rect id="ic/logo/light_purple" width="80.000000" height="80.000000" x="0.000000" y="0.000000" fill="rgb(255,255,255)" fill-opacity="0" />
	<g mask="url(#mask_3)">
		<path id="路径 11" d="M36.4201 0C36.4201 0 40.237 17.6166 37.9253 22.7549C35.9133 27.227 27.7293 26.811 25.0782 29.0128C16.5323 36.1106 5.30169 39.1701 1.61513 36.0746C-2.07144 32.9791 0.016284 21.1688 13.5038 21.8256C26.9913 22.4824 36.4201 0 36.4201 0Z" fill="url(#paint_radial_4)" fill-rule="evenodd" transform="matrix(-1,0,0,1,41.6152,37.2588)" />
		<path id="路径 11" d="M36.4201 0C36.4201 0 36.6397 1.01356 36.9416 2.62537C36.9514 2.67745 36.9612 2.73016 36.9712 2.78348C37.6369 6.36023 38.6688 12.685 38.6688 17.5274C38.6688 19.6921 38.4626 21.5606 37.9253 22.7549C35.9133 27.227 27.7293 26.811 25.0782 29.0128C16.5323 36.1106 5.30169 39.1701 1.61513 36.0746C0.579897 35.2054 0 33.6489 0 31.8743C0 27.3293 3.80372 21.3532 13.5038 21.8256C23.6194 22.3182 31.452 9.79498 34.7361 3.50261C34.9167 3.15663 35.0835 2.8295 35.2362 2.5244C36.0092 0.979824 36.4201 0 36.4201 0ZM36.3872 9.66842Q36.0838 7.36708 35.7199 5.20289Q33.6832 8.96737 31.3659 12.1418Q27.6731 17.2004 23.7526 20.0419Q19.1638 23.3678 14.4842 23.501C14.1307 23.5111 13.7769 23.5075 13.4227 23.4903Q9.14672 23.2821 6.20957 24.8168Q4.56787 25.6746 3.48379 26.9915L3.48374 26.9915Q2.97426 27.6104 2.58794 28.3307C2.04027 29.3519 1.73624 30.3871 1.67587 31.4362C1.66839 31.5662 1.66465 31.6964 1.66465 31.8269C1.66465 31.9937 1.67077 32.1609 1.68302 32.3285C1.76744 33.4839 2.10206 34.3072 2.68686 34.7982C3.29429 35.3082 4.28915 35.5785 5.67146 35.609Q7.99345 35.6601 11.0577 34.7662C13.187 34.145 15.3475 33.2484 17.5392 32.0762Q20.8807 30.2892 23.7617 27.9379L23.7619 27.9377C23.846 27.8691 23.9298 27.8001 24.0133 27.7307C24.625 27.2227 25.486 26.7803 26.5962 26.4035C27.1944 26.2005 28.1642 25.9308 29.5057 25.5942Q32.6422 24.8073 33.9504 24.2034C35.2089 23.6223 36.0272 22.9116 36.4054 22.0711Q37.0261 20.6914 37.0261 17.6253C37.0261 15.5516 36.8131 12.8993 36.3872 9.66842Z" fill="rgb(151,151,151)" fill-opacity="0" fill-rule="evenodd" transform="matrix(-1,0,0,1,41.6152,37.2588)" />
		<path id="路径 8" d="M1.49704 32.3397C2.70867 32.509 3.35525 31.497 3.55399 31.2403C5.63018 28.5581 10.3046 24.0491 24.1821 25.7813C44.3214 28.2951 59.272 26.6702 60.5755 16.6001C61.8791 6.53008 37.6818 -4.1064 20.7089 1.59875C3.73606 7.3039 -3.35728 31.5683 1.49704 32.3397Z" fill="rgb(140,163,250)" fill-rule="evenodd" transform="matrix(-1,0,0,1,74.3809,4.3479)" />
		<path id="路径 8" d="M1.49704 32.3397C2.70867 32.509 3.35525 31.497 3.55399 31.2403C5.63018 28.5581 10.3046 24.0491 24.1821 25.7813C44.3214 28.2951 59.272 26.6702 60.5755 16.6001C61.8791 6.53008 37.6818 -4.1064 20.7089 1.59875C3.73606 7.3039 -3.35728 31.5683 1.49704 32.3397Z" fill="url(#paint_radial_5)" fill-opacity="0.699999988" fill-rule="evenodd" transform="matrix(-1,0,0,1,74.3809,4.3479)" />
		<path id="路径 8" d="M24.1821 25.7813C10.3046 24.0491 5.63018 28.5581 3.55399 31.2403C3.53958 31.2589 3.52281 31.2815 3.50365 31.3073C3.25851 31.6376 2.62081 32.4967 1.49704 32.3397C0.492913 32.1801 0 31.0153 0 29.2175C0 22.3241 7.24694 6.12378 20.7089 1.59875C35.1741 -3.2635 54.8868 3.74384 59.5889 12.1542C60.2607 13.3557 60.6261 14.5858 60.6261 15.814C60.6261 16.0763 60.6094 16.3384 60.5755 16.6001C59.272 26.6702 44.3214 28.2951 24.1821 25.7813ZM2.23604 30.2201Q3.31173 28.8304 4.63675 27.7452Q6.49026 26.2271 8.83165 25.3047Q14.8441 22.9361 24.3885 24.1275C35.0301 25.4558 43.2669 25.5062 49.0989 24.2787Q56.2298 22.778 58.2225 18.741C58.5797 18.0172 58.8131 17.2323 58.9227 16.3862C58.9318 16.3156 58.9393 16.2449 58.9452 16.1741L58.9454 16.1712Q58.961 15.9814 58.961 15.7903Q58.961 13.2086 56.1113 10.3907Q52.7748 7.09148 46.8767 4.7311C45.0853 4.01421 43.2624 3.4225 41.4081 2.95599Q37.8587 2.06305 34.1555 1.78163Q27.0111 1.23869 21.2399 3.17856Q15.7057 5.03879 11.0643 9.85672Q7.06726 14.0058 4.42136 19.5384Q2.10218 24.3879 1.72255 28.1793Q1.66376 28.7664 1.66376 29.2458Q1.66376 30.0307 1.8213 30.5273C1.83635 30.5747 1.85075 30.6159 1.86449 30.6509C1.9404 30.5942 2.04069 30.4819 2.16535 30.314C2.19598 30.2727 2.21954 30.2414 2.23604 30.2201Z" fill="rgb(151,151,151)" fill-opacity="0" fill-rule="evenodd" transform="matrix(-1,0,0,1,74.3809,4.3479)" />
		<path id="路径 9" d="M0.0264473 0.690102C0.723286 -0.512177 13.3322 -0.512177 21.6783 3.73388C30.0244 7.97994 35.7753 15.0569 39.1142 24.7983C42.4532 34.5397 39.1248 51.3458 24.9029 54.6214C10.681 57.8971 6.54816 41.7162 9.6045 24.7983C12.6608 7.8804 -0.670391 1.89238 0.0264473 0.690102Z" fill="rgb(122,102,255)" fill-rule="evenodd" transform="matrix(-1,0,0,1,45.0938,4.30981)" />
		<path id="路径 9" d="M0.0264473 0.690102C0.723286 -0.512177 13.3322 -0.512177 21.6783 3.73388C30.0244 7.97994 35.7753 15.0569 39.1142 24.7983C42.4532 34.5397 39.1248 51.3458 24.9029 54.6214C10.681 57.8971 6.54816 41.7162 9.6045 24.7983C12.6608 7.8804 -0.670391 1.89238 0.0264473 0.690102Z" fill="url(#paint_radial_6)" fill-opacity="0.600000024" fill-rule="evenodd" transform="matrix(-1,0,0,1,45.0938,4.30981)" />
		<path id="路径 9" d="M1.51207 0.168704C1.51361 0.16848 1.51515 0.168255 1.5167 0.168031C5.21291 -0.368828 14.8657 0.267995 21.6783 3.73388C30.0244 7.97994 35.7753 15.0569 39.1142 24.7983C39.8927 27.0697 40.3088 29.7251 40.3088 32.5036C40.3088 41.6413 35.8087 52.1095 24.9029 54.6214C13.5845 57.2284 8.6562 47.5122 8.6562 34.9087C8.6562 31.6755 8.98052 28.2522 9.6045 24.7983C9.91967 23.0537 10.0606 21.4254 10.0606 19.9065C10.0606 10.1383 4.23237 4.89864 1.44795 2.3954C0.574069 1.60977 0 1.09368 0 0.791709C0 0.754649 0.00864674 0.720814 0.0264473 0.690102C0.154247 0.469605 0.682714 0.289547 1.51207 0.168704ZM3.15283 1.69314Q4.67417 3.09388 5.64905 4.1793Q7.72368 6.48914 9.08166 9.03561Q9.90937 10.5877 10.4784 12.2295L10.4784 12.2295L10.4784 12.2296Q11.7302 15.8412 11.7302 19.8868Q11.7302 22.4065 11.2446 25.0946Q10.3214 30.2052 10.3214 34.8581Q10.3214 35.9303 10.3704 36.9782Q10.6368 42.6734 12.3097 46.634Q14.1154 50.909 17.2675 52.4763L17.2675 52.4764C19.2774 53.4757 21.6978 53.6494 24.5288 52.9973C26.4539 52.5539 28.2051 51.8348 29.7824 50.8401C30.7286 50.2434 31.6123 49.5474 32.4334 48.7523Q35.4072 45.8724 37.0339 41.5477Q37.1916 41.1285 37.3339 40.704L37.3343 40.7029C38.1444 38.2851 38.5783 35.7412 38.636 33.0712C38.6404 32.8675 38.6426 32.6651 38.6426 32.4641C38.6426 29.8631 38.2743 27.4879 37.5376 25.3387Q34.0842 15.2634 27.1085 9.32724Q24.3008 6.93804 20.9226 5.21936Q18.1718 3.81993 14.4766 2.91694Q11.2742 2.13441 7.83643 1.82899Q5.18322 1.59328 3.15283 1.69314Z" fill="rgb(151,151,151)" fill-opacity="0" fill-rule="evenodd" transform="matrix(-1,0,0,1,45.0938,4.30981)" />
		<path id="形状结合" d="M42.3554 4.35742C43.8837 4.45253 44.8848 4.68507 45.0675 5.00022C45.0853 5.03093 45.0939 5.06476 45.0939 5.10182C45.0939 5.40379 44.5199 5.91989 43.646 6.70552C40.8616 9.20876 35.0334 14.4484 35.0334 24.2166C35.0334 25.7355 35.1743 27.3638 35.4894 29.1084C35.6142 29.7988 35.7269 30.4879 35.8275 31.1745C23.2687 31.2481 14.7726 28.4275 13.8044 20.9483C13.7706 20.6866 13.7539 20.4244 13.7539 20.1622C13.7539 12.4494 28.1627 4.6624 42.3554 4.35742Z" opacity="0.600000024" fill="rgb(201,246,249)" fill-opacity="0" fill-rule="evenodd" />
		<path id="形状结合" d="M42.3554 4.35742C43.8837 4.45253 44.8848 4.68507 45.0675 5.00022C45.0853 5.03093 45.0939 5.06476 45.0939 5.10182C45.0939 5.40379 44.5199 5.91989 43.646 6.70552C40.8616 9.20876 35.0334 14.4484 35.0334 24.2166C35.0334 25.7355 35.1743 27.3638 35.4894 29.1084C35.6142 29.7988 35.7269 30.4879 35.8275 31.1745C23.2687 31.2481 14.7726 28.4275 13.8044 20.9483C13.7706 20.6866 13.7539 20.4244 13.7539 20.1622C13.7539 12.4494 28.1627 4.6624 42.3554 4.35742Z" opacity="0.600000024" fill="url(#paint_radial_7)" fill-rule="evenodd" />
		<path id="形状结合" d="M42.3554 4.35742C43.8837 4.45253 44.8848 4.68507 45.0675 5.00022C45.0853 5.03093 45.0939 5.06476 45.0939 5.10182C45.0939 5.40379 44.5199 5.91989 43.646 6.70552C40.8616 9.20876 35.0334 14.4484 35.0334 24.2166C35.0334 25.7355 35.1743 27.3638 35.4894 29.1084C35.6142 29.7988 35.7269 30.4879 35.8275 31.1745C23.2687 31.2481 14.7726 28.4275 13.8044 20.9483C13.7706 20.6866 13.7539 20.4244 13.7539 20.1622C13.7539 12.4494 28.1627 4.6624 42.3554 4.35742ZM41.9037 6.03712Q37.1394 6.19699 32.3288 7.48124Q27.4907 8.77282 23.5339 10.9432Q19.6446 13.0765 17.488 15.5716Q15.4206 17.9635 15.4206 20.1622C15.4206 20.3544 15.4328 20.5451 15.4573 20.7343Q15.6245 22.0262 16.1735 23.1278Q19.2037 29.2093 33.8656 29.4952C33.8602 29.465 33.8548 29.4349 33.8493 29.4047Q33.3667 26.7332 33.3667 24.2166Q33.3667 19.9789 34.7245 16.2334L34.7245 16.2333L34.7247 16.2327Q35.5536 13.9464 36.8884 11.8435Q38.1568 9.84528 39.9123 7.98132Q40.7006 7.14443 41.9037 6.03712Z" opacity="0.600000024" fill="rgb(151,151,151)" fill-opacity="0" fill-rule="evenodd" />
		<path id="形状结合" d="M27.9091 9.36416C22.2591 13.2759 15.4021 15.5676 8.0098 15.5676C5.25387 15.5676 2.57233 15.2491 0 14.6468C13.801 13.773 18.2198 0.907686 23.6677 0.0939334C27.6796 -0.505318 30.0882 1.84679 30.0882 4.75256C30.0882 5.79569 29.7778 6.91017 29.1198 7.98507C28.851 8.4241 28.4413 8.88889 27.9091 9.36416Z" fill="rgb(138,190,243)" fill-rule="evenodd" transform="matrix(-0.62932,0.777146,0.777146,0.62932,61.2207,45.4707)" />
		<path id="形状结合" d="M27.9091 9.36416C22.2591 13.2759 15.4021 15.5676 8.0098 15.5676C5.25387 15.5676 2.57233 15.2491 0 14.6468C13.801 13.773 18.2198 0.907686 23.6677 0.0939334C27.6796 -0.505318 30.0882 1.84679 30.0882 4.75256C30.0882 5.79569 29.7778 6.91017 29.1198 7.98507C28.851 8.4241 28.4413 8.88889 27.9091 9.36416Z" fill="url(#paint_linear_10)" fill-rule="evenodd" transform="matrix(-0.62932,0.777146,0.777146,0.62932,61.2207,45.4707)" />
		<path id="形状结合" d="M27.9091 9.36416C22.2591 13.2759 15.4021 15.5676 8.0098 15.5676C5.25387 15.5676 2.57233 15.2491 0 14.6468C13.801 13.773 18.2198 0.907686 23.6677 0.0939334C27.6796 -0.505318 30.0882 1.84679 30.0882 4.75256C30.0882 5.79569 29.7778 6.91017 29.1198 7.98507C28.851 8.4241 28.4413 8.88889 27.9091 9.36416ZM26.8731 8.05411C27.2514 7.70854 27.5265 7.39545 27.6983 7.11484C28.1805 6.32727 28.4216 5.53984 28.4216 4.75256Q28.4216 3.85881 28.0317 3.19359Q27.774 2.75394 27.346 2.4141Q27.2679 2.35209 27.1863 2.2952Q25.9551 1.43742 23.9139 1.74231Q22.9987 1.87902 21.7041 2.94962Q20.7635 3.72748 18.6302 5.97581C17.2818 7.39694 16.2159 8.47448 15.4324 9.20843Q13.4016 11.1109 11.4353 12.4327Q10.2286 13.244 8.97042 13.8876Q11.6255 13.8135 14.2033 13.3286L14.2036 13.3285Q16.1787 12.957 18.1084 12.3443Q20.2697 11.6581 22.299 10.6941Q24.6766 9.56473 26.8731 8.05411Z" fill="rgb(151,151,151)" fill-opacity="0" fill-rule="evenodd" transform="matrix(-0.62932,0.777146,0.777146,0.62932,61.2207,45.4707)" />
		<path id="路径 10" d="M9.49945 0.156823C12.4253 0.789516 14.3297 3.33159 14.9531 5.95382C15.5764 8.57606 15.2981 19.399 16.1866 23.5938C17.075 27.7885 20.5053 34.3964 20.5053 34.3964C20.5053 34.3964 11.8413 33.3883 5.95046 24.3095C0.0595975 15.2307 -0.916889 8.58092 0.692971 4.67145C2.30283 0.761978 6.57359 -0.47587 9.49945 0.156823Z" fill="url(#paint_linear_11)" fill-rule="evenodd" transform="matrix(-0.994522,0.104528,0.104528,0.994522,72.7949,35.4639)" />
		<path id="路径 10" d="M14.9531 5.95382C15.5764 8.57606 15.2981 19.399 16.1866 23.5938C16.7772 26.3823 18.4911 30.2374 19.5739 32.5086C19.9833 33.3675 20.3025 33.9999 20.4365 34.2625C20.4812 34.35 20.5053 34.3964 20.5053 34.3964C20.5053 34.3964 19.6923 34.3018 18.395 33.9095C15.4574 33.0214 10.0367 30.6072 5.95046 24.3095C1.6899 17.7433 0 12.4477 0 8.54038C0 7.04525 0.247439 5.75341 0.692971 4.67145C2.30283 0.761978 6.57359 -0.47587 9.49945 0.156823C12.4253 0.789516 14.3297 3.33159 14.9531 5.95382ZM17.4054 31.8006C17.323 31.6184 17.24 31.4335 17.1564 31.2458Q15.1477 26.7327 14.5561 23.9391C14.326 22.8529 14.1462 21.2474 14.0167 19.1225C13.9421 17.8976 13.8616 15.9747 13.7753 13.3537C13.6441 9.36987 13.4962 7.03173 13.3316 6.33929Q13.0365 5.09798 12.3722 4.1032L12.3722 4.10317C12.2111 3.86189 12.0337 3.63148 11.84 3.41195Q11.0451 2.51111 10.0472 2.07543C9.75981 1.94997 9.45981 1.85344 9.14719 1.78584C8.81514 1.71404 8.48188 1.67117 8.14742 1.65724Q6.72514 1.59799 5.27379 2.23641Q4.05496 2.77256 3.24595 3.67578L3.24594 3.6758L3.24593 3.6758Q2.61562 4.37952 2.23409 5.30606Q1.65787 6.70539 1.65787 8.52533Q1.65787 10.1738 2.13064 12.1674Q3.32403 17.1998 7.34859 23.4023Q9.68388 27.0014 12.9274 29.3419L12.9275 29.3419L12.9275 29.342Q14.4425 30.4351 16.1555 31.2537C16.5729 31.4531 16.9895 31.6354 17.4054 31.8006Z" fill="rgb(151,151,151)" fill-opacity="0" fill-rule="evenodd" transform="matrix(-0.994522,0.104528,0.104528,0.994522,72.7949,35.4639)" />
	</g>
</svg>
