<svg viewBox="0 0 12 12" xmlns="http://www.w3.org/2000/svg" xmlns:xlink="http://www.w3.org/1999/xlink" width="12.000000" height="12.000000" fill="none">
	<rect id="picture_star_fill" width="12.000000" height="12.000000" x="0.000000" y="0.000000" />
	<rect id="矩形 6895" width="12.000000" height="12.000000" x="0.000000" y="0.000000" opacity="0" fill="rgb(188,3,212)" />
	<g id="组合 4792">
		<path id="矢量 12" d="M9.41031 7.69004C9.33698 8.07671 9.16698 8.40504 8.90031 8.67504C8.63031 8.94837 8.29198 9.14004 7.88531 9.25004C7.84531 9.26671 7.82365 9.29671 7.82031 9.34004C7.81365 9.38671 7.83531 9.41337 7.88531 9.42004C8.26865 9.49337 8.59865 9.67337 8.87531 9.96004C9.15198 10.2467 9.33031 10.5867 9.41031 10.98C9.42365 11.0267 9.45365 11.05 9.50031 11.05C9.54365 11.05 9.56865 11.0267 9.57531 10.98C9.66531 10.58 9.85031 10.2384 10.1303 9.95504C10.4103 9.67171 10.742 9.49337 11.1253 9.42004C11.182 9.41337 11.2103 9.38671 11.2103 9.34004C11.2103 9.29671 11.182 9.26671 11.1253 9.25004C10.7153 9.14004 10.3753 8.94837 10.1053 8.67504C9.83198 8.40504 9.65531 8.07671 9.57531 7.69004C9.55865 7.64337 9.52865 7.61837 9.48531 7.61504C9.44198 7.61171 9.41698 7.63671 9.41031 7.69004ZM6.61031 9.02504C6.58031 9.21504 6.49698 9.37671 6.36031 9.51004C6.22365 9.64337 6.05531 9.74171 5.85531 9.80504C5.83198 9.81171 5.82031 9.82504 5.82031 9.84504C5.82031 9.86504 5.83198 9.88004 5.85531 9.89004C6.04865 9.92004 6.21365 10.01 6.35031 10.16C6.48365 10.3067 6.57031 10.4767 6.61031 10.67C6.62031 10.6934 6.63698 10.705 6.66031 10.705C6.68365 10.705 6.70031 10.6934 6.71031 10.67C6.75031 10.47 6.84031 10.2967 6.98031 10.15C7.12031 10.0067 7.28531 9.92004 7.47531 9.89004C7.50865 9.88004 7.52531 9.86504 7.52531 9.84504C7.52531 9.82504 7.50865 9.81171 7.47531 9.80504C7.27531 9.74171 7.10698 9.64337 6.97031 9.51004C6.83698 9.37671 6.75031 9.21504 6.71031 9.02504C6.70031 9.00171 6.68365 8.98671 6.66031 8.98004C6.63698 8.97671 6.62031 8.99171 6.61031 9.02504Z" fill="rgb(188,3,212)" fill-rule="nonzero" />
		<path id="矢量 13" d="M4.25012 3.62512C4.49012 3.62512 4.69512 3.71012 4.86512 3.88012C5.03845 4.05345 5.12512 4.26012 5.12512 4.50012C5.12512 4.74012 5.03845 4.94678 4.86512 5.12012C4.69512 5.29012 4.49012 5.37512 4.25012 5.37512C4.01012 5.37512 3.80345 5.29012 3.63012 5.12012C3.45678 4.94678 3.37012 4.74012 3.37012 4.50012C3.37012 4.26012 3.45678 4.05345 3.63012 3.88012C3.80345 3.71012 4.01012 3.62512 4.25012 3.62512ZM10.9901 2.96512C10.9901 2.61178 10.9035 2.28345 10.7301 1.98012C10.5535 1.67678 10.3151 1.43678 10.0151 1.26012C9.71512 1.08345 9.38845 0.995117 9.03512 0.995117L2.96512 0.995117C2.61178 0.995117 2.28345 1.08345 1.98012 1.26012C1.67678 1.43678 1.43678 1.67678 1.26012 1.98012C1.08345 2.28345 0.995117 2.61178 0.995117 2.96512L0.995117 9.02512C0.995117 9.38512 1.08345 9.71678 1.26012 10.0201C1.43678 10.3235 1.67678 10.5635 1.98012 10.7401C2.28345 10.9168 2.61178 11.0051 2.96512 11.0051L4.82512 11.0051C4.97512 11.0051 5.09345 10.9735 5.18012 10.9101C5.26345 10.8435 5.30512 10.7501 5.30512 10.6301C5.30512 10.5101 5.26345 10.4168 5.18012 10.3501C5.09345 10.2835 4.97512 10.2501 4.82512 10.2501L2.95012 10.2501C2.64012 10.2501 2.37012 10.1435 2.14012 9.93012C1.91345 9.71678 1.78345 9.45512 1.75012 9.14512L6.78012 5.48512C6.94012 5.37178 7.11345 5.29678 7.30012 5.26012C7.49012 5.22678 7.67678 5.23512 7.86012 5.28512C8.04345 5.33845 8.20678 5.42845 8.35012 5.55512L10.9901 7.85012L10.9901 2.96512Z" fill="rgb(188,3,212)" fill-rule="nonzero" />
	</g>
</svg>
