<svg viewBox="0 0 16 16" xmlns="http://www.w3.org/2000/svg" xmlns:xlink="http://www.w3.org/1999/xlink" width="16.000000" height="16.000000" fill="none">
	<rect id="share" width="16.000000" height="16.000000" x="0.000000" y="0.000000" />
	<rect id="矩形 6889" width="16.000000" height="16.000000" x="0.000000" y="0.000000" opacity="0" fill="rgb(0,0,0)" />
	<g id="组合 3">
		<path id="矢量 2" d="M7.99989 14.8129C9.17322 14.8129 10.271 14.5285 11.2932 13.9596C12.3199 13.3907 13.151 12.6129 13.7866 11.6263C14.4177 10.6396 14.7666 9.54847 14.8332 8.35292C14.8421 8.21514 14.7999 8.09514 14.7066 7.99292C14.6088 7.8907 14.491 7.83514 14.3532 7.82625C14.2154 7.81292 14.0954 7.85292 13.9932 7.94625C13.891 8.03514 13.8354 8.14847 13.8266 8.28625C13.7821 9.27736 13.4977 10.1929 12.9732 11.0329C12.4532 11.8685 11.7688 12.5374 10.9199 13.0396C10.071 13.5418 9.151 13.804 8.15989 13.8263C7.10211 13.8574 6.11989 13.6218 5.21322 13.1196C4.30656 12.6174 3.57989 11.9263 3.03322 11.0463C2.48211 10.1663 2.191 9.19958 2.15989 8.14625C2.13767 7.11958 2.35989 6.16625 2.82656 5.28625C3.28878 4.40625 3.93545 3.68625 4.76656 3.12625C5.59767 2.56625 6.52656 2.24847 7.55322 2.17292C7.691 2.15514 7.80211 2.09514 7.88656 1.99292C7.971 1.8907 8.00878 1.7707 7.99989 1.63292C7.991 1.49514 7.93544 1.37958 7.83322 1.28625C7.731 1.19736 7.611 1.15736 7.47322 1.16625C6.27767 1.26403 5.19545 1.63736 4.22656 2.28625C3.25322 2.93958 2.49322 3.78625 1.94656 4.82625C1.39544 5.86625 1.13544 6.98181 1.16656 8.17292C1.19767 9.3907 1.52656 10.5063 2.15322 11.5196C2.77544 12.5329 3.60433 13.3351 4.63989 13.9263C5.67545 14.5174 6.79544 14.8129 7.99989 14.8129Z" fill="rgb(0,0,0)" fill-opacity="0.90196079" fill-rule="nonzero" />
		<path id="矢量 3" d="M10.2533 1.3128C10.1155 1.26836 9.98888 1.27947 9.87333 1.34613C9.75333 1.40835 9.67333 1.50836 9.63333 1.64613C9.58888 1.78391 9.59999 1.9128 9.66666 2.0328C9.72888 2.14836 9.82444 2.22835 9.95333 2.2728L12.48 3.03947C11.0089 3.48836 9.8911 4.15724 9.12666 5.04613C8.36666 5.93947 7.87555 6.75502 7.65333 7.4928C7.43555 8.23502 7.32666 8.76169 7.32666 9.0728C7.32666 9.21058 7.37333 9.33058 7.46666 9.4328C7.55555 9.53502 7.66888 9.58613 7.80666 9.58613C7.94444 9.58613 8.06444 9.53724 8.16666 9.43947C8.26888 9.34169 8.31999 9.23058 8.31999 9.10613C8.31999 8.83947 8.42222 8.37724 8.62666 7.71947C8.82666 7.06169 9.28222 6.3528 9.99333 5.5928C10.7 4.82835 11.7422 4.27058 13.12 3.91947L12.2867 6.6528C12.2467 6.78169 12.2578 6.90836 12.32 7.0328C12.3822 7.1528 12.4778 7.23502 12.6067 7.27947C12.7267 7.31058 12.8533 7.29724 12.9867 7.23947C13.12 7.18169 13.2067 7.08391 13.2467 6.94613L14.4 3.11947C14.4444 2.98169 14.4333 2.85058 14.3667 2.72613C14.3044 2.60613 14.2089 2.52391 14.08 2.47947L10.2533 1.3128Z" fill="rgb(0,0,0)" fill-opacity="0.90196079" fill-rule="nonzero" />
	</g>
</svg>
