<svg viewBox="0 0 24 24" xmlns="http://www.w3.org/2000/svg" xmlns:xlink="http://www.w3.org/1999/xlink" width="24.000000" height="24.000000" fill="none">
	<rect id="svg" width="23.999998" height="23.999998" x="0.000000" y="0.000000" transform="matrix(-1,0,0,1,24,0)" />
	<g id="ic_public_backward-退一步/model/border/ic_public_backward1">
		<path id="path1" d="M0.00273395 11.2408C0.00273395 9.48329 -0.00341743 7.72575 0.00273395 5.96821C-0.000801981 5.11774 0.10373 4.27026 0.313819 3.44614C0.774294 1.70178 1.91054 0.666589 3.65315 0.264991C4.52691 0.0762072 5.41936 -0.0122421 6.31318 0.00136036C9.68356 0.00136036 13.0542 0.00136036 16.4252 0.00136036C17.2765 -0.00392437 18.1254 0.0934429 18.9534 0.291354C20.7487 0.73074 21.8261 1.86787 22.2365 3.65704C22.421 4.50264 22.5091 5.36641 22.4993 6.23184C22.4993 9.63854 22.4993 13.0455 22.4993 16.4528C22.5039 17.2959 22.4068 18.1365 22.2101 18.9564C21.7708 20.7526 20.6284 21.8247 18.8392 22.2351C17.9653 22.4232 17.0729 22.5116 16.1791 22.4988C12.8228 22.4988 9.4668 22.4988 6.11107 22.4988C5.25323 22.5058 4.39764 22.4099 3.56263 22.2132C1.7594 21.7738 0.676751 20.6314 0.267244 18.8334C0.0580965 17.9195 0.00273395 17.0029 0.00273395 16.0785C0.00273395 14.4662 0.00273395 12.8537 0.00273395 11.2408Z" fill="rgb(255,255,255)" fill-opacity="0" fill-rule="nonzero" transform="matrix(-1,0,0,1,23.25,0.75)" />
		<path id="path1" d="M0.00273395 5.96821C-0.000801981 5.11774 0.10373 4.27026 0.313819 3.44614C0.774294 1.70178 1.91054 0.666589 3.65315 0.264991C4.52691 0.0762072 5.41936 -0.0122421 6.31318 0.00136036C9.68356 0.00136036 13.0542 0.00136036 16.4252 0.00136036C17.2765 -0.00392437 18.1254 0.0934429 18.9534 0.291354C20.7487 0.73074 21.8261 1.86787 22.2365 3.65704C22.421 4.50264 22.5091 5.36641 22.4993 6.23184C22.4993 9.63854 22.4993 13.0455 22.4993 16.4528C22.5039 17.2959 22.4068 18.1365 22.2101 18.9564C21.7708 20.7526 20.6284 21.8247 18.8392 22.2351C17.9653 22.4232 17.0729 22.5116 16.1791 22.4988C12.8228 22.4988 9.4668 22.4988 6.11107 22.4988C5.25323 22.5058 4.39764 22.4099 3.56263 22.2132C1.7594 21.7738 0.676751 20.6314 0.267244 18.8334C0.0580965 17.9195 0.00273395 17.0029 0.00273395 16.0785C0.00273395 14.4662 0.00273395 12.8537 0.00273395 11.2408C0.00273395 9.48329 -0.00341743 7.72575 0.00273395 5.96821Z" fill-rule="nonzero" stroke="rgb(255,255,255)" stroke-opacity="0" stroke-width="1.500000" transform="matrix(-1,0,0,1,23.25,0.75)" />
		<path id="path2" d="M0.00273395 5.96821C-0.000801981 5.11774 0.10373 4.27026 0.313819 3.44614C0.774294 1.70178 1.91054 0.666589 3.65315 0.264991C4.52691 0.0762072 5.41936 -0.0122421 6.31318 0.00136036C9.68356 0.00136036 13.0542 0.00136036 16.4252 0.00136036C17.2765 -0.00392437 18.1254 0.0934429 18.9534 0.291354C20.7487 0.73074 21.8261 1.86787 22.2365 3.65704C22.421 4.50264 22.5091 5.36641 22.4993 6.23184C22.4993 9.63854 22.4993 13.0455 22.4993 16.4528C22.5039 17.2959 22.4068 18.1365 22.2101 18.9564C21.7708 20.7526 20.6284 21.8247 18.8392 22.2351C17.9653 22.4232 17.0729 22.5116 16.1791 22.4988C12.8228 22.4988 9.4668 22.4988 6.11107 22.4988C5.25323 22.5058 4.39764 22.4099 3.56263 22.2132C1.7594 21.7738 0.676751 20.6314 0.267244 18.8334C0.0580965 17.9195 0.00273395 17.0029 0.00273395 16.0785C0.00273395 14.4662 0.00273395 12.8537 0.00273395 11.2408C0.00273395 9.48329 -0.00341743 7.72575 0.00273395 5.96821Z" opacity="0.200000003" fill-rule="nonzero" stroke="rgb(255,255,255)" stroke-opacity="0" stroke-width="1.500000" transform="matrix(-1,0,0,1,23.25,0.75)" />
		<circle id="path3" cx="11.999999" cy="11.999999" r="11.999999" fill="rgb(255,255,255)" fill-opacity="0" transform="matrix(-1,0,0,1,24,0)" />
		<path id="path4" d="M5.84246 0L0 5.78385L17.3908 5.78385C19.9357 5.78385 21.9988 7.84696 21.9988 10.3919C21.9988 12.9369 19.9357 15 17.3908 15L2.49884 15" fill-rule="evenodd" stroke="rgb(25,25,25)" stroke-linecap="round" stroke-linejoin="round" stroke-width="1.000000" transform="matrix(-1,0,0,1,22.9988,3.5)" />
		<path id="path5" d="M5.99169 0.144669C6.18794 -0.0496066 6.50452 -0.0480106 6.69879 0.148233C6.89307 0.344477 6.89147 0.661056 6.69523 0.855331L1.7165 5.7835L17.3918 5.78385C20.1659 5.78385 22.4235 7.99522 22.4979 10.7513L22.4998 10.8919C22.4998 13.713 20.2129 16 17.3918 16L2.99985 16C2.72371 16 2.49985 15.7761 2.49985 15.5C2.49985 15.2239 2.72371 15 2.99985 15L17.3918 15C19.6606 15 21.4998 13.1608 21.4998 10.8919C21.4998 8.6231 19.6606 6.78385 17.3918 6.78385L0.501003 6.78385C0.0543348 6.78385 -0.168194 6.24277 0.149237 5.92852L5.99169 0.144669Z" fill="rgb(255,255,255)" fill-opacity="0" fill-rule="nonzero" transform="matrix(-1,0,0,1,23.2499,3)" />
		<path id="path5" d="M6.69879 0.148233C6.89307 0.344477 6.89147 0.661056 6.69523 0.855331L1.7165 5.7835L17.3918 5.78385C20.1659 5.78385 22.4235 7.99522 22.4979 10.7513L22.4998 10.8919C22.4998 13.713 20.2129 16 17.3918 16L2.99985 16C2.72371 16 2.49985 15.7761 2.49985 15.5C2.49985 15.2239 2.72371 15 2.99985 15L17.3918 15C19.6606 15 21.4998 13.1608 21.4998 10.8919C21.4998 8.6231 19.6606 6.78385 17.3918 6.78385L0.501003 6.78385C0.0543348 6.78385 -0.168194 6.24277 0.149237 5.92852L5.99169 0.144669C6.18794 -0.0496066 6.50452 -0.0480106 6.69879 0.148233Z" fill-rule="nonzero" stroke="rgb(255,255,255)" stroke-opacity="0" stroke-linejoin="round" stroke-width="1.500000" transform="matrix(-1,0,0,1,23.2499,3)" />
	</g>
</svg>
