<svg viewBox="0 0 13.6216 14" xmlns="http://www.w3.org/2000/svg" xmlns:xlink="http://www.w3.org/1999/xlink" width="13.621582" height="14.000000" fill="none" customFrame="#000000">
	<g id="ic_public_plus-加1/base/ic_public_plus">
		<path id="path1" d="M0.427333 6.99466C0.427333 5.96942 0.423842 4.94419 0.427333 3.91896C0.425326 3.42285 0.484655 2.92849 0.603895 2.44775C0.865246 1.43021 1.51014 0.826344 2.49919 0.592078C2.99511 0.481954 3.50164 0.430359 4.00894 0.438294C5.92186 0.438294 7.83494 0.438294 9.74819 0.438294C10.2314 0.435211 10.7132 0.492008 11.1831 0.607457C12.2021 0.863765 12.8136 1.52709 13.0465 2.57078C13.1512 3.06404 13.2012 3.56791 13.1956 4.07274C13.1956 6.05999 13.1956 8.0474 13.1956 10.035C13.1982 10.5268 13.1431 11.0172 13.0315 11.4954C12.7822 12.5432 12.1338 13.1686 11.1183 13.408C10.6223 13.5177 10.1158 13.5693 9.60854 13.5618C7.7036 13.5618 5.79883 13.5618 3.89422 13.5618C3.40734 13.5659 2.92174 13.5099 2.44782 13.3952C1.42436 13.1389 0.809883 12.4725 0.57746 11.4237C0.458755 10.8905 0.427333 10.3559 0.427333 9.81661C0.427333 8.87613 0.427333 7.93548 0.427333 6.99466Z" fill="rgb(255,255,255)" fill-opacity="0" fill-rule="nonzero" />
		<path id="path1" d="M0.427333 3.91896C0.425326 3.42285 0.484655 2.92849 0.603895 2.44775C0.865246 1.43021 1.51014 0.826344 2.49919 0.592078C2.99511 0.481954 3.50164 0.430359 4.00894 0.438294C5.92186 0.438294 7.83494 0.438294 9.74819 0.438294C10.2314 0.435211 10.7132 0.492008 11.1831 0.607457C12.2021 0.863765 12.8136 1.52709 13.0465 2.57078C13.1512 3.06404 13.2012 3.56791 13.1956 4.07274C13.1956 6.05999 13.1956 8.0474 13.1956 10.035C13.1982 10.5268 13.1431 11.0172 13.0315 11.4954C12.7822 12.5432 12.1338 13.1686 11.1183 13.408C10.6223 13.5177 10.1158 13.5693 9.60854 13.5618C7.7036 13.5618 5.79883 13.5618 3.89422 13.5618C3.40734 13.5659 2.92174 13.5099 2.44782 13.3952C1.42436 13.1389 0.809883 12.4725 0.57746 11.4237C0.458755 10.8905 0.427333 10.3559 0.427333 9.81661C0.427333 8.87613 0.427333 7.93548 0.427333 6.99466C0.427333 5.96942 0.423842 4.94419 0.427333 3.91896Z" fill-rule="nonzero" stroke="rgb(255,255,255)" stroke-opacity="0" stroke-width="0.498750" />
		<path id="path2" d="M0.427333 3.91896C0.425326 3.42285 0.484655 2.92849 0.603895 2.44775C0.865246 1.43021 1.51014 0.826344 2.49919 0.592078C2.99511 0.481954 3.50164 0.430359 4.00894 0.438294C5.92186 0.438294 7.83494 0.438294 9.74819 0.438294C10.2314 0.435211 10.7132 0.492008 11.1831 0.607457C12.2021 0.863765 12.8136 1.52709 13.0465 2.57078C13.1512 3.06404 13.2012 3.56791 13.1956 4.07274C13.1956 6.05999 13.1956 8.0474 13.1956 10.035C13.1982 10.5268 13.1431 11.0172 13.0315 11.4954C12.7822 12.5432 12.1338 13.1686 11.1183 13.408C10.6223 13.5177 10.1158 13.5693 9.60854 13.5618C7.7036 13.5618 5.79883 13.5618 3.89422 13.5618C3.40734 13.5659 2.92174 13.5099 2.44782 13.3952C1.42436 13.1389 0.809883 12.4725 0.57746 11.4237C0.458755 10.8905 0.427333 10.3559 0.427333 9.81661C0.427333 8.87613 0.427333 7.93548 0.427333 6.99466C0.427333 5.96942 0.423842 4.94419 0.427333 3.91896Z" fill-rule="nonzero" stroke="rgb(255,255,255)" stroke-opacity="0" stroke-width="0.498750" />
		<ellipse id="path3" rx="6.810812" ry="7.000000" cx="6.81081152" cy="6.99999952" fill="rgb(255,255,255)" fill-opacity="0" />
		<path id="path4" d="M6.81063 13.4166L6.81063 6.99992L6.81063 0.583252M0.567383 6.99992L6.81063 6.99992M6.81063 6.99992L13.0539 6.99992" stroke="rgb(145,155,162)" stroke-linecap="round" stroke-linejoin="round" stroke-width="1.000000" />
		<path id="path5" d="M6.81063 0.583252C6.96736 0.583252 7.09441 0.708158 7.09441 0.862237L7.09413 6.70825L12.7824 6.70825C12.9323 6.70825 13.0539 6.83884 13.0539 6.99992C13.0539 7.161 12.9323 7.29158 12.7824 7.29158L7.09413 7.29158L7.09441 13.1376C7.09441 13.2917 6.96736 13.4166 6.81063 13.4166C6.6539 13.4166 6.52684 13.2917 6.52684 13.1376L6.52656 7.29158L0.838828 7.29158C0.688913 7.29158 0.567383 7.161 0.567383 6.99992C0.567383 6.83884 0.688913 6.70825 0.838828 6.70825L6.52656 6.70825L6.52684 0.862237C6.52684 0.708158 6.6539 0.583252 6.81063 0.583252Z" fill="rgb(255,255,255)" fill-opacity="0" fill-rule="nonzero" />
		<path id="path5" d="M7.09441 0.862237L7.09413 6.70825L12.7824 6.70825C12.9323 6.70825 13.0539 6.83884 13.0539 6.99992C13.0539 7.161 12.9323 7.29158 12.7824 7.29158L7.09413 7.29158L7.09441 13.1376C7.09441 13.2917 6.96736 13.4166 6.81063 13.4166C6.6539 13.4166 6.52684 13.2917 6.52684 13.1376L6.52656 7.29158L0.838828 7.29158C0.688913 7.29158 0.567383 7.161 0.567383 6.99992C0.567383 6.83884 0.688913 6.70825 0.838828 6.70825L6.52656 6.70825L6.52684 0.862237C6.52684 0.708158 6.6539 0.583252 6.81063 0.583252C6.96736 0.583252 7.09441 0.708158 7.09441 0.862237Z" fill-rule="nonzero" stroke="rgb(255,255,255)" stroke-opacity="0" stroke-width="0.498750" />
	</g>
</svg>
