<svg viewBox="0 0 24 24" xmlns="http://www.w3.org/2000/svg" xmlns:xlink="http://www.w3.org/1999/xlink" width="24.000000" height="24.000000" fill="none">
	<rect id="svg" width="23.999998" height="23.999998" x="0.000000" y="0.000000" />
	<g id="ic_public_backward-退一步/model/border/ic_public_backward1">
		<path id="path1" d="M0.752734 11.9908C0.752734 10.2333 0.746583 8.47575 0.752734 6.71821C0.749198 5.86774 0.85373 5.02026 1.06382 4.19614C1.52429 2.45178 2.66054 1.41659 4.40315 1.01499C5.27691 0.826207 6.16936 0.737758 7.06318 0.75136C10.4336 0.75136 13.8042 0.75136 17.1752 0.75136C18.0265 0.746076 18.8754 0.843443 19.7034 1.04135C21.4987 1.48074 22.5761 2.61787 22.9865 4.40704C23.171 5.25264 23.2591 6.11641 23.2493 6.98184C23.2493 10.3885 23.2493 13.7955 23.2493 17.2028C23.2539 18.0459 23.1568 18.8865 22.9601 19.7064C22.5208 21.5026 21.3784 22.5747 19.5892 22.9851C18.7153 23.1732 17.8229 23.2616 16.9291 23.2488C13.5728 23.2488 10.2168 23.2488 6.86107 23.2488C6.00323 23.2558 5.14764 23.1599 4.31263 22.9632C2.5094 22.5238 1.42675 21.3814 1.01724 19.5834C0.808096 18.6695 0.752734 17.7529 0.752734 16.8285C0.752734 15.2162 0.752734 13.6037 0.752734 11.9908Z" fill="rgb(255,255,255)" fill-opacity="0" fill-rule="nonzero" />
		<path id="path1" d="M0.752734 6.71821C0.749198 5.86774 0.85373 5.02026 1.06382 4.19614C1.52429 2.45178 2.66054 1.41659 4.40315 1.01499C5.27691 0.826207 6.16936 0.737758 7.06318 0.75136C10.4336 0.75136 13.8042 0.75136 17.1752 0.75136C18.0265 0.746076 18.8754 0.843443 19.7034 1.04135C21.4987 1.48074 22.5761 2.61787 22.9865 4.40704C23.171 5.25264 23.2591 6.11641 23.2493 6.98184C23.2493 10.3885 23.2493 13.7955 23.2493 17.2028C23.2539 18.0459 23.1568 18.8865 22.9601 19.7064C22.5208 21.5026 21.3784 22.5747 19.5892 22.9851C18.7153 23.1732 17.8229 23.2616 16.9291 23.2488C13.5728 23.2488 10.2168 23.2488 6.86107 23.2488C6.00323 23.2558 5.14764 23.1599 4.31263 22.9632C2.5094 22.5238 1.42675 21.3814 1.01724 19.5834C0.808096 18.6695 0.752734 17.7529 0.752734 16.8285C0.752734 15.2162 0.752734 13.6037 0.752734 11.9908C0.752734 10.2333 0.746583 8.47575 0.752734 6.71821Z" fill-rule="nonzero" stroke="rgb(255,255,255)" stroke-opacity="0" stroke-width="1.500000" />
		<path id="path2" d="M0.752734 6.71821C0.749198 5.86774 0.85373 5.02026 1.06382 4.19614C1.52429 2.45178 2.66054 1.41659 4.40315 1.01499C5.27691 0.826207 6.16936 0.737758 7.06318 0.75136C10.4336 0.75136 13.8042 0.75136 17.1752 0.75136C18.0265 0.746076 18.8754 0.843443 19.7034 1.04135C21.4987 1.48074 22.5761 2.61787 22.9865 4.40704C23.171 5.25264 23.2591 6.11641 23.2493 6.98184C23.2493 10.3885 23.2493 13.7955 23.2493 17.2028C23.2539 18.0459 23.1568 18.8865 22.9601 19.7064C22.5208 21.5026 21.3784 22.5747 19.5892 22.9851C18.7153 23.1732 17.8229 23.2616 16.9291 23.2488C13.5728 23.2488 10.2168 23.2488 6.86107 23.2488C6.00323 23.2558 5.14764 23.1599 4.31263 22.9632C2.5094 22.5238 1.42675 21.3814 1.01724 19.5834C0.808096 18.6695 0.752734 17.7529 0.752734 16.8285C0.752734 15.2162 0.752734 13.6037 0.752734 11.9908C0.752734 10.2333 0.746583 8.47575 0.752734 6.71821Z" opacity="0.200000003" fill-rule="nonzero" stroke="rgb(255,255,255)" stroke-opacity="0" stroke-width="1.500000" />
		<circle id="path3" cx="11.999999" cy="11.999999" r="11.999999" fill="rgb(255,255,255)" fill-opacity="0" />
		<path id="path4" d="M6.84368 3.5L1.00122 9.28385L18.392 9.28385C20.937 9.28385 23.0001 11.347 23.0001 13.8919C23.0001 16.4369 20.937 18.5 18.392 18.5L3.50007 18.5" fill-rule="evenodd" stroke="rgb(25,25,25)" stroke-linecap="round" stroke-linejoin="round" stroke-width="1.000000" />
		<path id="path5" d="M6.74182 3.14467C6.93806 2.95039 7.25464 2.95199 7.44891 3.14823C7.64319 3.34448 7.64159 3.66106 7.44535 3.85533L2.46663 8.7835L18.1419 8.78385C20.916 8.78385 23.1736 10.9952 23.2481 13.7513L23.25 13.8919C23.25 16.713 20.963 19 18.1419 19L3.74997 19C3.47383 19 3.24997 18.7761 3.24997 18.5C3.24997 18.2239 3.47383 18 3.74997 18L18.1419 18C20.4107 18 22.25 16.1608 22.25 13.8919C22.25 11.6231 20.4107 9.78385 18.1419 9.78385L1.25113 9.78385C0.804457 9.78385 0.581928 9.24277 0.899359 8.92852L6.74182 3.14467Z" fill="rgb(255,255,255)" fill-opacity="0" fill-rule="nonzero" />
		<path id="path5" d="M7.44891 3.14823C7.64319 3.34448 7.64159 3.66106 7.44535 3.85533L2.46663 8.7835L18.1419 8.78385C20.916 8.78385 23.1736 10.9952 23.2481 13.7513L23.25 13.8919C23.25 16.713 20.963 19 18.1419 19L3.74997 19C3.47383 19 3.24997 18.7761 3.24997 18.5C3.24997 18.2239 3.47383 18 3.74997 18L18.1419 18C20.4107 18 22.25 16.1608 22.25 13.8919C22.25 11.6231 20.4107 9.78385 18.1419 9.78385L1.25113 9.78385C0.804457 9.78385 0.581928 9.24277 0.899359 8.92852L6.74182 3.14467C6.93806 2.95039 7.25464 2.95199 7.44891 3.14823Z" fill-rule="nonzero" stroke="rgb(255,255,255)" stroke-opacity="0" stroke-linejoin="round" stroke-width="1.500000" />
	</g>
</svg>
