<svg viewBox="0 0 20 20" xmlns="http://www.w3.org/2000/svg" xmlns:xlink="http://www.w3.org/1999/xlink" width="20.000000" height="20.000000" fill="none" customFrame="#000000">
	<rect id="提示_面性_镂空" width="20.000000" height="20.000000" x="0.000000" y="0.000000" />
	<path id="path" d="M10 0C4.486 0 0 4.486 0 10C0 15.514 4.486 20 10 20C15.514 20 20 15.514 20 10C20 4.486 15.514 0 10 0ZM9 5.5C9 4.94772 9.44772 4.5 10 4.5C10.5523 4.5 11 4.94772 11 5.5C11 6.05228 10.5523 6.5 10 6.5C9.44772 6.5 9 6.05228 9 5.5ZM10 7.75L9.16667 7.75C8.74667 7.75 8.41667 8.08 8.41667 8.5C8.41667 8.92 8.83 9.25 9.25 9.25L9.25 14.25L8.83333 14.25C8.41333 14.25 8.08333 14.58 8.08333 15C8.08333 15.42 8.41333 15.75 8.83333 15.75L11.1667 15.75C11.4167 15.75 11.6042 15.6875 11.7292 15.5625C11.8542 15.4375 11.9167 15.25 11.9167 15C11.9167 14.75 11.8542 14.5625 11.7292 14.4375C11.6042 14.3125 11.4167 14.25 11.1667 14.25L10.75 14.25L10.75 8.5C10.75 8.25 10.6875 8.0625 10.5625 7.9375C10.4375 7.8125 10.25 7.75 10 7.75Z" fill="rgb(32,112,243)" fill-rule="evenodd" />
</svg>
