<svg viewBox="0 0 24 24" xmlns="http://www.w3.org/2000/svg" xmlns:xlink="http://www.w3.org/1999/xlink" width="24.000000" height="24.000000" fill="none">
	<rect id="svg" width="24.000000" height="24.000000" x="0.000000" y="0.000000" />
	<g id="ic_public_broom-清除/model/border/ic_public_broom1">
		<path id="path1" d="M0.752734 11.9908C0.752734 10.2333 0.746583 8.47576 0.752734 6.71821C0.749198 5.86774 0.85373 5.02027 1.06382 4.19614C1.52429 2.45178 2.66054 1.41659 4.40315 1.01499C5.27691 0.826207 6.16936 0.737758 7.06318 0.75136C10.4336 0.75136 13.8042 0.75136 17.1752 0.75136C18.0265 0.746076 18.8754 0.843443 19.7034 1.04135C21.4987 1.48074 22.5761 2.61787 22.9865 4.40705C23.171 5.25264 23.2591 6.11641 23.2493 6.98185C23.2493 10.3885 23.2493 13.7955 23.2493 17.2028C23.2539 18.046 23.1568 18.8866 22.9601 19.7064C22.5208 21.5027 21.3783 22.5748 19.5892 22.9851C18.7153 23.1732 17.8229 23.2617 16.9291 23.2488C13.5728 23.2488 10.2168 23.2488 6.86107 23.2488C6.00323 23.2558 5.14764 23.1599 4.31263 22.9632C2.5094 22.5238 1.42675 21.3814 1.01724 19.5834C0.808096 18.6695 0.752734 17.7529 0.752734 16.8285C0.752734 15.2162 0.752734 13.6037 0.752734 11.9908Z" fill="rgb(255,255,255)" fill-opacity="0" fill-rule="nonzero" />
		<path id="path1" d="M0.752734 6.71821C0.749198 5.86774 0.85373 5.02027 1.06382 4.19614C1.52429 2.45178 2.66054 1.41659 4.40315 1.01499C5.27691 0.826207 6.16936 0.737758 7.06318 0.75136C10.4336 0.75136 13.8042 0.75136 17.1752 0.75136C18.0265 0.746076 18.8754 0.843443 19.7034 1.04135C21.4987 1.48074 22.5761 2.61787 22.9865 4.40705C23.171 5.25264 23.2591 6.11641 23.2493 6.98185C23.2493 10.3885 23.2493 13.7955 23.2493 17.2028C23.2539 18.046 23.1568 18.8866 22.9601 19.7064C22.5208 21.5027 21.3783 22.5748 19.5892 22.9851C18.7153 23.1732 17.8229 23.2617 16.9291 23.2488C13.5728 23.2488 10.2168 23.2488 6.86107 23.2488C6.00323 23.2558 5.14764 23.1599 4.31263 22.9632C2.5094 22.5238 1.42675 21.3814 1.01724 19.5834C0.808096 18.6695 0.752734 17.7529 0.752734 16.8285C0.752734 15.2162 0.752734 13.6037 0.752734 11.9908C0.752734 10.2333 0.746583 8.47576 0.752734 6.71821Z" fill-rule="nonzero" stroke="rgb(255,255,255)" stroke-opacity="0" stroke-width="1.400000" />
		<path id="path2" d="M0.752734 6.71821C0.749198 5.86774 0.85373 5.02027 1.06382 4.19614C1.52429 2.45178 2.66054 1.41659 4.40315 1.01499C5.27691 0.826207 6.16936 0.737758 7.06318 0.75136C10.4336 0.75136 13.8042 0.75136 17.1752 0.75136C18.0265 0.746076 18.8754 0.843443 19.7034 1.04135C21.4987 1.48074 22.5761 2.61787 22.9865 4.40705C23.171 5.25264 23.2591 6.11641 23.2493 6.98185C23.2493 10.3885 23.2493 13.7955 23.2493 17.2028C23.2539 18.046 23.1568 18.8866 22.9601 19.7064C22.5208 21.5027 21.3783 22.5748 19.5892 22.9851C18.7153 23.1732 17.8229 23.2617 16.9291 23.2488C13.5728 23.2488 10.2168 23.2488 6.86107 23.2488C6.00323 23.2558 5.14764 23.1599 4.31263 22.9632C2.5094 22.5238 1.42675 21.3814 1.01724 19.5834C0.808096 18.6695 0.752734 17.7529 0.752734 16.8285C0.752734 15.2162 0.752734 13.6037 0.752734 11.9908C0.752734 10.2333 0.746583 8.47576 0.752734 6.71821Z" opacity="0.200000003" fill-rule="nonzero" stroke="rgb(255,255,255)" stroke-opacity="0" stroke-width="1.400000" />
		<circle id="path3" cx="12" cy="12" r="12" fill="rgb(255,255,255)" fill-opacity="0" />
		<path id="path4" d="M9.75 17L9.75 20.1C9.75 21.7569 8.40685 23.1 6.75 23.1L5.75 23.1M15.75 17L15.75 20.1C15.75 21.7569 14.4069 23.1 12.75 23.1L11.75 23.1" fill-rule="evenodd" stroke="rgb(25,25,25)" stroke-linecap="round" stroke-linejoin="round" stroke-width="1.000000" />
		<path id="path5" d="M6.80116 11.7494L21.75 11.7494L21.75 9.49942C21.75 7.84256 20.4069 6.49941 18.75 6.49941L14.8634 6.49941L14.8634 1.89941C14.8634 1.34713 14.4156 0.899414 13.8634 0.899414L11.8391 0.899414C11.2869 0.899414 10.8391 1.34713 10.8391 1.89941L10.8391 6.49941L6.78054 6.49941C5.12368 6.49879 3.78003 7.84142 3.7794 9.49828C3.7794 9.50778 3.77944 9.51729 3.77952 9.52679C3.83687 16.0048 3.82703 19.6674 3.75 20.5147C3.66169 21.4861 3.16169 22.3477 2.25 23.0994L18.75 23.0994C20.4069 23.0994 21.75 21.7563 21.75 20.0994L21.75 14.7474" fill-rule="evenodd" stroke="rgb(25,25,25)" stroke-linecap="round" stroke-linejoin="round" stroke-width="1.000000" />
		<path id="path6" d="M3.75 14.0996L3.75 22.0996C3.75 22.6519 3.30228 23.0996 2.75 23.0996L2.25 23.0996L6.456 23.0996C7.28443 23.0996 7.956 22.428 7.956 21.5996L7.956 17.4996C7.956 16.6712 8.62757 15.9996 9.456 15.9996C10.2844 15.9996 10.956 16.6712 10.956 17.4996L10.956 21.8516C10.956 22.5409 10.3973 23.0996 9.708 23.0996L13.056 23.0996C13.8844 23.0996 14.556 22.428 14.556 21.5996L14.556 17.4996C14.556 16.6712 15.2276 15.9996 16.056 15.9996C16.8844 15.9996 17.556 16.6712 17.556 17.4996L17.556 21.8516C17.556 22.5409 16.9973 23.0996 16.308 23.0996L18.75 23.0996C20.4069 23.0996 21.75 21.7565 21.75 20.0996L21.75 14.0996L3.75 14.0996Z" fill="rgb(255,255,255)" fill-opacity="0" fill-rule="evenodd" />
		<path id="path6" d="M3.75 22.0996C3.75 22.6519 3.30228 23.0996 2.75 23.0996L2.25 23.0996L6.456 23.0996C7.28443 23.0996 7.956 22.428 7.956 21.5996L7.956 17.4996C7.956 16.6712 8.62757 15.9996 9.456 15.9996C10.2844 15.9996 10.956 16.6712 10.956 17.4996L10.956 21.8516C10.956 22.5409 10.3973 23.0996 9.708 23.0996L13.056 23.0996C13.8844 23.0996 14.556 22.428 14.556 21.5996L14.556 17.4996C14.556 16.6712 15.2276 15.9996 16.056 15.9996C16.8844 15.9996 17.556 16.6712 17.556 17.4996L17.556 21.8516C17.556 22.5409 16.9973 23.0996 16.308 23.0996L18.75 23.0996C20.4069 23.0996 21.75 21.7565 21.75 20.0996L21.75 14.0996L3.75 14.0996L3.75 22.0996Z" fill-rule="evenodd" stroke="rgb(255,255,255)" stroke-opacity="0" stroke-linejoin="round" stroke-width="1.400000" />
		<path id="path7" d="M21.75 11.0994L21.75 9.49941C21.75 7.84256 20.4069 6.49941 18.75 6.49941L14.9237 6.49941L14.9237 1.89941C14.9237 1.34713 14.476 0.899414 13.9237 0.899414L11.7784 0.899414C11.2285 0.899414 10.7818 1.34338 10.7784 1.89325L10.75 6.49941L6.75 6.49941C5.09315 6.49941 3.75 7.84256 3.75 9.49941L3.75 11.0994L21.75 11.0994Z" fill="rgb(255,255,255)" fill-opacity="0" fill-rule="evenodd" />
		<path id="path7" d="M21.75 9.49941C21.75 7.84256 20.4069 6.49941 18.75 6.49941L14.9237 6.49941L14.9237 1.89941C14.9237 1.34713 14.476 0.899414 13.9237 0.899414L11.7784 0.899414C11.2285 0.899414 10.7818 1.34338 10.7784 1.89325L10.75 6.49941L6.75 6.49941C5.09315 6.49941 3.75 7.84256 3.75 9.49941L3.75 11.0994L21.75 11.0994L21.75 9.49941Z" fill-rule="evenodd" stroke="rgb(255,255,255)" stroke-opacity="0" stroke-linejoin="round" stroke-width="1.400000" />
	</g>
</svg>
