<svg viewBox="0 0 14 14" xmlns="http://www.w3.org/2000/svg" xmlns:xlink="http://www.w3.org/1999/xlink" width="14.000000" height="14.000000" fill="none" customFrame="#000000">
	<defs>
		<clipPath id="clipPath_1">
			<rect width="14.000000" height="14.000000" x="0.000000" y="0.000000" fill="rgb(255,255,255)" />
		</clipPath>
	</defs>
	<rect id="前置图标" width="14.000000" height="14.000000" x="0.000000" y="0.000000" fill="rgb(255,255,255)" fill-opacity="0" />
	<g id="容器 14519" customFrame="url(#clipPath_1)">
		<rect id="容器 14519" width="14.000000" height="14.000000" x="0.000000" y="0.000000" />
		<path id="矢量 394" d="M10.1813 1.47882C10.5091 1.39605 10.77 1.14079 10.8646 0.793379C10.9185 0.586237 11.212 0.584606 11.2691 0.79134L11.2773 0.826C11.3702 1.14691 11.6295 1.39686 11.9525 1.47842C12.1629 1.53142 12.1629 1.83031 11.9525 1.88332C11.6181 1.96773 11.3539 2.23196 11.2691 2.56714C11.2169 2.77754 10.9168 2.77754 10.8646 2.56714C10.7798 2.23196 10.5156 1.96773 10.1813 1.88373C9.97087 1.83072 9.97087 1.53183 10.1813 1.47882ZM5.82335 2.36326L5.86086 2.22095C5.96851 1.80626 6.55565 1.8034 6.66819 2.21687L6.7269 2.43788C7.36297 4.63856 9.13582 6.35278 11.3588 6.91263C11.7796 7.01824 11.7796 7.61643 11.3588 7.72245C9.05916 8.30147 7.24881 10.1123 6.66982 12.4117C6.56381 12.8321 5.96524 12.8325 5.85923 12.4117C5.28024 10.1123 3.46989 8.30147 1.17024 7.72285C0.751088 7.61684 0.749457 7.01906 1.17024 6.91304C3.42259 6.34544 5.20848 4.59533 5.82335 2.36326ZM11.1517 10.273L11.1419 10.3113C10.9984 10.8284 10.5825 11.2369 10.0573 11.3695C9.7197 11.4543 9.7197 11.9326 10.0573 12.0174C10.5923 12.1524 11.0163 12.5748 11.15 13.111C11.2349 13.4474 11.7144 13.4474 11.7992 13.111C11.9329 12.5748 12.357 12.1519 12.8919 12.017C13.2295 11.9322 13.2295 11.4539 12.8919 11.369C12.3733 11.2386 11.9606 10.8385 11.8122 10.3252L11.7975 10.2697C11.7078 9.93903 11.2381 9.94148 11.1517 10.273Z" fill="rgb(255,255,255)" fill-rule="evenodd" />
		<path id="矢量 394" d="M10.1813 1.47882C10.2837 1.45296 10.3796 1.41025 10.466 1.35314C10.4792 1.34439 10.4922 1.33529 10.505 1.32587C10.5836 1.26791 10.6533 1.1975 10.7115 1.11667C10.7179 1.10778 10.7241 1.09877 10.7302 1.08963C10.7311 1.08832 10.732 1.08701 10.7329 1.0857C10.7681 1.03253 10.7985 0.975247 10.8235 0.914368C10.8246 0.911875 10.8256 0.909375 10.8266 0.90687C10.8405 0.872302 10.8526 0.836596 10.8628 0.799845C10.8634 0.797694 10.864 0.795537 10.8646 0.793379C10.9185 0.586237 11.212 0.584606 11.2691 0.79134L11.2773 0.826C11.3034 0.916255 11.3427 1.0009 11.3929 1.07776C11.3948 1.08066 11.3967 1.08355 11.3986 1.08643C11.4057 1.09696 11.4129 1.10735 11.4204 1.11758C11.4787 1.19773 11.5494 1.26832 11.6294 1.3266C11.6389 1.33356 11.6486 1.34034 11.6584 1.34694C11.7471 1.40664 11.8464 1.45162 11.9525 1.47842C12.0577 1.50492 12.1103 1.59289 12.1103 1.68087C12.1103 1.76884 12.0577 1.85682 11.9525 1.88332C11.8472 1.90989 11.7489 1.95429 11.661 2.01311C11.6506 2.02006 11.6403 2.02723 11.6302 2.03458C11.5498 2.09306 11.479 2.16394 11.4205 2.24439C11.4132 2.25448 11.4061 2.26471 11.3991 2.27509C11.3403 2.36314 11.2958 2.46162 11.2691 2.56714C11.2169 2.77754 10.9168 2.77754 10.8646 2.56714C10.8379 2.46165 10.7935 2.3632 10.7347 2.27517C10.7322 2.27151 10.7297 2.26787 10.7272 2.26424C10.7227 2.25763 10.7181 2.25108 10.7133 2.24459C10.6547 2.16385 10.5836 2.09276 10.5029 2.0342C10.4946 2.0282 10.4862 2.02233 10.4778 2.0166C10.476 2.01538 10.4742 2.01416 10.4723 2.01296C10.3845 1.95434 10.2863 1.91013 10.1813 1.88373C10.0761 1.85723 10.0235 1.76925 10.0235 1.68128C10.0235 1.5933 10.0761 1.50533 10.1813 1.47882ZM5.86086 2.22095C5.96851 1.80626 6.55565 1.8034 6.66819 2.21687L6.7269 2.43788C6.73383 2.46184 6.74089 2.48575 6.74808 2.50959L6.74909 2.51293C7.37457 4.58197 9.00818 6.2098 11.0705 6.83283L11.0742 6.83394C11.1682 6.86228 11.2631 6.88853 11.3588 6.91263C11.5692 6.96544 11.6744 7.14139 11.6744 7.31739C11.6744 7.49339 11.5692 7.66944 11.3588 7.72245C11.263 7.74656 11.1681 7.77281 11.0741 7.80115L11.0705 7.80224C9.00339 8.42649 7.37295 10.0577 6.7492 12.1247L6.74813 12.1282C6.71995 12.2219 6.69382 12.3163 6.66982 12.4117C6.56381 12.8321 5.96524 12.8325 5.85923 12.4117C5.83523 12.3164 5.80911 12.2219 5.78093 12.1283L5.77985 12.1247C5.15611 10.0577 3.5257 8.42654 1.45866 7.80262L1.45498 7.80151C1.36096 7.77319 1.26602 7.74695 1.17024 7.72285C0.960462 7.66979 0.855265 7.49356 0.855265 7.31744C0.855265 7.14166 0.960054 6.966 1.17024 6.91304C1.25822 6.89087 1.3455 6.86689 1.43201 6.84116C1.43958 6.8389 1.44714 6.83664 1.45469 6.83436L1.45849 6.83322C3.52511 6.20869 5.15766 4.57729 5.78068 2.51118L5.78166 2.50795C5.7961 2.45995 5.81 2.41172 5.82335 2.36326L5.86086 2.22095ZM6.26588 3.84223C6.18819 4.00508 6.10461 4.16455 6.01512 4.32063L6.0151 4.32065Q5.51317 5.19606 4.76357 5.92946Q4.01871 6.65824 3.13857 7.13976L3.13845 7.13982C3.02445 7.20219 2.90874 7.26145 2.79133 7.3176Q2.98697 7.41105 3.17624 7.516L3.17625 7.51601Q4.06905 8.01109 4.81997 8.76204Q5.56998 9.5121 6.06484 10.4038L6.06496 10.404C6.13536 10.5309 6.20188 10.6599 6.26453 10.791C6.32717 10.6599 6.39368 10.5309 6.46407 10.404L6.4641 10.404Q6.95897 9.51219 7.70906 8.76201Q8.46003 8.01096 9.3529 7.51576L9.35292 7.51575C9.47915 7.44574 9.6075 7.37957 9.73798 7.31724C9.62902 7.26511 9.52151 7.2103 9.41545 7.15281L9.41541 7.15278Q8.54135 6.6789 7.7992 5.96174Q7.11284 5.2985 6.6292 4.5108L6.62919 4.51078C6.49667 4.29494 6.37556 4.07209 6.26588 3.84223ZM11.4748 11.5706C11.449 11.5982 11.4224 11.6253 11.3951 11.652C11.3808 11.666 11.3663 11.6799 11.3517 11.6935C11.3727 11.7131 11.3934 11.7331 11.4139 11.7536C11.4346 11.7742 11.4548 11.7951 11.4745 11.8162C11.4943 11.7951 11.5145 11.7742 11.5351 11.7536C11.5557 11.733 11.5765 11.7129 11.5976 11.6931C11.5864 11.6827 11.5753 11.6721 11.5642 11.6615Q11.5181 11.6169 11.4748 11.5706ZM11.1419 10.3113L11.1517 10.273C11.2381 9.94148 11.7078 9.93903 11.7975 10.2697L11.8122 10.3252C11.8493 10.4535 11.9029 10.5748 11.9706 10.6865C11.9731 10.6906 11.9756 10.6947 11.9781 10.6987C11.9801 10.7019 11.9821 10.7052 11.9841 10.7083C11.9795 10.7011 11.975 10.6938 11.9706 10.6865L10.4709 11.1959C10.481 11.1897 10.491 11.1834 10.501 11.177C10.6846 11.0592 10.8411 10.9028 10.9588 10.7197C10.9635 10.7123 10.9682 10.7049 10.9728 10.6975C11.0463 10.5785 11.1037 10.4488 11.1419 10.3113Z" fill="rgb(151,151,151)" fill-opacity="0" fill-rule="evenodd" />
	</g>
</svg>
