<svg viewBox="0 0 12 12" xmlns="http://www.w3.org/2000/svg" xmlns:xlink="http://www.w3.org/1999/xlink" width="12.000000" height="12.000000" fill="none">
	<rect id="wand_and_stars" width="12.000000" height="12.000000" x="0.000000" y="0.000000" />
	<rect id="矩形 6888" width="12.000000" height="12.000000" x="0.000000" y="0.000000" opacity="0" fill="rgb(255,255,255)" />
	<g id="组合 2">
		<path id="矢量 1" d="M5.78497 4.16477C5.6883 4.0681 5.5733 4.0031 5.43997 3.96977C5.30997 3.93977 5.17997 3.93977 5.04997 3.96977C4.9233 4.0031 4.81164 4.0681 4.71497 4.16477L4.18997 4.68977C4.0433 4.83643 3.96997 5.0131 3.96997 5.21977C3.96997 5.42643 4.0433 5.6031 4.18997 5.74977L9.05997 10.6198C9.2033 10.7631 9.37664 10.8348 9.57997 10.8348C9.78664 10.8348 9.96497 10.7631 10.115 10.6198L10.645 10.0798C10.7416 9.9931 10.805 9.8831 10.835 9.74977C10.8683 9.61643 10.8683 9.48477 10.835 9.35476C10.805 9.22143 10.7416 9.11143 10.645 9.02477L5.78497 4.16477ZM5.85497 5.30477L5.32997 5.82977L4.71497 5.21977L5.25497 4.68977L5.85497 5.30477ZM5.85497 6.35977L6.38497 5.82977L10.105 9.54977L9.57497 10.0798L5.85497 6.35977Z" fill="rgb(255,255,255)" fill-opacity="0.90196079" fill-rule="nonzero" />
		<path id="矢量 2" d="M2.56999 1.16504C2.55332 1.16504 2.53832 1.16837 2.52499 1.17504C2.51499 1.18504 2.50499 1.19671 2.49499 1.21004C2.42499 1.54004 2.26999 1.82671 2.02999 2.07004C1.78999 2.31337 1.50499 2.46671 1.17499 2.53004C1.13499 2.54004 1.11499 2.56504 1.11499 2.60504C1.11499 2.64504 1.13499 2.66837 1.17499 2.67504C1.50499 2.73837 1.78999 2.89004 2.02999 3.13004C2.26999 3.37004 2.42499 3.65504 2.49499 3.98504C2.50499 4.02504 2.52999 4.04504 2.56999 4.04504C2.60999 4.04504 2.63332 4.02504 2.63999 3.98504C2.70332 3.65504 2.85499 3.37004 3.09499 3.13004C3.33499 2.89004 3.61999 2.73837 3.94999 2.67504C3.96332 2.66837 3.97499 2.65837 3.98499 2.64504C3.99166 2.63504 3.99499 2.62171 3.99499 2.60504C3.99499 2.56504 3.97999 2.54004 3.94999 2.53004C3.61999 2.46004 3.33499 2.30504 3.09499 2.06504C2.85499 1.82504 2.70332 1.54004 2.63999 1.21004C2.63999 1.19671 2.63166 1.18504 2.61499 1.17504C2.59832 1.16837 2.58332 1.16504 2.56999 1.16504ZM8.40999 1.23504C8.37999 1.23504 8.35999 1.24671 8.34999 1.27004C8.30332 1.51004 8.19332 1.71671 8.01999 1.89004C7.84999 2.06337 7.64832 2.17337 7.41499 2.22004C7.39166 2.22671 7.37666 2.23671 7.36999 2.25004C7.35999 2.26337 7.36166 2.27504 7.37499 2.28504C7.38499 2.29837 7.39832 2.30837 7.41499 2.31504C7.64832 2.36504 7.84999 2.47504 8.01999 2.64504C8.19332 2.81837 8.30332 3.02004 8.34999 3.25004C8.35999 3.26671 8.36999 3.28171 8.37999 3.29504C8.39332 3.30504 8.40832 3.30671 8.42499 3.30004C8.44166 3.29337 8.45332 3.27671 8.45999 3.25004C8.50666 3.02004 8.61499 2.81837 8.78499 2.64504C8.95166 2.47504 9.15499 2.36504 9.39499 2.31504C9.41166 2.30837 9.42666 2.29837 9.43999 2.28504C9.44999 2.27504 9.45166 2.26337 9.44499 2.25004C9.43499 2.23671 9.41832 2.22671 9.39499 2.22004C9.15499 2.16337 8.95166 2.05171 8.78499 1.88504C8.61499 1.71504 8.50666 1.51004 8.45999 1.27004C8.45999 1.26337 8.45666 1.25671 8.44999 1.25004C8.43999 1.24004 8.42666 1.23504 8.40999 1.23504ZM2.68999 7.16504C2.67332 7.16504 2.65999 7.16671 2.64999 7.17004C2.64332 7.17337 2.63666 7.18337 2.62999 7.20004C2.57999 7.44004 2.46999 7.64671 2.29999 7.82004C2.12666 7.99004 1.92332 8.10004 1.68999 8.15004C1.65999 8.15671 1.64499 8.17171 1.64499 8.19504C1.64499 8.21837 1.65999 8.23504 1.68999 8.24504C1.92332 8.29171 2.12666 8.4017 2.29999 8.57504C2.46999 8.74504 2.57999 8.94671 2.62999 9.18004C2.63666 9.21337 2.65666 9.23004 2.68999 9.23004C2.71332 9.23004 2.72832 9.21337 2.73499 9.18004C2.78499 8.94671 2.89332 8.74504 3.05999 8.57504C3.22666 8.4017 3.42999 8.29171 3.66999 8.24504C3.68666 8.23504 3.69999 8.22671 3.70999 8.22004C3.71666 8.21337 3.71999 8.20504 3.71999 8.19504C3.71999 8.17171 3.70332 8.15671 3.66999 8.15004C3.42999 8.09337 3.22666 7.98004 3.05999 7.81004C2.89332 7.64337 2.78499 7.44004 2.73499 7.20004C2.73499 7.19337 2.73166 7.18504 2.72499 7.17504C2.71499 7.16837 2.70332 7.16504 2.68999 7.16504Z" fill="rgb(255,255,255)" fill-opacity="0.90196079" fill-rule="nonzero" />
	</g>
</svg>
