<svg viewBox="0 0 16 16" xmlns="http://www.w3.org/2000/svg" xmlns:xlink="http://www.w3.org/1999/xlink" width="16.000000" height="16.000000" fill="none">
	<rect id="xmark" width="16.000000" height="16.000000" x="0.000000" y="0.000000" />
	<rect id="矩形 542679" width="16.000000" height="16.000000" x="0.000000" y="0.000000" opacity="0" fill="rgb(0,0,0)" />
	<g id="组合 30327">
		<path id="矢量 961" d="M12.8681 3.81199C12.9557 3.71205 12.9995 3.59963 12.9995 3.4747C12.9995 3.34978 12.9557 3.24152 12.8681 3.14991C12.7763 3.04997 12.6658 3 12.5364 3C12.4071 3 12.2965 3.04997 12.2048 3.14991L7.99951 7.34728L3.79426 3.14991C3.70247 3.04997 3.59192 3 3.46259 3C3.33326 3 3.21854 3.04997 3.11841 3.14991C3.03914 3.24152 2.99951 3.34978 2.99951 3.4747C2.99951 3.59963 3.03914 3.71205 3.11841 3.81199L7.33618 8.00937L3.11841 12.1943C3.03914 12.2942 2.99951 12.4087 2.99951 12.5378C2.99951 12.6669 3.03914 12.7772 3.11841 12.8688C3.21854 12.9479 3.33326 12.9896 3.46259 12.9938C3.59192 12.9979 3.70247 12.9563 3.79426 12.8688L7.99951 8.67146L12.2048 12.8688C12.2965 12.9563 12.4071 13 12.5364 13C12.6658 13 12.7763 12.9563 12.8681 12.8688C12.9557 12.7772 12.9995 12.6669 12.9995 12.5378C12.9995 12.4087 12.9557 12.2942 12.8681 12.1943L8.66284 8.00937L12.8681 3.81199Z" fill="rgb(0,0,0)" fill-opacity="0.600000024" fill-rule="nonzero" />
	</g>
</svg>
