<svg viewBox="0 0 16 16" xmlns="http://www.w3.org/2000/svg" xmlns:xlink="http://www.w3.org/1999/xlink" width="16.000000" height="16.000000" fill="none" customFrame="#000000">
	<mask id="mask_3" width="16.000000" height="16.000000" x="0.000000" y="0.000000" maskUnits="userSpaceOnUse">
		<g filter="url(#pixso_custom_mask_type_outline)">
			<g id="clip2918_13563">
				<rect id="矩形 3664" width="16.000000" height="16.000000" x="0.000000" y="0.000000" fill="rgb(255,255,255)" />
			</g>
		</g>
	</mask>
	<mask id="mask_2" width="16.000000" height="16.000000" x="0.000000" y="0.000000" maskUnits="userSpaceOnUse">
		<g filter="url(#pixso_custom_mask_type_outline)">
			<g id="clip2918_13561">
				<rect id="矩形 3663" width="16.000000" height="16.000000" x="0.000000" y="0.000000" fill="rgb(255,255,255)" />
			</g>
		</g>
	</mask>
	<mask id="mask_1" width="16.000000" height="16.000000" x="0.000000" y="0.000000" maskUnits="userSpaceOnUse">
		<g filter="url(#pixso_custom_mask_type_outline)">
			<g id="clip2918_13557">
				<rect id="矩形 3662" width="16.000000" height="16.000000" x="0.000000" y="0.000000" fill="rgb(255,255,255)" />
			</g>
		</g>
	</mask>
	<defs>
		<filter id="pixso_custom_mask_type_outline">
			<feColorMatrix type="matrix" values="0 0 0 0 1 0 0 0 0 1 0 0 0 0 1 0 0 0 1 0 " />
		</filter>
	</defs>
	<mask id="mask_0" width="16.000000" height="16.000000" x="0.000000" y="0.000000" maskUnits="userSpaceOnUse">
		<g filter="url(#pixso_custom_mask_type_outline)">
			<g id="clip2918_13556">
				<rect id="矩形 3665" width="16.000000" height="16.000000" x="0.000000" y="0.000000" fill="rgb(255,255,255)" />
			</g>
		</g>
	</mask>
	<g id="clip path group" mask="url(#mask_0)">
		<g id="组合 31875">
			<g id="clip path group" mask="url(#mask_1)">
				<g id="组合 31877">
					<path id="矢量 32" d="M1.66378e-05 7.99312C1.66378e-05 6.74312 -0.0033167 5.49312 1.66378e-05 4.24312C-0.0033167 3.63312 0.07335 3.02979 0.220017 2.44646C0.550017 1.20646 1.35668 0.46979 2.59668 0.183124C3.21668 0.0497904 3.85335 -0.0135429 4.48668 -0.00020957C6.88335 -0.00020957 9.27668 -0.00020957 11.68 -0.00020957C12.28 -0.00687624 12.8867 0.0597904 13.4733 0.203124C14.75 0.513124 15.52 1.32312 15.8067 2.59646C15.9434 3.19646 16 3.80979 15.9967 4.42646C15.9967 6.84979 15.9967 9.27312 15.9967 11.6931C16 12.2931 15.9333 12.8931 15.7934 13.4765C15.48 14.7565 14.6667 15.5131 13.3967 15.8065C12.7733 15.9398 12.1367 16.0065 11.5 15.9965C9.11335 15.9965 6.73002 15.9965 4.34335 15.9965C3.73335 16.0031 3.12668 15.9298 2.53002 15.7898C1.25002 15.4831 0.480017 14.6698 0.190017 13.3865C0.0400166 12.7398 1.66378e-05 12.0898 1.66378e-05 11.4298C1.66378e-05 10.2831 1.66378e-05 9.13646 1.66378e-05 7.99312Z" fill="rgb(255,255,255)" fill-opacity="0" fill-rule="evenodd" />
					<circle id="椭圆 1" cx="8" cy="8" r="8" fill="rgb(255,255,255)" fill-opacity="0" />
				</g>
			</g>
			<g id="clip path group" mask="url(#mask_2)">
				<g id="组合 31879">
					<path id="矢量 33" d="M9.33327 1.34326C9.36328 1.34326 9.38994 1.34659 9.41994 1.34993C9.43661 1.35326 9.47328 1.36326 9.48661 1.36993C9.49661 1.37326 9.56661 1.40326 9.57661 1.40659C9.59661 1.42326 9.67327 1.47659 9.68994 1.49659L13.1599 4.97993C13.3033 5.12326 13.3466 5.3366 13.2666 5.52326C13.1899 5.70993 13.0066 5.83326 12.8066 5.83326L10.3333 5.83326C9.50327 5.83326 8.83327 5.15993 8.83327 4.33326L8.82994 2.34326L4.68994 2.34326C4.13994 2.34326 3.68994 2.79326 3.68994 3.34326L3.68994 12.6533C3.68994 13.2033 4.13994 13.6533 4.68994 13.6533L11.3066 13.6533C11.8566 13.6533 12.3066 13.2033 12.3066 12.6533L12.3066 6.99659C12.3066 6.71993 12.5299 6.49659 12.8066 6.49659C13.0833 6.49659 13.3066 6.71993 13.3066 6.99659L13.3066 12.6533C13.3066 13.7566 12.4099 14.6533 11.3066 14.6533L4.68994 14.6533C3.58661 14.6533 2.68994 13.7566 2.68994 12.6533L2.68994 3.34326C2.68994 2.23993 3.58661 1.34326 4.68994 1.34326L9.33327 1.34326ZM9.83327 3.05326L9.83327 4.33326C9.83327 4.6066 10.0566 4.83326 10.3333 4.83326L11.6033 4.83326L9.83327 3.05326Z" fill="rgb(102,102,102)" fill-rule="evenodd" />
				</g>
			</g>
			<g id="clip path group" mask="url(#mask_3)">
				<g id="组合 31881">
					<path id="矢量 34" d="M9.05328 1.34326C9.36328 1.34326 9.66327 1.46993 9.88328 1.68659L12.9666 4.78326C13.1866 5.00326 13.3066 5.2966 13.3066 5.6066L13.3066 12.6533C13.3066 13.7566 12.4099 14.6533 11.3066 14.6533L4.68994 14.6533C3.58661 14.6533 2.68994 13.7566 2.68994 12.6533L2.68994 3.34326C2.68994 2.23993 3.58661 1.34326 4.68994 1.34326L9.05328 1.34326ZM9.17327 2.39326L9.16994 4.50326C9.16994 5.01993 9.56994 5.44993 10.0766 5.49659L10.1699 5.50326L12.2699 5.50326L9.17327 2.39326Z" fill="rgb(255,255,255)" fill-opacity="0" fill-rule="evenodd" />
				</g>
			</g>
		</g>
	</g>
</svg>
