<svg viewBox="0 0 16 16" xmlns="http://www.w3.org/2000/svg" xmlns:xlink="http://www.w3.org/1999/xlink" width="16.000000" height="16.000000" fill="none">
	<defs>
		<clipPath id="clipPath_0">
			<rect width="12.000000" height="12.000000" x="2.000000" y="2.000000" fill="rgb(255,255,255)" />
		</clipPath>
	</defs>
	<rect id="容器 72249" width="16.000000" height="16.000000" x="0.000000" y="0.000000" fill="rgb(255,255,255)" fill-opacity="0" />
	<g id="ic_ict_right_border" clip-path="url(#clipPath_0)" customFrame="url(#clipPath_0)">
		<rect id="ic_ict_right_border" width="12.000000" height="12.000000" x="2.000000" y="2.000000" />
		<g id="ic_ict_right_border-右边框/base/ic_ict_right_border">
			<path id="path1" d="M2.37637 7.99542C2.37637 7.11665 2.37329 6.23787 2.37637 5.35911C2.3746 4.93387 2.42686 4.51013 2.53191 4.09807C2.76215 3.22589 3.33027 2.70829 4.20157 2.5075C4.63845 2.4131 5.08468 2.36888 5.53159 2.37568C7.21678 2.37568 8.90211 2.37568 10.5876 2.37568C11.0133 2.37304 11.4377 2.42172 11.8517 2.52068C12.7494 2.74037 13.2881 3.30893 13.4932 4.20352C13.5855 4.62632 13.6296 5.0582 13.6246 5.49092C13.6246 7.19427 13.6246 8.89777 13.6246 10.6014C13.6269 11.023 13.5784 11.4433 13.4801 11.8532C13.2604 12.7513 12.6892 13.2874 11.7946 13.4926C11.3576 13.5866 10.9115 13.6308 10.4646 13.6244C8.78641 13.6244 7.1084 13.6244 5.43053 13.6244C5.00161 13.6279 4.57382 13.5799 4.15632 13.4816C3.2547 13.2619 2.71338 12.6907 2.50862 11.7917C2.40405 11.3347 2.37637 10.8765 2.37637 10.4142C2.37637 9.6081 2.37637 8.80183 2.37637 7.99542Z" fill="rgb(255,255,255)" fill-opacity="0" fill-rule="nonzero" />
			<path id="path1" d="M2.37637 5.35911C2.3746 4.93387 2.42686 4.51013 2.53191 4.09807C2.76215 3.22589 3.33027 2.70829 4.20157 2.5075C4.63845 2.4131 5.08468 2.36888 5.53159 2.37568C7.21678 2.37568 8.90211 2.37568 10.5876 2.37568C11.0133 2.37304 11.4377 2.42172 11.8517 2.52068C12.7494 2.74037 13.2881 3.30893 13.4932 4.20352C13.5855 4.62632 13.6296 5.0582 13.6246 5.49092C13.6246 7.19427 13.6246 8.89777 13.6246 10.6014C13.6269 11.023 13.5784 11.4433 13.4801 11.8532C13.2604 12.7513 12.6892 13.2874 11.7946 13.4926C11.3576 13.5866 10.9115 13.6308 10.4646 13.6244C8.78641 13.6244 7.1084 13.6244 5.43053 13.6244C5.00161 13.6279 4.57382 13.5799 4.15632 13.4816C3.2547 13.2619 2.71338 12.6907 2.50862 11.7917C2.40405 11.3347 2.37637 10.8765 2.37637 10.4142C2.37637 9.6081 2.37637 8.80183 2.37637 7.99542C2.37637 7.11665 2.37329 6.23787 2.37637 5.35911Z" fill-rule="nonzero" stroke="rgb(255,255,255)" stroke-opacity="0" stroke-width="0.500000" />
			<path id="path2" d="M2.37637 5.35911C2.3746 4.93387 2.42686 4.51013 2.53191 4.09807C2.76215 3.22589 3.33027 2.70829 4.20157 2.5075C4.63845 2.4131 5.08468 2.36888 5.53159 2.37568C7.21678 2.37568 8.90211 2.37568 10.5876 2.37568C11.0133 2.37304 11.4377 2.42172 11.8517 2.52068C12.7494 2.74037 13.2881 3.30893 13.4932 4.20352C13.5855 4.62632 13.6296 5.0582 13.6246 5.49092C13.6246 7.19427 13.6246 8.89777 13.6246 10.6014C13.6269 11.023 13.5784 11.4433 13.4801 11.8532C13.2604 12.7513 12.6892 13.2874 11.7946 13.4926C11.3576 13.5866 10.9115 13.6308 10.4646 13.6244C8.78641 13.6244 7.1084 13.6244 5.43053 13.6244C5.00161 13.6279 4.57382 13.5799 4.15632 13.4816C3.2547 13.2619 2.71338 12.6907 2.50862 11.7917C2.40405 11.3347 2.37637 10.8765 2.37637 10.4142C2.37637 9.6081 2.37637 8.80183 2.37637 7.99542C2.37637 7.11665 2.37329 6.23787 2.37637 5.35911Z" opacity="0.200000003" fill-rule="nonzero" stroke="rgb(255,255,255)" stroke-opacity="0" stroke-width="0.500000" />
			<circle id="path3" cx="8" cy="8" r="6" fill="rgb(255,255,255)" fill-opacity="0" />
			<line id="path4" x1="0" x2="10" y1="0" y2="0" stroke="rgb(255,255,255)" stroke-opacity="0" stroke-linecap="round" stroke-linejoin="round" stroke-width="0.500000" transform="matrix(0,1,-1,0,13.375,3)" />
			<path id="path5" d="M0 0L0 7.5C0 8.4665 0.783502 9.25 1.75 9.25L8.25 9.25C9.2165 9.25 10 8.4665 10 7.5L10 0" opacity="0.300000012" fill-rule="evenodd" stroke="rgb(255,255,255)" stroke-opacity="0" stroke-linecap="round" stroke-linejoin="round" stroke-width="0.500000" transform="matrix(0,1,-1,0,11.875,3)" />
			<path id="path6" d="M7.80952 0C7.91472 0 8 0.111929 8 0.25C8 0.378209 7.92647 0.483877 7.83174 0.498318L7.80952 0.5L0.190476 0.5C0.0852792 0.5 0 0.388071 0 0.25C0 0.121791 0.0735314 0.0161233 0.168263 0.0016818L0.190476 0L7.80952 0Z" fill="rgb(25,25,25)" fill-rule="nonzero" transform="matrix(0,1,-1,0,13.625,4)" />
			<path id="path6" d="M8 0.25C8 0.378209 7.92647 0.483877 7.83174 0.498318L7.80952 0.5L0.190476 0.5C0.0852792 0.5 0 0.388071 0 0.25C0 0.121791 0.0735314 0.0161233 0.168263 0.0016818L0.190476 0L7.80952 0C7.91472 0 8 0.111929 8 0.25Z" fill-rule="nonzero" stroke="rgb(25,25,25)" stroke-linecap="round" stroke-linejoin="round" stroke-width="0.500000" transform="matrix(0,1,-1,0,13.625,4)" />
			<path id="path11" d="M7.80952 0C7.91472 0 8 0.111929 8 0.25C8 0.378209 7.92647 0.483877 7.83174 0.498318L7.80952 0.5L0.190476 0.5C0.0852792 0.5 0 0.388071 0 0.25C0 0.121791 0.0735314 0.0161233 0.168263 0.0016818L0.190476 0L7.80952 0Z" fill="rgb(25,25,25)" fill-rule="nonzero" transform="matrix(0,1,-1,0,2.875,4)" />
			<path id="path11" d="M8 0.25C8 0.378209 7.92647 0.483877 7.83174 0.498318L7.80952 0.5L0.190476 0.5C0.0852792 0.5 0 0.388071 0 0.25C0 0.121791 0.0735314 0.0161233 0.168263 0.0016818L0.190476 0L7.80952 0C7.91472 0 8 0.111929 8 0.25Z" fill-rule="nonzero" stroke="rgb(25,25,25)" stroke-linecap="round" stroke-linejoin="round" stroke-width="0.500000" transform="matrix(0,1,-1,0,2.875,4)" />
			<path id="path9" d="M11.9345 2.5C12.0397 2.5 12.125 2.61193 12.125 2.75C12.125 2.87821 12.0515 2.98388 11.9567 2.99832L11.9345 3L4.31548 3C4.21028 3 4.125 2.88807 4.125 2.75C4.125 2.62179 4.19853 2.51612 4.29326 2.50168L4.31548 2.5L11.9345 2.5Z" fill="rgb(25,25,25)" fill-rule="nonzero" />
			<path id="path9" d="M12.125 2.75C12.125 2.87821 12.0515 2.98388 11.9567 2.99832L11.9345 3L4.31548 3C4.21028 3 4.125 2.88807 4.125 2.75C4.125 2.62179 4.19853 2.51612 4.29326 2.50168L4.31548 2.5L11.9345 2.5C12.0397 2.5 12.125 2.61193 12.125 2.75Z" fill-rule="nonzero" stroke="rgb(25,25,25)" stroke-linecap="round" stroke-linejoin="round" stroke-width="0.500000" />
			<path id="path10" d="M11.6845 12.75C11.7897 12.75 11.875 12.8619 11.875 13C11.875 13.1282 11.8015 13.2339 11.7067 13.2483L11.6845 13.25L4.06548 13.25C3.96028 13.25 3.875 13.1381 3.875 13C3.875 12.8718 3.94853 12.7661 4.04326 12.7517L4.06548 12.75L11.6845 12.75Z" fill="rgb(25,25,25)" fill-rule="nonzero" />
			<path id="path10" d="M11.875 13C11.875 13.1282 11.8015 13.2339 11.7067 13.2483L11.6845 13.25L4.06548 13.25C3.96028 13.25 3.875 13.1381 3.875 13C3.875 12.8718 3.94853 12.7661 4.04326 12.7517L4.06548 12.75L11.6845 12.75C11.7897 12.75 11.875 12.8619 11.875 13Z" fill-rule="nonzero" stroke="rgb(25,25,25)" stroke-linecap="round" stroke-linejoin="round" stroke-width="0.500000" />
		</g>
	</g>
</svg>
