<svg viewBox="0 0 14 14" xmlns="http://www.w3.org/2000/svg" xmlns:xlink="http://www.w3.org/1999/xlink" width="14.000000" height="14.000000" fill="none" customFrame="#000000">
	<rect id="双箭头" width="14.000000" height="14.000000" x="0.000000" y="0.000000" />
	<path id="合并" d="M5.18341 13.5C5.18341 13.78 4.96344 14 4.68341 14C4.40338 14 4.18341 13.78 4.18341 13.5L4.18341 1.70715L2.00372 3.88684C1.80573 4.08484 1.49445 4.08484 1.29645 3.88684C1.09845 3.68884 1.09845 3.37781 1.29645 3.17981L4.3299 0.146484C4.37872 0.0976562 4.43243 0.0610352 4.49152 0.0366211C4.55035 0.012207 4.61432 0 4.68341 0C4.85016 0 4.97516 0.041626 5.05841 0.125C5.14166 0.208374 5.18341 0.333374 5.18341 0.5L5.18341 13.5ZM9.30573 0C9.0257 0 8.80573 0.219971 8.80573 0.5L8.80573 13.5C8.80573 13.6666 8.84747 13.7916 8.93073 13.875C9.01398 13.9584 9.13898 14 9.30573 14C9.37482 14 9.43878 13.9878 9.49762 13.9634C9.5567 13.939 9.61041 13.9023 9.65924 13.8535L12.6927 10.8202C12.8907 10.6222 12.8907 10.3112 12.6927 10.1132C12.4947 9.91516 12.1834 9.91516 11.9854 10.1132L9.80573 12.2928L9.80573 0.5C9.80573 0.219971 9.58575 0 9.30573 0Z" fill="rgb(25,25,25)" fill-rule="evenodd" />
</svg>
