<svg viewBox="0 0 16 16" xmlns="http://www.w3.org/2000/svg" xmlns:xlink="http://www.w3.org/1999/xlink" width="16.000000" height="16.000000" fill="none">
	<defs>
		<filter id="pixso_custom_mask_type_alpha">
			<feColorMatrix type="matrix" values="0 0 0 0 1 0 0 0 0 1 0 0 0 0 1 0 0 0 1 0 " />
		</filter>
	</defs>
	<mask id="mask_7" width="16.000000" height="16.000000" x="0.000000" y="0.000000" maskUnits="userSpaceOnUse">
		<g filter="url(#pixso_custom_mask_type_alpha)">
			<g id="mask307_29678">
				<path id="蒙版" d="M0 0L9.56673 0L9.56673 3.40007C9.56673 4.50457 10.4622 5.40007 11.5667 5.40007L16 5.40007L16 16L0 16L0 0Z" fill="rgb(196,196,196)" fill-rule="evenodd" />
			</g>
		</g>
	</mask>
	<rect id="ic_public_generic_file" width="16.000000" height="16.000000" x="0.000000" y="0.000000" />
	<path id="path1" d="M1.66378e-05 7.99338C1.66378e-05 6.74338 -0.0033167 5.49338 1.66378e-05 4.24338C-0.0033167 3.63671 0.07335 3.03338 0.220017 2.45005C0.550017 1.21005 1.35668 0.473381 2.59668 0.186714C3.21668 0.0533806 3.85335 -0.00995275 4.48668 4.72467e-05C6.88335 4.72467e-05 9.28002 4.72467e-05 11.68 4.72467e-05C12.2833 -0.00328609 12.8867 0.0633806 13.4767 0.206714C14.7533 0.516714 15.52 1.32671 15.81 2.60005C15.9434 3.20005 16.0033 3.81338 15.9967 4.43005C15.9967 6.85338 15.9967 9.27671 15.9967 11.6967C16 12.2967 15.9333 12.8967 15.7934 13.48C15.48 14.7567 14.6667 15.5167 13.3967 15.81C12.7733 15.9434 12.14 16.0067 11.5033 15.9967C9.11668 15.9967 6.73002 15.9967 4.34335 15.9967C3.73335 16.0034 3.12668 15.9334 2.53335 15.7934C1.25002 15.4834 0.480017 14.67 0.190017 13.39C0.0400166 12.74 1.66378e-05 12.09 1.66378e-05 11.4334C1.66378e-05 10.2867 1.66378e-05 9.14005 1.66378e-05 7.99338Z" fill="rgb(255,255,255)" fill-opacity="0" fill-rule="evenodd" />
	<circle id="path2" cx="8" cy="8" r="8" fill="rgb(255,255,255)" fill-opacity="0" />
	<path id="path3" d="M12.2731 15.3334L3.71973 15.3334C2.61639 15.3334 1.71973 14.4367 1.71973 13.3334L1.71973 2.66675C1.71973 1.56008 2.61639 0.666748 3.71973 0.666748L10.2331 0.666748L10.2331 3.39675C10.2331 4.13341 10.8297 4.73008 11.5664 4.73008L14.2731 4.73008L14.2731 13.3334C14.2731 14.4367 13.3797 15.3334 12.2731 15.3334Z" fill-rule="nonzero" stroke="rgb(25,25,25)" stroke-linejoin="round" stroke-width="1.000000" />
	<g id="mask" mask="url(#mask_7)">
		<g id="组合 31964">
			<path id="path" d="M10.2331 0.666748L10.2331 3.39675C10.2331 4.13341 10.8297 4.73008 11.5664 4.73008L14.2731 4.73008L14.2731 13.3334C14.2731 14.4367 13.3797 15.3334 12.2731 15.3334L3.71973 15.3334C2.61639 15.3334 1.71973 14.4367 1.71973 13.3334L1.71973 2.66675C1.71973 1.56008 2.61639 0.666748 3.71973 0.666748L10.2331 0.666748Z" fill="rgb(255,255,255)" fill-opacity="0" fill-rule="evenodd" />
			<path id="path" d="M12.2731 15.3334L3.71973 15.3334C2.61639 15.3334 1.71973 14.4367 1.71973 13.3334L1.71973 2.66675C1.71973 1.56008 2.61639 0.666748 3.71973 0.666748L10.2331 0.666748L10.2331 3.39675C10.2331 4.13341 10.8297 4.73008 11.5664 4.73008L14.2731 4.73008L14.2731 13.3334C14.2731 14.4367 13.3797 15.3334 12.2731 15.3334Z" fill-rule="evenodd" stroke="rgb(255,255,255)" stroke-opacity="0" stroke-linejoin="round" stroke-width="1.000000" />
		</g>
	</g>
	<path id="path5" d="M10.2334 0.666748L10.2334 3.39675C10.2334 4.13342 10.8301 4.73008 11.5667 4.73008L14.2734 4.73008L14.2734 4.68008L10.2801 0.666748L10.2334 0.666748Z" fill="rgb(255,255,255)" fill-opacity="0" fill-rule="evenodd" />
	<path id="path5" d="M11.5667 4.73008L14.2734 4.73008L14.2734 4.68008L10.2801 0.666748L10.2334 0.666748L10.2334 3.39675C10.2334 4.13342 10.8301 4.73008 11.5667 4.73008Z" fill-rule="nonzero" stroke="rgb(25,25,25)" stroke-linejoin="round" stroke-width="1.000000" />
</svg>
