<svg viewBox="0 0 16 16" xmlns="http://www.w3.org/2000/svg" xmlns:xlink="http://www.w3.org/1999/xlink" width="16.000000" height="16.000000" fill="none">
	<rect id="slider_vertical_3" width="16.000000" height="16.000000" x="0.000000" y="0.000000" />
	<rect id="矩形 543955" width="16.000000" height="16.000000" x="0.000000" y="0.000000" opacity="0" fill="rgb(0,0,0)" />
	<g id="组合 1">
		<path id="矢量 1" d="M8.49358 1.83999C8.49358 1.70222 8.44691 1.58222 8.35358 1.47999C8.2558 1.37777 8.13803 1.32666 8.00025 1.32666C7.86247 1.32666 7.74247 1.37777 7.64025 1.47999C7.53802 1.58222 7.48691 1.70222 7.48691 1.83999L7.48691 3.19999C7.12691 3.30666 6.82691 3.51555 6.58691 3.82666C6.34691 4.13333 6.22691 4.48444 6.22691 4.87999C6.22691 5.27555 6.34247 5.62666 6.57358 5.93333C6.80914 6.24444 7.11358 6.45777 7.48691 6.57333L7.48691 14.16C7.48691 14.2978 7.53802 14.4155 7.64025 14.5133C7.74247 14.6067 7.86247 14.6533 8.00025 14.6533C8.13803 14.6533 8.2558 14.6067 8.35358 14.5133C8.44691 14.4155 8.49358 14.2978 8.49358 14.16L8.49358 6.57333C8.86691 6.45777 9.17358 6.24888 9.41358 5.94666C9.65358 5.63999 9.77358 5.28444 9.77358 4.87999C9.77358 4.48444 9.65358 4.13333 9.41358 3.82666C9.17358 3.51555 8.86691 3.30666 8.49358 3.19999L8.49358 1.83999ZM8.00025 5.66666C7.78691 5.66666 7.60469 5.58888 7.45358 5.43333C7.30691 5.27777 7.23358 5.09333 7.23358 4.87999C7.23358 4.66666 7.30691 4.48444 7.45358 4.33333C7.60469 4.18666 7.78691 4.11333 8.00025 4.11333C8.21358 4.11333 8.3958 4.18666 8.54691 4.33333C8.69358 4.48444 8.76691 4.66666 8.76691 4.87999C8.76691 5.09333 8.69358 5.27777 8.54691 5.43333C8.3958 5.58888 8.21358 5.66666 8.00025 5.66666ZM14.9136 11.1067C14.9136 10.7111 14.7958 10.3578 14.5602 10.0467C14.3247 9.73999 14.0158 9.52666 13.6336 9.40666L13.6336 1.83999C13.6336 1.70222 13.5847 1.58222 13.4869 1.47999C13.3936 1.37777 13.2758 1.32666 13.1336 1.32666C13.0091 1.32666 12.8958 1.37777 12.7936 1.47999C12.6914 1.58222 12.6402 1.70222 12.6402 1.83999L12.6402 9.40666C12.2758 9.52666 11.9736 9.73999 11.7336 10.0467C11.4936 10.3578 11.3736 10.7111 11.3736 11.1067C11.3736 11.4978 11.4914 11.8489 11.7269 12.16C11.9625 12.4711 12.2669 12.6844 12.6402 12.8L12.6402 14.16C12.6402 14.2978 12.6914 14.4155 12.7936 14.5133C12.8958 14.6067 13.0091 14.6533 13.1336 14.6533C13.2758 14.6533 13.3936 14.6067 13.4869 14.5133C13.5847 14.4155 13.6336 14.2978 13.6336 14.16L13.6336 12.8C14.0158 12.6844 14.3247 12.4733 14.5602 12.1667C14.7958 11.8644 14.9136 11.5111 14.9136 11.1067ZM13.1336 11.8733C12.9202 11.8733 12.7402 11.7978 12.5936 11.6467C12.4425 11.5 12.3669 11.32 12.3669 11.1067C12.3669 10.8933 12.4425 10.7111 12.5936 10.56C12.7402 10.4089 12.9202 10.3333 13.1336 10.3333C13.3469 10.3333 13.5314 10.4089 13.6869 10.56C13.8425 10.7111 13.9202 10.8933 13.9202 11.1067C13.9202 11.32 13.8425 11.5 13.6869 11.6467C13.5314 11.7978 13.3469 11.8733 13.1336 11.8733ZM3.34691 1.83999C3.34691 1.70222 3.29803 1.58222 3.20025 1.47999C3.10247 1.37777 2.98469 1.32666 2.84691 1.32666C2.70914 1.32666 2.59136 1.37777 2.49358 1.47999C2.40025 1.58222 2.35358 1.70222 2.35358 1.83999L2.35358 9.40666C1.98025 9.52666 1.6758 9.73999 1.44025 10.0467C1.20469 10.3578 1.08691 10.7111 1.08691 11.1067C1.08691 11.5111 1.20469 11.8644 1.44025 12.1667C1.6758 12.4733 1.98025 12.6844 2.35358 12.8L2.35358 14.16C2.35358 14.2978 2.40025 14.4155 2.49358 14.5133C2.59136 14.6067 2.70914 14.6533 2.84691 14.6533C2.98469 14.6533 3.10247 14.6067 3.20025 14.5133C3.29803 14.4155 3.34691 14.2978 3.34691 14.16L3.34691 12.8C3.72025 12.6844 4.02691 12.4733 4.26691 12.1667C4.50691 11.8644 4.62691 11.5111 4.62691 11.1067C4.62691 10.7111 4.50691 10.3578 4.26691 10.0467C4.02691 9.73999 3.72025 9.52666 3.34691 9.40666L3.34691 1.83999ZM2.84691 11.8733C2.63358 11.8733 2.45358 11.7978 2.30691 11.6467C2.1558 11.5 2.08025 11.32 2.08025 11.1067C2.08025 10.8933 2.1558 10.7111 2.30691 10.56C2.45358 10.4089 2.63358 10.3333 2.84691 10.3333C3.06025 10.3333 3.24469 10.4089 3.40025 10.56C3.5558 10.7111 3.63358 10.8933 3.63358 11.1067C3.63358 11.32 3.5558 11.5 3.40025 11.6467C3.24469 11.7978 3.06025 11.8733 2.84691 11.8733Z" fill="rgb(0,0,0)" fill-opacity="0.90196079" fill-rule="nonzero" />
	</g>
</svg>
