<svg viewBox="0 0 16.3335 16.3335" xmlns="http://www.w3.org/2000/svg" xmlns:xlink="http://www.w3.org/1999/xlink" width="16.333496" height="16.333496" fill="none" customFrame="#000000">
	<path id="合并" d="M14.7429 6.30014L13.8555 5.41265C13.5915 5.14867 13.1766 5.14867 12.9127 5.41265C12.6487 5.67664 12.6487 6.09148 12.9127 6.35546L15.1953 8.63807C15.3524 8.79521 15.5095 8.87377 15.6667 8.87377C15.8238 8.87377 15.9809 8.79521 16.1381 8.63807C16.2682 8.5079 16.3333 8.35076 16.3333 8.16667C16.3333 7.55844 16.2688 6.9646 16.1396 6.38515C16.0337 5.90962 15.8842 5.44378 15.6913 4.98763C15.278 4.0105 14.6947 3.14528 13.9414 2.39196C13.5434 1.99398 13.1142 1.64345 12.6537 1.34037C12.2426 1.06977 11.8066 0.836998 11.3457 0.642051C10.8896 0.44912 10.4237 0.29967 9.94822 0.1937C9.36876 0.0645667 8.77491 -5.29819e-08 8.16667 0C7.55843 -2.38419e-07 6.96458 0.0645659 6.38512 0.193698C5.9096 0.299668 5.44377 0.449119 4.98763 0.64205C4.52675 0.836985 4.09077 1.06974 3.67968 1.34032C3.2192 1.64341 2.78996 1.99396 2.39196 2.39196C1.99397 2.78995 1.64343 3.21918 1.34035 3.67964C1.06976 4.09074 0.836992 4.52674 0.642051 4.98763C0.449123 5.44376 0.299675 5.90958 0.193705 6.38509C0.0645684 6.96456 -5.29819e-08 7.55842 0 8.16667C-2.38419e-07 8.77488 0.0645621 9.36872 0.193687 9.94816C0.299657 10.4237 0.449112 10.8895 0.64205 11.3457C0.836982 11.8066 1.06973 12.2426 1.34031 12.6536C1.6434 13.1141 1.99395 13.5434 2.39196 13.9414C3.14528 14.6947 4.0105 15.278 4.98763 15.6913C5.99961 16.1193 7.05929 16.3333 8.16667 16.3333C8.7934 16.3333 9.40444 16.265 9.99977 16.1282C10.4984 16.0137 10.986 15.8512 11.4625 15.6408C11.9421 15.429 12.3934 15.1766 12.8164 14.8833C13.2841 14.5592 13.7172 14.1852 14.1159 13.7615C14.3717 13.4895 14.359 13.0749 14.0871 12.8191C13.8152 12.5633 13.4005 12.5759 13.1447 12.8479C12.8078 13.206 12.4416 13.5216 12.046 13.7946C11.6951 14.0369 11.3211 14.2457 10.9239 14.4211C10.5331 14.5937 10.1332 14.7277 9.72434 14.8231C9.21888 14.941 8.69965 15 8.16667 15C7.64855 15 7.1431 14.9441 6.65033 14.8324C6.26133 14.7442 5.88023 14.6211 5.50703 14.4633C4.68958 14.1175 3.96549 13.6293 3.33477 12.9986C2.99804 12.6618 2.70192 12.2985 2.44641 11.9085C2.22334 11.5681 2.03122 11.2073 1.87006 10.8263C1.71222 10.4531 1.58919 10.0721 1.50097 9.68308C1.38921 9.19028 1.33333 8.68481 1.33333 8.16667C1.33333 7.64851 1.38922 7.14303 1.50098 6.65022C1.58919 6.26126 1.71222 5.8802 1.87006 5.50703C2.03124 5.12596 2.22338 4.76517 2.44649 4.42467C2.70198 4.03477 2.99807 3.67147 3.33477 3.33477C3.67148 2.99806 4.0348 2.70195 4.42473 2.44646C4.76521 2.22336 5.12598 2.03123 5.50703 1.87006C5.88021 1.71222 6.26128 1.58919 6.65025 1.50097C7.14305 1.38921 7.64852 1.33333 8.16667 1.33333C8.68481 1.33333 9.19028 1.38921 9.68308 1.50097C10.0721 1.58919 10.4531 1.71222 10.8263 1.87006C11.2073 2.03122 11.5681 2.22335 11.9086 2.44643C12.2985 2.70194 12.6618 2.99805 12.9986 3.33477C13.6293 3.96549 14.1175 4.68958 14.4633 5.50703C14.5735 5.76755 14.6667 6.03192 14.7429 6.30014Z" fill="rgb(0,0,0)" fill-opacity="0.600000024" fill-rule="evenodd" />
</svg>
