<svg viewBox="0 0 14 14" xmlns="http://www.w3.org/2000/svg" xmlns:xlink="http://www.w3.org/1999/xlink" width="14.000000" height="14.000000" fill="none" customFrame="#000000">
	<path id="path" d="M7 0C3.1402 0 0 3.1402 0 7C0 10.8598 3.1402 14 7 14C10.8598 14 14 10.8598 14 7C14 3.1402 10.8598 0 7 0ZM6.65348 9.45357L10.8535 5.25357C11.0515 5.05558 11.0515 4.74445 10.8535 4.54646C10.6555 4.34847 10.3444 4.34847 10.1464 4.54646L6.29993 8.39291L4.20348 6.29646C4.00549 6.09847 3.69436 6.09847 3.49637 6.29646C3.29838 6.49445 3.29838 6.80558 3.49637 7.00357L5.94637 9.45357C6.06422 9.57142 6.18208 9.63035 6.29993 9.63035C6.41778 9.63035 6.53563 9.57142 6.65348 9.45357Z" fill="rgb(9,170,113)" fill-rule="evenodd" />
</svg>
