<svg viewBox="0 0 16 16" xmlns="http://www.w3.org/2000/svg" xmlns:xlink="http://www.w3.org/1999/xlink" width="16.000000" height="16.000000" fill="none">
	<rect id="ic_public_ellipsis" width="16.000000" height="16.000000" x="0.000000" y="0.000000" />
	<path id="path1" d="M1.66378e-05 7.99338C1.66378e-05 6.74338 -0.0033167 5.49338 1.66378e-05 4.24338C-0.0033167 3.63671 0.07335 3.03338 0.220017 2.45005C0.550017 1.21005 1.35668 0.473381 2.59668 0.186714C3.21668 0.0533806 3.85335 -0.00995275 4.48668 4.72467e-05C6.88335 4.72467e-05 9.28002 4.72467e-05 11.68 4.72467e-05C12.2833 -0.00328609 12.8867 0.0633806 13.4767 0.206714C14.7533 0.516714 15.52 1.32671 15.81 2.60005C15.9434 3.20005 16.0033 3.81338 15.9967 4.43005C15.9967 6.85338 15.9967 9.27671 15.9967 11.6967C16 12.2967 15.9333 12.8967 15.7934 13.48C15.48 14.7567 14.6667 15.5167 13.3967 15.81C12.7733 15.9434 12.14 16.0067 11.5033 15.9967C9.11668 15.9967 6.73002 15.9967 4.34335 15.9967C3.73335 16.0034 3.12668 15.9334 2.53335 15.7934C1.25002 15.4834 0.480017 14.67 0.190017 13.39C0.0400166 12.74 1.66378e-05 12.09 1.66378e-05 11.4334C1.66378e-05 10.2867 1.66378e-05 9.14005 1.66378e-05 7.99338Z" fill="rgb(255,255,255)" fill-opacity="0" fill-rule="evenodd" />
	<circle id="path2" cx="8" cy="8" r="8" fill="rgb(255,255,255)" fill-opacity="0" />
	<circle id="path3" cx="1.66650391" cy="8" r="1" fill="rgb(25,25,25)" />
	<circle id="path4" cx="8" cy="8" r="1" fill="rgb(25,25,25)" />
	<circle id="path5" cx="14.3334961" cy="8" r="1" fill="rgb(25,25,25)" />
	<circle id="path6" cx="1.66682947" cy="7.9998374" r="0.833333373" fill="rgb(255,255,255)" fill-opacity="0" />
	<circle id="path6" cx="1.66682947" cy="7.9998374" r="0.833333373" stroke="rgb(255,255,255)" stroke-opacity="0" stroke-linejoin="round" stroke-width="1.000000" />
	<circle id="path7" cx="7.9998374" cy="7.9998374" r="0.833333373" fill="rgb(255,255,255)" fill-opacity="0" />
	<circle id="path7" cx="7.9998374" cy="7.9998374" r="0.833333373" stroke="rgb(255,255,255)" stroke-opacity="0" stroke-linejoin="round" stroke-width="1.000000" />
	<circle id="path8" cx="14.333333" cy="7.9998374" r="0.833333373" fill="rgb(255,255,255)" fill-opacity="0" />
	<circle id="path8" cx="14.333333" cy="7.9998374" r="0.833333373" stroke="rgb(255,255,255)" stroke-opacity="0" stroke-linejoin="round" stroke-width="1.000000" />
</svg>
