<svg viewBox="0 0 16 16" xmlns="http://www.w3.org/2000/svg" xmlns:xlink="http://www.w3.org/1999/xlink" width="16.000000" height="16.000000" fill="none">
	<rect id="upload" width="16.000000" height="16.000000" x="0.000000" y="0.000000" />
	<rect id="矩形 543955" width="16.000000" height="16.000000" x="0.000000" y="0.000000" opacity="0" fill="rgb(0,0,0)" />
	<g id="组合 1">
		<path id="矢量 1" d="M7.4867 2.96009L7.4867 11.3134C7.4867 11.5134 7.56892 11.6579 7.73337 11.7468C7.90225 11.8312 8.06892 11.8312 8.23337 11.7468C8.39781 11.6579 8.48003 11.5134 8.48003 11.3134L8.48003 2.89342L11.1334 5.56676C11.3067 5.70454 11.4778 5.74231 11.6467 5.68009C11.82 5.61787 11.9334 5.49787 11.9867 5.32009C12.04 5.14231 11.9956 4.98454 11.8534 4.84676L8.72003 1.71342C8.51559 1.52231 8.27337 1.42676 7.99337 1.42676C7.70892 1.42676 7.4667 1.52231 7.2667 1.71342L4.1267 4.84676C3.98003 4.99787 3.93559 5.16009 3.99336 5.33342C4.05114 5.5112 4.17114 5.62898 4.35336 5.68676C4.53559 5.74454 4.70003 5.70009 4.8467 5.55342L7.4867 2.96009Z" fill="rgb(0,0,0)" fill-opacity="0.90196079" fill-rule="nonzero" />
		<path id="矢量 2" d="M13.68 12.0799C13.68 12.4843 13.5333 12.8332 13.24 13.1265C12.9467 13.4199 12.5911 13.5665 12.1733 13.5665L3.82666 13.5665C3.41777 13.5665 3.06444 13.4199 2.76666 13.1265C2.46888 12.8332 2.31999 12.4843 2.31999 12.0799L2.31999 10.7065C2.31999 10.5021 2.23777 10.3577 2.07333 10.2732C1.90888 10.1888 1.74222 10.1888 1.57333 10.2732C1.40888 10.3577 1.32666 10.5021 1.32666 10.7065L1.32666 12.0799C1.32666 12.5288 1.43999 12.9443 1.66666 13.3265C1.88888 13.7132 2.1911 14.0177 2.57333 14.2399C2.95999 14.4621 3.37777 14.5732 3.82666 14.5732L12.1733 14.5732C12.6222 14.5732 13.04 14.4621 13.4267 14.2399C13.8089 14.0177 14.1156 13.7132 14.3467 13.3265C14.5733 12.9443 14.6867 12.5288 14.6867 12.0799L14.6867 10.6865C14.6867 10.4865 14.6022 10.3465 14.4333 10.2665C14.26 10.1865 14.0911 10.1865 13.9267 10.2665C13.7622 10.3465 13.68 10.4865 13.68 10.6865L13.68 12.0799Z" fill="rgb(0,0,0)" fill-opacity="0.90196079" fill-rule="nonzero" />
	</g>
</svg>
