<svg viewBox="0 0 20 20" xmlns="http://www.w3.org/2000/svg" xmlns:xlink="http://www.w3.org/1999/xlink" width="19.999969" height="20.000000" fill="none">
	<rect id="IconCardMindmap" width="20.000000" height="20.000000" x="0.000000" y="0.000000" />
	<g id="mask">
		<path id="合并" d="M3.58188 1.1316L3.58189 1.1316C3.89142 1.04387 4.21338 1 4.54777 1L15.4792 1C15.8323 1 16.1706 1.0489 16.4941 1.14671L16.4941 1.14672C16.7536 1.22518 17.0036 1.33512 17.2441 1.47652C17.7844 1.79421 18.2136 2.22577 18.5318 2.77123C18.6749 3.02138 18.7853 3.28098 18.8628 3.55005L18.8628 3.55012C18.9543 3.86773 19 4.19851 19 4.54246L19 11.5877L17.6673 10.3078L17.6673 4.54246C17.6673 4.23448 17.6122 3.94977 17.5019 3.68833C17.3954 3.43586 17.2374 3.20508 17.028 2.996C16.8197 2.78803 16.5899 2.63088 16.3387 2.52454L16.3386 2.52452C16.0757 2.41327 15.7892 2.35764 15.4792 2.35764L4.54777 2.35764C4.23023 2.35764 3.93738 2.41519 3.66924 2.53028C3.4254 2.63494 3.20199 2.78718 2.999 2.98701C2.80853 3.17451 2.66063 3.38177 2.55528 3.60877L2.55527 3.60877C2.42488 3.88974 2.35968 4.20097 2.35968 4.54246L2.35968 15.6553L11.4002 9.07393C11.8324 8.75624 12.3127 8.60939 12.8409 8.63337C13.0974 8.642 13.3387 8.69 13.5647 8.77737L13.5648 8.77739C13.8096 8.87202 14.0365 9.01282 14.2456 9.1998L14.361 9.29799C14.3522 9.30329 14.3434 9.30867 14.3347 9.31411C14.2071 9.39222 14.0886 9.48419 13.9793 9.59006C13.8701 9.69557 13.7751 9.80968 13.6941 9.93239L13.6933 9.93372L13.6931 9.93372C13.6277 10.0326 13.5716 10.1368 13.5245 10.2461C13.5132 10.2726 13.5026 10.2993 13.4926 10.326L13.3632 10.2158C13.2071 10.0719 13.021 9.997 12.8049 9.99101C12.5888 9.98501 12.3847 10.045 12.1926 10.1708L2.92696 16.9231C3.12506 17.1389 3.36518 17.3127 3.64732 17.4446C3.92946 17.5764 4.22961 17.6424 4.54777 17.6424L13.4228 17.6424C13.4157 17.6702 13.4092 17.6981 13.4035 17.7261C13.378 17.8511 13.3652 17.9778 13.3649 18.108C13.3649 18.2381 13.3773 18.3648 13.4024 18.4898L13.4026 18.4898C13.4282 18.6164 13.4672 18.7432 13.5198 18.8646C13.5393 18.9109 13.5605 18.956 13.5833 19L4.54777 19C3.91146 19 3.32016 18.8412 2.77389 18.5235C2.22761 18.2058 1.7954 17.7742 1.47724 17.2288C1.15908 16.6833 1 16.0869 1 15.4396L1 4.54246C1 4.21042 1.04344 3.89067 1.13033 3.58319L1.13034 3.58315L1.13034 3.58315C1.20972 3.30226 1.32535 3.03162 1.47724 2.77123C1.6354 2.50007 1.82175 2.25706 2.03629 2.04219L2.03634 2.04214C2.25335 1.82481 2.4992 1.63627 2.77389 1.47652C3.03308 1.32579 3.30242 1.21081 3.58188 1.1316ZM6.27981 5.8354C6.45996 5.76465 6.654 5.72927 6.86193 5.72927C7.07731 5.72927 7.27704 5.76723 7.46112 5.84314C7.64644 5.91956 7.81589 6.03445 7.96948 6.18781C8.1372 6.35528 8.25987 6.54005 8.33747 6.74213C8.4043 6.91615 8.43772 7.10301 8.43772 7.3027C8.43772 7.50238 8.40431 7.68923 8.33748 7.86324L8.33747 7.86327L8.33746 7.8633C8.25985 8.06536 8.13719 8.25013 7.96948 8.41758C7.81589 8.57094 7.64644 8.68584 7.46112 8.76226C7.27704 8.83817 7.07731 8.87612 6.86193 8.87612C6.654 8.87612 6.45996 8.84075 6.27981 8.77L6.27978 8.76999C6.08548 8.69367 5.90735 8.5762 5.74537 8.41758C5.57767 8.25013 5.45501 8.06537 5.3774 7.86331L5.37739 7.86327L5.37737 7.86323C5.31055 7.68922 5.27714 7.50237 5.27714 7.3027C5.27714 7.10302 5.31055 6.91618 5.37737 6.74216L5.37739 6.74213C5.45499 6.54005 5.57765 6.35528 5.74537 6.18781C5.90735 6.02919 6.08548 5.91172 6.27978 5.83541L6.27981 5.8354ZM15.6759 11.9636C15.9214 11.7232 16.3076 11.7228 16.5537 11.9626L18.7649 14.0918C18.7675 14.0943 18.7701 14.0969 18.7727 14.0995C18.7755 14.1023 18.7782 14.1052 18.781 14.1081C18.8495 14.18 18.901 14.2585 18.9356 14.3436C18.9706 14.4301 18.9882 14.5234 18.9882 14.6234C18.9882 14.7235 18.9706 14.8167 18.9356 14.9032C18.901 14.9883 18.8495 15.0668 18.781 15.1388C18.7784 15.1415 18.7757 15.1443 18.773 15.147C18.7703 15.1497 18.7676 15.1524 18.7649 15.1551L16.5495 17.2884C16.3034 17.5282 15.9172 17.5278 15.6717 17.2874C15.4262 17.047 15.4267 16.6697 15.6727 16.43L16.9264 15.2338L12.2985 15.2338C11.9509 15.2338 11.6778 14.9671 11.6778 14.6275C11.6778 14.288 11.9509 14.0212 12.2985 14.0212L16.9348 14.0212L15.677 12.821C15.4309 12.5812 15.4304 12.204 15.6759 11.9636Z" fill="rgb(25,25,25)" fill-rule="evenodd" />
	</g>
</svg>
