<svg xmlns="http://www.w3.org/2000/svg" viewBox="0 0 20 20" fill="none">
  <path d="M10.0167 7.50001C10.4722 7.50001 10.8889 7.6139 11.2667 7.84168C11.65 8.06945 11.95 8.37501 12.1667 8.75834C12.3889 9.14723 12.5 9.56668 12.5 10.0167C12.5 10.4722 12.3889 10.8889 12.1667 11.2667C11.95 11.65 11.65 11.95 11.2667 12.1667C10.8889 12.3889 10.4667 12.5 10 12.5C9.54445 12.5 9.12501 12.3861 8.74168 12.1583C8.35279 11.9306 8.05001 11.625 7.83334 11.2417C7.61112 10.8528 7.50001 10.4333 7.50001 9.98334C7.50001 9.52779 7.6139 9.11112 7.84168 8.73334C8.06945 8.35001 8.37501 8.05001 8.75834 7.83334C9.14723 7.61112 9.56668 7.50001 10.0167 7.50001ZM10.0417 6.25834C9.35834 6.25834 8.72779 6.42501 8.15001 6.75834C7.57223 7.09168 7.11112 7.54168 6.76668 8.10834C6.42779 8.67501 6.25834 9.30001 6.25834 9.98334C6.25834 10.6611 6.42501 11.2889 6.75834 11.8667C7.09168 12.45 7.54445 12.9111 8.11668 13.25C8.69445 13.5889 9.32223 13.7583 10 13.7583C10.6778 13.7583 11.3056 13.5917 11.8833 13.2583C12.4556 12.925 12.9111 12.4722 13.25 11.9C13.5889 11.3278 13.7583 10.7 13.7583 10.0167C13.7583 9.3389 13.5917 8.7139 13.2583 8.14168C12.925 7.56945 12.475 7.11112 11.9083 6.76668C11.3417 6.42779 10.7195 6.25834 10.0417 6.25834ZM11.3 18.8833C11.5556 18.8833 11.7889 18.8111 12 18.6667C12.2111 18.5278 12.3722 18.3445 12.4833 18.1167L13.1583 16.5417L13.3167 16.4583C13.5611 16.3139 13.8028 16.1667 14.0417 16.0167L15.7583 16.2417C16.025 16.2695 16.2722 16.225 16.5 16.1083C16.7278 15.9972 16.9083 15.8278 17.0417 15.6L18.3583 13.3167C18.4917 13.0945 18.55 12.8556 18.5333 12.6C18.5111 12.3445 18.4278 12.1111 18.2833 11.9L17.2417 10.5L17.2417 9.51668L18.2833 8.11668C18.4389 7.90556 18.525 7.67223 18.5417 7.41668C18.5528 7.16668 18.4917 6.92779 18.3583 6.70001L17.0417 4.40001C16.9195 4.1889 16.7445 4.02223 16.5167 3.90001C16.2945 3.77779 16.05 3.73057 15.7833 3.75834L14.0417 3.98334C13.8028 3.80557 13.5278 3.64445 13.2167 3.50001L12.5167 1.85834C12.4111 1.63057 12.2528 1.44445 12.0417 1.30001C11.825 1.15557 11.5917 1.08334 11.3417 1.08334L8.70001 1.08334C8.44445 1.08334 8.20834 1.15557 7.99168 1.30001C7.76945 1.44445 7.60557 1.63057 7.50001 1.85834L6.80001 3.50001L6.60001 3.61668C6.49445 3.67223 6.39168 3.72779 6.29168 3.78334C6.19168 3.83334 6.09445 3.89168 6.00001 3.95834L4.24168 3.75834C3.98612 3.71945 3.74168 3.75557 3.50834 3.86668C3.27501 3.98334 3.09168 4.15557 2.95834 4.38334L1.64168 6.68334C1.50834 6.89445 1.45001 7.13056 1.46668 7.39168C1.4889 7.65279 1.57223 7.8889 1.71668 8.10001L2.78334 9.51668L2.78334 10.4417L1.71668 11.8583C1.56112 12.075 1.47501 12.3083 1.45834 12.5583C1.44723 12.8139 1.50834 13.0556 1.64168 13.2833L2.94168 15.5583C3.07501 15.7861 3.25557 15.9556 3.48334 16.0667C3.70557 16.1833 3.95001 16.2278 4.21668 16.2L5.94168 16C6.3139 16.2389 6.59445 16.4056 6.78334 16.5L7.48334 18.1C7.57223 18.3389 7.72501 18.5278 7.94168 18.6667C8.15279 18.8111 8.39168 18.8833 8.65834 18.8833L11.3 18.8833ZM5.90001 14.7167L4.00001 14.9167L2.68334 12.5833L3.81668 11.0583C3.9389 10.875 4.00001 10.6889 4.00001 10.5C3.9889 10.3389 3.98334 10.1583 3.98334 9.95834C3.98334 9.75834 3.9889 9.57779 4.00001 9.41668C4.00001 9.20556 3.9389 9.0139 3.81668 8.84168L2.68334 7.28334L4.04168 4.95834L5.95834 5.20001C6.08056 5.21112 6.19168 5.20557 6.29168 5.18334C6.39168 5.15557 6.48057 5.1139 6.55834 5.05834C6.79723 4.88612 7.09168 4.71945 7.44168 4.55834C7.64168 4.45279 7.78057 4.30557 7.85834 4.11668L8.65834 2.31668L11.3417 2.34168L12.1 4.11668C12.1667 4.29445 12.3056 4.44168 12.5167 4.55834C12.8111 4.69168 13.1111 4.86668 13.4167 5.08334C13.6167 5.21668 13.8167 5.26112 14.0167 5.21668L15.9417 5.01668L17.2583 7.35834L16.1417 8.85834C15.9917 9.01945 15.9306 9.2139 15.9583 9.44168C15.975 9.6139 15.9833 9.80279 15.9833 10.0083C15.9833 10.2139 15.975 10.3972 15.9583 10.5583C15.9472 10.775 16.0083 10.9695 16.1417 11.1417L17.2583 12.6583L15.9 14.9833L14.0417 14.7583C13.9361 14.7472 13.8278 14.75 13.7167 14.7667C13.6111 14.7889 13.5195 14.8333 13.4417 14.9C13.1472 15.1111 12.8333 15.2917 12.5 15.4417C12.4056 15.4917 12.3195 15.5556 12.2417 15.6333C12.1583 15.7056 12.0972 15.7889 12.0583 15.8833L11.3 17.6167L8.61668 17.6L7.88334 15.8583C7.7889 15.6583 7.64723 15.5111 7.45834 15.4167C7.19168 15.3 6.88612 15.1278 6.54168 14.9C6.39168 14.7945 6.22501 14.7417 6.04168 14.7417L5.90001 14.7167Z" fill="black"/>
</svg>
