<svg viewBox="0 0 20 20" xmlns="http://www.w3.org/2000/svg" xmlns:xlink="http://www.w3.org/1999/xlink" width="20.000000" height="20.000000" fill="none" customFrame="#000000">
	<mask id="mask_3" width="20.000000" height="20.000000" x="0.000000" y="0.000000" maskUnits="userSpaceOnUse">
		<g filter="url(#pixso_custom_mask_type_outline)">
			<g id="clip595_7854">
				<rect id="矩形 543968" width="20.000000" height="20.000000" x="0.000000" y="0.000000" fill="rgb(255,255,255)" />
			</g>
		</g>
	</mask>
	<mask id="mask_2" width="20.000000" height="20.000000" x="0.000000" y="0.000000" maskUnits="userSpaceOnUse">
		<g filter="url(#pixso_custom_mask_type_outline)">
			<g id="clip595_7848">
				<rect id="矩形 543967" width="20.000000" height="20.000000" x="0.000000" y="0.000000" fill="rgb(255,255,255)" />
			</g>
		</g>
	</mask>
	<mask id="mask_1" width="20.000000" height="20.000000" x="0.000000" y="0.000000" maskUnits="userSpaceOnUse">
		<g filter="url(#pixso_custom_mask_type_outline)">
			<g id="clip595_7843">
				<rect id="矩形 543966" width="20.000000" height="20.000000" x="0.000000" y="0.000000" fill="rgb(255,255,255)" />
			</g>
		</g>
	</mask>
	<defs>
		<filter id="pixso_custom_mask_type_outline">
			<feColorMatrix type="matrix" values="0 0 0 0 1 0 0 0 0 1 0 0 0 0 1 0 0 0 1 0 " />
		</filter>
	</defs>
	<mask id="mask_0" width="20.000000" height="20.000000" x="0.000000" y="0.000000" maskUnits="userSpaceOnUse">
		<g filter="url(#pixso_custom_mask_type_outline)">
			<g id="clip595_7842">
				<rect id="矩形 543969" width="20.000000" height="20.000000" x="0.000000" y="0.000000" fill="rgb(255,255,255)" />
			</g>
		</g>
	</mask>
	<g id="clip path group" mask="url(#mask_0)">
		<g id="组合 31826">
			<g id="clip path group" mask="url(#mask_1)">
				<g id="组合 31828">
					<path id="矢量 3015" d="M4.15943e-05 9.99165C4.15943e-05 8.42915 -0.00829174 6.86665 4.15943e-05 5.30415C-0.00829174 4.54165 0.0875416 3.78748 0.270875 3.05832C0.683375 1.50832 1.69587 0.587482 3.24171 0.229149C4.01671 0.0624822 4.81671 -0.0166845 5.60838 -1.78218e-05C8.60421 -1.78218e-05 11.6 -1.78218e-05 14.6 -1.78218e-05C15.35 -0.00835116 16.1084 0.0749822 16.8459 0.254149C18.4417 0.641649 19.4 1.65415 19.7625 3.24582C19.9292 3.99582 20.0042 4.76248 19.9959 5.53332C19.9959 8.56248 19.9959 11.5916 19.9959 14.6166C20 15.3666 19.9167 16.1166 19.7417 16.8458C19.35 18.4458 18.3334 19.3917 16.7417 19.7583C15.9667 19.925 15.1709 20.0083 14.375 19.9958C11.3959 19.9958 8.41254 19.9958 5.42921 19.9958C4.66671 20.0041 3.90838 19.9125 3.16254 19.7375C1.56254 19.3541 0.600042 18.3375 0.237542 16.7333C0.0458749 15.925 4.15943e-05 15.1125 4.15943e-05 14.2875C4.15943e-05 12.8541 4.15943e-05 11.4208 4.15943e-05 9.99165Z" fill="rgb(255,255,255)" fill-opacity="0" fill-rule="evenodd" />
					<circle id="椭圆 195" cx="10" cy="10" r="10" fill="rgb(255,255,255)" fill-opacity="0" />
				</g>
			</g>
			<g id="clip path group" mask="url(#mask_2)">
				<g id="组合 31830">
					<path id="矢量 3016" d="M13.5417 13.75C14.3583 13.75 15.0583 14.275 15.3125 15.0083L16.875 15C17.2167 15 17.5 15.2792 17.5 15.625C17.5 15.9667 17.2167 16.25 16.875 16.25L15.3083 16.25L15.2667 16.3542C14.9833 17.025 14.3167 17.5 13.5417 17.5C12.7625 17.5 12.0958 17.025 11.8125 16.3542L11.7708 16.25L3.125 16.25C2.77917 16.25 2.5 15.9667 2.5 15.625C2.5 15.2792 2.77917 15 3.125 15L11.7708 15C12.025 14.2667 12.7208 13.75 13.5417 13.75ZM13.5417 15C13.1958 15 12.9167 15.2792 12.9167 15.625C12.9167 15.9667 13.1958 16.25 13.5417 16.25C13.8833 16.25 14.1667 15.9667 14.1667 15.625C14.1667 15.2792 13.8833 15 13.5417 15ZM6.875 8.125C7.69167 8.125 8.39167 8.65 8.64583 9.38333L16.875 9.375C17.2167 9.375 17.5 9.65417 17.5 10C17.5 10.3417 17.2167 10.625 16.875 10.625L8.64167 10.625L8.6 10.7292C8.31667 11.4 7.65 11.875 6.875 11.875C6.09583 11.875 5.42917 11.4 5.14583 10.7292L5.10417 10.625L3.125 10.625C2.77917 10.625 2.5 10.3417 2.5 10C2.5 9.65417 2.77917 9.375 3.125 9.375L5.10417 9.375C5.35833 8.64167 6.05417 8.125 6.875 8.125ZM6.875 9.375C6.52917 9.375 6.25 9.65417 6.25 10C6.25 10.3417 6.52917 10.625 6.875 10.625C7.21667 10.625 7.5 10.3417 7.5 10C7.5 9.65417 7.21667 9.375 6.875 9.375ZM12.7083 2.5C13.525 2.5 14.225 3.025 14.4792 3.75833L16.875 3.75C17.2167 3.75 17.5 4.02917 17.5 4.375C17.5 4.71667 17.2167 5 16.875 5L14.475 5L14.4333 5.10417C14.15 5.775 13.4833 6.25 12.7083 6.25C11.9292 6.25 11.2625 5.775 10.9792 5.10417L10.9375 5L3.125 5C2.77917 5 2.5 4.71667 2.5 4.375C2.5 4.02917 2.77917 3.75 3.125 3.75L10.9375 3.75C11.1917 3.01667 11.8875 2.5 12.7083 2.5ZM12.7083 3.75C12.3625 3.75 12.0833 4.02917 12.0833 4.375C12.0833 4.71667 12.3625 5 12.7083 5C13.05 5 13.3333 4.71667 13.3333 4.375C13.3333 4.02917 13.05 3.75 12.7083 3.75Z" fill="rgb(10,89,247)" fill-rule="evenodd" />
					<path id="矢量 3017" d="M10.9375 3.75C10.8708 3.94583 10.8333 4.15417 10.8333 4.375C10.8333 4.59167 10.8708 4.80417 10.9375 5L10.9792 5.10417C11.2625 5.775 11.9292 6.25 12.7083 6.25C13.4833 6.25 14.15 5.775 14.4333 5.10417L14.475 5C14.5417 4.80417 14.5833 4.59167 14.5833 4.375C14.5833 4.15833 14.5458 3.95 14.4792 3.75833C14.225 3.025 13.525 2.5 12.7083 2.5C12.6708 2.5 12.6333 2.5 12.5958 2.5C11.8292 2.54583 11.1833 3.05417 10.9375 3.75ZM12.7083 3.75C12.3625 3.75 12.0833 4.02917 12.0833 4.375C12.0833 4.71667 12.3625 5 12.7083 5C13.05 5 13.3333 4.71667 13.3333 4.375C13.3333 4.02917 13.05 3.75 12.7083 3.75ZM8.64167 10.625C8.70833 10.4292 8.75 10.2167 8.75 10C8.75 8.9625 7.90833 8.125 6.875 8.125C5.8375 8.125 5 8.9625 5 10C5 10.2167 5.0375 10.4292 5.10417 10.625L5.14583 10.7292C5.42917 11.4 6.09583 11.875 6.875 11.875C7.65 11.875 8.31667 11.4 8.6 10.7292L8.64167 10.625ZM6.875 9.375C6.52917 9.375 6.25 9.65417 6.25 10C6.25 10.3417 6.52917 10.625 6.875 10.625C7.21667 10.625 7.5 10.3417 7.5 10C7.5 9.65417 7.21667 9.375 6.875 9.375ZM15.3125 15.0083C15.0583 14.275 14.3583 13.75 13.5417 13.75C13.5 13.75 13.4667 13.75 13.4292 13.75C12.6625 13.7958 12.0167 14.3 11.7708 14.9958C11.7042 15.1917 11.6667 15.4042 11.6667 15.625C11.6667 15.8417 11.7042 16.0542 11.7708 16.25L11.8125 16.3542C12.0958 17.025 12.7625 17.5 13.5417 17.5C14.3167 17.5 14.9833 17.025 15.2667 16.3542L15.3083 16.25C15.375 16.0542 15.4167 15.8417 15.4167 15.625C15.4167 15.4083 15.3792 15.2 15.3125 15.0083ZM13.5417 15C13.1958 15 12.9167 15.2792 12.9167 15.625C12.9167 15.9667 13.1958 16.25 13.5417 16.25C13.8833 16.25 14.1667 15.9667 14.1667 15.625C14.1667 15.2792 13.8833 15 13.5417 15Z" fill="rgb(10,89,247)" fill-rule="evenodd" />
				</g>
			</g>
			<g id="clip path group" mask="url(#mask_3)">
				<g id="组合 31832">
					<path id="矢量 3018" d="M3.33333 3.54175L16.6667 3.54175C17.125 3.54175 17.5 3.91258 17.5 4.37508C17.5 4.83342 17.125 5.20841 16.6667 5.20841L3.33333 5.20841C2.87083 5.20841 2.5 4.83342 2.5 4.37508C2.5 3.91258 2.87083 3.54175 3.33333 3.54175ZM3.33333 9.16675L16.6667 9.16675C17.125 9.16675 17.5 9.53758 17.5 10.0001C17.5 10.4584 17.125 10.8334 16.6667 10.8334L3.33333 10.8334C2.87083 10.8334 2.5 10.4584 2.5 10.0001C2.5 9.53758 2.87083 9.16675 3.33333 9.16675ZM3.33333 14.7917L16.6667 14.7917C17.125 14.7917 17.5 15.1626 17.5 15.6251C17.5 16.0834 17.125 16.4584 16.6667 16.4584L3.33333 16.4584C2.87083 16.4584 2.5 16.0834 2.5 15.6251C2.5 15.1626 2.87083 14.7917 3.33333 14.7917Z" fill="rgb(255,255,255)" fill-opacity="0" fill-rule="evenodd" />
					<circle id="椭圆 196" cx="12.708374" cy="4.375" r="1.875" fill="rgb(255,255,255)" fill-opacity="0" />
					<circle id="椭圆 197" cx="6.875" cy="10" r="1.875" fill="rgb(255,255,255)" fill-opacity="0" />
					<circle id="椭圆 198" cx="13.541626" cy="15.625" r="1.875" fill="rgb(255,255,255)" fill-opacity="0" />
					<path id="矢量 3019" d="M10.9375 3.75C10.8708 3.94583 10.8333 4.15417 10.8333 4.375C10.8333 4.59167 10.8708 4.80417 10.9375 5L10.9792 5.10417C11.2625 5.775 11.9292 6.25 12.7083 6.25C13.4833 6.25 14.15 5.775 14.4333 5.10417L14.475 5C14.5417 4.80417 14.5833 4.59167 14.5833 4.375C14.5833 4.15833 14.5458 3.95 14.4792 3.75833C14.225 3.025 13.525 2.5 12.7083 2.5C12.6708 2.5 12.6333 2.5 12.5958 2.5C11.8292 2.54583 11.1833 3.05417 10.9375 3.75ZM8.64167 10.625C8.70833 10.4292 8.75 10.2167 8.75 10C8.75 8.9625 7.90833 8.125 6.875 8.125C5.8375 8.125 5 8.9625 5 10C5 10.2167 5.0375 10.4292 5.10417 10.625L5.14583 10.7292C5.42917 11.4 6.09583 11.875 6.875 11.875C7.65 11.875 8.31667 11.4 8.6 10.7292L8.64167 10.625ZM15.3125 15.0083C15.0583 14.275 14.3583 13.75 13.5417 13.75C13.5 13.75 13.4667 13.75 13.4292 13.75C12.6625 13.7958 12.0167 14.3 11.7708 14.9958C11.7042 15.1917 11.6667 15.4042 11.6667 15.625C11.6667 15.8417 11.7042 16.0542 11.7708 16.25L11.8125 16.3542C12.0958 17.025 12.7625 17.5 13.5417 17.5C14.3167 17.5 14.9833 17.025 15.2667 16.3542L15.3083 16.25C15.375 16.0542 15.4167 15.8417 15.4167 15.625C15.4167 15.4083 15.3792 15.2 15.3125 15.0083Z" fill="rgb(255,255,255)" fill-opacity="0" fill-rule="evenodd" />
				</g>
			</g>
		</g>
	</g>
</svg>
