<svg viewBox="0 0 20 20" xmlns="http://www.w3.org/2000/svg" xmlns:xlink="http://www.w3.org/1999/xlink" width="20.000000" height="20.000000" fill="none" customFrame="#000000">
	<mask id="mask_11" width="20.000000" height="20.000000" x="0.000000" y="0.000000" maskUnits="userSpaceOnUse">
		<g filter="url(#pixso_custom_mask_type_outline)">
			<g id="clip2862_7492">
				<rect id="矩形 543988" width="20.000000" height="20.000000" x="0.000000" y="0.000000" fill="rgb(255,255,255)" />
			</g>
		</g>
	</mask>
	<mask id="mask_10" width="20.000000" height="20.000000" x="0.000000" y="0.000000" maskUnits="userSpaceOnUse">
		<g filter="url(#pixso_custom_mask_type_outline)">
			<g id="clip2862_7489">
				<rect id="矩形 543987" width="20.000000" height="20.000000" x="0.000000" y="0.000000" fill="rgb(255,255,255)" />
			</g>
		</g>
	</mask>
	<mask id="mask_9" width="20.000000" height="20.000000" x="0.000000" y="0.000000" maskUnits="userSpaceOnUse">
		<g filter="url(#pixso_custom_mask_type_outline)">
			<g id="clip2862_7484">
				<rect id="矩形 543986" width="20.000000" height="20.000000" x="0.000000" y="0.000000" fill="rgb(255,255,255)" />
			</g>
		</g>
	</mask>
	<defs>
		<filter id="pixso_custom_mask_type_outline">
			<feColorMatrix type="matrix" values="0 0 0 0 1 0 0 0 0 1 0 0 0 0 1 0 0 0 1 0 " />
		</filter>
	</defs>
	<mask id="mask_8" width="20.000000" height="20.000000" x="0.000000" y="0.000000" maskUnits="userSpaceOnUse">
		<g filter="url(#pixso_custom_mask_type_outline)">
			<g id="clip2862_7483">
				<rect id="矩形 543989" width="20.000000" height="20.000000" x="0.000000" y="0.000000" fill="rgb(255,255,255)" />
			</g>
		</g>
	</mask>
	<g id="clip path group" mask="url(#mask_8)">
		<g id="组合 31858">
			<g id="clip path group" mask="url(#mask_9)">
				<g id="组合 31860">
					<path id="矢量 3035" d="M4.15943e-05 9.99173C4.15943e-05 8.42923 -0.00829174 6.86673 4.15943e-05 5.30423C-0.00829174 4.54589 0.0875416 3.78756 0.275042 3.05839C0.687542 1.50839 1.69588 0.58756 3.24587 0.229227C4.02087 0.066727 4.81671 -0.0124396 5.60838 6.03745e-05C8.60421 6.03745e-05 11.6 6.03745e-05 14.6 6.03745e-05C15.3542 -0.00827296 16.1084 0.079227 16.8459 0.254227C18.4417 0.641727 19.4 1.65423 19.7625 3.24589C19.9292 3.99589 20.0042 4.76673 19.9959 5.53756C19.9959 8.56673 19.9959 11.5959 19.9959 14.6209C20 15.3709 19.9167 16.1167 19.7417 16.8459C19.3459 18.4459 18.3334 19.3959 16.7417 19.7626C15.9667 19.9292 15.175 20.0084 14.375 19.9959C11.3959 19.9959 8.40837 19.9959 5.42921 19.9959C4.66671 20.0042 3.90837 19.9167 3.16671 19.7417C1.56254 19.3542 0.595875 18.3376 0.237542 16.7334C0.0500416 15.9251 4.15943e-05 15.1126 4.15943e-05 14.2917C4.15943e-05 12.8584 4.15943e-05 11.4251 4.15943e-05 9.99173Z" fill="rgb(255,255,255)" fill-opacity="0" fill-rule="evenodd" />
					<circle id="椭圆 202" cx="10" cy="10" r="10" fill="rgb(255,255,255)" fill-opacity="0" />
				</g>
			</g>
			<g id="clip path group" mask="url(#mask_10)">
				<g id="组合 31862">
					<path id="矢量 3036" d="M13.8959 1.52075C13.8959 1.13742 13.5875 0.833252 13.2084 0.833252C12.8292 0.833252 12.5209 1.13742 12.5209 1.52075L12.5167 2.20825L10.6834 2.20825L10.6875 1.52075C10.6875 1.13742 10.3792 0.833252 10 0.833252C9.61671 0.833252 9.31254 1.13742 9.31254 1.52075L9.30837 2.20825L7.47504 2.20825L7.47504 1.52075C7.47504 1.13742 7.17087 0.833252 6.78754 0.833252C6.40837 0.833252 6.10004 1.13742 6.10004 1.52075L6.10004 2.20825L4.95421 2.20825C3.43754 2.20825 2.20421 3.43742 2.20421 4.95825L2.20421 6.11658L1.52087 6.11658C1.14171 6.11658 0.833374 6.42492 0.833374 6.80408C0.833374 7.18325 1.14171 7.49158 1.52087 7.49158L2.20421 7.49158L2.20421 9.32492L1.52087 9.32492C1.14171 9.32492 0.833374 9.63325 0.833374 10.0124C0.833374 10.3916 1.14171 10.6999 1.52087 10.6999L2.20421 10.6999L2.20421 12.5333L1.52087 12.5333C1.14171 12.5333 0.833374 12.8416 0.833374 13.2208C0.833374 13.5999 1.14171 13.9083 1.52087 13.9083L2.20421 13.9083L2.20421 15.0416C2.20421 16.5624 3.43754 17.7916 4.95421 17.7916L6.10004 17.7916L6.10004 18.4791C6.10004 18.8582 6.40837 19.1666 6.78754 19.1666C7.17087 19.1666 7.47504 18.8582 7.47504 18.4791L7.47504 17.7916L9.30837 17.7916L9.31254 18.4791C9.31254 18.8582 9.61671 19.1666 10 19.1666C10.3792 19.1666 10.6875 18.8582 10.6875 18.4791L10.6834 17.7916L12.5167 17.7916L12.5209 18.4791C12.5209 18.8582 12.8292 19.1666 13.2084 19.1666C13.5875 19.1666 13.8959 18.8582 13.8959 18.4791L13.8959 17.7916L15.0417 17.7916C16.5584 17.7916 17.7917 16.5624 17.7917 15.0416L17.7917 13.9083L18.4792 13.9083C18.8584 13.9083 19.1667 13.5999 19.1667 13.2208C19.1667 12.8416 18.8584 12.5333 18.4792 12.5333L17.7917 12.5333L17.7917 10.6999L18.4792 10.6999C18.8584 10.6999 19.1667 10.3916 19.1667 10.0124C19.1667 9.63325 18.8584 9.32492 18.4792 9.32492L17.7917 9.32492L17.7917 7.49158L18.4792 7.49158C18.8584 7.49158 19.1667 7.18325 19.1667 6.80408C19.1667 6.42492 18.8584 6.11658 18.4792 6.11658L17.7917 6.11658L17.7917 4.95825C17.7917 3.43742 16.5584 2.20825 15.0417 2.20825L13.8959 2.20825L13.8959 1.52075ZM4.95421 3.58325L15.0417 3.58325L15.1709 3.58742C15.8709 3.65409 16.4167 4.24159 16.4167 4.95825L16.4167 15.0416L16.4084 15.1749C16.3417 15.8708 15.7542 16.4166 15.0417 16.4166L13.1917 16.4166L6.77504 16.4166L4.95421 16.4166L4.82504 16.4124C4.12504 16.3457 3.57921 15.7583 3.57921 15.0416L3.57921 4.95825L3.58754 4.82492C3.65421 4.12492 4.24171 3.58325 4.95421 3.58325ZM10.0375 5.83742C10.0917 5.84992 10.1459 5.90825 10.2 6.00825C10.2973 6.43881 10.4431 6.84297 10.6375 7.22075C10.8709 7.66797 11.175 8.07908 11.55 8.45408C12.2417 9.14158 13.0584 9.59159 13.9959 9.79992C14.0667 9.82075 14.1125 9.85825 14.1417 9.91242C14.1556 9.93464 14.1639 9.95825 14.1667 9.98325C14.1695 10.0166 14.1611 10.0513 14.1417 10.0874C14.1125 10.1416 14.0667 10.1791 13.9959 10.1958C13.0375 10.3874 12.2167 10.8249 11.5417 11.5166C10.8584 12.2041 10.4125 13.0291 10.2 13.9916C10.1792 14.0583 10.1459 14.1041 10.1 14.1333C10.05 14.1666 9.99587 14.1749 9.92504 14.1541C9.86671 14.1249 9.81671 14.0708 9.78337 13.9916C9.60004 13.0499 9.16254 12.2333 8.46254 11.5374C7.76671 10.8333 6.93754 10.3874 5.97921 10.1958C5.92921 10.1958 5.88754 10.1666 5.85421 10.1041C5.82921 10.0499 5.82504 9.99158 5.84587 9.92492C5.87087 9.86242 5.91671 9.82075 5.97921 9.79992C6.93754 9.59159 7.76671 9.14158 8.46254 8.45408C9.16254 7.76242 9.60004 6.94992 9.78337 6.00825C9.80004 5.96242 9.82921 5.91658 9.87504 5.87492C9.92921 5.83742 9.98337 5.82075 10.0375 5.83742Z" fill="rgb(0,0,0)" fill-opacity="0.899999976" fill-rule="evenodd" />
					<path id="矢量 3037" d="M10.2 6.00835C10.1459 5.90835 10.0917 5.85001 10.0375 5.83751C9.98336 5.82085 9.92919 5.83751 9.87503 5.87502C9.82919 5.91668 9.80003 5.96251 9.78336 6.00835C9.60003 6.95002 9.16253 7.76251 8.46253 8.45418C7.76669 9.14168 6.93753 9.59168 5.97919 9.80002C5.91669 9.82085 5.87086 9.86251 5.84586 9.92501C5.82503 9.99168 5.82919 10.05 5.85419 10.1042C5.88753 10.1667 5.92919 10.1958 5.97919 10.1958C6.93753 10.3875 7.76669 10.8333 8.46253 11.5375C9.16253 12.2333 9.60003 13.05 9.78336 13.9917C9.81669 14.0708 9.86669 14.125 9.92502 14.1542C9.99586 14.175 10.05 14.1667 10.1 14.1333C10.1459 14.1042 10.1792 14.0583 10.2 13.9917C10.4125 13.0292 10.8584 12.2042 11.5417 11.5167C12.2167 10.825 13.0375 10.3875 13.9959 10.1958C14.0667 10.1792 14.1125 10.1417 14.1417 10.0875C14.175 10.025 14.175 9.96668 14.1417 9.91252C14.1125 9.85835 14.0667 9.82085 13.9959 9.80002C13.0584 9.59168 12.2417 9.14168 11.55 8.45418C10.8625 7.76251 10.4125 6.95002 10.2 6.00835Z" fill="rgb(0,0,0)" fill-opacity="0.899999976" fill-rule="nonzero" />
				</g>
			</g>
			<g id="clip path group" mask="url(#mask_11)">
				<g id="组合 31864">
					<path id="矢量 3038" d="M7.50004 17.4999L7.50004 18.3333C7.50004 18.7916 7.12504 19.1666 6.66671 19.1666C6.20421 19.1666 5.83337 18.7916 5.83337 18.3333L5.83337 17.4999L5.41671 17.4999C3.80421 17.4999 2.50004 16.1916 2.50004 14.5833L2.50004 14.1666L1.66671 14.1666C1.20421 14.1666 0.833374 13.7916 0.833374 13.3333C0.833374 12.8708 1.20421 12.4999 1.66671 12.4999L2.50004 12.4999L2.50004 10.8333L1.66671 10.8333C1.20421 10.8333 0.833374 10.4583 0.833374 9.99992C0.833374 9.53742 1.20421 9.16658 1.66671 9.16658L2.50004 9.16658L2.50004 7.49992L1.66671 7.49992C1.20421 7.49992 0.833374 7.12492 0.833374 6.66658C0.833374 6.20409 1.20421 5.83325 1.66671 5.83325L2.50004 5.83325L2.50004 5.41658C2.50004 3.80409 3.80421 2.49992 5.41671 2.49992L5.83337 2.49992L5.83337 1.66659C5.83337 1.20409 6.20421 0.833252 6.66671 0.833252C7.12504 0.833252 7.50004 1.20409 7.50004 1.66659L7.50004 2.49992L9.16671 2.49992L9.16671 1.66659C9.16671 1.20409 9.53754 0.833252 10 0.833252C10.4584 0.833252 10.8334 1.20409 10.8334 1.66659L10.8334 2.49992L12.5 2.49992L12.5 1.66659C12.5 1.20409 12.8709 0.833252 13.3334 0.833252C13.7917 0.833252 14.1667 1.20409 14.1667 1.66659L14.1667 2.49992L14.5834 2.49992C16.1917 2.49992 17.5 3.80409 17.5 5.41658L17.5 5.83325L18.3334 5.83325C18.7917 5.83325 19.1667 6.20409 19.1667 6.66658C19.1667 7.12492 18.7917 7.49992 18.3334 7.49992L17.5 7.49992L17.5 9.16658L18.3334 9.16658C18.7917 9.16658 19.1667 9.53742 19.1667 9.99992C19.1667 10.4583 18.7917 10.8333 18.3334 10.8333L17.5 10.8333L17.5 12.4999L18.3334 12.4999C18.7917 12.4999 19.1667 12.8708 19.1667 13.3333C19.1667 13.7916 18.7917 14.1666 18.3334 14.1666L17.5 14.1666L17.5 14.5833C17.5 16.1916 16.1917 17.4999 14.5834 17.4999L14.1667 17.4999L14.1667 18.3333C14.1667 18.7916 13.7917 19.1666 13.3334 19.1666C12.8709 19.1666 12.5 18.7916 12.5 18.3333L12.5 17.4999L10.8334 17.4999L10.8334 18.3333C10.8334 18.7916 10.4584 19.1666 10 19.1666C9.53754 19.1666 9.16671 18.7916 9.16671 18.3333L9.16671 17.4999L7.50004 17.4999ZM9.37921 6.19992C9.35004 6.24992 9.32087 6.35408 9.30421 6.40825C9.26254 6.59575 9.20837 6.77492 9.14171 6.95408C9.07921 7.11242 9.00837 7.26658 8.92504 7.41658C8.84171 7.57075 8.75004 7.71659 8.64587 7.85408C8.53337 8.00408 8.41254 8.14575 8.27921 8.27909C8.14587 8.41242 8.00421 8.53742 7.85421 8.64575C7.71671 8.74992 7.57087 8.84158 7.41671 8.92908C7.26671 9.00825 7.11254 9.08325 6.95421 9.14158C6.77504 9.20825 6.54171 9.27492 6.35421 9.31658C6.30004 9.33325 6.24587 9.35408 6.19587 9.37908C6.15004 9.40825 6.10837 9.43742 6.06671 9.47075C6.02921 9.50408 5.99171 9.54575 5.96254 9.58742C5.92087 9.64992 5.88754 9.71242 5.86671 9.77908C5.84171 9.84575 5.83337 9.92075 5.83337 9.99992C5.83337 10.0749 5.84171 10.1499 5.86671 10.2166C5.88754 10.2833 5.92087 10.3458 5.96254 10.4083C5.99171 10.4499 6.02921 10.4916 6.06671 10.5249C6.10837 10.5583 6.15004 10.5874 6.19587 10.6166C6.24587 10.6416 6.35421 10.6749 6.40837 10.6916C6.59587 10.7333 6.77504 10.7874 6.95421 10.8541C7.11254 10.9124 7.26671 10.9874 7.41671 11.0666C7.57087 11.1541 7.71671 11.2458 7.85421 11.3499C8.00421 11.4583 8.14587 11.5833 8.27921 11.7166C8.41254 11.8499 8.53337 11.9916 8.64587 12.1416C8.75004 12.2791 8.84171 12.4249 8.92504 12.5791C9.00837 12.7291 9.07921 12.8833 9.14171 13.0416C9.20837 13.2208 9.27504 13.4499 9.31671 13.6374C9.32921 13.6916 9.35004 13.7458 9.37921 13.7958C9.40421 13.8416 9.43337 13.8833 9.46671 13.9208C9.50004 13.9624 9.54171 13.9999 9.58337 14.0291C9.64587 14.0749 9.70837 14.1083 9.77504 14.1291C9.84587 14.1541 9.92087 14.1666 10 14.1666C10.075 14.1666 10.15 14.1541 10.2209 14.1291C10.2875 14.1083 10.35 14.0749 10.4125 14.0291C10.4542 13.9999 10.4959 13.9624 10.5292 13.9208C10.5625 13.8833 10.5917 13.8416 10.6167 13.7958C10.6459 13.7458 10.675 13.6416 10.6917 13.5874C10.7292 13.3999 10.7834 13.2208 10.8542 13.0458C10.9125 12.8833 10.9875 12.7291 11.0667 12.5791C11.1542 12.4249 11.2459 12.2791 11.35 12.1416C11.4584 11.9916 11.5834 11.8499 11.7167 11.7166C11.85 11.5833 11.9917 11.4583 12.1417 11.3499C12.2792 11.2458 12.425 11.1541 12.5792 11.0666C12.7292 10.9874 12.8834 10.9124 13.0459 10.8541C13.2209 10.7833 13.45 10.7208 13.6375 10.6791C13.6917 10.6666 13.7417 10.6458 13.7917 10.6166C13.8375 10.5958 13.8834 10.5624 13.9209 10.5291C13.9625 10.4958 13.9959 10.4583 14.0292 10.4124C14.075 10.3541 14.1084 10.2874 14.1292 10.2208C14.1542 10.1499 14.1667 10.0749 14.1667 9.99992C14.1667 9.92075 14.1542 9.84575 14.1292 9.77492C14.1084 9.70825 14.075 9.64158 14.0292 9.58325C13.9959 9.53742 13.9625 9.49992 13.9209 9.46658C13.8834 9.43325 13.8375 9.39992 13.7917 9.37908C13.7417 9.34992 13.6417 9.32075 13.5875 9.30408C13.4 9.26658 13.2209 9.21242 13.0459 9.14158C12.8834 9.08325 12.7292 9.00825 12.5792 8.92908C12.425 8.84158 12.2792 8.74992 12.1417 8.64575C11.9917 8.53742 11.85 8.41242 11.7167 8.27909C11.5834 8.14575 11.4584 8.00408 11.35 7.85408C11.2459 7.71659 11.1542 7.57075 11.0667 7.41658C10.9875 7.26658 10.9125 7.11242 10.8542 6.94992C10.7834 6.77492 10.7209 6.54575 10.6792 6.35825C10.6667 6.30408 10.6459 6.24992 10.6167 6.19992C10.5917 6.15409 10.5625 6.11242 10.5292 6.07492C10.4959 6.03325 10.4542 5.99575 10.4125 5.96658C10.35 5.92075 10.2875 5.88742 10.2209 5.86658C10.15 5.84159 10.075 5.83325 10 5.83325C9.92087 5.83325 9.84587 5.84159 9.77504 5.86658C9.70837 5.88742 9.64587 5.92075 9.58337 5.96658C9.54171 5.99575 9.50004 6.03325 9.46671 6.07492C9.43337 6.11242 9.40421 6.15409 9.37921 6.19992Z" fill="rgb(255,255,255)" fill-opacity="0" fill-rule="evenodd" />
					<path id="矢量 3039" d="M9.37921 6.19992C9.35004 6.24992 9.32087 6.35409 9.30421 6.40825C9.26254 6.59575 9.20837 6.77492 9.14171 6.95409C9.07921 7.11242 9.00837 7.26659 8.92504 7.41658C8.84171 7.57075 8.75004 7.71659 8.64587 7.85409C8.53337 8.00408 8.41254 8.14575 8.27921 8.27909C8.14587 8.41242 8.00421 8.53742 7.85421 8.64575C7.71671 8.74992 7.57087 8.84159 7.41671 8.92908C7.26671 9.00825 7.11254 9.08325 6.95421 9.14159C6.77504 9.20825 6.54171 9.27492 6.35421 9.31659C6.30004 9.33325 6.24587 9.35409 6.19587 9.37909C6.15004 9.40825 6.10837 9.43742 6.06671 9.47075C6.02921 9.50409 5.99171 9.54575 5.96254 9.58742C5.92087 9.64992 5.88754 9.71242 5.86671 9.77909C5.84171 9.84575 5.83337 9.92075 5.83337 9.99992C5.83337 10.0749 5.84171 10.1499 5.86671 10.2166C5.88754 10.2833 5.92087 10.3458 5.96254 10.4083C5.99171 10.4499 6.02921 10.4916 6.06671 10.5249C6.10837 10.5583 6.15004 10.5874 6.19587 10.6166C6.24587 10.6416 6.35421 10.6749 6.40837 10.6916C6.59587 10.7333 6.77504 10.7874 6.95421 10.8541C7.11254 10.9124 7.26671 10.9874 7.41671 11.0666C7.57087 11.1541 7.71671 11.2458 7.85421 11.3499C8.00421 11.4583 8.14587 11.5833 8.27921 11.7166C8.41254 11.8499 8.53337 11.9916 8.64587 12.1416C8.75004 12.2791 8.84171 12.4249 8.92504 12.5791C9.00837 12.7291 9.07921 12.8833 9.14171 13.0416C9.20837 13.2208 9.27504 13.4499 9.31671 13.6374C9.32921 13.6916 9.35004 13.7458 9.37921 13.7958C9.40421 13.8416 9.43337 13.8833 9.46671 13.9208C9.50004 13.9624 9.54171 13.9999 9.58337 14.0291C9.64587 14.0749 9.70837 14.1083 9.77504 14.1291C9.84587 14.1541 9.92087 14.1666 10 14.1666C10.075 14.1666 10.15 14.1541 10.2209 14.1291C10.2875 14.1083 10.35 14.0749 10.4125 14.0291C10.4542 13.9999 10.4959 13.9624 10.5292 13.9208C10.5625 13.8833 10.5917 13.8416 10.6167 13.7958C10.6459 13.7458 10.675 13.6416 10.6917 13.5874C10.7292 13.3999 10.7834 13.2208 10.8542 13.0458C10.9125 12.8833 10.9875 12.7291 11.0667 12.5791C11.1542 12.4249 11.2459 12.2791 11.35 12.1416C11.4584 11.9916 11.5834 11.8499 11.7167 11.7166C11.85 11.5833 11.9917 11.4583 12.1417 11.3499C12.2792 11.2458 12.425 11.1541 12.5792 11.0666C12.7292 10.9874 12.8834 10.9124 13.0459 10.8541C13.2209 10.7833 13.45 10.7208 13.6375 10.6791C13.6917 10.6666 13.7417 10.6458 13.7917 10.6166C13.8375 10.5958 13.8834 10.5624 13.9209 10.5291C13.9625 10.4958 13.9959 10.4583 14.0292 10.4124C14.075 10.3541 14.1084 10.2874 14.1292 10.2208C14.1542 10.1499 14.1667 10.0749 14.1667 9.99992C14.1667 9.92075 14.1542 9.84575 14.1292 9.77492C14.1084 9.70825 14.075 9.64159 14.0292 9.58325C13.9959 9.53742 13.9625 9.49992 13.9209 9.46659C13.8834 9.43325 13.8375 9.39992 13.7917 9.37909C13.7417 9.34992 13.6417 9.32075 13.5875 9.30408C13.4 9.26659 13.2209 9.21242 13.0459 9.14159C12.8834 9.08325 12.7292 9.00825 12.5792 8.92908C12.425 8.84159 12.2792 8.74992 12.1417 8.64575C11.9917 8.53742 11.85 8.41242 11.7167 8.27909C11.5834 8.14575 11.4584 8.00408 11.35 7.85409C11.2459 7.71659 11.1542 7.57075 11.0667 7.41658C10.9875 7.26659 10.9125 7.11242 10.8542 6.94992C10.7834 6.77492 10.7209 6.54575 10.6792 6.35825C10.6667 6.30409 10.6459 6.24992 10.6167 6.19992C10.5917 6.15409 10.5625 6.11242 10.5292 6.07492C10.4959 6.03325 10.4542 5.99575 10.4125 5.96659C10.35 5.92075 10.2875 5.88742 10.2209 5.86659C10.15 5.84159 10.075 5.83325 10 5.83325C9.92087 5.83325 9.84587 5.84159 9.77504 5.86659C9.70837 5.88742 9.64587 5.92075 9.58337 5.96659C9.54171 5.99575 9.50004 6.03325 9.46671 6.07492C9.43337 6.11242 9.40421 6.15409 9.37921 6.19992Z" fill="rgb(255,255,255)" fill-opacity="0" fill-rule="evenodd" />
				</g>
			</g>
		</g>
	</g>
</svg>
