<svg viewBox="0 0 20 20" xmlns="http://www.w3.org/2000/svg" xmlns:xlink="http://www.w3.org/1999/xlink" width="20.000000" height="20.000000" fill="none">
	<rect id="ic_huawei_cloud_update" width="20.000000" height="20.000000" x="0.000000" y="0.000000" />
	<path id="path1" d="M2.07971e-05 9.99172C2.07971e-05 8.42922 -0.00414587 6.86672 2.07971e-05 5.30423C-0.00414587 4.54589 0.0916875 3.79173 0.275021 3.06256C0.687521 1.51256 1.69585 0.591726 3.24585 0.233392C4.02085 0.0667257 4.81669 -0.0124409 5.60835 5.90582e-05C8.60419 5.90582e-05 11.6 5.90582e-05 14.6 5.90582e-05C15.3542 -0.00410761 16.1084 0.0792257 16.8459 0.258392C18.4417 0.645892 19.4 1.65839 19.7625 3.25006C19.9292 4.00006 20.0042 4.76673 19.9959 5.53756C19.9959 8.56672 19.9959 11.5959 19.9959 14.6209C20 15.3709 19.9167 16.1209 19.7417 16.8501C19.35 18.4459 18.3334 19.3959 16.7459 19.7626C15.9667 19.9292 15.175 20.0084 14.3792 19.9959C11.3959 19.9959 8.41252 19.9959 5.42919 19.9959C4.66669 20.0042 3.90835 19.9167 3.16669 19.7417C1.56252 19.3542 0.600021 18.3376 0.237521 16.7376C0.0500208 15.9251 2.07971e-05 15.1126 2.07971e-05 14.2917C2.07971e-05 12.8584 2.07971e-05 11.4251 2.07971e-05 9.99172Z" fill="rgb(255,255,255)" fill-opacity="0" fill-rule="evenodd" />
	<circle id="path2" cx="10" cy="10" r="10" fill="rgb(255,255,255)" fill-opacity="0" />
	<path id="path3" d="M18.5417 3.95825L18.5417 16.0416C18.5417 17.4208 17.4209 18.5416 16.0417 18.5416L3.95837 18.5416C2.57504 18.5416 1.45837 17.4208 1.45837 16.0416L1.45837 3.95825C1.45837 2.57492 2.57504 1.45825 3.95837 1.45825L16.0417 1.45825C17.4209 1.45825 18.5417 2.57492 18.5417 3.95825Z" fill-rule="nonzero" stroke="rgb(0,0,0)" stroke-opacity="0.899999976" stroke-width="1.500000" />
	<path id="path3" d="M13.6458 15.1001L6.35413 15.1001" stroke="rgb(0,0,0)" stroke-opacity="0.899999976" stroke-linecap="round" stroke-linejoin="round" stroke-width="1.500000" />
	<path id="path4" d="M6.73334 8.15827L9.99584 4.8916L13.2625 8.15827M9.99584 4.8916L10 12.6708" fill-rule="nonzero" stroke="rgb(0,0,0)" stroke-opacity="0.899999976" stroke-linecap="round" stroke-linejoin="round" stroke-width="1.500000" />
	<path id="减去顶层" d="M16.0417 0.833496L3.95837 0.833496C2.2325 0.833496 0.833374 2.23263 0.833374 3.9585L0.833374 16.0418C0.833374 17.7677 2.2325 19.1668 3.95837 19.1668L16.0417 19.1668C17.7676 19.1668 19.1667 17.7677 19.1667 16.0418L19.1667 3.9585C19.1667 2.23263 17.7676 0.833496 16.0417 0.833496ZM6.29217 7.71921L9.55754 4.45375C9.70483 4.30646 9.85212 4.23279 9.99942 4.23279C10.1467 4.23279 10.294 4.30646 10.4413 4.45375L13.7069 7.71921C13.9543 7.96671 13.9543 8.35563 13.7069 8.60312C13.4593 8.85058 13.0705 8.85058 12.8229 8.60312L10.6246 6.40467L10.625 12.6734C10.625 13.0234 10.3502 13.2985 10 13.2985C9.65012 13.2985 9.37504 13.0235 9.37504 12.6735L9.37462 6.40446L7.17596 8.60312C6.92854 8.85058 6.53954 8.85058 6.29217 8.60312C6.04454 8.35563 6.04454 7.96671 6.29217 7.71921ZM13.6459 15.729L6.35421 15.729C6.00429 15.729 5.72921 15.454 5.72921 15.104C5.72921 14.754 6.00429 14.479 6.35421 14.479L13.6459 14.479C13.9958 14.479 14.2709 14.754 14.2709 15.104C14.2709 15.454 13.9958 15.729 13.6459 15.729Z" fill="rgb(0,0,0)" fill-opacity="0" fill-rule="evenodd" />
</svg>
